<?xml version="1.0" standalone="no"?>
<!DOCTYPE svg PUBLIC "-//W3C//DTD SVG 20010904//EN"
 "http://www.w3.org/TR/2001/REC-SVG-20010904/DTD/svg10.dtd">
<svg version="1.0" xmlns="http://www.w3.org/2000/svg"
 width="784.000000pt" height="784.000000pt" viewBox="0 0 784.000000 784.000000"
 preserveAspectRatio="xMidYMid meet">
<metadata>
Created by potrace 1.11, written by Peter Selinger 2001-2013
</metadata>
<g transform="translate(0.000000,784.000000) scale(0.100000,-0.100000)"
fill="#000000" stroke="none">
<path d="M3788 6505 c-2 -3 -25 -7 -49 -9 -143 -14 -295 -47 -443 -97 -92 -31
-106 -36 -236 -96 -405 -187 -781 -557 -975 -960 l-40 -83 -80 -1 c-44 0 -114
-3 -155 -6 -41 -4 -87 -7 -102 -7 -16 -1 -28 -3 -28 -6 0 -3 -16 -6 -37 -8
-20 -1 -61 -9 -92 -17 -31 -8 -67 -16 -81 -19 -14 -2 -38 -9 -55 -16 -16 -6
-31 -11 -32 -11 -17 3 -251 -93 -333 -136 -235 -124 -470 -318 -620 -513 -19
-25 -38 -47 -41 -50 -23 -18 -141 -215 -189 -315 -66 -136 -98 -222 -134 -357
-49 -186 -61 -285 -61 -503 1 -176 5 -226 29 -355 2 -8 6 -33 10 -55 4 -22 11
-51 16 -65 4 -14 18 -59 30 -100 12 -41 28 -88 35 -105 7 -16 21 -50 31 -75
48 -122 162 -315 267 -450 63 -81 266 -285 330 -330 26 -18 47 -37 47 -42 0
-4 5 -8 10 -8 6 0 47 -25 93 -56 96 -65 309 -171 417 -207 125 -42 178 -57
198 -57 10 0 22 -3 26 -7 7 -7 10 -8 86 -17 25 -3 56 -8 70 -11 129 -25 469
-25 603 1 12 2 39 6 60 9 22 4 49 10 62 15 13 5 25 7 28 4 2 -2 17 0 33 7 16
6 36 12 44 14 70 14 300 107 339 137 13 10 29 18 36 18 6 0 62 34 124 75 109
72 125 84 221 163 49 40 300 289 340 337 14 17 45 55 70 85 25 30 47 57 50 60
10 8 152 199 205 275 27 39 52 72 55 75 3 3 23 33 45 67 22 35 43 63 48 63 4
0 7 5 7 11 0 6 13 28 30 49 16 21 30 40 30 43 0 3 27 45 60 93 33 49 64 96 70
104 132 201 388 561 446 626 10 12 44 52 74 89 137 168 351 361 505 455 71 43
198 110 219 115 6 1 18 5 26 8 98 37 201 63 298 75 107 13 342 6 432 -12 253
-51 479 -169 653 -340 82 -80 197 -223 197 -244 0 -5 4 -12 9 -14 14 -5 86
-156 115 -241 62 -179 86 -406 64 -592 -32 -261 -160 -527 -355 -735 -55 -59
-244 -210 -263 -210 -5 0 -15 -6 -22 -12 -36 -34 -252 -122 -352 -142 -11 -3
-31 -7 -43 -10 -73 -16 -224 -19 -898 -21 -686 -1 -755 -3 -810 -19 -180 -53
-277 -186 -330 -449 -3 -10 -7 -27 -10 -38 -6 -19 8 -19 967 -19 961 1 1014 3
1178 33 50 10 195 48 215 57 11 5 63 25 115 46 101 39 219 99 287 146 23 15
46 28 51 28 6 0 12 3 14 7 2 5 35 32 73 61 109 83 209 177 290 273 77 92 175
231 175 248 0 5 4 11 9 13 12 4 104 199 134 283 28 80 63 204 72 254 3 19 7
37 9 40 11 18 21 168 21 321 0 153 -5 237 -20 306 -28 137 -42 192 -76 290
-173 503 -555 904 -1045 1098 -86 34 -240 78 -315 91 -19 3 -59 10 -89 15 -50
9 -234 23 -270 21 -8 0 -31 -1 -50 0 -50 1 -49 1 -120 -6 -298 -27 -548 -107
-807 -259 -52 -31 -205 -137 -223 -156 -3 -3 -32 -27 -65 -55 -159 -131 -353
-345 -532 -584 -56 -75 -109 -144 -117 -153 -9 -10 -16 -22 -16 -28 0 -5 -4
-10 -10 -10 -5 0 -10 -6 -10 -14 0 -8 -3 -16 -7 -18 -9 -4 -19 -18 -267 -388
-105 -157 -193 -287 -196 -290 -3 -3 -20 -27 -39 -55 -39 -57 -193 -267 -201
-275 -3 -3 -21 -25 -40 -50 -19 -25 -37 -47 -40 -50 -3 -3 -32 -36 -65 -74
-293 -339 -607 -543 -942 -610 -188 -38 -444 -34 -618 10 -421 106 -759 369
-959 746 -39 73 -100 219 -111 268 -42 172 -49 230 -48 385 0 135 6 206 24
284 6 25 13 57 15 71 3 14 18 63 34 110 173 520 628 885 1203 966 23 3 125 7
227 8 115 2 196 7 215 15 124 49 188 107 240 219 140 295 208 397 379 567 99
99 203 178 321 247 70 40 232 111 296 129 24 7 49 14 54 15 57 17 195 44 255
51 131 14 362 8 455 -11 159 -33 273 -70 392 -126 92 -44 252 -141 285 -173 7
-7 23 -20 36 -29 50 -34 174 -161 255 -259 91 -111 122 -139 191 -169 44 -18
123 -35 161 -33 35 1 140 15 146 19 6 4 76 12 159 19 19 1 34 8 33 14 -5 20
-99 205 -126 248 -15 24 -27 45 -27 48 0 3 -5 11 -10 18 -6 7 -39 53 -74 102
-93 132 -227 273 -376 397 -49 41 -213 155 -266 184 -29 17 -193 99 -234 118
-71 32 -269 96 -345 112 -11 2 -31 6 -45 9 -31 7 -53 11 -108 20 -23 4 -54 9
-70 11 -38 7 -428 15 -434 9z"/>
<path d="M3951 5912 c-11 -21 3 -52 24 -52 22 0 44 28 38 50 -7 25 -49 27 -62
2z"/>
<path d="M4122 5764 c-29 -20 -28 -52 2 -65 53 -25 89 35 41 67 -18 12 -24 11
-43 -2z"/>
<path d="M3448 5760 c-20 -12 -17 -40 5 -54 12 -8 22 -8 35 0 21 14 22 35 2
51 -18 15 -20 15 -42 3z"/>
<path d="M3787 5756 c-23 -23 -15 -50 16 -54 31 -4 46 21 30 46 -14 23 -29 25
-46 8z"/>
<path d="M4457 5752 c-20 -22 -5 -52 27 -52 27 0 39 27 24 54 -12 21 -31 20
-51 -2z"/>
<path d="M3275 5600 c-24 -39 4 -84 46 -73 24 7 36 48 19 68 -14 17 -56 20
-65 5z"/>
<path d="M3611 5596 c-19 -22 -3 -63 25 -69 34 -6 61 32 44 62 -12 24 -52 28
-69 7z"/>
<path d="M3953 5603 c-7 -2 -13 -18 -13 -33 0 -35 30 -56 59 -41 54 29 11 98
-46 74z"/>
<path d="M4292 5602 c-43 -28 2 -96 47 -72 23 12 26 31 11 61 -11 20 -36 25
-58 11z"/>
<path d="M4633 5594 c-17 -8 -16 -39 1 -53 22 -18 58 4 54 32 -3 22 -29 31
-55 21z"/>
<path d="M3118 5443 c-25 -6 -34 -51 -15 -70 19 -19 62 -11 71 13 6 17 -18 65
-32 63 -4 -1 -15 -3 -24 -6z"/>
<path d="M3448 5439 c-21 -12 -24 -49 -6 -67 17 -17 55 -15 62 4 11 29 6 53
-13 64 -23 12 -22 12 -43 -1z"/>
<path d="M3780 5430 c-25 -25 -25 -32 -1 -54 26 -23 59 -13 67 21 5 19 2 30
-11 40 -25 17 -31 17 -55 -7z"/>
<path d="M4115 5430 c-22 -24 -11 -58 21 -66 41 -11 70 40 38 67 -24 20 -41
19 -59 -1z"/>
<path d="M4457 5435 c-32 -23 -15 -75 24 -75 10 0 25 10 33 22 28 39 -18 82
-57 53z"/>
<path d="M4796 5424 c-19 -19 -20 -26 -4 -42 18 -18 46 -14 58 7 7 15 6 23 -6
35 -19 20 -29 20 -48 0z"/>
<path d="M2941 5269 c-36 -33 0 -87 45 -67 33 15 33 61 0 76 -19 9 -28 7 -45
-9z"/>
<path d="M3275 5266 c-28 -43 13 -89 53 -60 36 25 27 60 -20 77 -12 4 -23 -1
-33 -17z"/>
<path d="M3624 5280 c-30 -12 -36 -44 -12 -69 23 -25 41 -27 62 -5 21 21 20
47 -2 67 -21 19 -19 19 -48 7z"/>
<path d="M3949 5269 c-24 -24 -24 -34 1 -59 24 -24 30 -24 55 -6 24 17 29 51
9 67 -24 20 -44 19 -65 -2z"/>
<path d="M4304 5282 c-45 -33 -36 -82 16 -82 23 0 31 5 36 24 3 14 3 30 -1 35
-10 17 -40 30 -51 23z"/>
<path d="M4624 5264 c-19 -27 -14 -48 15 -63 15 -8 24 -7 42 8 20 16 22 22 12
43 -16 36 -50 42 -69 12z"/>
<path d="M4978 5273 c-20 -5 -24 -43 -7 -60 11 -11 48 -6 50 6 0 3 2 14 4 24
4 20 -21 35 -47 30z"/>
<path d="M3769 5107 c-11 -12 -17 -27 -14 -35 3 -7 5 -18 5 -23 0 -5 12 -14
26 -20 41 -15 78 13 70 54 -8 37 -9 39 -41 43 -16 1 -33 -6 -46 -19z"/>
<path d="M3108 5109 c-27 -15 -22 -53 8 -70 24 -12 28 -12 45 10 23 28 23 35
3 55 -18 18 -32 20 -56 5z"/>
<path d="M3435 5104 c-25 -25 -3 -73 33 -74 30 0 50 20 47 46 -4 43 -49 59
-80 28z"/>
<path d="M4112 5108 c-7 -7 -12 -21 -12 -33 0 -12 5 -26 12 -33 7 -7 21 -12
33 -12 12 0 26 5 33 12 7 7 12 21 12 33 0 12 -5 26 -12 33 -7 7 -21 12 -33 12
-12 0 -26 -5 -33 -12z"/>
<path d="M4458 5109 c-27 -15 -23 -57 7 -71 20 -9 28 -8 44 6 21 19 22 36 2
60 -15 18 -29 20 -53 5z"/>
<path d="M4785 5096 c-13 -17 -13 -23 -1 -41 23 -35 76 -22 76 19 0 44 -50 59
-75 22z"/>
<path d="M2769 5094 c-16 -20 -1 -48 29 -52 16 -3 23 3 28 23 10 41 -30 61
-57 29z"/>
<path d="M5129 5094 c-9 -11 -10 -20 -2 -32 23 -37 70 -20 59 22 -7 30 -36 35
-57 10z"/>
<path d="M3630 4962 c-38 -12 -51 -59 -24 -86 43 -44 113 9 81 61 -12 19 -40
31 -57 25z"/>
<path d="M3959 4957 c-18 -10 -24 -20 -24 -47 0 -29 5 -36 28 -44 35 -13 58 0
68 37 5 18 2 30 -10 40 -28 24 -36 26 -62 14z"/>
<path d="M2954 4950 c-44 -17 -31 -80 16 -80 26 0 52 38 40 60 -12 23 -30 29
-56 20z"/>
<path d="M3279 4941 c-21 -16 -22 -22 -11 -45 8 -17 19 -26 36 -26 47 0 61 50
20 77 -19 12 -24 11 -45 -6z"/>
<path d="M4292 4946 c-37 -47 -4 -92 52 -70 17 6 21 41 8 60 -11 17 -50 23
-60 10z"/>
<path d="M4629 4941 c-21 -16 -22 -22 -11 -45 15 -33 56 -36 72 -5 14 25 8 44
-19 58 -15 8 -24 7 -42 -8z"/>
<path d="M2605 4928 c-15 -22 -14 -24 6 -41 22 -17 23 -17 42 1 16 16 17 23 8
41 -15 27 -36 27 -56 -1z"/>
<path d="M4961 4937 c-15 -15 -14 -42 3 -56 21 -18 65 21 50 45 -12 21 -38 26
-53 11z"/>
<path d="M5308 4943 c-12 -3 -18 -14 -18 -34 0 -25 4 -29 29 -29 34 0 48 32
24 55 -8 8 -15 14 -16 14 -1 -1 -10 -3 -19 -6z"/>
<path d="M3439 4779 c-23 -23 -23 -28 -3 -57 18 -27 45 -28 67 -4 40 44 -21
104 -64 61z"/>
<path d="M3765 4776 c-17 -26 -11 -50 18 -75 22 -17 65 3 73 34 14 56 -60 88
-91 41z"/>
<path d="M4133 4792 c-26 -4 -42 -46 -26 -71 12 -18 51 -22 71 -8 33 25 -2 86
-45 79z"/>
<path d="M2763 4778 c-16 -27 -12 -48 12 -64 24 -16 27 -15 45 1 23 20 26 45
8 63 -16 16 -55 15 -65 0z"/>
<path d="M3102 4778 c-24 -24 -10 -66 26 -73 39 -7 67 56 33 75 -26 13 -44 13
-59 -2z"/>
<path d="M4458 4783 c-33 -8 -12 -83 23 -83 19 0 49 40 42 57 -11 30 -26 36
-65 26z"/>
<path d="M2431 4766 c-18 -22 3 -57 31 -53 25 4 40 36 26 55 -14 16 -43 15
-57 -2z"/>
<path d="M4791 4761 c-8 -15 -7 -23 5 -35 26 -27 58 -12 52 25 -4 31 -42 38
-57 10z"/>
<path d="M2608 4619 c-21 -12 -24 -49 -6 -67 17 -17 43 -15 59 4 20 25 19 43
-4 59 -25 17 -26 18 -49 4z"/>
<path d="M2939 4609 c-18 -18 -19 -23 -6 -42 8 -12 22 -23 31 -25 42 -9 64 58
27 78 -26 13 -28 13 -52 -11z"/>
<path d="M3281 4613 c-27 -23 -18 -61 15 -69 46 -12 72 37 38 70 -20 20 -27
20 -53 -1z"/>
<path d="M3606 4608 c-16 -22 -10 -44 16 -66 20 -16 62 8 66 38 7 46 -55 67
-82 28z"/>
<path d="M3946 4611 c-22 -24 -14 -54 17 -68 43 -20 79 27 54 68 -15 24 -49
24 -71 0z"/>
<path d="M4299 4623 c-25 -6 -30 -40 -9 -65 15 -20 21 -21 44 -10 32 14 36 56
7 72 -11 5 -21 9 -23 9 -2 -1 -10 -3 -19 -6z"/>
<path d="M1591 4597 c-10 -26 3 -47 30 -47 28 0 48 43 26 57 -26 16 -48 12
-56 -10z"/>
<path d="M1930 4599 c-9 -15 -8 -24 1 -35 18 -22 53 -13 57 15 6 40 -39 56
-58 20z"/>
<path d="M2270 4605 c-19 -23 -8 -50 22 -53 19 -2 28 2 33 18 12 39 -29 66
-55 35z"/>
<path d="M4630 4605 c-18 -21 -3 -55 25 -55 15 0 26 7 30 20 7 23 -10 50 -30
50 -7 0 -18 -7 -25 -15z"/>
<path d="M1761 4454 c-35 -25 -25 -60 21 -77 26 -9 53 35 39 61 -15 28 -35 33
-60 16z"/>
<path d="M2443 4458 c-27 -13 -35 -41 -17 -67 12 -17 19 -18 44 -9 34 11 41
46 14 72 -8 9 -16 16 -17 15 -1 0 -12 -5 -24 -11z"/>
<path d="M2783 4460 c-13 -5 -24 -14 -24 -20 -5 -35 -2 -44 16 -56 18 -12 24
-11 43 2 27 18 28 35 5 62 -14 16 -23 18 -40 12z"/>
<path d="M3781 4449 c-24 -23 -24 -24 -11 -50 16 -29 68 -26 76 5 12 47 -31
77 -65 45z"/>
<path d="M1410 4440 c-22 -42 33 -85 64 -51 9 10 16 24 16 32 0 39 -61 54 -80
19z"/>
<path d="M2085 4440 c-15 -48 25 -81 64 -54 21 15 21 52 -1 66 -24 15 -56 9
-63 -12z"/>
<path d="M3102 4448 c-16 -16 -15 -38 4 -59 31 -34 80 4 63 49 -9 24 -47 30
-67 10z"/>
<path d="M3434 4446 c-18 -46 29 -92 61 -60 20 20 19 60 -1 68 -27 10 -54 7
-60 -8z"/>
<path d="M4108 4435 c-13 -29 1 -51 36 -57 28 -4 55 44 37 66 -21 25 -60 20
-73 -9z"/>
<path d="M4457 4443 c-12 -11 -8 -40 7 -52 26 -22 63 10 50 44 -6 15 -45 21
-57 8z"/>
<path d="M1256 4284 c-9 -8 -16 -22 -16 -29 0 -17 27 -45 44 -45 15 0 45 30
45 45 0 15 -30 45 -45 45 -7 0 -20 -7 -28 -16z"/>
<path d="M1592 4288 c-16 -16 -15 -53 3 -68 18 -15 52 -5 65 19 18 36 -40 77
-68 49z"/>
<path d="M1927 4282 c-33 -37 10 -85 55 -61 20 11 23 31 8 60 -13 24 -42 25
-63 1z"/>
<path d="M2261 4276 c-11 -19 -10 -27 0 -45 23 -36 69 -22 74 23 5 46 -53 63
-74 22z"/>
<path d="M2608 4289 c-27 -15 -23 -57 7 -71 20 -9 28 -8 44 6 21 19 22 36 2
60 -15 18 -29 20 -53 5z"/>
<path d="M2936 4278 c-24 -34 5 -75 44 -63 34 11 44 41 20 65 -26 26 -45 25
-64 -2z"/>
<path d="M3273 4281 c-26 -42 15 -85 56 -59 30 18 27 56 -5 68 -34 13 -37 13
-51 -9z"/>
<path d="M3616 4284 c-9 -8 -16 -22 -16 -29 0 -17 27 -45 44 -45 7 0 20 8 28
18 38 43 -16 97 -56 56z"/>
<path d="M3952 4288 c-27 -27 -6 -80 30 -74 44 6 55 45 20 74 -20 15 -35 15
-50 0z"/>
<path d="M4286 4278 c-13 -19 -14 -25 -2 -43 20 -30 58 -26 70 7 18 51 -37 80
-68 36z"/>
<path d="M5722 4273 c-16 -30 3 -63 35 -63 38 0 57 30 37 59 -18 25 -60 28
-72 4z"/>
<path d="M6063 4278 c-15 -26 -12 -47 9 -62 18 -13 25 -14 42 -3 23 15 29 46
14 64 -13 17 -54 17 -65 1z"/>
<path d="M1100 4133 c-45 -10 -41 -83 4 -83 32 0 59 36 46 60 -11 20 -28 28
-50 23z"/>
<path d="M1423 4125 c-34 -24 -19 -75 21 -75 47 0 60 50 21 76 -18 12 -24 11
-42 -1z"/>
<path d="M1770 4127 c-45 -23 -34 -77 16 -77 16 0 28 8 36 25 10 22 9 29 -8
45 -16 17 -22 18 -44 7z"/>
<path d="M2113 4132 c-30 -5 -42 -48 -20 -69 20 -20 63 -10 70 17 7 27 -22 57
-50 52z"/>
<path d="M2444 4130 c-26 -10 -34 -28 -23 -57 17 -47 88 -18 75 31 -7 28 -23
36 -52 26z"/>
<path d="M2771 4121 c-34 -34 -21 -71 25 -71 46 0 58 50 17 77 -19 13 -24 12
-42 -6z"/>
<path d="M3118 4133 c-23 -6 -34 -49 -18 -68 27 -33 78 -10 76 34 -1 18 -37
39 -58 34z"/>
<path d="M3446 4128 c-16 -9 -21 -34 -10 -62 8 -21 47 -20 66 2 31 34 -14 83
-56 60z"/>
<path d="M3787 4126 c-34 -27 -23 -76 17 -76 31 0 50 24 42 54 -7 27 -38 39
-59 22z"/>
<path d="M4120 4115 c-19 -23 -8 -50 22 -53 34 -4 50 34 22 55 -23 17 -29 16
-44 -2z"/>
<path d="M5566 4114 c-27 -26 -18 -56 20 -68 14 -4 28 -1 38 9 19 20 20 34 2
58 -16 21 -40 22 -60 1z"/>
<path d="M5902 4118 c-19 -19 -14 -56 9 -68 26 -15 47 -7 58 22 16 41 -37 76
-67 46z"/>
<path d="M6236 4108 c-15 -21 -9 -49 13 -63 19 -11 61 14 61 38 0 47 -47 63
-74 25z"/>
<path d="M5232 4108 c-12 -16 2 -58 20 -58 18 0 33 12 40 31 12 32 -38 54 -60
27z"/>
<path d="M6583 4113 c-22 -8 -15 -51 8 -58 23 -8 41 5 45 32 4 26 -22 39 -53
26z"/>
<path d="M1252 3958 c-17 -17 -15 -43 4 -59 33 -27 60 -15 69 30 6 33 -47 55
-73 29z"/>
<path d="M1586 3954 c-18 -46 14 -85 53 -65 27 15 32 35 15 60 -18 25 -59 28
-68 5z"/>
<path d="M1922 3945 c-10 -21 -9 -28 8 -45 11 -11 24 -20 29 -20 16 0 41 30
41 49 0 44 -60 57 -78 16z"/>
<path d="M2260 3951 c-16 -31 -12 -47 14 -59 20 -9 29 -8 48 7 20 16 21 22 10
45 -14 32 -56 36 -72 7z"/>
<path d="M2602 3958 c-22 -22 -14 -58 15 -69 24 -9 30 -7 45 11 34 42 -22 96
-60 58z"/>
<path d="M2938 3953 c-31 -35 14 -84 56 -61 9 5 16 19 16 31 0 45 -43 62 -72
30z"/>
<path d="M3278 3957 c-31 -24 -4 -79 34 -72 36 7 50 49 26 73 -15 15 -38 15
-60 -1z"/>
<path d="M3612 3958 c-18 -18 -15 -55 6 -63 32 -15 42 -13 57 8 19 27 19 32
-1 51 -18 19 -45 21 -62 4z"/>
<path d="M3961 3949 c-17 -16 -19 -24 -11 -39 13 -24 33 -25 54 -4 12 11 13
20 6 34 -16 29 -25 31 -49 9z"/>
<path d="M5395 3953 c-29 -28 -12 -73 28 -73 25 0 44 21 41 44 -6 39 -44 55
-69 29z"/>
<path d="M5739 3956 c-37 -18 -25 -76 16 -76 30 0 49 24 41 54 -7 30 -26 38
-57 22z"/>
<path d="M6078 3962 c-10 -2 -18 -7 -18 -12 0 -5 -3 -15 -6 -23 -7 -18 21 -47
46 -47 24 0 41 30 34 57 -6 22 -27 32 -56 25z"/>
<path d="M6413 3959 c-27 -10 -31 -50 -8 -69 21 -18 65 -4 65 20 0 11 1 23 3
26 5 15 -39 32 -60 23z"/>
<path d="M914 3938 c-7 -22 19 -52 40 -45 17 6 29 34 23 51 -10 24 -54 21 -63
-6z"/>
<path d="M5064 3946 c-11 -9 -14 -19 -10 -34 12 -36 66 -25 66 13 0 27 -31 39
-56 21z"/>
<path d="M6743 3948 c-22 -29 7 -68 41 -55 17 7 23 57 7 57 -5 0 -16 2 -24 5
-7 3 -18 0 -24 -7z"/>
<path d="M1087 3796 c-24 -19 -27 -43 -8 -60 23 -21 44 -20 63 2 31 34 -19 88
-55 58z"/>
<path d="M1431 3797 c-31 -15 -35 -41 -10 -63 16 -14 24 -15 44 -6 27 12 31
32 15 63 -12 22 -17 23 -49 6z"/>
<path d="M1753 3798 c-23 -30 -22 -47 4 -68 23 -18 29 -19 47 -7 25 17 32 52
16 73 -15 17 -54 18 -67 2z"/>
<path d="M2088 3793 c-16 -20 -17 -31 -3 -54 17 -27 53 -30 70 -6 19 27 19 42
-1 61 -20 21 -47 20 -66 -1z"/>
<path d="M2426 3794 c-19 -19 -20 -35 -3 -56 21 -27 45 -29 67 -6 25 27 25 40
2 61 -23 21 -46 22 -66 1z"/>
<path d="M2766 3788 c-20 -28 -20 -33 0 -52 23 -24 53 -20 66 9 9 21 8 28 -7
45 -23 26 -40 25 -59 -2z"/>
<path d="M3113 3798 c-25 -12 -31 -46 -11 -66 19 -19 52 -14 66 9 11 17 11 25
-3 45 -17 27 -20 27 -52 12z"/>
<path d="M3441 3797 c-20 -20 -12 -57 14 -69 22 -10 29 -9 45 8 17 16 18 22 7
44 -13 26 -48 35 -66 17z"/>
<path d="M3788 3803 c-35 -9 -28 -70 8 -79 30 -8 54 11 54 42 0 19 -28 48 -42
43 -2 -1 -11 -3 -20 -6z"/>
<path d="M5567 3792 c-23 -25 -21 -59 3 -72 28 -15 55 -5 68 25 10 21 8 27
-15 45 -32 25 -36 25 -56 2z"/>
<path d="M758 3793 c-20 -5 -25 -48 -7 -58 5 -4 20 -4 33 -1 24 6 30 32 13 54
-10 12 -11 13 -39 5z"/>
<path d="M5233 3793 c-19 -7 -16 -60 4 -71 24 -14 63 6 63 33 0 36 -30 54 -67
38z"/>
<path d="M5896 3784 c-12 -31 -6 -51 19 -62 21 -10 28 -9 45 8 20 20 18 47 -4
62 -19 13 -54 9 -60 -8z"/>
<path d="M6232 3780 c-9 -15 -9 -26 -2 -39 19 -37 66 -34 76 5 12 48 -48 75
-74 34z"/>
<path d="M6568 3775 c-9 -20 -8 -28 6 -44 23 -25 48 -20 66 13 14 25 13 28 -4
42 -29 21 -55 17 -68 -11z"/>
<path d="M4893 3774 c-6 -17 6 -45 23 -51 20 -7 44 22 38 45 -8 26 -51 31 -61
6z"/>
<path d="M6908 3765 c-6 -27 0 -34 32 -40 26 -5 47 30 29 51 -20 24 -56 18
-61 -11z"/>
<path d="M1590 3630 c-25 -25 -25 -42 -2 -63 15 -14 57 -17 67 -5 15 18 13 50
-4 67 -26 26 -36 26 -61 1z"/>
<path d="M1914 3625 c-15 -23 -15 -27 0 -50 29 -44 96 -29 96 21 0 53 -67 73
-96 29z"/>
<path d="M2263 3642 c-12 -8 -18 -32 -15 -63 1 -9 13 -21 26 -27 20 -9 29 -7
50 9 14 11 26 28 26 38 0 37 -55 64 -87 43z"/>
<path d="M2610 3637 c-46 -23 -17 -94 33 -82 33 9 45 50 21 76 -20 22 -22 23
-54 6z"/>
<path d="M2953 3637 c-16 -7 -23 -19 -23 -37 0 -34 18 -49 50 -41 19 5 26 14
28 36 3 38 -22 57 -55 42z"/>
<path d="M5391 3623 c-23 -28 -16 -54 19 -73 37 -20 78 44 48 74 -27 26 -47
26 -67 -1z"/>
<path d="M913 3628 c-15 -21 -9 -49 12 -64 39 -26 86 31 53 64 -16 16 -53 15
-65 0z"/>
<path d="M1252 3628 c-17 -17 -15 -43 6 -60 25 -21 44 -17 62 15 14 26 14 29
-4 43 -24 17 -48 18 -64 2z"/>
<path d="M3270 3620 c-13 -25 1 -55 29 -63 24 -6 37 2 45 31 15 46 -51 74 -74
32z"/>
<path d="M3604 3613 c-11 -41 42 -76 68 -46 30 37 13 74 -34 71 -21 -2 -30 -9
-34 -25z"/>
<path d="M5070 3633 c-42 -16 -28 -82 17 -83 16 0 43 28 43 45 0 14 -27 46
-38 44 -4 0 -14 -3 -22 -6z"/>
<path d="M5731 3631 c-33 -21 -16 -81 22 -81 31 0 46 12 50 40 6 39 -37 63
-72 41z"/>
<path d="M6062 3628 c-7 -7 -12 -21 -12 -33 0 -12 5 -26 12 -33 7 -7 21 -12
33 -12 12 0 26 5 33 12 7 7 12 21 12 33 0 12 -5 26 -12 33 -7 7 -21 12 -33 12
-12 0 -26 -5 -33 -12z"/>
<path d="M6408 3629 c-39 -22 -11 -88 32 -74 31 10 42 38 24 63 -17 24 -30 27
-56 11z"/>
<path d="M6731 3610 c-7 -23 -6 -31 8 -44 33 -30 71 -13 71 30 0 25 -12 36
-46 40 -17 1 -25 -5 -33 -26z"/>
<path d="M1750 3470 c-25 -25 -25 -41 -2 -70 35 -43 103 0 83 53 -9 22 -29 37
-52 37 -5 0 -18 -9 -29 -20z"/>
<path d="M2087 3472 c-22 -24 -21 -55 2 -76 25 -23 65 -12 80 21 10 22 9 29
-10 49 -27 29 -50 30 -72 6z"/>
<path d="M2431 3480 c-37 -25 -27 -84 16 -95 48 -12 81 46 49 87 -12 16 -47
20 -65 8z"/>
<path d="M5561 3466 c-26 -27 -27 -48 -3 -69 27 -24 59 -21 78 8 21 31 11 61
-25 73 -25 9 -32 7 -50 -12z"/>
<path d="M5909 3477 c-48 -24 -29 -97 25 -97 42 0 68 57 38 83 -29 24 -37 26
-63 14z"/>
<path d="M1082 3468 c-17 -17 -15 -53 3 -68 24 -20 65 3 65 34 0 36 -44 58
-68 34z"/>
<path d="M1415 3460 c-17 -18 -17 -21 -1 -45 18 -28 28 -30 57 -15 36 20 15
80 -29 80 -5 0 -17 -9 -27 -20z"/>
<path d="M2771 3471 c-31 -20 -12 -80 26 -81 16 0 43 28 43 45 0 17 -27 45
-43 45 -7 0 -18 -4 -26 -9z"/>
<path d="M3105 3466 c-16 -12 -18 -19 -10 -42 6 -16 18 -30 27 -32 16 -3 58
30 58 46 -1 30 -48 48 -75 28z"/>
<path d="M3448 3469 c-27 -16 -23 -57 7 -71 22 -10 29 -9 45 8 17 16 18 22 7
44 -14 28 -34 34 -59 19z"/>
<path d="M4896 3461 c-30 -33 -13 -71 31 -71 27 0 46 36 32 61 -13 25 -46 29
-63 10z"/>
<path d="M5226 3461 c-22 -24 -12 -67 16 -75 21 -5 57 8 59 22 0 4 2 15 4 25
3 17 -29 47 -51 47 -6 0 -19 -8 -28 -19z"/>
<path d="M6242 3464 c-29 -20 -28 -50 3 -70 23 -15 26 -15 48 3 25 19 27 44 7
68 -16 19 -30 19 -58 -1z"/>
<path d="M6579 3461 c-21 -16 -22 -22 -11 -45 20 -45 80 -28 78 23 -1 7 -10
20 -22 28 -19 12 -24 11 -45 -6z"/>
<path d="M6929 3473 c-9 -2 -21 -14 -26 -26 -21 -45 35 -77 70 -42 29 28 -4
77 -44 68z"/>
<path d="M752 3461 c-8 -4 -12 -19 -10 -32 4 -29 45 -34 61 -7 19 30 -19 60
-51 39z"/>
<path d="M1925 3306 c-35 -35 -16 -86 33 -86 54 0 71 70 22 95 -29 15 -31 15
-55 -9z"/>
<path d="M2274 3317 c-28 -15 -35 -29 -28 -57 10 -44 58 -55 89 -20 36 39 -14
103 -61 77z"/>
<path d="M5719 3309 c-37 -37 -12 -99 39 -99 21 0 62 32 62 48 -1 27 -15 52
-34 59 -38 13 -47 12 -67 -8z"/>
<path d="M932 3309 c-29 -11 -37 -32 -22 -58 16 -30 57 -28 72 4 16 35 -15 68
-50 54z"/>
<path d="M1255 3300 c-29 -32 -11 -70 32 -70 32 0 49 35 30 64 -18 27 -41 29
-62 6z"/>
<path d="M1586 3301 c-36 -39 13 -97 57 -68 29 19 31 53 4 72 -28 20 -40 19
-61 -4z"/>
<path d="M2596 3299 c-23 -33 0 -80 36 -74 48 10 63 49 30 78 -25 23 -48 21
-66 -4z"/>
<path d="M2960 3312 c-49 -15 -40 -82 11 -82 27 0 39 15 39 50 0 22 -28 40
-50 32z"/>
<path d="M3294 3310 c-27 -11 -37 -36 -24 -61 12 -21 50 -25 68 -7 30 30 -5
83 -44 68z"/>
<path d="M5400 3313 c-36 -14 -41 -64 -9 -87 25 -17 56 -9 76 20 25 39 -20 85
-67 67z"/>
<path d="M6056 3301 c-35 -39 8 -100 58 -81 11 4 24 19 29 34 18 53 -49 89
-87 47z"/>
<path d="M6414 3310 c-28 -11 -36 -43 -17 -69 24 -35 86 -16 78 25 -2 10 -4
22 -4 26 -2 15 -37 25 -57 18z"/>
<path d="M4723 3303 c-7 -2 -13 -18 -13 -34 0 -22 6 -32 23 -38 29 -11 57 4
57 32 0 38 -29 56 -67 40z"/>
<path d="M5056 3294 c-20 -20 -20 -27 3 -55 18 -22 19 -22 45 -6 28 19 34 45
14 65 -17 17 -44 15 -62 -4z"/>
<path d="M6737 3295 c-16 -16 -12 -48 7 -64 19 -16 56 -1 62 25 11 45 -37 72
-69 39z"/>
<path d="M7068 3285 c-9 -20 -8 -28 6 -44 39 -43 92 8 61 59 -13 20 -55 11
-67 -15z"/>
<path d="M3613 3284 c-7 -18 6 -45 24 -51 16 -6 44 27 41 46 -4 23 -56 27 -65
5z"/>
<path d="M5573 3155 c-18 -8 -34 -20 -34 -27 -5 -52 15 -80 56 -80 56 0 78 65
35 102 -13 11 -23 20 -24 20 -1 -1 -16 -7 -33 -15z"/>
<path d="M1752 3144 c-37 -25 -22 -79 24 -88 27 -5 65 28 61 53 -7 47 -45 63
-85 35z"/>
<path d="M2087 3142 c-10 -10 -17 -28 -17 -40 0 -24 34 -51 58 -47 9 2 20 4
24 4 3 1 11 15 17 31 9 26 7 34 -9 50 -25 25 -52 25 -73 2z"/>
<path d="M2440 3153 c-29 -10 -39 -33 -29 -63 12 -34 45 -45 76 -24 52 34 12
108 -47 87z"/>
<path d="M5884 3135 c-14 -21 -15 -31 -5 -51 26 -59 110 -42 111 22 0 52 -77
73 -106 29z"/>
<path d="M756 3137 c-27 -20 -15 -68 16 -63 36 5 46 32 22 56 -17 18 -22 18
-38 7z"/>
<path d="M1082 3138 c-34 -34 6 -90 48 -68 35 19 20 80 -20 80 -9 0 -21 -5
-28 -12z"/>
<path d="M1410 3135 c-18 -22 -4 -64 25 -71 13 -3 29 -3 35 1 18 11 28 49 18
68 -11 21 -61 23 -78 2z"/>
<path d="M2761 3132 c-13 -24 -3 -59 17 -64 31 -7 52 3 58 29 12 44 -54 74
-75 35z"/>
<path d="M3105 3137 c-13 -10 -16 -21 -12 -39 9 -34 34 -42 64 -23 18 12 22
21 17 38 -12 38 -37 46 -69 24z"/>
<path d="M4559 3134 c-34 -41 -1 -87 47 -65 26 11 31 37 11 61 -17 21 -42 23
-58 4z"/>
<path d="M4895 3133 c-19 -18 -19 -34 -2 -58 18 -23 62 -14 70 14 10 41 -39
74 -68 44z"/>
<path d="M5226 3134 c-19 -19 -20 -35 -3 -56 30 -37 80 -20 80 28 0 42 -46 59
-77 28z"/>
<path d="M6236 3134 c-20 -19 -20 -34 -1 -60 18 -27 59 -21 73 11 21 46 -36
86 -72 49z"/>
<path d="M6590 3142 c-17 -6 -30 -22 -30 -39 0 -16 28 -43 45 -43 21 0 44 27
40 47 -2 10 -4 21 -4 24 -1 10 -34 16 -51 11z"/>
<path d="M6918 3139 c-22 -12 -23 -52 -3 -69 21 -17 48 -9 62 20 11 22 10 27
-8 43 -24 20 -28 20 -51 6z"/>
<path d="M3451 3121 c-21 -38 36 -68 59 -31 12 19 -7 50 -30 50 -11 0 -24 -8
-29 -19z"/>
<path d="M1928 2981 c-29 -23 -30 -57 -3 -77 26 -19 49 -17 68 4 23 26 21 58
-5 76 -28 20 -30 20 -60 -3z"/>
<path d="M2260 2980 c-33 -33 -10 -90 36 -90 23 0 54 33 54 58 0 39 -61 61
-90 32z"/>
<path d="M5720 2980 c-26 -26 -25 -55 1 -81 20 -20 61 -20 82 0 18 18 17 61
-3 81 -25 25 -54 26 -80 0z"/>
<path d="M6072 2983 c-24 -12 -32 -21 -29 -38 6 -45 49 -69 84 -47 23 15 25
56 3 80 -11 12 -22 22 -23 22 -1 0 -17 -8 -35 -17z"/>
<path d="M923 2975 c-35 -25 -16 -74 29 -75 17 0 38 28 38 49 0 11 -28 41 -38
41 -4 0 -17 -7 -29 -15z"/>
<path d="M1256 2974 c-22 -21 -20 -51 3 -64 27 -14 37 -13 55 6 21 20 20 30
-4 54 -24 24 -34 25 -54 4z"/>
<path d="M1584 2969 c-10 -12 -17 -24 -16 -28 2 -3 8 -14 13 -23 6 -11 21 -18
40 -18 22 0 32 6 39 25 21 54 -37 87 -76 44z"/>
<path d="M2594 2969 c-10 -12 -17 -24 -16 -28 2 -3 8 -14 13 -23 12 -22 62
-24 79 -3 7 8 9 23 4 37 -13 43 -50 51 -80 17z"/>
<path d="M2941 2972 c-18 -15 -19 -20 -8 -42 24 -47 83 -30 75 21 -4 31 -42
43 -67 21z"/>
<path d="M4400 2977 c-45 -23 -33 -77 16 -77 28 0 45 27 34 56 -12 30 -22 35
-50 21z"/>
<path d="M4739 2983 c-9 -2 -21 -15 -27 -28 -9 -18 -7 -27 6 -42 18 -20 51
-19 64 1 22 33 -6 77 -43 69z"/>
<path d="M5378 2966 c-18 -41 3 -78 43 -74 69 7 70 89 1 96 -26 3 -34 -1 -44
-22z"/>
<path d="M6413 2977 c-27 -12 -30 -43 -7 -68 19 -21 48 -14 62 15 11 24 7 33
-18 52 -11 8 -22 9 -37 1z"/>
<path d="M6753 2979 c-13 -4 -24 -13 -24 -19 -1 -5 -2 -16 -3 -22 -4 -22 15
-38 45 -38 22 0 30 6 35 26 9 35 -21 66 -53 53z"/>
<path d="M7076 2971 c-30 -33 -13 -71 30 -71 24 0 33 9 39 39 7 35 -45 59 -69
32z"/>
<path d="M3284 2968 c-18 -28 -14 -48 11 -54 13 -3 29 -3 34 1 13 8 15 55 2
55 -5 0 -16 3 -24 6 -8 3 -19 -1 -23 -8z"/>
<path d="M5050 2966 c-17 -22 9 -72 35 -68 32 6 47 26 39 55 -5 21 -12 27 -34
27 -15 0 -33 -7 -40 -14z"/>
<path d="M1092 2814 c-45 -31 -15 -94 34 -72 23 11 36 39 25 54 -20 28 -38 33
-59 18z"/>
<path d="M1770 2823 c-49 -19 -34 -93 19 -93 16 0 41 30 41 50 0 18 -25 51
-38 49 -4 0 -14 -3 -22 -6z"/>
<path d="M2104 2820 c-42 -17 -38 -71 6 -85 42 -13 74 43 44 76 -19 21 -20 21
-50 9z"/>
<path d="M2426 2811 c-23 -25 -20 -48 8 -66 27 -18 59 -9 70 20 6 17 -9 54
-22 56 -4 0 -15 2 -24 4 -9 2 -24 -5 -32 -14z"/>
<path d="M5558 2813 c-8 -10 -14 -25 -13 -33 1 -8 3 -21 3 -28 1 -7 14 -17 28
-22 51 -20 90 29 60 75 -19 29 -56 33 -78 8z"/>
<path d="M5896 2814 c-41 -41 5 -107 58 -83 49 23 30 99 -25 99 -10 0 -25 -7
-33 -16z"/>
<path d="M6241 2814 c-31 -22 -23 -66 13 -79 24 -8 31 -6 46 13 35 43 -13 97
-59 66z"/>
<path d="M1411 2802 c-10 -19 6 -66 22 -63 4 0 16 1 27 1 24 0 38 44 20 65
-17 21 -57 19 -69 -3z"/>
<path d="M2765 2810 c-17 -27 -13 -51 11 -67 24 -15 26 -15 46 5 19 18 20 25
10 47 -12 26 -54 35 -67 15z"/>
<path d="M3100 2800 c-20 -38 9 -76 48 -63 22 8 34 41 22 63 -14 26 -56 26
-70 0z"/>
<path d="M4550 2794 c-20 -53 45 -86 71 -36 17 30 2 54 -34 59 -22 3 -29 -2
-37 -23z"/>
<path d="M4890 2800 c-24 -44 15 -82 56 -56 22 15 24 25 9 59 -10 24 -52 22
-65 -3z"/>
<path d="M5220 2800 c-27 -51 36 -95 72 -50 22 27 22 34 2 54 -22 22 -61 20
-74 -4z"/>
<path d="M6576 2804 c-9 -8 -16 -22 -16 -29 0 -14 26 -45 38 -45 15 0 52 32
52 45 0 17 -27 45 -45 45 -7 0 -21 -7 -29 -16z"/>
<path d="M6912 2808 c-19 -19 -14 -56 8 -68 42 -22 85 33 51 64 -21 19 -43 20
-59 4z"/>
<path d="M4221 2796 c-9 -11 -9 -19 1 -35 16 -26 36 -27 53 -4 27 37 -26 73
-54 39z"/>
<path d="M1256 2644 c-24 -23 -20 -53 9 -66 20 -9 28 -8 44 6 21 19 22 36 2
60 -17 20 -35 20 -55 0z"/>
<path d="M1598 2649 c-21 -12 -24 -52 -5 -66 22 -16 51 -9 64 17 10 20 9 27
-4 42 -18 20 -30 22 -55 7z"/>
<path d="M1929 2644 c-20 -24 -19 -41 2 -60 28 -25 71 -5 66 32 -5 41 -44 57
-68 28z"/>
<path d="M2268 2646 c-10 -7 -18 -19 -18 -27 1 -21 25 -49 43 -49 19 0 47 27
47 45 0 17 -27 45 -43 45 -7 0 -20 -7 -29 -14z"/>
<path d="M2602 2648 c-21 -21 -14 -57 14 -70 23 -11 29 -10 45 11 17 21 18 26
6 45 -17 25 -47 32 -65 14z"/>
<path d="M2936 2638 c-13 -19 -14 -25 -2 -43 24 -36 76 -23 76 19 0 46 -48 62
-74 24z"/>
<path d="M4385 2643 c-18 -18 -19 -45 -3 -61 16 -16 39 -15 63 4 18 13 19 17
5 41 -18 31 -44 37 -65 16z"/>
<path d="M4734 2650 c-29 -11 -36 -45 -15 -64 24 -22 47 -20 65 6 26 36 -7 74
-50 58z"/>
<path d="M5057 2642 c-22 -24 -11 -61 21 -69 36 -9 65 32 44 63 -14 22 -48 25
-65 6z"/>
<path d="M5387 2639 c-29 -41 9 -88 54 -65 29 14 36 48 14 70 -22 22 -51 20
-68 -5z"/>
<path d="M5734 2652 c-19 -12 -27 -52 -14 -67 20 -24 69 -19 79 8 13 35 -5 67
-39 67 -8 0 -20 -4 -26 -8z"/>
<path d="M6068 2649 c-46 -26 0 -99 48 -77 30 14 33 62 5 78 -24 12 -31 12
-53 -1z"/>
<path d="M6396 2639 c-32 -46 25 -98 64 -59 24 24 25 43 4 64 -22 22 -50 20
-68 -5z"/>
<path d="M6741 2641 c-25 -25 -16 -59 17 -68 48 -12 71 61 24 78 -17 6 -27 4
-41 -10z"/>
<path d="M920 2635 c-25 -30 15 -70 45 -45 20 16 19 46 -1 54 -23 9 -30 8 -44
-9z"/>
<path d="M1773 2490 c-26 -11 -39 -46 -23 -65 14 -17 56 -20 65 -5 25 40 -2
85 -42 70z"/>
<path d="M2097 2485 c-20 -14 -22 -46 -5 -63 18 -18 56 -15 66 6 22 40 -25 83
-61 57z"/>
<path d="M2444 2490 c-27 -11 -37 -46 -17 -65 27 -28 73 -15 73 20 0 19 -24
58 -33 54 -1 0 -12 -4 -23 -9z"/>
<path d="M2783 2489 c-45 -17 -36 -79 12 -79 29 0 48 23 40 49 -9 29 -27 40
-52 30z"/>
<path d="M6237 2482 c-22 -24 -21 -45 2 -66 14 -13 24 -14 43 -7 14 5 28 15
30 23 7 17 -8 58 -21 58 -5 0 -16 2 -23 5 -8 3 -22 -3 -31 -13z"/>
<path d="M1085 2473 c-15 -15 -8 -44 15 -58 14 -8 51 32 44 49 -8 21 -42 26
-59 9z"/>
<path d="M1410 2470 c-15 -28 4 -60 34 -60 32 0 50 24 42 55 -5 20 -13 25 -36
25 -19 0 -33 -7 -40 -20z"/>
<path d="M4222 2481 c-8 -5 -12 -21 -10 -37 2 -25 8 -29 36 -32 26 -3 34 1 41
20 16 43 -28 74 -67 49z"/>
<path d="M4550 2471 c-21 -41 21 -81 58 -55 38 26 22 74 -25 74 -12 0 -27 -9
-33 -19z"/>
<path d="M4892 2478 c-16 -16 -15 -38 4 -59 31 -34 86 9 64 51 -12 22 -49 27
-68 8z"/>
<path d="M5222 2473 c-16 -30 3 -63 35 -63 38 0 57 30 37 59 -18 25 -60 28
-72 4z"/>
<path d="M5563 2478 c-32 -52 29 -99 68 -52 19 23 -4 64 -35 64 -14 0 -28 -6
-33 -12z"/>
<path d="M5902 2478 c-29 -29 0 -81 41 -70 23 6 38 41 25 65 -10 20 -48 23
-66 5z"/>
<path d="M6570 2475 c-10 -12 -10 -21 -2 -40 15 -33 67 -36 75 -3 13 47 -42
80 -73 43z"/>
<path d="M6919 2469 c-20 -20 -20 -22 -3 -40 9 -10 21 -19 25 -19 17 0 37 31
32 49 -7 29 -31 33 -54 10z"/>
<path d="M1592 2318 c-19 -19 -14 -56 8 -68 42 -22 85 33 51 64 -21 19 -43 20
-59 4z"/>
<path d="M1926 2314 c-20 -19 -20 -24 -1 -51 16 -23 52 -24 67 -1 29 47 -27
92 -66 52z"/>
<path d="M2271 2321 c-34 -22 -13 -83 26 -76 10 2 21 4 24 4 13 2 18 44 8 63
-10 19 -35 23 -58 9z"/>
<path d="M4380 2311 c-13 -26 -13 -40 3 -54 20 -19 38 -19 58 -1 13 12 17 24
13 38 -12 39 -56 49 -74 17z"/>
<path d="M4720 2310 c-22 -22 -18 -45 11 -61 41 -22 80 36 47 69 -17 17 -35
15 -58 -8z"/>
<path d="M5064 2322 c-6 -4 -14 -16 -18 -28 -8 -25 20 -53 47 -49 24 4 27 8
33 38 6 34 -33 59 -62 39z"/>
<path d="M5398 2319 c-31 -18 -19 -67 18 -73 21 -4 54 20 54 39 0 14 -32 45
-46 45 -5 0 -17 -5 -26 -11z"/>
<path d="M5729 2314 c-20 -25 -19 -43 4 -59 28 -19 33 -19 57 5 19 19 19 22 4
45 -19 29 -46 32 -65 9z"/>
<path d="M6066 2314 c-27 -26 -18 -56 20 -68 24 -7 54 15 54 39 0 18 -27 45
-45 45 -7 0 -21 -7 -29 -16z"/>
<path d="M6402 2318 c-21 -21 -14 -57 14 -70 23 -11 29 -10 45 11 17 21 18 26
6 45 -17 25 -47 32 -65 14z"/>
<path d="M1253 2304 c-15 -39 38 -67 60 -32 8 12 7 21 -2 32 -17 21 -50 20
-58 0z"/>
<path d="M2601 2301 c-8 -14 -6 -22 8 -35 9 -9 23 -16 29 -16 16 0 30 30 25
51 -7 25 -49 25 -62 0z"/>
<path d="M4051 2306 c-9 -11 -10 -20 -1 -35 13 -26 32 -27 53 -3 13 14 13 20
3 35 -16 21 -39 22 -55 3z"/>
<path d="M6739 2304 c-15 -19 -2 -47 26 -52 25 -5 38 13 31 42 -7 30 -36 35
-57 10z"/>
<path d="M4557 2152 c-8 -10 -13 -26 -11 -36 6 -38 56 -49 74 -16 11 20 5 59
-8 61 -4 0 -15 2 -24 4 -9 2 -23 -4 -31 -13z"/>
<path d="M4902 2159 c-25 -9 -29 -36 -9 -64 25 -33 86 -1 71 38 -8 22 -38 35
-62 26z"/>
<path d="M5244 2159 c-29 -10 -35 -32 -18 -58 26 -36 74 -21 74 24 0 26 -29
44 -56 34z"/>
<path d="M5570 2160 c-21 -13 -21 -59 0 -70 30 -16 50 -12 62 15 8 18 8 28 -1
39 -15 18 -45 26 -61 16z"/>
<path d="M5918 2163 c-25 -6 -35 -51 -15 -70 21 -21 67 -10 67 17 0 11 1 23 3
26 4 11 -37 31 -55 27z"/>
<path d="M6241 2151 c-25 -25 -17 -59 15 -67 43 -11 69 31 41 66 -18 22 -35
22 -56 1z"/>
<path d="M1760 2145 c-19 -23 -8 -50 22 -53 34 -4 50 34 22 55 -23 17 -29 16
-44 -2z"/>
<path d="M2103 2153 c-19 -7 -16 -53 3 -60 18 -7 45 6 51 24 4 11 -23 44 -35
42 -4 0 -13 -3 -19 -6z"/>
<path d="M2435 2144 c-9 -9 -14 -21 -12 -27 6 -18 33 -31 51 -24 21 8 21 53 0
61 -21 8 -20 8 -39 -10z"/>
<path d="M4230 2150 c-30 -19 -13 -60 25 -60 26 0 38 29 21 51 -14 18 -28 20
-46 9z"/>
<path d="M6580 2145 c-18 -21 -8 -50 19 -53 37 -6 52 26 25 52 -19 20 -28 20
-44 1z"/>
<path d="M4408 1993 c-20 -5 -31 -33 -22 -56 9 -24 64 -9 64 17 0 21 -24 43
-42 39z"/>
<path d="M4711 1978 c-8 -23 4 -54 24 -61 22 -9 55 13 55 36 0 48 -63 68 -79
25z"/>
<path d="M5392 1988 c-35 -35 5 -86 49 -64 24 12 28 27 15 59 -9 20 -46 23
-64 5z"/>
<path d="M5722 1979 c-11 -17 -11 -25 2 -44 24 -37 75 -20 76 26 0 40 -56 53
-78 18z"/>
<path d="M6060 1979 c-14 -25 -8 -44 19 -58 15 -8 24 -7 42 8 21 16 22 22 11
45 -15 33 -56 36 -72 5z"/>
<path d="M4046 1974 c-10 -25 -7 -33 12 -43 29 -15 66 13 52 40 -13 23 -55 25
-64 3z"/>
<path d="M5055 1970 c-13 -41 36 -63 59 -28 14 23 0 48 -28 48 -16 0 -27 -7
-31 -20z"/>
</g>
</svg>
