<svg id="Layer_5" enable-background="new 0 0 64 64" height="512" viewBox="0 0 64 64" width="512" xmlns="http://www.w3.org/2000/svg"><g><g><g><path d="m12 23c-6.065 0-11-4.935-11-11s4.935-11 11-11 11 4.935 11 11-4.935 11-11 11z" fill="#f0bc5e"/></g></g><g><circle cx="12" cy="52" fill="#f0bc5e" r="7"/></g><g><path d="m11 16.855v2.145h2v-2.145c1.155-.366 2-1.435 2-2.709 0-1.088-.604-2.066-1.578-2.553l-1.949-.975c-.292-.145-.473-.438-.473-.764 0-.471.384-.854.854-.854h.291c.471 0 .855.383.855.854v.146h2v-.146c0-1.274-.845-2.343-2-2.709v-2.145h-2v2.145c-1.155.366-2 1.435-2 2.709 0 1.088.604 2.066 1.578 2.553l1.949.975c.292.145.473.438.473.764 0 .471-.384.854-.854.854h-.291c-.471 0-.855-.383-.855-.854v-1.146h-2v1.146c0 1.274.845 2.343 2 2.709z"/><path d="m13 47.145v-2.145h-2v2.145c-1.155.366-2 1.435-2 2.709 0 1.088.604 2.065 1.578 2.553l1.949.975c.292.145.473.438.473.764 0 .47-.384.854-.854.854h-.291c-.471 0-.855-.384-.855-.854v-1.146h-2v1.146c0 1.275.845 2.344 2 2.709v2.145h2v-2.145c1.155-.366 2-1.435 2-2.709 0-1.088-.604-2.065-1.578-2.553l-1.949-.975c-.292-.145-.473-.438-.473-.764 0-.47.384-.854.854-.854h.291c.471 0 .855.384.855.854v.146h2v-.146c0-1.274-.845-2.343-2-2.709z"/><path d="m17 33h-2.405c-.6-1.181-1.814-2-3.227-2h-2.736c-2.003 0-3.632 1.629-3.632 3.632 0 .337.047.673.14.997l1.762 6.169-3.902 5.202c-1.29 1.721-2 3.852-2 6 0 5.514 4.486 10 10 10h2c1.422 0 2.774-.303 4-.841v.841h10v-38h-10zm-8.368 0h2.736c.9 0 1.632.732 1.632 1.632v2.368h2v-2h2.172c1.008 0 1.828.82 1.828 1.828 0 .481-.195.953-.535 1.293l-2.879 2.879h-6.831l-1.692-5.921c-.042-.145-.063-.296-.063-.447 0-.9.732-1.632 1.632-1.632zm2.368 28c-4.411 0-8-3.589-8-8 0-1.719.568-3.424 1.6-4.801l3.9-5.199h7l3.9 5.199c1.032 1.377 1.6 3.082 1.6 4.801 0 4.411-3.589 8-8 8zm14-34v34h-6v-.019c2.423-1.827 4-4.719 4-7.981 0-2.148-.71-4.279-2-6l-3.68-4.906 2.559-2.559c.723-.722 1.121-1.684 1.121-2.707 0-1.445-.815-2.691-2-3.342v-6.486z"/><path d="m29 63h10v-32h-10zm2-30h6v28h-6z"/><path d="m41 63h10v-37h-10zm2-35h6v33h-6z"/><path d="m30 18c0 2.206 1.794 4 4 4 2.085 0 3.782-1.609 3.964-3.647l4.387-.731c.624 1.398 2.021 2.378 3.649 2.378.943 0 1.798-.341 2.483-.889l11.048 8.286-3.695.616.328 1.973 6.986-1.165-1.164-6.986-1.973.329.59 3.539-10.908-8.181c.195-.47.305-.983.305-1.522 0-2.206-1.794-4-4-4-2.085 0-3.782 1.609-3.964 3.647l-4.387.731c-.624-1.398-2.021-2.378-3.649-2.378-1.483 0-2.764.82-3.455 2.021l-7.723-2.106c-.118.666-.297 1.31-.529 1.929l7.712 2.103c0 .018-.005.035-.005.053zm16-4c1.103 0 2 .897 2 2s-.897 2-2 2-2-.897-2-2 .897-2 2-2zm-12 2c1.103 0 2 .897 2 2s-.897 2-2 2-2-.897-2-2 .897-2 2-2z"/><path d="m53 63h10v-28h-10zm2-26h6v24h-6z"/></g></g></svg>