<svg id="Layer_5" enable-background="new 0 0 64 64" height="512" viewBox="0 0 64 64" width="512" xmlns="http://www.w3.org/2000/svg"><path d="m8.898 35.565 8.101-2.859c1.199-.423 2.001-1.557 2.001-2.829v-.328c-3.677-2.387-6-6.506-6-11.036v-3.513h1.757c2.716 0 5.322-1.079 7.243-3 1.921 1.921 4.526 3 7.243 3h1.757v3.513c0 4.531-2.323 8.65-6 11.036v.328c0 1.272.802 2.406 2.002 2.829l8.101 2.859c.401-1.441 1.897-1.697 1.897-3.574 0-2.165-2-2.165-2-4.33s2-2.165 2-4.33c0-2.166-2-2.166-2-4.331v-4.843c0-6.714-5.443-12.157-12.157-12.157-3.693 0-7.186 1.679-9.493 4.563l-.35.437c-2.351.588-4 2.7-4 5.123v6.877c0 2.166-2 2.166-2 4.331s2 2.165 2 4.33-2 2.165-2 4.33c0 1.877 1.496 2.133 1.898 3.574z" fill="#f0bc5e"/><path d="m51.568 46.164-1.568-1.182-1.568 1.182-.548-.262c-.604-.288-1.142-.694-1.598-1.208l-.376-.423.601-1.918-1.567-1.18.062-.566c.077-.695.324-1.495.647-2.087l.285-.524 1.914.008.589-1.785.566-.117c.664-.137 1.32-.137 1.984 0l.562.116.601 1.788 1.8-.013.286.526c.435.798.688 1.5.753 2.087l.062.566-1.567 1.18.601 1.918-.376.423c-.456.513-.994.919-1.598 1.208zm-1.568-3.686 1.751 1.319c.026-.019.052-.039.076-.059l-.668-2.134 1.713-1.29c-.035-.099-.078-.203-.126-.312l-2.024.015-.678-2.017c-.028-.001-.056 0-.084 0l-.662 2.01-2.112-.009c-.032.095-.062.192-.088.29l1.743 1.312-.668 2.134c.024.02.05.04.076.059z"/><path d="m23 48h2v2h-2z"/><path d="m23 52h2v2h-2z"/><path d="m57 50v9.719l-7-1.75-7 1.75v-9.719h-2v6h-6v-13h-2v13h-12v-8.551l1.951-1.735c3.278-2.913 5.553-6.814 6.517-11.077l5.527 1.951c1.052.372 2.019.933 2.873 1.67l1.307-1.515c-1.044-.9-2.227-1.586-3.514-2.041l-8.326-2.938c-.739-.261-1.234-.934-1.306-1.704 3.678-2.606 5.971-6.866 5.971-11.547v-4.513h-2.758c-2.469 0-4.789-.961-6.535-2.707l-.707-.707-.707.707c-1.746 1.746-4.066 2.707-6.535 2.707h-2.758v4.513c0 4.681 2.293 8.941 5.971 11.547-.073.769-.567 1.443-1.306 1.704l-8.326 2.938c-4.39 1.549-7.339 5.718-7.339 10.373v12.925h40v4.281l9-2.25 9 2.25v-12.281zm-35-6.146c-.597-.562-1.16-1.156-1.677-1.787l1.677-2.347 1.677 2.347c-.517.631-1.08 1.225-1.677 1.787zm5.56-9.89c-.488 2.283-1.376 4.458-2.64 6.404l-1.705-2.387 3.017-4.525c.142.07.285.14.437.194zm-13.56-15.451v-2.513h.758c2.681 0 5.218-.932 7.242-2.643 2.024 1.711 4.562 2.643 7.242 2.643h.758v2.513c0 5.131-3.201 9.682-8 11.428-4.799-1.746-8-6.296-8-11.428zm7.684 13.436.316.105.316-.105c.659-.22 1.29-.49 1.897-.795.119.351.285.682.493.985l-2.706 4.058-2.706-4.06c.208-.303.37-.636.489-.986.608.307 1.24.578 1.901.798zm-4.353 1.7c.152-.054.295-.124.438-.194l3.017 4.525-1.705 2.387c-1.264-1.946-2.161-4.118-2.648-6.401zm1.669 12.902v9.449h-8v-14h-2v14h-6v-10.925c0-3.809 2.413-7.22 6.005-8.487l5.527-1.951c.91 4.023 2.999 7.712 5.987 10.564z"/><path d="m50 54c-7.168 0-13-5.832-13-13s5.832-13 13-13 13 5.832 13 13-5.832 13-13 13zm0-21c-4.411 0-8 3.589-8 8s3.589 8 8 8 8-3.589 8-8-3.589-8-8-8z" fill="#f0bc5e"/><path d="m50 50c-4.963 0-9-4.038-9-9s4.037-9 9-9 9 4.038 9 9-4.037 9-9 9zm0-16c-3.859 0-7 3.14-7 7s3.141 7 7 7 7-3.14 7-7-3.141-7-7-7z"/><path d="m49.954 26c-1.629 0-2.954-1.325-2.954-2.954v-3.046h-6c-1.654 0-3-1.346-3-3v-13c0-1.654 1.346-3 3-3h19c1.654 0 3 1.346 3 3v13c0 1.654-1.346 3-3 3h-4.465l-3.123 4.685c-.549.823-1.468 1.315-2.458 1.315zm-8.954-23c-.552 0-1 .449-1 1v13c0 .551.448 1 1 1h8v5.046c0 .526.428.954.954.954.319 0 .616-.159.794-.425l3.717-5.575h5.535c.552 0 1-.449 1-1v-13c0-.551-.448-1-1-1z"/><path d="m49 15.414-3.707-3.707 1.414-1.414 2.293 2.293 7.293-7.293 1.414 1.414z"/></svg>