<svg id="_x33_0" enable-background="new 0 0 64 64" height="512" viewBox="0 0 64 64" width="512" xmlns="http://www.w3.org/2000/svg"><path d="m42 7c-8.271 0-15 6.729-15 15 0 1.846.332 3.649.985 5.357l.031.082c.62-.279 1.292-.439 1.984-.439 1.281 0 2.509.509 3.414 1.414l2.172 2.172c.905.905 1.414 2.133 1.414 3.414v.391c0 .565-.107 1.119-.298 1.644 1.691.638 3.473.965 5.298.965 8.271 0 15-6.729 15-15s-6.729-15-15-15z" fill="#f0bc5e"/><path d="m16.257 38.55h8.485v9.899h-8.485z" fill="#f0bc5e" transform="matrix(.707 -.707 .707 .707 -24.755 27.237)"/><path d="m45 15h-2v-2h-2v2h-2c-1.103 0-2 .897-2 2v4c0 1.103.897 2 2 2h6v4h-6v-2h-2v2c0 1.103.897 2 2 2h2v2h2v-2h2c1.103 0 2-.897 2-2v-4c0-1.103-.897-2-2-2h-6v-4h6v2h2v-2c0-1.103-.897-2-2-2z"/><path d="m42 1c-11.58 0-21 9.42-21 21 0 4.409 1.372 8.5 3.703 11.883l-3.203 3.203-1.499-1.499-17.244 17.17c-1.133 1.134-1.757 2.64-1.757 4.243s.624 3.109 1.757 4.243 2.64 1.757 4.243 1.757 3.109-.624 4.244-1.759l17.168-17.243-1.498-1.498 3.203-3.203c3.383 2.331 7.474 3.703 11.883 3.703 11.58 0 21-9.42 21-21s-9.42-21-21-21zm-8.482 37.977c-3.466-1.739-6.337-4.491-8.195-7.885l1.971-1.971c1.446-1.446 3.968-1.446 5.414 0l2.172 2.172c.722.723 1.12 1.685 1.12 2.707v.391c0 .823-.272 1.639-.766 2.297zm-23.689 20.852c-1.56 1.56-4.098 1.56-5.657 0s-1.56-4.098-.001-5.656l12.822-12.767 5.602 5.602zm14.176-14.238-5.596-5.596 1.589-1.583 5.589 5.589zm1.495-4.505-2.586-2.586 3.012-3.012c.786.935 1.651 1.8 2.586 2.586zm16.5-.086c-2.322 0-4.538-.439-6.596-1.205l1.43-1.907c.752-1.003 1.166-2.245 1.166-3.497v-.391c0-1.557-.606-3.021-1.707-4.121l-2.172-2.172c-1.1-1.101-2.564-1.707-4.121-1.707s-3.021.606-4.121 1.707l-1.463 1.463c-.907-2.214-1.416-4.633-1.416-7.17 0-10.477 8.523-19 19-19s19 8.523 19 19-8.523 19-19 19z"/><path d="m30 30c-.256 0-.512.098-.707.293-.391.391-.391 1.024 0 1.414.195.195.451.293.707.293s.512-.098.707-.293c.391-.391.391-1.024 0-1.414-.195-.195-.451-.293-.707-.293z"/><path d="m33 33c-.256 0-.512.098-.707.293-.391.391-.391 1.024 0 1.414.195.195.451.293.707.293s.512-.098.707-.293c.391-.391.391-1.024 0-1.414-.195-.195-.451-.293-.707-.293z"/></svg>