<?xml version="1.0" encoding="UTF-8" standalone="no"?>
<!DOCTYPE svg PUBLIC "-//W3C//DTD SVG 1.1//EN" "http://www.w3.org/Graphics/SVG/1.1/DTD/svg11.dtd">
<svg width="100%" height="100%" viewBox="0 0 1188 290" version="1.1" xmlns="http://www.w3.org/2000/svg" xmlns:xlink="http://www.w3.org/1999/xlink" xml:space="preserve" xmlns:serif="http://www.serif.com/" style="fill-rule:evenodd;clip-rule:evenodd;stroke-linejoin:round;stroke-miterlimit:2;">
    <g transform="matrix(1.49262,0,0,1.49262,106.363,51.6594)">
        <path d="M0,80.223C0,95.595 -13.602,102.196 -28.974,102.196C-35.811,102.196 -41.885,101.172 -46.91,98.68L-47.037,98.735L-47.043,98.735C-47.043,98.735 -48.074,98.196 -49.729,97.05C-50.159,96.746 -50.638,96.408 -51.147,96.026C-53.014,94.619 -55.354,92.65 -57.839,90.036C-61.469,86.212 -65.385,81.017 -68.531,74.252C-71.016,67.47 -72.653,56.832 -68.719,41.842C-60.991,12.45 -39.303,-11.341 -11.195,-21.973L-9.262,-11.675C-35.763,-0.965 -55.542,22.991 -60.348,51.934C-61.609,61.142 -59.59,68.288 -56.535,73.647C-54.687,76.162 -52.662,78.599 -50.45,80.805C-44.061,87.176 -36.175,91.619 -26.889,90.552L-26.895,90.516C-19.457,90.097 -12.911,87.133 -12.911,80.223C-12.911,73.719 -19.712,71.058 -28.877,70.071C-42.97,68.397 -55.978,64.652 -55.978,49.176C-55.978,34.986 -41.982,29.173 -29.271,29.077C-18.53,29.077 -7.395,32.131 -2.17,42.775L-12.517,48.098C-14.881,44.151 -21.385,40.411 -28.877,40.411C-38.533,40.411 -43.164,44.448 -43.164,49.577C-43.164,55.583 -36.072,57.262 -27.792,58.244C-13.402,60.02 0,63.766 0,80.223" style="fill:rgb(128,128,128);fill-rule:nonzero;"/>
    </g>
    <g transform="matrix(1.49262,0,0,1.49262,265.053,263.318)">
        <path d="M0,-116.544C-0.618,-117.832 -1.267,-119.102 -1.94,-120.356L-1.939,-120.36C-2.21,-120.895 -2.555,-121.514 -2.951,-122.185C-5.3,-126.329 -7.951,-130.279 -10.882,-134.001C-10.884,-134.003 -10.89,-134.011 -10.89,-134.011L-10.89,-134.01L-14.746,-121.731L-33.947,-60.596L-51.193,-110.363L-59.668,-110.363L-76.422,-60.596L-92.683,-110.363L-107.268,-110.363L-81.94,-41.378L-70.903,-41.378L-62.526,-62.862L-55.332,-84.839L-48.04,-63.059L-39.466,-41.378L-28.429,-41.378L-21.51,-60.596L-8.157,-101.371L-6.661,-105.94C-6.406,-105.274 -6.146,-104.612 -5.906,-103.94C-5.591,-103.05 -5.294,-102.151 -5.009,-101.249C-2.502,-93.329 -1.142,-84.904 -1.142,-76.167C-1.142,-30.218 -38.523,7.164 -84.471,7.164C-119.583,7.164 -149.691,-14.667 -161.939,-45.466C-166.723,-49.544 -172.944,-56.251 -177.576,-66.217C-172.593,-19.248 -132.741,17.467 -84.471,17.467C-32.841,17.467 9.163,-24.537 9.163,-76.167C9.163,-90.617 5.871,-104.312 0,-116.544" style="fill:rgb(0,113,188);fill-rule:nonzero;"/>
    </g>
    <g transform="matrix(1.49262,0,0,1.49262,107.481,5.91241)">
        <path d="M0,8.446C-2.608,8.403 -5.216,8.403 -7.825,8.352C-7.94,6.322 -7.991,4.292 -7.918,2.269C-7.896,1.553 -7.854,0.838 -7.795,0.123C-5.072,0 -2.333,0.036 0.383,0.275L0.383,0.34C0.492,3.042 0.759,5.802 0,8.446" style="fill:rgb(128,128,128);fill-rule:nonzero;"/>
    </g>
    <g transform="matrix(-1.03125,1.07909,1.07909,1.03125,110.48,48.9018)">
        <path d="M4.106,-9.746C2.105,-7.831 0.157,-5.845 -1.588,-3.685C0.273,-1.836 2.169,-0.024 4.106,1.736C6.169,-0.109 8.05,-2.141 9.857,-4.231C8.015,-6.141 6.093,-7.977 4.106,-9.746" style="fill:rgb(128,128,128);fill-rule:nonzero;"/>
    </g>
    <g transform="matrix(1.49262,0,0,1.49262,169.416,18.8631)">
        <path d="M0,-0.187C-0.022,1.251 -0.029,2.674 -0.036,4.112C-0.036,5.383 -0.029,6.648 -0.022,7.919C-2.681,7.688 -5.513,8.403 -8.057,7.63C-8.476,6.055 -8.374,4.386 -8.295,2.725C-8.251,1.735 -8.215,0.752 -8.302,-0.216C-13.836,-0.129 -19.371,-0.36 -24.905,-0.223C-24.999,-2.983 -24.97,-5.75 -24.97,-8.51C-22.174,-8.568 -19.371,-8.59 -16.567,-8.554C-16.633,-5.858 -16.64,-3.156 -16.597,-0.461C-13.836,-0.404 -11.069,-0.368 -8.302,-0.332C-5.535,-0.36 -2.738,-0.035 0.014,-0.512L1.77,-0.837C1.856,-0.657 2.022,-0.288 2.109,-0.107C1.582,-0.129 0.527,-0.166 0,-0.187" style="fill:rgb(128,128,128);fill-rule:nonzero;"/>
    </g>
    <g transform="matrix(1.49262,0,0,1.49262,120.553,69.702)">
        <path d="M0,-17.86L0.115,-17.715C0.102,-15.021 0.094,-12.318 0.007,-9.623C-0.058,-6.928 -0.051,-4.226 0.036,-1.531C-2.608,-1.546 -5.245,-1.596 -7.89,-1.466C-7.94,-1.098 -8.056,-0.361 -8.114,0C-8.504,-3.193 -8.215,-6.422 -8.294,-9.638C-5.542,-9.623 -2.782,-9.566 -0.029,-9.724C-0.051,-12.434 -0.317,-15.165 0,-17.86" style="fill:rgb(128,128,128);fill-rule:nonzero;"/>
    </g>
    <g transform="matrix(-1.02503,1.085,1.085,1.02503,185.167,48.5409)">
        <path d="M4.37,-9.693C2.241,-7.798 0.303,-5.693 -1.521,-3.5C0.478,-1.701 2.426,0.149 4.37,2.006C6.326,-0.033 8.266,-2.086 10.19,-4.155C8.212,-5.964 6.268,-7.8 4.37,-9.693" style="fill:rgb(128,128,128);fill-rule:nonzero;"/>
    </g>
    <g transform="matrix(-1.03134,-1.07901,-1.07901,1.03134,143.195,11.6467)">
        <path d="M-4.251,-9.641C-6.195,-7.774 -8.153,-5.912 -10.076,-4.024C-8.138,-2.049 -6.2,-0.073 -4.251,1.882C-2.273,0.051 -0.325,-1.821 1.578,-3.731C-0.25,-5.811 -2.15,-7.831 -4.251,-9.641" style="fill:rgb(128,128,128);fill-rule:nonzero;"/>
    </g>
    <g transform="matrix(1.49262,0,0,1.49262,133.115,30.554)">
        <path d="M0,-8.063C-0.008,-7.304 -0.008,-6.545 -0.015,-5.787C-0.021,-3.836 -0.021,-1.878 -0.044,0.072C-2.832,0.094 -5.621,0.094 -8.41,0.087C-8.425,-1.633 -8.425,-3.352 -8.417,-5.072C-8.41,-6.09 -8.403,-7.109 -8.389,-8.121C-5.593,-8.128 -2.796,-8.157 0,-8.063" style="fill:rgb(128,128,128);fill-rule:nonzero;"/>
    </g>
    <g transform="matrix(-1.05134,1.05952,1.05952,1.05134,160.506,36.9583)">
        <path d="M4.14,-10.149C2.385,-8.114 -0.015,-6.577 -1.334,-4.212C-0.083,-1.81 2.39,-0.323 4.14,1.708C5.874,-0.336 8.361,-1.827 9.548,-4.264C8.373,-6.692 5.88,-8.148 4.14,-10.149" style="fill:rgb(128,128,128);fill-rule:nonzero;"/>
    </g>
    <g transform="matrix(-1.04978,1.06107,1.06107,1.04978,134.363,44.0443)">
        <path d="M4.073,-9.561C1.988,-7.823 0.231,-5.709 -1.715,-3.803C0.338,-2.016 2.264,-0.1 4.073,1.933C6.04,-0.003 7.976,-1.97 9.901,-3.946C7.924,-5.78 5.999,-7.676 4.073,-9.561" style="fill:rgb(128,128,128);fill-rule:nonzero;"/>
    </g>
    <g transform="matrix(-1.07027,1.0404,1.0404,1.07027,154.626,63.2114)">
        <path d="M3.423,-8.514C1.046,-7.412 -0.408,-5.022 -2.398,-3.379C-0.444,-1.39 1.495,0.615 3.423,2.631L9.257,-3.04C7.274,-4.811 5.833,-7.31 3.423,-8.514" style="fill:rgb(128,128,128);fill-rule:nonzero;"/>
    </g>
    <g transform="matrix(1.06604,1.04474,1.04474,-1.06604,180.278,61.8794)">
        <path d="M4.098,-1.612C2.033,0.288 0.086,2.316 -1.83,4.363C0.136,6.28 2.087,8.212 4.098,10.091C6.02,8.101 7.968,6.124 9.888,4.132C7.953,2.216 6.008,0.319 4.098,-1.612" style="fill:rgb(128,128,128);fill-rule:nonzero;"/>
    </g>
    <g transform="matrix(1.49262,0,0,1.49262,232.599,36.8635)">
        <path d="M0,16.957C-0.007,27.036 -8.446,36.132 -18.46,37.05C-31.197,37.526 -43.972,36.898 -56.73,37.237C-61.507,36.992 -66.542,37.649 -71.029,35.598C-76.917,33.249 -81.368,28.025 -83.182,22C-83.124,21.639 -83.008,20.902 -82.958,20.533C-80.313,20.403 -77.676,20.454 -75.031,20.468C-73.009,25.136 -68.536,28.986 -63.248,28.907C-49.021,28.893 -34.788,28.943 -20.562,28.9C-14.262,28.9 -8.41,23.366 -8.438,16.986C-8.092,12.094 -11.177,7.333 -15.599,5.346C-19.269,3.598 -23.431,4.53 -27.332,4.198C-27.426,1.553 -27.166,-1.12 -27.434,-3.75C-27.447,-3.96 -27.47,-4.162 -27.498,-4.371C-29.97,-8.569 -34.571,-11.763 -39.521,-11.95L-39.614,-12.167C-39.701,-12.348 -39.867,-12.716 -39.954,-12.897L-41.71,-12.572C-41.804,-15.209 -41.782,-17.846 -41.768,-20.476L-41.768,-20.555C-37.404,-20.692 -33.163,-19.529 -29.435,-17.419C-24.196,-14.45 -19.991,-9.602 -17.954,-3.88C-9.674,-2.984 -2.637,3.591 -0.593,11.531C-0.13,13.287 0.079,15.115 0,16.957" style="fill:rgb(128,128,128);fill-rule:nonzero;"/>
    </g>
    <g transform="matrix(1.49262,0,0,1.49262,117.385,29.7197)">
        <path d="M0,-2.088C-0.007,-0.369 -0.007,1.351 0.007,3.071C-2.76,3.071 -5.527,3.078 -8.294,3.071C-8.294,1.828 -8.301,0.578 -8.301,-0.665C-8.301,-2.168 -8.287,-3.671 -8.272,-5.166C-5.505,-5.13 -2.738,-5.137 0.029,-5.137C0.015,-4.126 0.007,-3.107 0,-2.088" style="fill:rgb(128,128,128);fill-rule:nonzero;"/>
    </g>
    <g transform="matrix(-1.04096,1.06972,1.06972,1.04096,149.014,48.9107)">
        <path d="M4.341,-9.983C2.697,-7.973 0.101,-6.558 -0.713,-4.002C0.18,-1.852 2.178,0.071 4.341,0.916C6.869,0.038 8.211,-2.607 10.176,-4.293C8.351,-6.313 6.409,-8.212 4.341,-9.983" style="fill:rgb(128,128,128);fill-rule:nonzero;"/>
    </g>
    <g transform="matrix(-1.05914,1.05173,1.05173,1.05914,171.001,56.8416)">
        <path d="M4.454,-10.21C2.424,-8.204 0.358,-6.224 -1.565,-4.112C0.426,-2.168 2.283,-0.082 4.454,1.673C6.371,-0.353 8.361,-2.298 10.34,-4.263C8.39,-6.257 6.43,-8.241 4.454,-10.21" style="fill:rgb(128,128,128);fill-rule:nonzero;"/>
    </g>
    <g transform="matrix(2.31878,0,0,2.31878,406.978,175.138)">
        <path d="M0,-22.646C-1.526,-25.192 -5.724,-27.611 -10.56,-27.614C-16.794,-27.617 -19.786,-25.009 -19.788,-21.701C-19.79,-17.82 -15.209,-16.736 -9.865,-16.097C-0.576,-14.948 8.076,-12.526 8.07,-1.9C8.066,8.025 -0.717,12.285 -10.642,12.28C-19.74,12.275 -26.738,9.472 -30.042,1.327L-23.042,-2.297C-21.072,2.603 -15.919,4.769 -10.511,4.771C-5.23,4.774 -0.267,2.931 -0.264,-1.904C-0.262,-6.103 -4.652,-7.824 -10.568,-8.462C-19.667,-9.548 -28.063,-11.97 -28.059,-21.959C-28.055,-31.122 -19.018,-34.871 -10.811,-34.931C-3.875,-34.927 3.313,-32.952 6.683,-26.079L0,-22.646Z" style="fill:rgb(0,113,188);fill-rule:nonzero;"/>
    </g>
    <g transform="matrix(2.31878,0,0,2.31878,523.69,200.396)">
        <path d="M0,-44.012L-19.797,-22.707L1.633,-0.238L1.633,0.271L-8.738,0.266L-27.37,-19.466L-27.38,0.258L-35.778,0.254L-35.757,-44.283L-27.358,-44.28L-27.368,-25.447L-10.435,-44.272L0,-44.267L0,-44.012Z" style="fill:rgb(0,113,188);fill-rule:nonzero;"/>
    </g>
    <g transform="matrix(2.31878,0,0,2.31878,580.915,158.397)">
        <path d="M0,-7.755L11.843,-26.137L21.959,-26.132L21.959,-25.75L4.196,0.01L4.187,18.397L-4.212,18.393L-4.203,0.006L-21.306,-25.771L-21.306,-26.152L-11.316,-26.148L0,-7.755Z" style="fill:rgb(0,113,188);fill-rule:nonzero;"/>
    </g>
    <g transform="matrix(2.31878,0,0,2.31878,751.88,97.8037)">
        <path d="M0,44.562L-7.126,44.558L-12.655,30.558L-17.356,16.495L-22.008,30.681L-27.423,44.548L-34.549,44.545L-50.879,0L-41.462,0.004L-30.98,32.14L-20.148,0.015L-14.677,0.017L-3.558,32.153L6.638,0.028L16.055,0.032L0,44.562Z" style="fill:rgb(128,128,128);fill-rule:nonzero;"/>
    </g>
    <g transform="matrix(2.31878,0,0,2.31878,815.642,148.822)">
        <path d="M0,0.749C0.187,8.065 4.128,15.894 14.626,15.898C25.124,15.904 29.072,8.017 29.203,0.699C29.335,-6.809 25.139,-15.209 14.642,-15.214C4.143,-15.219 -0.187,-6.759 0,0.749M37.475,0.576C37.342,12.093 30.274,23.605 14.623,23.598C-1.029,23.59 -8.277,12.325 -8.271,0.618C-8.266,-11.089 -0.753,-22.856 14.645,-22.849C29.979,-22.842 37.608,-11.067 37.475,0.576" style="fill:rgb(128,128,128);fill-rule:nonzero;"/>
    </g>
    <g transform="matrix(2.31878,0,0,2.31878,936.488,182.952)">
        <path d="M0,-28.833L-0.006,-14.581L12.782,-14.575C18.127,-14.572 20.419,-18.135 20.421,-21.697C20.423,-25.261 18.069,-28.824 12.789,-28.827L0,-28.833ZM31.032,7.894L21.043,7.889L8.07,-7.006L-0.01,-7.01L-0.017,7.879L-8.416,7.875L-8.395,-36.727C-1.332,-36.723 5.73,-36.656 12.793,-36.652C23.291,-36.584 28.823,-29.583 28.819,-21.885C28.816,-15.776 26.014,-9.606 17.551,-7.892L31.032,7.321L31.032,7.894Z" style="fill:rgb(128,128,128);fill-rule:nonzero;"/>
    </g>
    <g transform="matrix(2.31878,0,0,2.31878,1099.38,200.672)">
        <path d="M0,-44.013L-19.798,-22.708L1.633,-0.238L1.632,0.271L-8.738,0.266L-27.371,-19.466L-27.381,0.258L-35.779,0.254L-35.758,-44.284L-27.359,-44.28L-27.368,-25.448L-10.435,-44.272L0,-44.267L0,-44.013Z" style="fill:rgb(128,128,128);fill-rule:nonzero;"/>
    </g>
    <g transform="matrix(2.31878,0,0,2.31878,1108.38,201.342)">
        <path d="M0,-44.554L34.23,-44.537L34.229,-40.593L11.117,-7.964L34.213,-7.953L34.21,0L-0.594,-0.017L-0.591,-4.853L22.011,-36.655L-0.003,-36.665L0,-44.554Z" style="fill:rgb(128,128,128);fill-rule:nonzero;"/>
    </g>
</svg>
