<?xml version="1.0" encoding="UTF-8" standalone="no"?>
<svg
   xmlns:dc="http://purl.org/dc/elements/1.1/"
   xmlns:cc="http://creativecommons.org/ns#"
   xmlns:rdf="http://www.w3.org/1999/02/22-rdf-syntax-ns#"
   xmlns:svg="http://www.w3.org/2000/svg"
   xmlns="http://www.w3.org/2000/svg"
   viewBox="0 0 711.53333 723.49335"
   height="723.49335"
   width="711.53333"
   xml:space="preserve"
   id="svg2"
   version="1.1"><metadata
     id="metadata8"><rdf:RDF><cc:Work
         rdf:about=""><dc:format>image/svg+xml</dc:format><dc:type
           rdf:resource="http://purl.org/dc/dcmitype/StillImage" /></cc:Work></rdf:RDF></metadata><defs
     id="defs6" /><g
     transform="matrix(1.3333333,0,0,-1.3333333,0,723.49333)"
     id="g10"><g
       transform="scale(0.1)"
       id="g12"><path
         id="path14"
         style="fill:#ffffff;fill-opacity:1;fill-rule:nonzero;stroke:none"
         d="m 2036.43,2258.99 c 0,-439.3 -388.71,-627.93 -828.01,-627.93 -195.39,0 -368.955,29.28 -512.561,100.47 l -3.636,-1.57 h -0.172 c 0,0 -29.449,15.42 -76.738,48.16 -12.297,8.66 -25.981,18.37 -40.536,29.28 -53.351,40.18 -120.214,96.48 -191.238,171.14 C 279.781,2087.85 167.883,2236.29 77.9805,2429.61 6.95703,2623.44 -39.8125,2927.45 72.6094,3355.82 293.469,4195.78 913.254,4875.68 1716.49,5179.51 l 55.25,-294.31 C 1014.41,4579.12 449.195,3894.54 311.828,3067.41 275.797,2804.29 333.48,2600.06 420.785,2446.93 473.617,2375.04 531.477,2305.41 594.699,2242.36 777.277,2060.3 1002.64,1933.32 1268.01,1963.81 l -0.17,1.05 c 212.54,11.95 399.62,96.66 399.62,294.13 0,185.87 -194.35,261.91 -456.26,290.14 -402.747,47.81 -774.481,154.87 -774.481,597.1 0,405.51 399.972,571.63 763.221,574.4 306.95,0 625.15,-87.3 774.47,-391.48 l -295.69,-152.09 c -67.55,112.77 -253.42,219.65 -467.52,219.65 -275.946,0 -408.29,-115.37 -408.29,-261.92 0,-171.66 202.67,-219.64 439.29,-247.71 411.23,-50.75 794.23,-157.8 794.23,-628.09" /><path
         id="path16"
         style="fill:#ffffff;fill-opacity:1;fill-rule:nonzero;stroke:none"
         d="m 5074.68,3829.7 c -17.66,36.79 -36.19,73.09 -55.46,108.94 l 0.04,0.11 c -7.73,15.3 -17.6,32.98 -28.94,52.16 -67.11,118.42 -142.87,231.31 -226.63,337.65 -0.06,0.08 -0.21,0.3 -0.21,0.3 l -0.01,-0.02 L 4653.26,3977.92 4104.55,2230.84 3611.7,3653.07 H 3369.5 L 2890.73,2230.84 2426.05,3653.07 h -416.81 l 723.79,-1971.4 h 315.42 l 239.38,613.95 205.59,628.03 208.41,-622.4 245.01,-619.58 h 315.43 l 197.7,549.17 381.58,1165.26 42.76,130.55 c 7.27,-19.01 14.75,-37.93 21.57,-57.16 9.01,-25.42 17.5,-51.08 25.66,-76.89 71.63,-226.33 110.51,-467.07 110.51,-716.79 C 5042.05,1362.74 3973.78,294.48 2660.7,294.48 1657.29,294.48 796.891,918.32 446.855,1798.5 310.148,1915.03 132.363,2106.67 0,2391.51 142.418,1049.22 1281.28,-0.0078125 2660.7,-0.0078125 4136.16,-0.0078125 5336.52,1200.37 5336.52,2675.81 c 0,412.95 -94.08,804.33 -261.84,1153.89" /><path
         id="path18"
         style="fill:#ffffff;fill-opacity:1;fill-rule:nonzero;stroke:none"
         d="m 2057.82,5186.05 c -74.54,1.24 -149.07,1.24 -223.61,2.69 -3.31,58.02 -4.75,116.03 -2.69,173.85 0.62,20.44 1.86,40.88 3.52,61.32 77.84,3.51 156.09,2.48 233.72,-4.34 v -1.86 c 3.1,-77.21 10.74,-156.08 -10.94,-231.66" /><path
         id="path20"
         style="fill:#ffffff;fill-opacity:1;fill-rule:nonzero;stroke:none"
         d="m 1832.8,4711.97 c 79.09,3.5 158.58,4.54 237.66,-2.07 1.44,-74.95 1.44,-149.9 -0.42,-224.64 -78.87,-6.19 -157.95,-4.96 -236.82,-1.03 -3.1,75.77 -3.1,151.75 -0.42,227.74" /><path
         id="path22"
         style="fill:#ffffff;fill-opacity:1;fill-rule:nonzero;stroke:none"
         d="m 3243.61,5184.82 c -0.62,-41.09 -0.83,-81.77 -1.03,-122.85 0,-36.34 0.2,-72.48 0.41,-108.82 -75.98,6.61 -156.91,-13.83 -229.6,8.26 -11.97,45.02 -9.08,92.71 -6.81,140.2 1.24,28.28 2.27,56.36 -0.2,84.03 -158.17,-2.48 -316.32,4.13 -474.48,0.21 -2.69,78.87 -1.86,157.95 -1.86,236.82 79.91,1.65 160.02,2.28 240.13,1.24 -1.86,-77.01 -2.06,-154.23 -0.82,-231.25 78.86,-1.65 157.95,-2.68 237.03,-3.71 79.07,0.82 158.97,-8.47 237.64,5.16 l 50.18,9.29 c 2.47,-5.16 7.23,-15.7 9.7,-20.86 -15.07,0.62 -45.22,1.66 -60.29,2.28" /><path
         id="path24"
         style="fill:#ffffff;fill-opacity:1;fill-rule:nonzero;stroke:none"
         d="m 2311.41,4712.38 -3.3,4.13 c -5.54,-46.9 -4.85,-94.19 -3.34,-141.49 h 5.54 c 0.62,45.8 0.85,91.62 1.1,137.36" /><path
         id="path26"
         style="fill:#ffffff;fill-opacity:1;fill-rule:nonzero;stroke:none"
         d="m 2308.31,4481.13 c 0.01,0.13 0.01,0.25 0.01,0.38 h -66.61 l -0.01,0.03 c -56.88,-1.21 -113.81,-0.29 -170.62,0 2.27,-91.88 -5.99,-184.17 5.16,-275.43 1.65,10.32 4.95,31.38 6.4,41.91 75.56,3.72 150.93,2.27 226.5,1.86 -2.48,77.01 -2.69,154.24 -0.83,231.25" /><path
         id="path28"
         style="fill:#ffffff;fill-opacity:1;fill-rule:nonzero;stroke:none"
         d="m 3258.09,4710.73 c 81.14,7.02 162.9,5.98 244.24,0.82 -1.85,-76.8 -1.65,-153.61 -1.23,-230.42 -80.73,-0.62 -161.46,-0.62 -242.19,0 1.24,76.6 1.24,153 -0.82,229.6" /><path
         id="path30"
         style="fill:#ffffff;fill-opacity:1;fill-rule:nonzero;stroke:none"
         d="m 3024.73,5420.2 c -0.21,-77.02 0,-154.24 -1.04,-231.25 -79.07,1.03 -158.15,2.06 -237.03,3.71 -1.23,77.02 -1.02,154.24 0.83,231.25 79.08,3.3 158.37,3.92 237.24,-3.71" /><path
         id="path32"
         style="fill:#ffffff;fill-opacity:1;fill-rule:nonzero;stroke:none"
         d="m 2548.6,5186.05 c -0.2,-21.67 -0.2,-43.35 -0.41,-65.03 -0.21,-55.75 -0.21,-111.7 -0.83,-167.45 -79.69,-0.62 -159.39,-0.62 -239.09,-0.42 -0.41,49.14 -0.41,98.28 -0.21,147.42 0.21,29.12 0.42,58.23 0.83,87.13 79.9,0.21 159.81,1.04 239.71,-1.65" /><path
         id="path34"
         style="fill:#ffffff;fill-opacity:1;fill-rule:nonzero;stroke:none"
         d="m 2783.82,4953.33 c 76.6,-5.37 156.09,12.39 230.62,-8.46 23.54,-73.71 3.93,-153.83 9.92,-230.22 -76.4,5.99 -156.71,-14.45 -230.01,10.53 -25.61,72.68 -4.95,152.58 -10.53,228.15" /><path
         id="path36"
         style="fill:#ffffff;fill-opacity:1;fill-rule:nonzero;stroke:none"
         d="m 2296.4,4806.78 c 77.22,7.44 155.48,0.62 233.32,1.86 -4.96,-77.63 -4.75,-155.26 0.2,-232.9 -78.87,-1.03 -157.74,-0.82 -236.61,-0.2 2.47,77.01 2.68,154.23 3.09,231.24" /><path
         id="path38"
         style="fill:#ffffff;fill-opacity:1;fill-rule:nonzero;stroke:none"
         d="m 2720.72,4436.66 c 70.62,24.77 148.05,4.75 221.56,10.74 -0.42,-79.7 -0.22,-159.4 0.41,-239.1 -77.44,0 -155.06,0 -232.49,0 5.37,75.78 -14.87,155.68 10.52,228.36" /><path
         id="path40"
         style="fill:#ffffff;fill-opacity:1;fill-rule:nonzero;stroke:none"
         d="m 3502.96,4241 c -4.13,80.11 -3.3,160.43 -1.45,240.54 78.46,-0.2 156.92,0.21 235.59,-1.65 -0.62,-79.08 -0.42,-158.36 -1.03,-237.44 -77.85,-0.41 -155.47,-0.21 -233.11,-1.45" /><path
         id="path42"
         style="fill:#ffffff;fill-opacity:1;fill-rule:nonzero;stroke:none"
         d="m 4436.38,4505.32 c -58.43,226.91 -259.53,414.8 -496.15,440.4 -58.23,163.53 -178.39,302.07 -328.09,386.93 -106.53,60.29 -227.73,93.53 -352.44,89.61 v -2.27 c -0.42,-75.16 -1.04,-150.52 1.65,-225.88 l 50.16,9.29 c 2.49,-5.16 7.23,-15.7 9.71,-20.86 l 2.69,-6.19 c 141.43,-5.37 272.96,-96.63 343.56,-216.59 0.83,-5.99 1.45,-11.77 1.87,-17.75 7.63,-75.16 0.2,-151.56 2.89,-227.12 111.49,-9.5 230.42,17.13 335.31,-32.84 126.36,-56.77 214.52,-192.84 204.61,-332.62 0.83,-182.32 -166.42,-340.47 -346.47,-340.47 -406.54,-1.24 -813.29,0.2 -1219.83,-0.21 -151.14,-2.27 -278.94,107.78 -336.75,241.16 -75.57,0.41 -150.94,1.86 -226.5,-1.86 -1.45,-10.53 -4.75,-31.59 -6.4,-41.91 51.82,-172.2 179.01,-321.48 347.28,-388.58 128.22,-58.64 272.14,-39.85 408.61,-46.87 364.63,9.7 729.67,-8.26 1093.68,5.37 286.17,26.22 527.34,286.17 527.54,574.2 2.27,52.65 -3.72,104.88 -16.93,155.06" /><path
         id="path44"
         style="fill:#ffffff;fill-opacity:1;fill-rule:nonzero;stroke:none"
         d="m 2247.44,5031.29 c -0.21,-49.14 -0.21,-98.28 0.2,-147.42 -79.07,0 -158.16,-0.21 -237.23,0 0,35.51 -0.21,71.23 -0.21,106.74 0,42.95 0.41,85.89 0.83,128.63 79.07,-1.03 158.16,-0.82 237.23,-0.82 -0.41,-28.91 -0.62,-58.02 -0.82,-87.13" /><path
         id="path46"
         style="fill:#ffffff;fill-opacity:1;fill-rule:nonzero;stroke:none"
         d="m 2562.04,4714.24 c 73.92,-6.4 154.65,18.58 223.21,-15.7 26.22,-61.11 25.8,-140.4 0,-201.51 -68.35,-34.28 -149.29,-9.08 -223,-15.69 -4.95,77.63 -5.16,155.26 -0.21,232.9" /><path
         id="path48"
         style="fill:#ffffff;fill-opacity:1;fill-rule:nonzero;stroke:none"
         d="m 2978.04,4569.69 c 81.56,0.21 163.32,1.65 244.88,-2.48 -1.24,-79.49 3.1,-159.19 -5.58,-238.47 -79.69,2.47 -159.18,1.85 -238.88,1.85 -0.63,79.71 -0.83,159.41 -0.42,239.1" /></g></g></svg>