<?xml version="1.0" encoding="UTF-8" standalone="no"?><!DOCTYPE svg PUBLIC "-//W3C//DTD SVG 1.1//EN" "http://www.w3.org/Graphics/SVG/1.1/DTD/svg11.dtd"><svg width="100%" height="100%" viewBox="0 0 1864 899" version="1.1" xmlns="http://www.w3.org/2000/svg" xmlns:xlink="http://www.w3.org/1999/xlink" xml:space="preserve" xmlns:serif="http://www.serif.com/" style="fill-rule:evenodd;clip-rule:evenodd;stroke-linejoin:round;stroke-miterlimit:2;"><path d="M1123.58,756.282c-35.296,0 -63.904,-28.612 -63.904,-63.904c-0,-35.296 28.608,-63.908 63.904,-63.908c35.292,-0 63.904,28.612 63.904,63.908c0,35.292 -28.612,63.904 -63.904,63.904m-0,-182.95c-65.746,0 -119.046,53.3 -119.046,119.046c0,65.742 53.3,119.042 119.046,119.042c65.746,-0 119.046,-53.3 119.046,-119.042c-0,-65.746 -53.3,-119.046 -119.046,-119.046" style="fill:#00aca9;"/><path d="M434.918,578.947l-53.654,-0c-14.387,-0 -26.775,5.325 -36.671,15.775l-63.908,67.191l-0,-171.487l-28.625,-0c-20.888,-0 -37.917,17.037 -37.917,37.916l0,279.892l28.621,0c20.888,0 37.921,-17.033 37.921,-37.917l-0,-37.383l26.012,-23.846l43.738,70.904l2.675,4.317c9.471,15.346 24.954,23.988 42.983,23.988l39.488,1.033l-90.35,-140.842l89.687,-89.541Z" style="fill:#00aca9;"/><path d="M1643.14,578.947l-53.659,-0c-14.383,-0 -26.77,5.325 -36.67,15.775l-63.905,67.191l0,-171.487l-28.62,-0c-20.892,-0 -37.921,17.037 -37.921,37.916l-0,279.892l28.62,0c20.888,0 37.921,-17.033 37.921,-37.917l0,-37.383l26.017,-23.846l43.737,70.904l2.667,4.317c9.475,15.346 24.958,23.988 42.988,23.988l39.487,1.033l-90.346,-140.842l89.684,-89.541Z" style="fill:#00aca9;"/><path d="M194.021,620.329c-4.034,-12.334 -11.042,-21.934 -20.113,-29.263c-17.504,-14.137 -42.8,-19.979 -69.512,-20.8c-31.942,-0.975 -56.817,4.521 -73.788,15.925c-16.754,11.25 -25.875,28.4 -26.562,50.896c-0.421,13.767 2.725,25.633 9.229,35.333c6.558,9.8 16.612,17.53 29.9,22.934c6.65,2.608 13.946,5.162 22.929,7.904c9.017,2.746 19.559,5.633 32.634,8.896c14.479,3.825 23.637,7.079 29.187,11.004c5.975,4.225 7.942,9.154 7.729,16.096c-0.246,7.996 -3.854,14.333 -10.071,18.575c-6.062,4.121 -14.637,6.233 -25.02,5.916c-11.588,-0.354 -21.251,-2.654 -28.196,-8.116c-0.267,-0.217 -0.546,-0.446 -0.796,-0.659c-15.742,-13.441 -34.929,-17.454 -54.325,-11.379l-17.246,5.409c4.075,16.1 12.217,28.295 23.025,37.32c19.012,15.867 46.413,22.134 74.475,22.992c31.9,0.975 57.6,-5.571 75.467,-18.433c17.683,-12.734 27.72,-31.767 28.454,-55.871c0.446,-14.513 -2.417,-26.621 -8.688,-36.438c-6.304,-9.833 -16.146,-17.525 -29.583,-23.145c-19.058,-7.855 -38.583,-12.796 -58.421,-17.805l-9.771,-2.504c-11.133,-2.846 -25.221,-6.462 -24.75,-21.8c0.204,-6.721 3.188,-11.896 8.659,-15.262c5.175,-3.204 12.645,-4.754 22.116,-4.463c9.829,0.3 17.75,2.054 23.642,6.142c15.987,11.108 34.104,13.504 52.192,6.887l17.204,-6.291Z" style="fill:#00aca9;"/><path d="M949.799,809.33l65.096,-230.358l-32.438,-0c-17.65,-0 -32.542,11.65 -36.8,28.766l-33.287,133.963l-36.205,-162.729l-28.604,-0c-17.954,-0 -33.071,12.091 -37,29.596l-30.087,133.916l-32.134,-134.417c-4.125,-17.266 -19.108,-29.095 -36.866,-29.095l-33.846,-0l57.308,202.754c4.684,16.579 19.259,27.604 36.488,27.604l36.466,0l37.15,-161.404l32.809,132.592c4.246,17.149 19.137,28.812 36.8,28.812l35.15,0Z" style="fill:#00aca9;"/><path d="M1854.17,578.837l-192.613,0l0,15.792c0,20.904 17.034,37.941 37.921,37.941l71.921,0l-105.683,107.888c-4.513,4.6 -7.913,9.696 -10.154,15.204c-2.23,5.492 -3.38,11.504 -3.38,17.971l0,35.696l210.917,-0l0,-17.05c0,-20.896 -17.029,-37.942 -37.921,-37.942l-90.058,0l105.608,-108.45c4.488,-4.617 7.859,-9.683 10.088,-15.179c2.229,-5.483 3.354,-11.475 3.354,-17.913l-0,-33.958Z" style="fill:#00aca9;"/><path d="M636.66,578.971c-17.1,0 -31.596,10.859 -36.4,27.259l-41.596,142.12l-41.912,-142.183c-4.825,-16.371 -19.3,-27.196 -36.367,-27.196l-38.379,0c-0,0 87.25,257.467 88.246,260.292c0.275,0.779 0.3,1.25 0.412,1.825l-36.954,-0l-0,0.033c-2.129,-0.029 -4.083,-0.116 -6.429,-0.066c-18.784,0.42 -32.046,18.67 -32.046,37.458l-0,19.725l83.1,-0c0.096,-0.05 0.171,-0.117 0.262,-0.167c16.613,-0.404 32.025,-10.9 37.6,-27.529c2.688,-8.017 5.384,-16.042 8.071,-24.062c0.029,-0.034 0.059,-0.067 0.088,-0.1c-0,0.12 86.183,-267.409 86.183,-267.409l-33.879,0Z" style="fill:#00aca9;"/><path d="M1311.41,576.513c-0.159,0 -0.3,0.125 -0.459,0.142l-13.345,-0c-22.38,-0 -40.617,18.242 -40.617,40.617l-0,133.587c0.05,0.067 0.117,0.108 0.167,0.179c0.029,18.834 0.05,38.021 0.05,58.292l26.954,-0c22.379,-0 40.616,-18.246 40.616,-40.617l0,-133.587c0.009,-0.004 0.013,-0.004 0.021,-0.009l50.229,0c19.292,0 35.025,-15.729 35.025,-35.029l0,-23.246c-56.57,0 -42.216,-0.329 -98.641,-0.329" style="fill:#00aca9;"/><path d="M1358.03,249.55c-32.275,-59.233 -92.296,-94.6 -160.562,-94.6c-33.442,0 -57.729,8 -69.734,12.975c-66.929,26.737 -109.858,91.092 -151.379,153.333c-53.041,79.521 -103.187,154.525 -200.487,142.667c-36.717,-4.513 -71.342,-24.192 -95.004,-53.975c-24.209,-30.475 -35,-67.967 -30.38,-105.55c10.63,-86.396 87.805,-132.175 156.155,-126.654c17.558,1.462 33.666,-8.554 40.104,-24.867c1.775,-4.512 3.762,-8.921 5.937,-13.225l1.192,-2.416c0.925,-1.725 1.883,-3.409 2.846,-5.088l1.216,-2.229c28.471,-48.225 77.721,-76.558 135.075,-77.738c51.125,-0.75 98.909,24.017 129.013,65.346c8.729,11.975 23.904,17.913 38.767,15.084c6.854,-1.305 13.845,-2.271 20.77,-2.867l6.671,-0.571l-2.779,-6.096c-34.212,-74.916 -109.117,-123.079 -191.154,-123.079c-0.567,0 -1.133,0 -1.7,0.008c-82.975,0.675 -157.558,49.68 -190.933,125.121c-82.605,-3.062 -158.567,45.538 -189.688,121.809c-23.208,56.858 -18.754,119.75 12.213,172.55c31.075,52.979 85.408,89.012 145.325,96.379c129.179,15.95 190.72,-76.355 250.237,-165.575c50.221,-75.3 97.475,-146.496 184.029,-143.121c69.879,2.662 124.509,59.554 124.359,129.512c-0.142,68.409 -55.005,125.759 -122.73,128.813l-140.533,-0c-19.458,-0 -36.467,13.15 -41.354,31.983l-5.296,20.358l185.271,0l4.725,-0.074l-0,-0.121c56.196,-2.259 112.208,-34.667 143.75,-83.55c35.654,-55.25 37.975,-125.967 6.058,-184.542" style="fill:#00aca9;fill-rule:nonzero;"/><path d="M1206.78,459.493c2.404,-0 4.354,-1.95 4.354,-4.354c0,-2.388 -1.95,-4.338 -4.354,-4.338c-2.387,0 -4.35,1.95 -4.35,4.338c0,2.404 1.963,4.354 4.35,4.354" style="fill:#00aca9;"/><path d="M1173.15,459.493c2.392,-0 4.35,-1.95 4.35,-4.354c-0,-2.388 -1.958,-4.338 -4.35,-4.338c-2.404,0 -4.354,1.95 -4.354,4.338c-0,2.404 1.95,4.354 4.354,4.354" style="fill:#00aca9;"/><path d="M1139.51,459.493c2.404,-0 4.354,-1.95 4.354,-4.354c0,-2.388 -1.95,-4.338 -4.354,-4.338c-2.387,0 -4.337,1.95 -4.337,4.338c-0,2.404 1.95,4.354 4.337,4.354" style="fill:#00aca9;"/><path d="M1105.89,458.683c1.946,-0 3.546,-1.583 3.546,-3.542c-0,-1.941 -1.6,-3.529 -3.546,-3.529c-1.946,0 -3.546,1.588 -3.546,3.529c0,1.959 1.6,3.542 3.546,3.542" style="fill:#00aca9;"/><path d="M1072.26,459.493c2.391,-0 4.341,-1.95 4.341,-4.354c0,-2.388 -1.95,-4.338 -4.341,-4.338c-2.405,0 -4.351,1.95 -4.351,4.338c0.001,2.404 1.946,4.354 4.351,4.354" style="fill:#00aca9;"/><path d="M1038.62,458.683c1.958,-0 3.542,-1.583 3.542,-3.542c-0,-1.941 -1.584,-3.529 -3.542,-3.529c-1.946,0 -3.546,1.588 -3.546,3.529c0,1.959 1.6,3.542 3.546,3.542" style="fill:#00aca9;"/><path d="M1004.99,458.683c1.946,-0 3.546,-1.583 3.546,-3.542c-0,-1.941 -1.6,-3.529 -3.546,-3.529c-1.959,0 -3.542,1.588 -3.542,3.529c0,1.959 1.583,3.542 3.542,3.542" style="fill:#00aca9;"/><path d="M1274.05,425.966c1.946,0 3.542,-1.596 3.542,-3.541c-0,-1.959 -1.596,-3.546 -3.542,-3.546c-1.946,-0 -3.546,1.587 -3.546,3.546c0,1.945 1.6,3.541 3.546,3.541" style="fill:#00aca9;"/><path d="M1240.42,426.776c2.391,-0 4.341,-1.963 4.341,-4.35c0,-2.409 -1.95,-4.354 -4.341,-4.354c-2.404,-0 -4.35,1.945 -4.35,4.354c-0,2.387 1.946,4.35 4.35,4.35" style="fill:#00aca9;"/><path d="M1206.78,426.776c2.404,-0 4.354,-1.963 4.354,-4.35c0,-2.409 -1.95,-4.354 -4.354,-4.354c-2.387,-0 -4.35,1.945 -4.35,4.354c0,2.387 1.963,4.35 4.35,4.35" style="fill:#00aca9;"/><path d="M1173.15,426.776c2.392,-0 4.35,-1.963 4.35,-4.35c-0,-2.409 -1.958,-4.354 -4.35,-4.354c-2.404,-0 -4.354,1.945 -4.354,4.354c-0,2.387 1.95,4.35 4.354,4.35" style="fill:#00aca9;"/><path d="M1139.51,426.776c2.404,-0 4.354,-1.963 4.354,-4.35c0,-2.409 -1.95,-4.354 -4.354,-4.354c-2.387,-0 -4.337,1.945 -4.337,4.354c-0,2.387 1.95,4.35 4.337,4.35" style="fill:#00aca9;"/><path d="M1105.89,426.776c2.391,-0 4.35,-1.963 4.35,-4.35c-0,-2.409 -1.958,-4.354 -4.35,-4.354c-2.392,-0 -4.354,1.945 -4.354,4.354c-0,2.387 1.962,4.35 4.354,4.35" style="fill:#00aca9;"/><path d="M1072.26,426.776c2.391,-0 4.341,-1.963 4.341,-4.35c0,-2.409 -1.95,-4.354 -4.341,-4.354c-2.405,-0 -4.351,1.945 -4.351,4.354c0.001,2.387 1.946,4.35 4.351,4.35" style="fill:#00aca9;"/><path d="M1038.62,426.776c2.404,-0 4.35,-1.963 4.35,-4.35c0,-2.409 -1.946,-4.354 -4.35,-4.354c-2.392,-0 -4.354,1.945 -4.354,4.354c-0,2.387 1.962,4.35 4.354,4.35" style="fill:#00aca9;"/><path d="M1004.99,425.966c1.946,0 3.546,-1.596 3.546,-3.541c-0,-1.959 -1.6,-3.546 -3.546,-3.546c-1.959,-0 -3.542,1.587 -3.542,3.546c0,1.945 1.583,3.541 3.542,3.541" style="fill:#00aca9;"/><path d="M1274.05,394.045c2.388,-0 4.35,-1.95 4.35,-4.35c0,-2.392 -1.962,-4.342 -4.35,-4.342c-2.392,0 -4.354,1.95 -4.354,4.342c-0,2.4 1.962,4.35 4.354,4.35" style="fill:#00aca9;"/><path d="M1240.42,394.423c2.6,0 4.716,-2.116 4.716,-4.733c0,-2.596 -2.116,-4.717 -4.716,-4.717c-2.613,0 -4.734,2.121 -4.734,4.717c0,2.617 2.121,4.733 4.734,4.733" style="fill:#00aca9;"/><path d="M1206.78,394.415c2.609,-0 4.725,-2.113 4.725,-4.725c0,-2.592 -2.116,-4.708 -4.725,-4.708c-2.591,-0 -4.725,2.116 -4.725,4.708c0,2.612 2.134,4.725 4.725,4.725" style="fill:#00aca9;"/><path d="M1173.15,394.415c2.596,-0 4.725,-2.113 4.725,-4.725c-0,-2.592 -2.129,-4.708 -4.725,-4.708c-2.608,-0 -4.725,2.116 -4.725,4.708c-0,2.612 2.117,4.725 4.725,4.725" style="fill:#00aca9;"/><path d="M1139.51,394.423c2.613,0 4.733,-2.116 4.733,-4.733c0,-2.596 -2.12,-4.717 -4.733,-4.717c-2.6,0 -4.717,2.121 -4.717,4.717c0,2.617 2.117,4.733 4.717,4.733" style="fill:#00aca9;"/><path d="M1105.89,394.045c2.391,-0 4.35,-1.95 4.35,-4.35c-0,-2.392 -1.958,-4.342 -4.35,-4.342c-2.392,0 -4.354,1.95 -4.354,4.342c-0,2.4 1.962,4.35 4.354,4.35" style="fill:#00aca9;"/><path d="M1072.26,394.045c2.391,-0 4.341,-1.95 4.341,-4.35c0,-2.392 -1.95,-4.342 -4.341,-4.342c-2.405,0 -4.351,1.95 -4.351,4.342c0.001,2.4 1.946,4.35 4.351,4.35" style="fill:#00aca9;"/><path d="M1038.62,394.045c2.404,-0 4.35,-1.95 4.35,-4.35c0,-2.392 -1.946,-4.342 -4.35,-4.342c-2.392,0 -4.354,1.95 -4.354,4.342c-0,2.4 1.962,4.35 4.354,4.35" style="fill:#00aca9;"/><path d="M1307.68,361.328c2.405,-0 4.355,-1.963 4.355,-4.354c-0,-2.404 -1.95,-4.35 -4.355,-4.35c-2.391,-0 -4.337,1.946 -4.337,4.35c-0,2.391 1.946,4.354 4.337,4.354" style="fill:#00aca9;"/><path d="M1274.05,361.328c2.388,-0 4.35,-1.963 4.35,-4.354c0,-2.404 -1.962,-4.35 -4.35,-4.35c-2.392,-0 -4.354,1.946 -4.354,4.35c-0,2.391 1.962,4.354 4.354,4.354" style="fill:#00aca9;"/><path d="M1240.42,361.328c2.391,-0 4.341,-1.963 4.341,-4.354c0,-2.404 -1.95,-4.35 -4.341,-4.35c-2.404,-0 -4.35,1.946 -4.35,4.35c-0,2.391 1.946,4.354 4.35,4.354" style="fill:#00aca9;"/><path d="M1206.78,362.29c2.938,0 5.317,-2.395 5.317,-5.316c-0,-2.934 -2.379,-5.313 -5.317,-5.313c-2.916,0 -5.312,2.379 -5.312,5.313c-0,2.921 2.396,5.316 5.312,5.316" style="fill:#00aca9;"/><path d="M1173.15,362.88c3.242,0 5.904,-2.662 5.904,-5.904c0,-3.262 -2.662,-5.904 -5.904,-5.904c-3.263,0 -5.904,2.642 -5.904,5.904c-0,3.242 2.641,5.904 5.904,5.904" style="fill:#00aca9;"/><path d="M1139.51,362.298c2.942,0 5.321,-2.4 5.321,-5.325c-0,-2.937 -2.379,-5.321 -5.321,-5.321c-2.925,0 -5.304,2.384 -5.304,5.321c-0,2.925 2.379,5.325 5.304,5.325" style="fill:#00aca9;"/><path d="M1105.89,361.328c2.391,-0 4.35,-1.963 4.35,-4.354c-0,-2.404 -1.958,-4.35 -4.35,-4.35c-2.392,-0 -4.354,1.946 -4.354,4.35c-0,2.391 1.962,4.354 4.354,4.354" style="fill:#00aca9;"/><path d="M1072.26,361.328c2.391,-0 4.341,-1.963 4.341,-4.354c0,-2.404 -1.95,-4.35 -4.341,-4.35c-2.405,-0 -4.351,1.946 -4.351,4.35c0.001,2.391 1.946,4.354 4.351,4.354" style="fill:#00aca9;"/><path d="M1038.62,361.328c2.404,-0 4.35,-1.963 4.35,-4.354c0,-2.404 -1.946,-4.35 -4.35,-4.35c-2.392,-0 -4.354,1.946 -4.354,4.35c-0,2.391 1.962,4.354 4.354,4.354" style="fill:#00aca9;"/><path d="M1307.68,328.597c2.405,-0 4.355,-1.95 4.355,-4.355c-0,-2.387 -1.95,-4.337 -4.355,-4.337c-2.391,-0 -4.337,1.95 -4.337,4.337c-0,2.405 1.946,4.355 4.337,4.355" style="fill:#00aca9;"/><path d="M1274.05,328.597c2.388,-0 4.35,-1.95 4.35,-4.355c0,-2.387 -1.962,-4.337 -4.35,-4.337c-2.392,-0 -4.354,1.95 -4.354,4.337c-0,2.405 1.962,4.355 4.354,4.355" style="fill:#00aca9;"/><path d="M1240.42,328.975c2.6,0 4.716,-2.116 4.716,-4.733c0,-2.596 -2.116,-4.717 -4.716,-4.717c-2.613,0 -4.734,2.121 -4.734,4.717c0,2.617 2.121,4.733 4.734,4.733" style="fill:#00aca9;"/><path d="M1206.78,329.557c2.938,0 5.317,-2.379 5.317,-5.312c-0,-2.921 -2.379,-5.3 -5.317,-5.3c-2.916,-0 -5.312,2.379 -5.312,5.3c-0,2.933 2.396,5.312 5.312,5.312" style="fill:#00aca9;"/><path d="M1173.15,330.147c3.242,0 5.904,-2.646 5.904,-5.904c0,-3.242 -2.662,-5.888 -5.904,-5.888c-3.263,0 -5.904,2.646 -5.904,5.888c-0,3.258 2.641,5.904 5.904,5.904" style="fill:#00aca9;"/><path d="M1139.51,329.565c2.942,0 5.321,-2.383 5.321,-5.32c-0,-2.925 -2.379,-5.309 -5.321,-5.309c-2.925,0 -5.304,2.384 -5.304,5.309c-0,2.937 2.379,5.32 5.304,5.32" style="fill:#00aca9;"/><path d="M1105.89,328.597c2.391,-0 4.35,-1.95 4.35,-4.355c-0,-2.387 -1.958,-4.337 -4.35,-4.337c-2.392,-0 -4.354,1.95 -4.354,4.337c-0,2.405 1.962,4.355 4.354,4.355" style="fill:#00aca9;"/><path d="M1072.26,328.597c2.391,-0 4.341,-1.95 4.341,-4.355c0,-2.387 -1.95,-4.337 -4.341,-4.337c-2.405,-0 -4.351,1.95 -4.351,4.337c0.001,2.405 1.946,4.355 4.351,4.355" style="fill:#00aca9;"/><path d="M1274.05,295.88c2.388,-0 4.35,-1.963 4.35,-4.354c0,-2.404 -1.962,-4.35 -4.35,-4.35c-2.392,-0 -4.354,1.946 -4.354,4.35c-0,2.391 1.962,4.354 4.354,4.354" style="fill:#00aca9;"/><path d="M1240.42,295.88c2.391,-0 4.341,-1.963 4.341,-4.354c0,-2.404 -1.95,-4.35 -4.341,-4.35c-2.404,-0 -4.35,1.946 -4.35,4.35c-0,2.391 1.946,4.354 4.35,4.354" style="fill:#00aca9;"/><path d="M1206.78,296.252c2.609,0 4.725,-2.133 4.725,-4.725c0,-2.608 -2.116,-4.725 -4.725,-4.725c-2.591,0 -4.725,2.117 -4.725,4.725c0,2.592 2.134,4.725 4.725,4.725" style="fill:#00aca9;"/><path d="M1173.15,296.252c2.596,0 4.725,-2.133 4.725,-4.725c-0,-2.608 -2.129,-4.725 -4.725,-4.725c-2.608,0 -4.725,2.117 -4.725,4.725c-0,2.592 2.117,4.725 4.725,4.725" style="fill:#00aca9;"/><path d="M1139.51,296.258c2.613,0 4.733,-2.133 4.733,-4.733c0,-2.613 -2.12,-4.729 -4.733,-4.729c-2.6,-0 -4.717,2.116 -4.717,4.729c0,2.6 2.117,4.733 4.717,4.733" style="fill:#00aca9;"/><path d="M1105.89,295.88c2.391,-0 4.35,-1.963 4.35,-4.354c-0,-2.404 -1.958,-4.35 -4.35,-4.35c-2.392,-0 -4.354,1.946 -4.354,4.35c-0,2.391 1.962,4.354 4.354,4.354" style="fill:#00aca9;"/><path d="M1274.05,262.341c1.946,0 3.542,-1.587 3.542,-3.546c-0,-1.941 -1.596,-3.529 -3.542,-3.529c-1.946,0 -3.546,1.588 -3.546,3.529c0,1.959 1.6,3.546 3.546,3.546" style="fill:#00aca9;"/><path d="M1240.42,263.149c2.391,-0 4.341,-1.95 4.341,-4.354c0,-2.388 -1.95,-4.338 -4.341,-4.338c-2.404,0 -4.35,1.95 -4.35,4.338c-0,2.404 1.946,4.354 4.35,4.354" style="fill:#00aca9;"/><path d="M1206.78,263.149c2.404,-0 4.354,-1.95 4.354,-4.354c0,-2.388 -1.95,-4.338 -4.354,-4.338c-2.387,0 -4.35,1.95 -4.35,4.338c0,2.404 1.963,4.354 4.35,4.354" style="fill:#00aca9;"/><path d="M1173.15,263.149c2.392,-0 4.35,-1.95 4.35,-4.354c-0,-2.388 -1.958,-4.338 -4.35,-4.338c-2.404,0 -4.354,1.95 -4.354,4.338c-0,2.404 1.95,4.354 4.354,4.354" style="fill:#00aca9;"/><path d="M1139.51,263.149c2.404,-0 4.354,-1.95 4.354,-4.354c0,-2.388 -1.95,-4.338 -4.354,-4.338c-2.387,0 -4.337,1.95 -4.337,4.338c-0,2.404 1.95,4.354 4.337,4.354" style="fill:#00aca9;"/><path d="M1105.89,262.341c1.946,0 3.546,-1.587 3.546,-3.546c-0,-1.941 -1.6,-3.529 -3.546,-3.529c-1.946,0 -3.546,1.588 -3.546,3.529c0,1.959 1.6,3.546 3.546,3.546" style="fill:#00aca9;"/><path d="M1206.78,230.432c2.404,0 4.354,-1.962 4.354,-4.354c0,-2.388 -1.95,-4.35 -4.354,-4.35c-2.387,-0 -4.35,1.962 -4.35,4.35c0,2.392 1.963,4.354 4.35,4.354" style="fill:#00aca9;"/><path d="M1173.15,230.432c2.392,0 4.35,-1.962 4.35,-4.354c-0,-2.388 -1.958,-4.35 -4.35,-4.35c-2.404,-0 -4.354,1.962 -4.354,4.35c-0,2.392 1.95,4.354 4.354,4.354" style="fill:#00aca9;"/><path d="M1257.69,442.332c1.95,-0 3.538,-1.588 3.538,-3.55c-0,-1.95 -1.588,-3.55 -3.538,-3.55c-1.958,-0 -3.55,1.6 -3.55,3.55c0,1.962 1.592,3.55 3.55,3.55" style="fill:#00aca9;"/><path d="M1224.05,443.135c2.404,0 4.354,-1.95 4.354,-4.354c0,-2.391 -1.95,-4.35 -4.354,-4.35c-2.387,0 -4.35,1.959 -4.35,4.35c0,2.404 1.963,4.354 4.35,4.354" style="fill:#00aca9;"/><path d="M1190.42,443.135c2.391,0 4.35,-1.95 4.35,-4.354c-0,-2.391 -1.959,-4.35 -4.35,-4.35c-2.404,0 -4.354,1.959 -4.354,4.35c-0,2.404 1.95,4.354 4.354,4.354" style="fill:#00aca9;"/><path d="M1156.8,443.135c2.392,0 4.342,-1.95 4.342,-4.354c0,-2.391 -1.95,-4.35 -4.342,-4.35c-2.404,0 -4.35,1.959 -4.35,4.35c0,2.404 1.946,4.354 4.35,4.354" style="fill:#00aca9;"/><path d="M1123.15,443.135c2.404,0 4.35,-1.95 4.35,-4.354c-0,-2.391 -1.946,-4.35 -4.35,-4.35c-2.392,0 -4.354,1.959 -4.354,4.35c-0,2.404 1.962,4.354 4.354,4.354" style="fill:#00aca9;"/><path d="M1089.53,443.135c2.391,0 4.354,-1.95 4.354,-4.354c-0,-2.391 -1.963,-4.35 -4.354,-4.35c-2.404,0 -4.35,1.959 -4.35,4.35c-0,2.404 1.946,4.354 4.35,4.354" style="fill:#00aca9;"/><path d="M1055.89,443.135c2.404,0 4.35,-1.95 4.35,-4.354c-0,-2.391 -1.946,-4.35 -4.35,-4.35c-2.392,0 -4.342,1.959 -4.342,4.35c0,2.404 1.95,4.354 4.342,4.354" style="fill:#00aca9;"/><path d="M1022.26,442.326c1.946,-0 3.546,-1.588 3.546,-3.546c0,-1.942 -1.6,-3.542 -3.546,-3.542c-1.945,0 -3.541,1.6 -3.541,3.542c-0,1.958 1.596,3.546 3.541,3.546" style="fill:#00aca9;"/><path d="M1291.32,409.595c1.946,-0 3.542,-1.584 3.542,-3.534c-0,-1.954 -1.596,-3.541 -3.542,-3.541c-1.946,-0 -3.546,1.587 -3.546,3.541c0,1.95 1.6,3.534 3.546,3.534" style="fill:#00aca9;"/><path d="M1257.69,410.404c2.391,0 4.341,-1.95 4.341,-4.342c0,-2.404 -1.95,-4.35 -4.341,-4.35c-2.405,0 -4.35,1.946 -4.35,4.35c-0,2.392 1.945,4.342 4.35,4.342" style="fill:#00aca9;"/><path d="M1224.05,410.775c2.608,-0 4.725,-2.117 4.725,-4.709c0,-2.608 -2.117,-4.725 -4.725,-4.725c-2.592,0 -4.725,2.117 -4.725,4.725c0,2.592 2.133,4.709 4.725,4.709" style="fill:#00aca9;"/><path d="M1190.42,410.404c2.391,0 4.35,-1.95 4.35,-4.342c-0,-2.404 -1.959,-4.35 -4.35,-4.35c-2.404,0 -4.354,1.946 -4.354,4.35c-0,2.392 1.95,4.342 4.354,4.342" style="fill:#00aca9;"/><path d="M1156.8,410.404c2.392,0 4.342,-1.95 4.342,-4.342c0,-2.404 -1.95,-4.35 -4.342,-4.35c-2.404,0 -4.35,1.946 -4.35,4.35c0,2.392 1.946,4.342 4.35,4.342" style="fill:#00aca9;"/><path d="M1123.15,410.404c2.404,0 4.35,-1.95 4.35,-4.342c-0,-2.404 -1.946,-4.35 -4.35,-4.35c-2.392,0 -4.354,1.946 -4.354,4.35c-0,2.392 1.962,4.342 4.354,4.342" style="fill:#00aca9;"/><path d="M1089.53,410.404c2.391,0 4.354,-1.95 4.354,-4.342c-0,-2.404 -1.963,-4.35 -4.354,-4.35c-2.404,0 -4.35,1.946 -4.35,4.35c-0,2.392 1.946,4.342 4.35,4.342" style="fill:#00aca9;"/><path d="M1055.89,410.404c2.404,0 4.35,-1.95 4.35,-4.342c-0,-2.404 -1.946,-4.35 -4.35,-4.35c-2.392,0 -4.342,1.946 -4.342,4.35c0,2.392 1.95,4.342 4.342,4.342" style="fill:#00aca9;"/><path d="M1022.26,410.404c2.392,0 4.355,-1.95 4.355,-4.342c-0,-2.404 -1.963,-4.35 -4.355,-4.35c-2.387,0 -4.35,1.946 -4.35,4.35c0,2.392 1.963,4.342 4.35,4.342" style="fill:#00aca9;"/><path d="M1291.32,377.685c2.387,0 4.35,-1.945 4.35,-4.35c-0,-2.391 -1.963,-4.354 -4.35,-4.354c-2.392,0 -4.354,1.963 -4.354,4.354c-0,2.405 1.962,4.35 4.354,4.35" style="fill:#00aca9;"/><path d="M1257.69,377.685c2.391,0 4.341,-1.945 4.341,-4.35c0,-2.391 -1.95,-4.354 -4.341,-4.354c-2.405,0 -4.35,1.963 -4.35,4.354c-0,2.405 1.945,4.35 4.35,4.35" style="fill:#00aca9;"/><path d="M1224.05,378.057c2.608,0 4.725,-2.112 4.725,-4.725c0,-2.591 -2.117,-4.725 -4.725,-4.725c-2.592,0 -4.725,2.134 -4.725,4.725c0,2.613 2.133,4.725 4.725,4.725" style="fill:#00aca9;"/><path d="M1190.42,378.647c2.916,0 5.312,-2.379 5.312,-5.312c0,-2.921 -2.396,-5.317 -5.312,-5.317c-2.938,0 -5.313,2.396 -5.313,5.317c0,2.933 2.375,5.312 5.313,5.312" style="fill:#00aca9;"/><path d="M1156.8,378.658c2.925,-0 5.304,-2.383 5.304,-5.325c-0,-2.921 -2.38,-5.325 -5.304,-5.325c-2.942,-0 -5.321,2.404 -5.321,5.325c-0,2.942 2.379,5.325 5.321,5.325" style="fill:#00aca9;"/><path d="M1123.15,378.057c2.608,0 4.725,-2.112 4.725,-4.725c-0,-2.591 -2.117,-4.725 -4.725,-4.725c-2.596,0 -4.725,2.134 -4.725,4.725c-0,2.613 2.129,4.725 4.725,4.725" style="fill:#00aca9;"/><path d="M1089.53,377.685c2.391,0 4.354,-1.945 4.354,-4.35c-0,-2.391 -1.963,-4.354 -4.354,-4.354c-2.404,0 -4.35,1.963 -4.35,4.354c-0,2.405 1.946,4.35 4.35,4.35" style="fill:#00aca9;"/><path d="M1055.89,377.685c2.404,0 4.35,-1.945 4.35,-4.35c-0,-2.391 -1.946,-4.354 -4.35,-4.354c-2.392,0 -4.342,1.963 -4.342,4.354c0,2.405 1.95,4.35 4.342,4.35" style="fill:#00aca9;"/><path d="M1022.26,376.877c1.946,0 3.546,-1.587 3.546,-3.545c0,-1.942 -1.6,-3.542 -3.546,-3.542c-1.945,-0 -3.541,1.6 -3.541,3.542c-0,1.958 1.596,3.545 3.541,3.545" style="fill:#00aca9;"/><path d="M1291.32,344.954c2.387,0 4.35,-1.946 4.35,-4.337c-0,-2.405 -1.963,-4.355 -4.35,-4.355c-2.392,0 -4.354,1.95 -4.354,4.355c-0,2.391 1.962,4.337 4.354,4.337" style="fill:#00aca9;"/><path d="M1257.69,344.954c2.391,0 4.341,-1.946 4.341,-4.337c0,-2.405 -1.95,-4.355 -4.341,-4.355c-2.405,0 -4.35,1.95 -4.35,4.355c-0,2.391 1.945,4.337 4.35,4.337" style="fill:#00aca9;"/><path d="M1224.05,345.327c2.608,-0 4.725,-2.117 4.725,-4.709c0,-2.608 -2.117,-4.725 -4.725,-4.725c-2.592,0 -4.725,2.117 -4.725,4.725c0,2.592 2.133,4.709 4.725,4.709" style="fill:#00aca9;"/><path d="M1190.42,346.505c3.241,-0 5.904,-2.642 5.904,-5.888c-0,-3.258 -2.663,-5.904 -5.904,-5.904c-3.263,-0 -5.904,2.646 -5.904,5.904c-0,3.246 2.641,5.888 5.904,5.888" style="fill:#00aca9;"/><path d="M1156.8,346.515c3.245,-0 5.895,-2.65 5.895,-5.896c0,-3.267 -2.65,-5.913 -5.895,-5.913c-3.267,0 -5.917,2.646 -5.917,5.913c-0,3.246 2.65,5.896 5.917,5.896" style="fill:#00aca9;"/><path d="M1123.15,345.327c2.608,-0 4.725,-2.117 4.725,-4.709c-0,-2.608 -2.117,-4.725 -4.725,-4.725c-2.596,0 -4.725,2.117 -4.725,4.725c-0,2.592 2.129,4.709 4.725,4.709" style="fill:#00aca9;"/><path d="M1089.53,344.954c2.391,0 4.354,-1.946 4.354,-4.337c-0,-2.405 -1.963,-4.355 -4.354,-4.355c-2.404,0 -4.35,1.95 -4.35,4.355c-0,2.391 1.946,4.337 4.35,4.337" style="fill:#00aca9;"/><path d="M1055.89,344.954c2.404,0 4.35,-1.946 4.35,-4.337c-0,-2.405 -1.946,-4.355 -4.35,-4.355c-2.392,0 -4.342,1.95 -4.342,4.355c0,2.391 1.95,4.337 4.342,4.337" style="fill:#00aca9;"/><path d="M1291.32,312.237c2.387,0 4.35,-1.945 4.35,-4.35c-0,-2.391 -1.963,-4.354 -4.35,-4.354c-2.392,0 -4.354,1.963 -4.354,4.354c-0,2.405 1.962,4.35 4.354,4.35" style="fill:#00aca9;"/><path d="M1257.69,312.237c2.391,0 4.341,-1.945 4.341,-4.35c0,-2.391 -1.95,-4.354 -4.341,-4.354c-2.405,0 -4.35,1.963 -4.35,4.354c-0,2.405 1.945,4.35 4.35,4.35" style="fill:#00aca9;"/><path d="M1224.05,312.61c2.608,-0 4.725,-2.117 4.725,-4.725c0,-2.592 -2.117,-4.725 -4.725,-4.725c-2.592,-0 -4.725,2.133 -4.725,4.725c0,2.608 2.133,4.725 4.725,4.725" style="fill:#00aca9;"/><path d="M1190.42,313.2c2.916,-0 5.312,-2.38 5.312,-5.313c0,-2.921 -2.396,-5.317 -5.312,-5.317c-2.938,0 -5.313,2.396 -5.313,5.317c0,2.933 2.375,5.313 5.313,5.313" style="fill:#00aca9;"/><path d="M1156.8,313.21c2.925,-0 5.304,-2.383 5.304,-5.325c-0,-2.921 -2.38,-5.325 -5.304,-5.325c-2.942,-0 -5.321,2.404 -5.321,5.325c-0,2.942 2.379,5.325 5.321,5.325" style="fill:#00aca9;"/><path d="M1123.15,312.61c2.608,-0 4.725,-2.117 4.725,-4.725c-0,-2.592 -2.117,-4.725 -4.725,-4.725c-2.596,-0 -4.725,2.133 -4.725,4.725c-0,2.608 2.129,4.725 4.725,4.725" style="fill:#00aca9;"/><path d="M1089.53,312.237c2.391,0 4.354,-1.945 4.354,-4.35c-0,-2.391 -1.963,-4.354 -4.354,-4.354c-2.404,0 -4.35,1.963 -4.35,4.354c-0,2.405 1.946,4.35 4.35,4.35" style="fill:#00aca9;"/><path d="M1291.32,278.699c1.946,-0 3.542,-1.588 3.542,-3.534c-0,-1.954 -1.596,-3.541 -3.542,-3.541c-1.946,-0 -3.546,1.587 -3.546,3.541c0,1.946 1.6,3.534 3.546,3.534" style="fill:#00aca9;"/><path d="M1257.69,279.506c2.391,0 4.341,-1.95 4.341,-4.337c0,-2.404 -1.95,-4.354 -4.341,-4.354c-2.405,-0 -4.35,1.95 -4.35,4.354c-0,2.387 1.945,4.337 4.35,4.337" style="fill:#00aca9;"/><path d="M1224.05,279.506c2.404,0 4.354,-1.95 4.354,-4.337c0,-2.404 -1.95,-4.354 -4.354,-4.354c-2.387,-0 -4.35,1.95 -4.35,4.354c0,2.387 1.963,4.337 4.35,4.337" style="fill:#00aca9;"/><path d="M1190.42,279.506c2.391,0 4.35,-1.95 4.35,-4.337c-0,-2.404 -1.959,-4.354 -4.35,-4.354c-2.404,-0 -4.354,1.95 -4.354,4.354c-0,2.387 1.95,4.337 4.354,4.337" style="fill:#00aca9;"/><path d="M1156.8,279.885c2.6,-0 4.716,-2.117 4.716,-4.717c0,-2.613 -2.116,-4.733 -4.716,-4.733c-2.613,-0 -4.734,2.12 -4.734,4.733c0,2.6 2.121,4.717 4.734,4.717" style="fill:#00aca9;"/><path d="M1123.15,279.506c2.404,0 4.35,-1.95 4.35,-4.337c-0,-2.404 -1.946,-4.354 -4.35,-4.354c-2.392,-0 -4.354,1.95 -4.354,4.354c-0,2.387 1.962,4.337 4.354,4.337" style="fill:#00aca9;"/><path d="M1089.53,278.705c1.95,-0 3.55,-1.588 3.55,-3.538c-0,-1.958 -1.6,-3.55 -3.55,-3.55c-1.959,0 -3.55,1.592 -3.55,3.55c-0,1.95 1.591,3.538 3.55,3.538" style="fill:#00aca9;"/><path d="M1257.69,245.986c1.95,-0 3.538,-1.588 3.538,-3.55c-0,-1.946 -1.588,-3.55 -3.538,-3.55c-1.958,-0 -3.55,1.604 -3.55,3.55c0,1.962 1.592,3.55 3.55,3.55" style="fill:#00aca9;"/><path d="M1224.05,246.789c2.404,0 4.354,-1.95 4.354,-4.35c0,-2.392 -1.95,-4.354 -4.354,-4.354c-2.387,-0 -4.35,1.962 -4.35,4.354c0,2.4 1.963,4.35 4.35,4.35" style="fill:#00aca9;"/><path d="M1190.42,246.789c2.391,0 4.35,-1.95 4.35,-4.35c-0,-2.392 -1.959,-4.354 -4.35,-4.354c-2.404,-0 -4.354,1.962 -4.354,4.354c-0,2.4 1.95,4.35 4.354,4.35" style="fill:#00aca9;"/><path d="M1156.8,246.789c2.392,0 4.342,-1.95 4.342,-4.35c0,-2.392 -1.95,-4.354 -4.342,-4.354c-2.404,-0 -4.35,1.962 -4.35,4.354c0,2.4 1.946,4.35 4.35,4.35" style="fill:#00aca9;"/><path d="M1123.15,245.98c1.958,-0 3.546,-1.584 3.546,-3.542c-0,-1.946 -1.588,-3.546 -3.546,-3.546c-1.946,0 -3.546,1.6 -3.546,3.546c0,1.958 1.6,3.542 3.546,3.542" style="fill:#00aca9;"/><path d="M843.158,442.26c1.954,0 3.542,-1.595 3.542,-3.545c-0,-1.955 -1.588,-3.542 -3.542,-3.542c-1.946,-0 -3.546,1.587 -3.546,3.542c0,1.95 1.6,3.545 3.546,3.545" style="fill:#00aca9;"/><path d="M809.444,442.26c1.946,0 3.542,-1.595 3.542,-3.545c-0,-1.955 -1.596,-3.542 -3.542,-3.542c-1.958,-0 -3.546,1.587 -3.546,3.542c0,1.95 1.588,3.545 3.546,3.545" style="fill:#00aca9;"/><path d="M775.716,442.267c1.963,-0 3.55,-1.6 3.55,-3.55c0,-1.959 -1.587,-3.55 -3.55,-3.55c-1.95,-0 -3.537,1.591 -3.537,3.55c-0,1.95 1.587,3.55 3.537,3.55" style="fill:#00aca9;"/><path d="M876.884,410.266c2.396,-0 4.35,-1.954 4.35,-4.363c0,-2.4 -1.954,-4.35 -4.35,-4.35c-2.408,0 -4.362,1.95 -4.362,4.35c-0,2.409 1.954,4.363 4.362,4.363" style="fill:#00aca9;"/><path d="M843.158,410.266c2.408,-0 4.362,-1.954 4.362,-4.363c0,-2.4 -1.954,-4.35 -4.362,-4.35c-2.396,0 -4.363,1.95 -4.363,4.35c0,2.409 1.967,4.363 4.363,4.363" style="fill:#00aca9;"/><path d="M809.444,410.266c2.396,-0 4.363,-1.954 4.363,-4.363c-0,-2.4 -1.967,-4.35 -4.363,-4.35c-2.412,0 -4.362,1.95 -4.362,4.35c-0,2.409 1.95,4.363 4.362,4.363" style="fill:#00aca9;"/><path d="M775.716,410.266c2.409,-0 4.363,-1.954 4.363,-4.363c-0,-2.4 -1.954,-4.35 -4.363,-4.35c-2.396,0 -4.35,1.95 -4.35,4.35c0,2.409 1.954,4.363 4.35,4.363" style="fill:#00aca9;"/><path d="M742.002,410.266c2.409,-0 4.363,-1.954 4.363,-4.363c-0,-2.4 -1.954,-4.35 -4.363,-4.35c-2.395,0 -4.362,1.95 -4.362,4.35c-0,2.409 1.967,4.363 4.362,4.363" style="fill:#00aca9;"/><path d="M708.287,409.452c1.95,0 3.537,-1.587 3.537,-3.55c0,-1.946 -1.587,-3.537 -3.537,-3.537c-1.959,-0 -3.55,1.591 -3.55,3.537c-0,1.963 1.591,3.55 3.55,3.55" style="fill:#00aca9;"/><path d="M910.598,377.466c2.396,-0 4.362,-1.971 4.362,-4.363c0,-2.412 -1.966,-4.366 -4.362,-4.366c-2.396,-0 -4.363,1.954 -4.363,4.366c0,2.392 1.967,4.363 4.363,4.363" style="fill:#00aca9;"/><path d="M876.884,377.466c2.396,-0 4.35,-1.971 4.35,-4.363c0,-2.412 -1.954,-4.366 -4.35,-4.366c-2.408,-0 -4.362,1.954 -4.362,4.366c-0,2.392 1.954,4.363 4.362,4.363" style="fill:#00aca9;"/><path d="M843.158,377.826c2.608,-0 4.725,-2.129 4.725,-4.725c-0,-2.609 -2.117,-4.725 -4.725,-4.725c-2.596,-0 -4.725,2.116 -4.725,4.725c-0,2.596 2.129,4.725 4.725,4.725" style="fill:#00aca9;"/><path d="M809.444,377.826c2.592,-0 4.725,-2.129 4.725,-4.725c0,-2.609 -2.133,-4.725 -4.725,-4.725c-2.608,-0 -4.725,2.116 -4.725,4.725c0,2.596 2.117,4.725 4.725,4.725" style="fill:#00aca9;"/><path d="M775.714,377.834c2.613,-0 4.733,-2.134 4.733,-4.734c0,-2.612 -2.12,-4.729 -4.733,-4.729c-2.6,0 -4.717,2.117 -4.717,4.729c0,2.6 2.117,4.734 4.717,4.734" style="fill:#00aca9;"/><path d="M742.002,377.466c2.409,-0 4.363,-1.971 4.363,-4.363c-0,-2.412 -1.954,-4.366 -4.363,-4.366c-2.395,-0 -4.362,1.954 -4.362,4.366c-0,2.392 1.967,4.363 4.362,4.363" style="fill:#00aca9;"/><path d="M708.289,377.466c2.396,-0 4.35,-1.971 4.35,-4.363c-0,-2.412 -1.954,-4.366 -4.35,-4.366c-2.413,-0 -4.363,1.954 -4.363,4.366c0,2.392 1.95,4.363 4.363,4.363" style="fill:#00aca9;"/><path d="M910.598,344.649c2.396,0 4.362,-1.954 4.362,-4.362c0,-2.396 -1.966,-4.35 -4.362,-4.35c-2.396,-0 -4.363,1.954 -4.363,4.35c0,2.408 1.967,4.362 4.363,4.362" style="fill:#00aca9;"/><path d="M876.884,344.649c2.396,0 4.35,-1.954 4.35,-4.362c0,-2.396 -1.954,-4.35 -4.35,-4.35c-2.408,-0 -4.362,1.954 -4.362,4.35c-0,2.408 1.954,4.362 4.362,4.362" style="fill:#00aca9;"/><path d="M843.158,345.599c2.933,0 5.312,-2.379 5.312,-5.312c0,-2.921 -2.379,-5.3 -5.312,-5.3c-2.921,-0 -5.317,2.379 -5.317,5.3c0,2.933 2.396,5.312 5.317,5.312" style="fill:#00aca9;"/><path d="M809.444,345.599c2.917,0 5.313,-2.379 5.313,-5.312c-0,-2.921 -2.396,-5.3 -5.313,-5.3c-2.937,-0 -5.317,2.379 -5.317,5.3c0,2.933 2.38,5.312 5.317,5.312" style="fill:#00aca9;"/><path d="M775.714,345.607c2.942,0 5.321,-2.383 5.321,-5.32c-0,-2.925 -2.379,-5.309 -5.321,-5.309c-2.925,0 -5.304,2.384 -5.304,5.309c-0,2.937 2.379,5.32 5.304,5.32" style="fill:#00aca9;"/><path d="M742.002,345.009c2.609,0 4.725,-2.112 4.725,-4.725c0,-2.592 -2.116,-4.708 -4.725,-4.708c-2.595,-0 -4.725,2.116 -4.725,4.708c0,2.613 2.13,4.725 4.725,4.725" style="fill:#00aca9;"/><path d="M708.289,344.649c2.396,0 4.35,-1.954 4.35,-4.362c-0,-2.396 -1.954,-4.35 -4.35,-4.35c-2.413,-0 -4.363,1.954 -4.363,4.35c0,2.408 1.95,4.362 4.363,4.362" style="fill:#00aca9;"/><path d="M674.561,343.835c1.962,0 3.55,-1.587 3.55,-3.55c-0,-1.945 -1.588,-3.537 -3.55,-3.537c-1.946,-0 -3.538,1.592 -3.538,3.537c0,1.963 1.592,3.55 3.538,3.55" style="fill:#00aca9;"/><path d="M944.312,311.849c2.412,-0 4.362,-1.967 4.362,-4.363c0,-2.412 -1.95,-4.366 -4.362,-4.366c-2.396,-0 -4.35,1.954 -4.35,4.366c-0,2.396 1.954,4.363 4.35,4.363" style="fill:#00aca9;"/><path d="M910.598,311.849c2.396,-0 4.362,-1.967 4.362,-4.363c0,-2.412 -1.966,-4.366 -4.362,-4.366c-2.396,-0 -4.363,1.954 -4.363,4.366c0,2.396 1.967,4.363 4.363,4.363" style="fill:#00aca9;"/><path d="M876.884,311.849c2.396,-0 4.35,-1.967 4.35,-4.363c0,-2.412 -1.954,-4.366 -4.35,-4.366c-2.408,-0 -4.362,1.954 -4.362,4.366c-0,2.396 1.954,4.363 4.362,4.363" style="fill:#00aca9;"/><path d="M843.158,312.799c2.933,-0 5.312,-2.396 5.312,-5.313c0,-2.937 -2.379,-5.316 -5.312,-5.316c-2.921,-0 -5.317,2.379 -5.317,5.316c0,2.917 2.396,5.313 5.317,5.313" style="fill:#00aca9;"/><path d="M809.444,312.799c2.917,-0 5.313,-2.396 5.313,-5.313c-0,-2.937 -2.396,-5.316 -5.313,-5.316c-2.937,-0 -5.317,2.379 -5.317,5.316c0,2.917 2.38,5.313 5.317,5.313" style="fill:#00aca9;"/><path d="M775.714,312.809c2.942,0 5.321,-2.4 5.321,-5.325c-0,-2.937 -2.379,-5.325 -5.321,-5.325c-2.925,0 -5.304,2.388 -5.304,5.325c-0,2.925 2.379,5.325 5.304,5.325" style="fill:#00aca9;"/><path d="M742.002,311.849c2.409,-0 4.363,-1.967 4.363,-4.363c-0,-2.412 -1.954,-4.366 -4.363,-4.366c-2.395,-0 -4.362,1.954 -4.362,4.366c-0,2.396 1.967,4.363 4.362,4.363" style="fill:#00aca9;"/><path d="M708.289,311.849c2.396,-0 4.35,-1.967 4.35,-4.363c-0,-2.412 -1.954,-4.366 -4.35,-4.366c-2.413,-0 -4.363,1.954 -4.363,4.366c0,2.396 1.95,4.363 4.363,4.363" style="fill:#00aca9;"/><path d="M674.561,311.033c1.962,-0 3.55,-1.6 3.55,-3.55c-0,-1.958 -1.588,-3.546 -3.55,-3.546c-1.946,0 -3.538,1.588 -3.538,3.546c0,1.95 1.592,3.55 3.538,3.55" style="fill:#00aca9;"/><path d="M978.04,279.034c2.395,0 4.362,-1.954 4.362,-4.362c0,-2.4 -1.967,-4.35 -4.362,-4.35c-2.409,-0 -4.363,1.95 -4.363,4.35c0,2.408 1.954,4.362 4.363,4.362" style="fill:#00aca9;"/><path d="M944.312,279.034c2.412,0 4.362,-1.954 4.362,-4.362c0,-2.4 -1.95,-4.35 -4.362,-4.35c-2.396,-0 -4.35,1.95 -4.35,4.35c-0,2.408 1.954,4.362 4.35,4.362" style="fill:#00aca9;"/><path d="M910.598,279.034c2.396,0 4.362,-1.954 4.362,-4.362c0,-2.4 -1.966,-4.35 -4.362,-4.35c-2.396,-0 -4.363,1.95 -4.363,4.35c0,2.408 1.967,4.362 4.363,4.362" style="fill:#00aca9;"/><path d="M876.884,279.034c2.396,0 4.35,-1.954 4.35,-4.362c0,-2.4 -1.954,-4.35 -4.35,-4.35c-2.408,-0 -4.362,1.95 -4.362,4.35c-0,2.408 1.954,4.362 4.362,4.362" style="fill:#00aca9;"/><path d="M843.158,279.392c2.608,0 4.725,-2.112 4.725,-4.725c-0,-2.591 -2.117,-4.708 -4.725,-4.708c-2.596,0 -4.725,2.117 -4.725,4.708c-0,2.613 2.129,4.725 4.725,4.725" style="fill:#00aca9;"/><path d="M809.444,279.392c2.592,0 4.725,-2.112 4.725,-4.725c0,-2.591 -2.133,-4.708 -4.725,-4.708c-2.608,0 -4.725,2.117 -4.725,4.708c0,2.613 2.117,4.725 4.725,4.725" style="fill:#00aca9;"/><path d="M775.714,279.4c2.613,0 4.733,-2.116 4.733,-4.733c0,-2.596 -2.12,-4.717 -4.733,-4.717c-2.6,0 -4.717,2.121 -4.717,4.717c0,2.617 2.117,4.733 4.717,4.733" style="fill:#00aca9;"/><path d="M742.002,279.034c2.409,0 4.363,-1.954 4.363,-4.362c-0,-2.4 -1.954,-4.35 -4.363,-4.35c-2.395,-0 -4.362,1.95 -4.362,4.35c-0,2.408 1.967,4.362 4.362,4.362" style="fill:#00aca9;"/><path d="M708.289,279.034c2.396,0 4.35,-1.954 4.35,-4.362c-0,-2.4 -1.954,-4.35 -4.35,-4.35c-2.413,-0 -4.363,1.95 -4.363,4.35c0,2.408 1.95,4.362 4.363,4.362" style="fill:#00aca9;"/><path d="M674.561,278.22c1.962,0 3.55,-1.587 3.55,-3.55c-0,-1.945 -1.588,-3.537 -3.55,-3.537c-1.946,-0 -3.538,1.592 -3.538,3.537c0,1.963 1.592,3.55 3.538,3.55" style="fill:#00aca9;"/><path d="M1011.75,245.412c1.959,0 3.546,-1.6 3.546,-3.546c0,-1.954 -1.587,-3.541 -3.546,-3.541c-1.945,-0 -3.541,1.587 -3.541,3.541c-0,1.946 1.596,3.546 3.541,3.546" style="fill:#00aca9;"/><path d="M978.04,246.232c2.395,0 4.362,-1.967 4.362,-4.362c0,-2.409 -1.967,-4.367 -4.362,-4.367c-2.409,-0 -4.363,1.958 -4.363,4.367c0,2.395 1.954,4.362 4.363,4.362" style="fill:#00aca9;"/><path d="M944.312,246.232c2.412,0 4.362,-1.967 4.362,-4.362c0,-2.409 -1.95,-4.367 -4.362,-4.367c-2.396,-0 -4.35,1.958 -4.35,4.367c-0,2.395 1.954,4.362 4.35,4.362" style="fill:#00aca9;"/><path d="M910.598,246.232c2.396,0 4.362,-1.967 4.362,-4.362c0,-2.409 -1.966,-4.367 -4.362,-4.367c-2.396,-0 -4.363,1.958 -4.363,4.367c0,2.395 1.967,4.362 4.363,4.362" style="fill:#00aca9;"/><path d="M876.884,246.232c2.396,0 4.35,-1.967 4.35,-4.362c0,-2.409 -1.954,-4.367 -4.35,-4.367c-2.408,-0 -4.362,1.958 -4.362,4.367c-0,2.395 1.954,4.362 4.362,4.362" style="fill:#00aca9;"/><path d="M843.158,246.232c2.408,0 4.362,-1.967 4.362,-4.362c0,-2.409 -1.954,-4.367 -4.362,-4.367c-2.396,-0 -4.363,1.958 -4.363,4.367c0,2.395 1.967,4.362 4.363,4.362" style="fill:#00aca9;"/><path d="M809.444,246.232c2.396,0 4.363,-1.967 4.363,-4.362c-0,-2.409 -1.967,-4.367 -4.363,-4.367c-2.412,-0 -4.362,1.958 -4.362,4.367c-0,2.395 1.95,4.362 4.362,4.362" style="fill:#00aca9;"/><path d="M775.716,246.232c2.409,0 4.363,-1.967 4.363,-4.362c-0,-2.409 -1.954,-4.367 -4.363,-4.367c-2.396,-0 -4.35,1.958 -4.35,4.367c0,2.395 1.954,4.362 4.35,4.362" style="fill:#00aca9;"/><path d="M742.002,246.232c2.409,0 4.363,-1.967 4.363,-4.362c-0,-2.409 -1.954,-4.367 -4.363,-4.367c-2.395,-0 -4.362,1.958 -4.362,4.367c-0,2.395 1.967,4.362 4.362,4.362" style="fill:#00aca9;"/><path d="M708.289,246.232c2.396,0 4.35,-1.967 4.35,-4.362c-0,-2.409 -1.954,-4.367 -4.35,-4.367c-2.413,-0 -4.363,1.958 -4.363,4.367c0,2.395 1.95,4.362 4.363,4.362" style="fill:#00aca9;"/><path d="M1045.48,212.604c1.946,-0 3.537,-1.588 3.537,-3.55c0,-1.946 -1.591,-3.538 -3.537,-3.538c-1.963,0 -3.55,1.592 -3.55,3.538c-0,1.962 1.587,3.55 3.55,3.55" style="fill:#00aca9;"/><path d="M1011.75,213.417c2.413,0 4.363,-1.954 4.363,-4.362c-0,-2.4 -1.95,-4.35 -4.363,-4.35c-2.395,-0 -4.362,1.95 -4.362,4.35c-0,2.408 1.966,4.362 4.362,4.362" style="fill:#00aca9;"/><path d="M978.04,213.417c2.395,0 4.362,-1.954 4.362,-4.362c0,-2.4 -1.967,-4.35 -4.362,-4.35c-2.409,-0 -4.363,1.95 -4.363,4.35c0,2.408 1.954,4.362 4.363,4.362" style="fill:#00aca9;"/><path d="M944.312,213.417c2.412,0 4.362,-1.954 4.362,-4.362c0,-2.4 -1.95,-4.35 -4.362,-4.35c-2.396,-0 -4.35,1.95 -4.35,4.35c-0,2.408 1.954,4.362 4.35,4.362" style="fill:#00aca9;"/><path d="M910.598,213.417c2.396,0 4.362,-1.954 4.362,-4.362c0,-2.4 -1.966,-4.35 -4.362,-4.35c-2.396,-0 -4.363,1.95 -4.363,4.35c0,2.408 1.967,4.362 4.363,4.362" style="fill:#00aca9;"/><path d="M876.884,213.417c2.396,0 4.35,-1.954 4.35,-4.362c0,-2.4 -1.954,-4.35 -4.35,-4.35c-2.408,-0 -4.362,1.95 -4.362,4.35c-0,2.408 1.954,4.362 4.362,4.362" style="fill:#00aca9;"/><path d="M843.158,213.417c2.408,0 4.362,-1.954 4.362,-4.362c0,-2.4 -1.954,-4.35 -4.362,-4.35c-2.396,-0 -4.363,1.95 -4.363,4.35c0,2.408 1.967,4.362 4.363,4.362" style="fill:#00aca9;"/><path d="M809.444,213.417c2.396,0 4.363,-1.954 4.363,-4.362c-0,-2.4 -1.967,-4.35 -4.363,-4.35c-2.412,-0 -4.362,1.95 -4.362,4.35c-0,2.408 1.95,4.362 4.362,4.362" style="fill:#00aca9;"/><path d="M775.716,213.417c2.409,0 4.363,-1.954 4.363,-4.362c-0,-2.4 -1.954,-4.35 -4.363,-4.35c-2.396,-0 -4.35,1.95 -4.35,4.35c0,2.408 1.954,4.362 4.35,4.362" style="fill:#00aca9;"/><path d="M742.002,213.417c2.409,0 4.363,-1.954 4.363,-4.362c-0,-2.4 -1.954,-4.35 -4.363,-4.35c-2.395,-0 -4.362,1.95 -4.362,4.35c-0,2.408 1.967,4.362 4.362,4.362" style="fill:#00aca9;"/><path d="M1045.48,180.617c2.395,0 4.35,-1.971 4.35,-4.362c-0,-2.4 -1.955,-4.367 -4.35,-4.367c-2.409,-0 -4.363,1.967 -4.363,4.367c0,2.391 1.954,4.362 4.363,4.362" style="fill:#00aca9;"/><path d="M1011.75,180.977c2.609,0 4.725,-2.133 4.725,-4.725c0,-2.592 -2.116,-4.725 -4.725,-4.725c-2.595,0 -4.725,2.133 -4.725,4.725c0,2.592 2.13,4.725 4.725,4.725" style="fill:#00aca9;"/><path d="M978.04,181.567c2.92,0 5.316,-2.396 5.316,-5.312c0,-2.921 -2.396,-5.317 -5.316,-5.317c-2.934,-0 -5.313,2.396 -5.313,5.317c0,2.916 2.379,5.312 5.313,5.312" style="fill:#00aca9;"/><path d="M944.312,180.985c2.612,0 4.733,-2.133 4.733,-4.733c-0,-2.596 -2.121,-4.729 -4.733,-4.729c-2.6,-0 -4.717,2.133 -4.717,4.729c-0,2.6 2.117,4.733 4.717,4.733" style="fill:#00aca9;"/><path d="M910.598,180.617c2.396,0 4.362,-1.971 4.362,-4.362c0,-2.4 -1.966,-4.367 -4.362,-4.367c-2.396,-0 -4.363,1.967 -4.363,4.367c0,2.391 1.967,4.362 4.363,4.362" style="fill:#00aca9;"/><path d="M876.884,180.617c2.396,0 4.35,-1.971 4.35,-4.362c0,-2.4 -1.954,-4.367 -4.35,-4.367c-2.408,-0 -4.362,1.967 -4.362,4.367c-0,2.391 1.954,4.362 4.362,4.362" style="fill:#00aca9;"/><path d="M843.158,179.795c1.954,-0 3.542,-1.596 3.542,-3.542c-0,-1.946 -1.588,-3.546 -3.542,-3.546c-1.946,0 -3.546,1.6 -3.546,3.546c0,1.946 1.6,3.542 3.546,3.542" style="fill:#00aca9;"/><path d="M1112.91,146.987c1.959,-0 3.55,-1.588 3.55,-3.55c0,-1.946 -1.591,-3.538 -3.55,-3.538c-1.95,0 -3.537,1.592 -3.537,3.538c-0,1.962 1.587,3.55 3.537,3.55" style="fill:#00aca9;"/><path d="M1079.19,147.8c2.396,0 4.363,-1.954 4.363,-4.362c-0,-2.396 -1.967,-4.35 -4.363,-4.35c-2.395,-0 -4.362,1.954 -4.362,4.35c-0,2.408 1.967,4.362 4.362,4.362" style="fill:#00aca9;"/><path d="M1045.48,147.8c2.395,0 4.35,-1.954 4.35,-4.362c-0,-2.396 -1.955,-4.35 -4.35,-4.35c-2.409,-0 -4.363,1.954 -4.363,4.35c0,2.408 1.954,4.362 4.363,4.362" style="fill:#00aca9;"/><path d="M1011.75,148.161c2.609,-0 4.725,-2.117 4.725,-4.725c0,-2.592 -2.116,-4.709 -4.725,-4.709c-2.595,0 -4.725,2.117 -4.725,4.709c0,2.608 2.13,4.725 4.725,4.725" style="fill:#00aca9;"/><path d="M978.04,148.751c2.92,-0 5.316,-2.379 5.316,-5.317c0,-2.917 -2.396,-5.296 -5.316,-5.296c-2.934,0 -5.313,2.379 -5.313,5.296c0,2.938 2.379,5.317 5.313,5.317" style="fill:#00aca9;"/><path d="M944.312,148.169c2.612,-0 4.733,-2.117 4.733,-4.734c-0,-2.595 -2.121,-4.716 -4.733,-4.716c-2.6,-0 -4.717,2.121 -4.717,4.716c-0,2.617 2.117,4.734 4.717,4.734" style="fill:#00aca9;"/><path d="M910.598,147.8c2.396,0 4.362,-1.954 4.362,-4.362c0,-2.396 -1.966,-4.35 -4.362,-4.35c-2.396,-0 -4.363,1.954 -4.363,4.35c0,2.408 1.967,4.362 4.363,4.362" style="fill:#00aca9;"/><path d="M876.884,146.987c1.95,-0 3.538,-1.588 3.538,-3.55c-0,-1.946 -1.588,-3.538 -3.538,-3.538c-1.962,0 -3.55,1.592 -3.55,3.538c0,1.962 1.588,3.55 3.55,3.55" style="fill:#00aca9;"/><path d="M1079.19,114.18c1.946,0 3.546,-1.6 3.546,-3.545c0,-1.942 -1.6,-3.542 -3.546,-3.542c-1.945,-0 -3.541,1.6 -3.541,3.542c-0,1.945 1.596,3.545 3.541,3.545" style="fill:#00aca9;"/><path d="M1045.48,115c2.395,0 4.35,-1.966 4.35,-4.362c-0,-2.4 -1.955,-4.367 -4.35,-4.367c-2.409,0 -4.363,1.967 -4.363,4.367c0,2.396 1.954,4.362 4.363,4.362" style="fill:#00aca9;"/><path d="M1011.75,115c2.413,0 4.363,-1.966 4.363,-4.362c-0,-2.4 -1.95,-4.367 -4.363,-4.367c-2.395,0 -4.362,1.967 -4.362,4.367c-0,2.396 1.966,4.362 4.362,4.362" style="fill:#00aca9;"/><path d="M978.04,115c2.395,0 4.362,-1.966 4.362,-4.362c0,-2.4 -1.967,-4.367 -4.362,-4.367c-2.409,0 -4.363,1.967 -4.363,4.367c0,2.396 1.954,4.362 4.363,4.362" style="fill:#00aca9;"/><path d="M944.312,115c2.412,0 4.362,-1.966 4.362,-4.362c0,-2.4 -1.95,-4.367 -4.362,-4.367c-2.396,0 -4.35,1.967 -4.35,4.367c-0,2.396 1.954,4.362 4.35,4.362" style="fill:#00aca9;"/><path d="M910.598,115c2.396,0 4.362,-1.966 4.362,-4.362c0,-2.4 -1.966,-4.367 -4.362,-4.367c-2.396,0 -4.363,1.967 -4.363,4.367c0,2.396 1.967,4.362 4.363,4.362" style="fill:#00aca9;"/><path d="M1045.48,81.372c1.946,0 3.537,-1.587 3.537,-3.537c0,-1.963 -1.591,-3.55 -3.537,-3.55c-1.963,-0 -3.55,1.587 -3.55,3.55c-0,1.95 1.587,3.537 3.55,3.537" style="fill:#00aca9;"/><path d="M1011.75,82.184c2.413,-0 4.363,-1.954 4.363,-4.346c-0,-2.413 -1.95,-4.367 -4.363,-4.367c-2.395,0 -4.362,1.954 -4.362,4.367c-0,2.392 1.966,4.346 4.362,4.346" style="fill:#00aca9;"/><path d="M978.04,81.372c1.95,0 3.55,-1.587 3.55,-3.537c-0,-1.963 -1.6,-3.55 -3.55,-3.55c-1.959,-0 -3.55,1.587 -3.55,3.55c-0,1.95 1.591,3.537 3.55,3.537" style="fill:#00aca9;"/><path d="M944.314,81.372c1.962,0 3.55,-1.587 3.55,-3.537c-0,-1.963 -1.588,-3.55 -3.55,-3.55c-1.95,-0 -3.538,1.587 -3.538,3.55c0,1.95 1.588,3.537 3.538,3.537" style="fill:#00aca9;"/><path d="M860.472,425.852c1.958,0 3.55,-1.587 3.55,-3.537c-0,-1.959 -1.592,-3.55 -3.55,-3.55c-1.95,-0 -3.538,1.591 -3.538,3.55c0,1.95 1.588,3.537 3.538,3.537" style="fill:#00aca9;"/><path d="M826.756,426.666c2.396,0 4.362,-1.954 4.362,-4.35c0,-2.408 -1.966,-4.362 -4.362,-4.362c-2.396,-0 -4.363,1.954 -4.363,4.362c0,2.396 1.967,4.35 4.363,4.35" style="fill:#00aca9;"/><path d="M793.042,426.666c2.396,0 4.35,-1.954 4.35,-4.35c0,-2.408 -1.954,-4.362 -4.35,-4.362c-2.408,-0 -4.362,1.954 -4.362,4.362c-0,2.396 1.954,4.35 4.362,4.35" style="fill:#00aca9;"/><path d="M759.314,426.666c2.413,0 4.363,-1.954 4.363,-4.35c-0,-2.408 -1.95,-4.362 -4.363,-4.362c-2.396,-0 -4.362,1.954 -4.362,4.362c-0,2.396 1.966,4.35 4.362,4.35" style="fill:#00aca9;"/><path d="M725.6,425.846c1.946,0 3.546,-1.583 3.546,-3.529c0,-1.958 -1.6,-3.546 -3.546,-3.546c-1.954,0 -3.541,1.588 -3.541,3.546c-0,1.946 1.587,3.529 3.541,3.529" style="fill:#00aca9;"/><path d="M894.198,393.866c2.395,-0 4.362,-1.954 4.362,-4.363c0,-2.4 -1.967,-4.366 -4.362,-4.366c-2.409,-0 -4.363,1.966 -4.363,4.366c0,2.409 1.954,4.363 4.363,4.363" style="fill:#00aca9;"/><path d="M860.47,393.866c2.412,-0 4.362,-1.954 4.362,-4.363c0,-2.4 -1.95,-4.366 -4.362,-4.366c-2.396,-0 -4.35,1.966 -4.35,4.366c-0,2.409 1.954,4.363 4.35,4.363" style="fill:#00aca9;"/><path d="M826.756,393.866c2.396,-0 4.362,-1.954 4.362,-4.363c0,-2.4 -1.966,-4.366 -4.362,-4.366c-2.396,-0 -4.363,1.966 -4.363,4.366c0,2.409 1.967,4.363 4.363,4.363" style="fill:#00aca9;"/><path d="M793.042,393.866c2.396,-0 4.35,-1.954 4.35,-4.363c0,-2.4 -1.954,-4.366 -4.35,-4.366c-2.408,-0 -4.362,1.966 -4.362,4.366c-0,2.409 1.954,4.363 4.362,4.363" style="fill:#00aca9;"/><path d="M759.314,393.866c2.413,-0 4.363,-1.954 4.363,-4.363c-0,-2.4 -1.95,-4.366 -4.363,-4.366c-2.396,-0 -4.362,1.966 -4.362,4.366c-0,2.409 1.966,4.363 4.362,4.363" style="fill:#00aca9;"/><path d="M725.6,393.866c2.396,-0 4.363,-1.954 4.363,-4.363c-0,-2.4 -1.967,-4.366 -4.363,-4.366c-2.408,-0 -4.362,1.966 -4.362,4.366c-0,2.409 1.954,4.363 4.362,4.363" style="fill:#00aca9;"/><path d="M691.874,393.05c1.963,-0 3.55,-1.588 3.55,-3.55c0,-1.946 -1.587,-3.55 -3.55,-3.55c-1.95,-0 -3.537,1.604 -3.537,3.55c-0,1.962 1.587,3.55 3.537,3.55" style="fill:#00aca9;"/><path d="M927.912,360.231c1.958,0 3.545,-1.587 3.545,-3.533c0,-1.954 -1.587,-3.542 -3.545,-3.542c-1.946,0 -3.542,1.588 -3.542,3.542c-0,1.946 1.596,3.533 3.542,3.533" style="fill:#00aca9;"/><path d="M894.198,361.049c2.395,0 4.362,-1.954 4.362,-4.346c0,-2.412 -1.967,-4.366 -4.362,-4.366c-2.409,-0 -4.363,1.954 -4.363,4.366c0,2.392 1.954,4.346 4.363,4.346" style="fill:#00aca9;"/><path d="M860.47,361.417c2.612,0 4.733,-2.116 4.733,-4.716c-0,-2.613 -2.121,-4.734 -4.733,-4.734c-2.6,0 -4.717,2.121 -4.717,4.734c-0,2.6 2.117,4.716 4.717,4.716" style="fill:#00aca9;"/><path d="M826.756,361.999c2.921,0 5.317,-2.379 5.317,-5.296c-0,-2.937 -2.396,-5.316 -5.317,-5.316c-2.917,-0 -5.313,2.379 -5.313,5.316c0,2.917 2.396,5.296 5.313,5.296" style="fill:#00aca9;"/><path d="M793.044,362.007c2.925,0 5.304,-2.383 5.304,-5.304c0,-2.941 -2.379,-5.325 -5.304,-5.325c-2.942,0 -5.325,2.384 -5.325,5.325c0,2.921 2.384,5.304 5.325,5.304" style="fill:#00aca9;"/><path d="M759.314,361.409c2.608,0 4.725,-2.112 4.725,-4.708c0,-2.609 -2.117,-4.725 -4.725,-4.725c-2.596,-0 -4.725,2.116 -4.725,4.725c0,2.596 2.129,4.708 4.725,4.708" style="fill:#00aca9;"/><path d="M725.6,361.049c2.396,0 4.363,-1.954 4.363,-4.346c-0,-2.412 -1.967,-4.366 -4.363,-4.366c-2.408,-0 -4.362,1.954 -4.362,4.366c-0,2.392 1.954,4.346 4.362,4.346" style="fill:#00aca9;"/><path d="M691.872,361.049c2.413,0 4.363,-1.954 4.363,-4.346c-0,-2.412 -1.95,-4.366 -4.363,-4.366c-2.396,-0 -4.35,1.954 -4.35,4.366c0,2.392 1.954,4.346 4.35,4.346" style="fill:#00aca9;"/><path d="M927.912,328.249c2.412,-0 4.362,-1.954 4.362,-4.363c0,-2.396 -1.95,-4.366 -4.362,-4.366c-2.396,-0 -4.363,1.97 -4.363,4.366c0,2.409 1.967,4.363 4.363,4.363" style="fill:#00aca9;"/><path d="M961.633,327.661c1.963,-0 3.55,-1.6 3.55,-3.55c0,-1.959 -1.587,-3.55 -3.55,-3.55c-1.95,-0 -3.537,1.591 -3.537,3.55c-0,1.95 1.587,3.55 3.537,3.55" style="fill:#00aca9;"/><path d="M945.231,343.825c1.959,-0 3.546,-1.588 3.546,-3.546c0,-1.942 -1.587,-3.542 -3.546,-3.542c-1.946,0 -3.541,1.6 -3.541,3.542c-0,1.958 1.595,3.546 3.541,3.546" style="fill:#00aca9;"/><path d="M894.198,328.249c2.395,-0 4.362,-1.954 4.362,-4.363c0,-2.396 -1.967,-4.366 -4.362,-4.366c-2.409,-0 -4.363,1.97 -4.363,4.366c0,2.409 1.954,4.363 4.363,4.363" style="fill:#00aca9;"/><path d="M860.47,328.617c2.612,0 4.733,-2.117 4.733,-4.733c-0,-2.596 -2.121,-4.729 -4.733,-4.729c-2.6,-0 -4.717,2.133 -4.717,4.729c-0,2.616 2.117,4.733 4.717,4.733" style="fill:#00aca9;"/><path d="M826.756,329.201c2.921,0 5.317,-2.379 5.317,-5.316c-0,-2.917 -2.396,-5.313 -5.317,-5.313c-2.917,0 -5.313,2.396 -5.313,5.313c0,2.937 2.396,5.316 5.313,5.316" style="fill:#00aca9;"/><path d="M793.044,329.209c2.925,0 5.304,-2.383 5.304,-5.325c0,-2.921 -2.379,-5.325 -5.304,-5.325c-2.942,0 -5.325,2.404 -5.325,5.325c0,2.942 2.384,5.325 5.325,5.325" style="fill:#00aca9;"/><path d="M759.314,328.609c2.608,0 4.725,-2.112 4.725,-4.725c0,-2.592 -2.117,-4.725 -4.725,-4.725c-2.596,0 -4.725,2.133 -4.725,4.725c0,2.613 2.129,4.725 4.725,4.725" style="fill:#00aca9;"/><path d="M725.6,328.249c2.396,-0 4.363,-1.954 4.363,-4.363c-0,-2.396 -1.967,-4.366 -4.363,-4.366c-2.408,-0 -4.362,1.97 -4.362,4.366c-0,2.409 1.954,4.363 4.362,4.363" style="fill:#00aca9;"/><path d="M691.872,328.249c2.413,-0 4.363,-1.954 4.363,-4.363c-0,-2.396 -1.95,-4.366 -4.363,-4.366c-2.396,-0 -4.35,1.97 -4.35,4.366c0,2.409 1.954,4.363 4.35,4.363" style="fill:#00aca9;"/><path d="M961.64,295.435c2.395,-0 4.35,-1.955 4.35,-4.35c-0,-2.413 -1.955,-4.363 -4.35,-4.363c-2.409,0 -4.363,1.95 -4.363,4.363c0,2.395 1.954,4.35 4.363,4.35" style="fill:#00aca9;"/><path d="M927.912,295.435c2.412,-0 4.362,-1.955 4.362,-4.35c0,-2.413 -1.95,-4.363 -4.362,-4.363c-2.396,0 -4.363,1.95 -4.363,4.363c0,2.395 1.967,4.35 4.363,4.35" style="fill:#00aca9;"/><path d="M894.198,295.435c2.395,-0 4.362,-1.955 4.362,-4.35c0,-2.413 -1.967,-4.363 -4.362,-4.363c-2.409,0 -4.363,1.95 -4.363,4.363c0,2.395 1.954,4.35 4.363,4.35" style="fill:#00aca9;"/><path d="M860.47,295.8c2.612,0 4.733,-2.116 4.733,-4.716c-0,-2.613 -2.121,-4.734 -4.733,-4.734c-2.6,0 -4.717,2.121 -4.717,4.734c-0,2.6 2.117,4.716 4.717,4.716" style="fill:#00aca9;"/><path d="M826.756,296.382c2.921,0 5.317,-2.379 5.317,-5.295c-0,-2.938 -2.396,-5.317 -5.317,-5.317c-2.917,-0 -5.313,2.379 -5.313,5.317c0,2.916 2.396,5.295 5.313,5.295" style="fill:#00aca9;"/><path d="M793.044,296.393c2.925,-0 5.304,-2.384 5.304,-5.305c0,-2.941 -2.379,-5.325 -5.304,-5.325c-2.942,0 -5.325,2.384 -5.325,5.325c0,2.921 2.384,5.305 5.325,5.305" style="fill:#00aca9;"/><path d="M759.314,295.795c2.608,-0 4.725,-2.117 4.725,-4.709c0,-2.608 -2.117,-4.725 -4.725,-4.725c-2.596,0 -4.725,2.117 -4.725,4.725c0,2.592 2.129,4.709 4.725,4.709" style="fill:#00aca9;"/><path d="M725.6,295.435c2.396,-0 4.363,-1.955 4.363,-4.35c-0,-2.413 -1.967,-4.363 -4.363,-4.363c-2.408,0 -4.362,1.95 -4.362,4.363c-0,2.395 1.954,4.35 4.362,4.35" style="fill:#00aca9;"/><path d="M691.872,295.435c2.413,-0 4.363,-1.955 4.363,-4.35c-0,-2.413 -1.95,-4.363 -4.363,-4.363c-2.396,0 -4.35,1.95 -4.35,4.363c0,2.395 1.954,4.35 4.35,4.35" style="fill:#00aca9;"/><path d="M995.353,261.812c1.946,0 3.546,-1.587 3.546,-3.546c0,-1.941 -1.6,-3.541 -3.546,-3.541c-1.958,-0 -3.541,1.6 -3.541,3.541c-0,1.959 1.583,3.546 3.541,3.546" style="fill:#00aca9;"/><path d="M961.64,262.632c2.395,0 4.35,-1.954 4.35,-4.362c-0,-2.396 -1.955,-4.363 -4.35,-4.363c-2.409,0 -4.363,1.967 -4.363,4.363c0,2.408 1.954,4.362 4.363,4.362" style="fill:#00aca9;"/><path d="M927.912,262.632c2.412,0 4.362,-1.954 4.362,-4.362c0,-2.396 -1.95,-4.363 -4.362,-4.363c-2.396,0 -4.363,1.967 -4.363,4.363c0,2.408 1.967,4.362 4.363,4.362" style="fill:#00aca9;"/><path d="M894.198,262.632c2.395,0 4.362,-1.954 4.362,-4.362c0,-2.396 -1.967,-4.363 -4.362,-4.363c-2.409,0 -4.363,1.967 -4.363,4.363c0,2.408 1.954,4.362 4.363,4.362" style="fill:#00aca9;"/><path d="M860.47,262.632c2.412,0 4.362,-1.954 4.362,-4.362c0,-2.396 -1.95,-4.363 -4.362,-4.363c-2.396,0 -4.35,1.967 -4.35,4.363c-0,2.408 1.954,4.362 4.35,4.362" style="fill:#00aca9;"/><path d="M826.756,262.632c2.396,0 4.362,-1.954 4.362,-4.362c0,-2.396 -1.966,-4.363 -4.362,-4.363c-2.396,0 -4.363,1.967 -4.363,4.363c0,2.408 1.967,4.362 4.363,4.362" style="fill:#00aca9;"/><path d="M793.042,262.632c2.396,0 4.35,-1.954 4.35,-4.362c0,-2.396 -1.954,-4.363 -4.35,-4.363c-2.408,0 -4.362,1.967 -4.362,4.363c-0,2.408 1.954,4.362 4.362,4.362" style="fill:#00aca9;"/><path d="M759.314,262.632c2.413,0 4.363,-1.954 4.363,-4.362c-0,-2.396 -1.95,-4.363 -4.363,-4.363c-2.396,0 -4.362,1.967 -4.362,4.363c-0,2.408 1.966,4.362 4.362,4.362" style="fill:#00aca9;"/><path d="M725.6,262.632c2.396,0 4.363,-1.954 4.363,-4.362c-0,-2.396 -1.967,-4.363 -4.363,-4.363c-2.408,0 -4.362,1.967 -4.362,4.363c-0,2.408 1.954,4.362 4.362,4.362" style="fill:#00aca9;"/><path d="M691.874,261.812c1.959,0 3.546,-1.587 3.546,-3.546c0,-1.941 -1.587,-3.541 -3.546,-3.541c-1.946,-0 -3.533,1.6 -3.533,3.541c-0,1.959 1.587,3.546 3.533,3.546" style="fill:#00aca9;"/><path d="M1029.07,229.817c2.413,0 4.363,-1.954 4.363,-4.35c-0,-2.412 -1.95,-4.362 -4.363,-4.362c-2.396,-0 -4.362,1.95 -4.362,4.362c-0,2.396 1.966,4.35 4.362,4.35" style="fill:#00aca9;"/><path d="M995.353,229.817c2.396,0 4.363,-1.954 4.363,-4.35c-0,-2.412 -1.967,-4.362 -4.363,-4.362c-2.408,-0 -4.362,1.95 -4.362,4.362c-0,2.396 1.954,4.35 4.362,4.35" style="fill:#00aca9;"/><path d="M961.64,229.817c2.395,0 4.35,-1.954 4.35,-4.35c-0,-2.412 -1.955,-4.362 -4.35,-4.362c-2.409,-0 -4.363,1.95 -4.363,4.362c0,2.396 1.954,4.35 4.363,4.35" style="fill:#00aca9;"/><path d="M927.912,229.817c2.412,0 4.362,-1.954 4.362,-4.35c0,-2.412 -1.95,-4.362 -4.362,-4.362c-2.396,-0 -4.363,1.95 -4.363,4.362c0,2.396 1.967,4.35 4.363,4.35" style="fill:#00aca9;"/><path d="M894.198,229.817c2.395,0 4.362,-1.954 4.362,-4.35c0,-2.412 -1.967,-4.362 -4.362,-4.362c-2.409,-0 -4.363,1.95 -4.363,4.362c0,2.396 1.954,4.35 4.363,4.35" style="fill:#00aca9;"/><path d="M860.47,229.817c2.412,0 4.362,-1.954 4.362,-4.35c0,-2.412 -1.95,-4.362 -4.362,-4.362c-2.396,-0 -4.35,1.95 -4.35,4.362c-0,2.396 1.954,4.35 4.35,4.35" style="fill:#00aca9;"/><path d="M826.756,229.817c2.396,0 4.362,-1.954 4.362,-4.35c0,-2.412 -1.966,-4.362 -4.362,-4.362c-2.396,-0 -4.363,1.95 -4.363,4.362c0,2.396 1.967,4.35 4.363,4.35" style="fill:#00aca9;"/><path d="M793.042,229.817c2.396,0 4.35,-1.954 4.35,-4.35c0,-2.412 -1.954,-4.362 -4.35,-4.362c-2.408,-0 -4.362,1.95 -4.362,4.362c-0,2.396 1.954,4.35 4.362,4.35" style="fill:#00aca9;"/><path d="M759.314,229.817c2.413,0 4.363,-1.954 4.363,-4.35c-0,-2.412 -1.95,-4.362 -4.363,-4.362c-2.396,-0 -4.362,1.95 -4.362,4.362c-0,2.396 1.966,4.35 4.362,4.35" style="fill:#00aca9;"/><path d="M725.6,229.817c2.396,0 4.363,-1.954 4.363,-4.35c-0,-2.412 -1.967,-4.362 -4.363,-4.362c-2.408,-0 -4.362,1.95 -4.362,4.362c-0,2.396 1.954,4.35 4.362,4.35" style="fill:#00aca9;"/><path d="M1062.79,196.201c1.95,0 3.537,-1.587 3.537,-3.55c0,-1.946 -1.587,-3.55 -3.537,-3.55c-1.958,0 -3.55,1.604 -3.55,3.55c-0,1.963 1.592,3.55 3.55,3.55" style="fill:#00aca9;"/><path d="M1029.07,197.017c2.413,0 4.363,-1.954 4.363,-4.362c-0,-2.4 -1.95,-4.367 -4.363,-4.367c-2.396,-0 -4.362,1.967 -4.362,4.367c-0,2.408 1.966,4.362 4.362,4.362" style="fill:#00aca9;"/><path d="M995.353,197.377c2.596,0 4.725,-2.116 4.725,-4.725c0,-2.591 -2.129,-4.725 -4.725,-4.725c-2.608,0 -4.725,2.134 -4.725,4.725c0,2.609 2.117,4.725 4.725,4.725" style="fill:#00aca9;"/><path d="M961.642,197.385c2.6,0 4.716,-2.12 4.716,-4.733c0,-2.596 -2.116,-4.729 -4.716,-4.729c-2.613,-0 -4.734,2.133 -4.734,4.729c0,2.613 2.121,4.733 4.734,4.733" style="fill:#00aca9;"/><path d="M927.912,197.017c2.412,0 4.362,-1.954 4.362,-4.362c0,-2.4 -1.95,-4.367 -4.362,-4.367c-2.396,-0 -4.363,1.967 -4.363,4.367c0,2.408 1.967,4.362 4.363,4.362" style="fill:#00aca9;"/><path d="M894.198,197.017c2.395,0 4.362,-1.954 4.362,-4.362c0,-2.4 -1.967,-4.367 -4.362,-4.367c-2.409,-0 -4.363,1.967 -4.363,4.367c0,2.408 1.954,4.362 4.363,4.362" style="fill:#00aca9;"/><path d="M860.47,197.017c2.412,0 4.362,-1.954 4.362,-4.362c0,-2.4 -1.95,-4.367 -4.362,-4.367c-2.396,-0 -4.35,1.967 -4.35,4.367c-0,2.408 1.954,4.362 4.35,4.362" style="fill:#00aca9;"/><path d="M826.756,196.195c1.946,0 3.546,-1.583 3.546,-3.541c-0,-1.946 -1.6,-3.546 -3.546,-3.546c-1.946,-0 -3.542,1.6 -3.542,3.546c0,1.958 1.596,3.541 3.542,3.541" style="fill:#00aca9;"/><path d="M793.042,196.201c1.946,0 3.538,-1.587 3.538,-3.55c-0,-1.946 -1.592,-3.55 -3.538,-3.55c-1.962,0 -3.55,1.604 -3.55,3.55c0,1.963 1.588,3.55 3.55,3.55" style="fill:#00aca9;"/><path d="M759.314,196.195c1.958,0 3.546,-1.583 3.546,-3.541c-0,-1.946 -1.588,-3.546 -3.546,-3.546c-1.946,-0 -3.542,1.6 -3.542,3.546c0,1.958 1.596,3.541 3.542,3.541" style="fill:#00aca9;"/><path d="M1062.8,164.215c2.396,-0 4.35,-1.967 4.35,-4.363c-0,-2.408 -1.954,-4.366 -4.35,-4.366c-2.408,-0 -4.363,1.958 -4.363,4.366c0,2.396 1.955,4.363 4.363,4.363" style="fill:#00aca9;"/><path d="M1029.07,164.215c2.413,-0 4.363,-1.967 4.363,-4.363c-0,-2.408 -1.95,-4.366 -4.363,-4.366c-2.396,-0 -4.362,1.958 -4.362,4.366c-0,2.396 1.966,4.363 4.362,4.363" style="fill:#00aca9;"/><path d="M995.353,165.167c2.917,0 5.317,-2.396 5.317,-5.317c-0,-2.933 -2.4,-5.312 -5.317,-5.312c-2.937,-0 -5.312,2.379 -5.312,5.312c-0,2.921 2.375,5.317 5.312,5.317" style="fill:#00aca9;"/><path d="M961.642,165.175c2.925,-0 5.304,-2.4 5.304,-5.325c-0,-2.938 -2.379,-5.321 -5.304,-5.321c-2.942,0 -5.325,2.383 -5.325,5.321c-0,2.925 2.383,5.325 5.325,5.325" style="fill:#00aca9;"/><path d="M927.912,164.215c2.412,-0 4.362,-1.967 4.362,-4.363c0,-2.408 -1.95,-4.366 -4.362,-4.366c-2.396,-0 -4.363,1.958 -4.363,4.366c0,2.396 1.967,4.363 4.363,4.363" style="fill:#00aca9;"/><path d="M894.198,164.215c2.395,-0 4.362,-1.967 4.362,-4.363c0,-2.408 -1.967,-4.366 -4.362,-4.366c-2.409,-0 -4.363,1.958 -4.363,4.366c0,2.396 1.954,4.363 4.363,4.363" style="fill:#00aca9;"/><path d="M860.472,163.401c1.958,0 3.55,-1.6 3.55,-3.55c-0,-1.958 -1.592,-3.55 -3.55,-3.55c-1.95,0 -3.538,1.592 -3.538,3.55c0,1.95 1.588,3.55 3.538,3.55" style="fill:#00aca9;"/><path d="M1096.51,130.58c1.946,0 3.546,-1.587 3.546,-3.545c-0,-1.942 -1.6,-3.542 -3.546,-3.542c-1.946,-0 -3.546,1.6 -3.546,3.542c-0,1.958 1.6,3.545 3.546,3.545" style="fill:#00aca9;"/><path d="M1129.36,163.442c1.963,-0 3.55,-1.588 3.55,-3.55c0,-1.946 -1.587,-3.538 -3.55,-3.538c-1.946,0 -3.537,1.592 -3.537,3.538c-0,1.962 1.591,3.55 3.537,3.55" style="fill:#00aca9;"/><path d="M1095.59,163.379c1.946,-0 3.546,-1.588 3.546,-3.546c0,-1.942 -1.6,-3.529 -3.546,-3.529c-1.946,-0 -3.541,1.587 -3.541,3.529c-0,1.958 1.595,3.546 3.541,3.546" style="fill:#00aca9;"/><path d="M1079.19,179.797c1.946,0 3.538,-1.6 3.538,-3.55c-0,-1.958 -1.592,-3.55 -3.538,-3.55c-1.962,0 -3.55,1.592 -3.55,3.55c0,1.95 1.588,3.55 3.55,3.55" style="fill:#00aca9;"/><path d="M1062.8,131.4c2.396,0 4.35,-1.954 4.35,-4.362c-0,-2.4 -1.954,-4.367 -4.35,-4.367c-2.408,0 -4.363,1.967 -4.363,4.367c0,2.408 1.955,4.362 4.363,4.362" style="fill:#00aca9;"/><path d="M1029.07,131.4c2.413,0 4.363,-1.954 4.363,-4.362c-0,-2.4 -1.95,-4.367 -4.363,-4.367c-2.396,0 -4.362,1.967 -4.362,4.367c-0,2.408 1.966,4.362 4.362,4.362" style="fill:#00aca9;"/><path d="M995.353,131.76c2.596,0 4.725,-2.112 4.725,-4.725c0,-2.591 -2.129,-4.725 -4.725,-4.725c-2.608,0 -4.725,2.134 -4.725,4.725c0,2.613 2.117,4.725 4.725,4.725" style="fill:#00aca9;"/><path d="M961.642,131.769c2.6,-0 4.716,-2.117 4.716,-4.734c0,-2.595 -2.116,-4.729 -4.716,-4.729c-2.613,0 -4.734,2.134 -4.734,4.729c0,2.617 2.121,4.734 4.734,4.734" style="fill:#00aca9;"/><path d="M927.912,131.4c2.412,0 4.362,-1.954 4.362,-4.362c0,-2.4 -1.95,-4.367 -4.362,-4.367c-2.396,0 -4.363,1.967 -4.363,4.367c0,2.408 1.967,4.362 4.363,4.362" style="fill:#00aca9;"/><path d="M894.198,131.4c2.395,0 4.362,-1.954 4.362,-4.362c0,-2.4 -1.967,-4.367 -4.362,-4.367c-2.409,0 -4.363,1.967 -4.363,4.367c0,2.408 1.954,4.362 4.363,4.362" style="fill:#00aca9;"/><path d="M1062.79,97.784c1.95,0 3.537,-1.6 3.537,-3.55c0,-1.958 -1.587,-3.55 -3.537,-3.55c-1.958,0 -3.55,1.592 -3.55,3.55c-0,1.95 1.592,3.55 3.55,3.55" style="fill:#00aca9;"/><path d="M1029.07,98.6c2.413,-0 4.363,-1.971 4.363,-4.363c-0,-2.412 -1.95,-4.366 -4.363,-4.366c-2.396,-0 -4.362,1.954 -4.362,4.366c-0,2.392 1.966,4.363 4.362,4.363" style="fill:#00aca9;"/><path d="M995.353,98.6c2.396,-0 4.363,-1.971 4.363,-4.363c-0,-2.412 -1.967,-4.366 -4.363,-4.366c-2.408,-0 -4.362,1.954 -4.362,4.366c-0,2.392 1.954,4.363 4.362,4.363" style="fill:#00aca9;"/><path d="M961.64,98.6c2.395,-0 4.35,-1.971 4.35,-4.363c-0,-2.412 -1.955,-4.366 -4.35,-4.366c-2.409,-0 -4.363,1.954 -4.363,4.366c0,2.392 1.954,4.363 4.363,4.363" style="fill:#00aca9;"/><path d="M927.912,98.6c2.412,-0 4.362,-1.971 4.362,-4.363c0,-2.412 -1.95,-4.366 -4.362,-4.366c-2.396,-0 -4.363,1.954 -4.363,4.366c0,2.392 1.967,4.363 4.363,4.363" style="fill:#00aca9;"/><path d="M995.353,64.964c1.946,-0 3.546,-1.588 3.546,-3.546c0,-1.942 -1.6,-3.542 -3.546,-3.542c-1.958,0 -3.541,1.6 -3.541,3.542c-0,1.958 1.583,3.546 3.541,3.546" style="fill:#00aca9;"/></svg>