<?xml version="1.0" encoding="UTF-8" standalone="no"?><!DOCTYPE svg PUBLIC "-//W3C//DTD SVG 1.1//EN" "http://www.w3.org/Graphics/SVG/1.1/DTD/svg11.dtd"><svg width="100%" height="100%" viewBox="0 0 784 518" version="1.1" xmlns="http://www.w3.org/2000/svg" xmlns:xlink="http://www.w3.org/1999/xlink" xml:space="preserve" xmlns:serif="http://www.serif.com/" style="fill-rule:evenodd;clip-rule:evenodd;stroke-linejoin:round;stroke-miterlimit:2;"><path d="M760.744,249.55c-32.275,-59.233 -92.296,-94.6 -160.563,-94.6c-33.441,0 -57.729,8 -69.733,12.975c-66.929,26.737 -109.858,91.092 -151.379,153.333c-53.042,79.521 -103.188,154.525 -200.488,142.667c-36.716,-4.513 -71.341,-24.192 -95.004,-53.975c-24.208,-30.475 -35,-67.967 -30.379,-105.55c10.629,-86.396 87.804,-132.175 156.154,-126.654c17.558,1.462 33.667,-8.554 40.104,-24.867c1.775,-4.512 3.763,-8.921 5.938,-13.225l1.191,-2.416c0.925,-1.725 1.884,-3.409 2.846,-5.088l1.217,-2.229c28.471,-48.225 77.721,-76.558 135.075,-77.738c51.125,-0.75 98.908,24.017 129.012,65.346c8.73,11.975 23.905,17.913 38.767,15.084c6.854,-1.305 13.846,-2.271 20.771,-2.867l6.671,-0.571l-2.779,-6.096c-34.213,-74.916 -109.117,-123.079 -191.155,-123.079c-0.566,0 -1.133,0 -1.7,0.008c-82.975,0.675 -157.558,49.68 -190.933,125.121c-82.604,-3.062 -158.567,45.538 -189.687,121.809c-23.209,56.858 -18.755,119.75 12.212,172.55c31.075,52.979 85.408,89.012 145.325,96.379c129.179,15.95 190.721,-76.355 250.238,-165.575c50.22,-75.3 97.475,-146.496 184.029,-143.121c69.879,2.662 124.508,59.554 124.358,129.512c-0.142,68.409 -55.004,125.759 -122.729,128.813l-140.533,-0c-19.459,-0 -36.467,13.15 -41.355,31.983l-5.295,20.358l185.27,0l4.725,-0.074l0,-0.121c56.196,-2.259 112.209,-34.667 143.75,-83.55c35.655,-55.25 37.975,-125.967 6.059,-184.542" style="fill:#00aca9;fill-rule:nonzero;"/><path d="M609.499,459.493c2.404,-0 4.354,-1.95 4.354,-4.354c-0,-2.388 -1.95,-4.338 -4.354,-4.338c-2.388,0 -4.35,1.95 -4.35,4.338c-0,2.404 1.962,4.354 4.35,4.354" style="fill:#00aca9;"/><path d="M575.872,459.493c2.392,-0 4.35,-1.95 4.35,-4.354c0,-2.388 -1.958,-4.338 -4.35,-4.338c-2.404,0 -4.354,1.95 -4.354,4.338c0,2.404 1.95,4.354 4.354,4.354" style="fill:#00aca9;"/><path d="M542.23,459.493c2.404,-0 4.354,-1.95 4.354,-4.354c-0,-2.388 -1.95,-4.338 -4.354,-4.338c-2.388,0 -4.338,1.95 -4.338,4.338c0,2.404 1.95,4.354 4.338,4.354" style="fill:#00aca9;"/><path d="M508.603,458.683c1.946,-0 3.546,-1.583 3.546,-3.542c0,-1.941 -1.6,-3.529 -3.546,-3.529c-1.946,0 -3.546,1.588 -3.546,3.529c0,1.959 1.6,3.542 3.546,3.542" style="fill:#00aca9;"/><path d="M474.975,459.493c2.392,-0 4.342,-1.95 4.342,-4.354c-0,-2.388 -1.95,-4.338 -4.342,-4.338c-2.404,0 -4.35,1.95 -4.35,4.338c-0,2.404 1.946,4.354 4.35,4.354" style="fill:#00aca9;"/><path d="M441.335,458.683c1.958,-0 3.541,-1.583 3.541,-3.542c0,-1.941 -1.583,-3.529 -3.541,-3.529c-1.946,0 -3.546,1.588 -3.546,3.529c-0,1.959 1.6,3.542 3.546,3.542" style="fill:#00aca9;"/><path d="M407.706,458.683c1.946,-0 3.546,-1.583 3.546,-3.542c0,-1.941 -1.6,-3.529 -3.546,-3.529c-1.958,0 -3.541,1.588 -3.541,3.529c-0,1.959 1.583,3.542 3.541,3.542" style="fill:#00aca9;"/><path d="M676.77,425.966c1.945,0 3.541,-1.596 3.541,-3.541c0,-1.959 -1.596,-3.546 -3.541,-3.546c-1.946,-0 -3.546,1.587 -3.546,3.546c-0,1.945 1.6,3.541 3.546,3.541" style="fill:#00aca9;"/><path d="M643.141,426.776c2.392,-0 4.342,-1.963 4.342,-4.35c-0,-2.409 -1.95,-4.354 -4.342,-4.354c-2.404,-0 -4.35,1.945 -4.35,4.354c0,2.387 1.946,4.35 4.35,4.35" style="fill:#00aca9;"/><path d="M609.499,426.776c2.404,-0 4.354,-1.963 4.354,-4.35c-0,-2.409 -1.95,-4.354 -4.354,-4.354c-2.388,-0 -4.35,1.945 -4.35,4.354c-0,2.387 1.962,4.35 4.35,4.35" style="fill:#00aca9;"/><path d="M575.872,426.776c2.392,-0 4.35,-1.963 4.35,-4.35c0,-2.409 -1.958,-4.354 -4.35,-4.354c-2.404,-0 -4.354,1.945 -4.354,4.354c0,2.387 1.95,4.35 4.354,4.35" style="fill:#00aca9;"/><path d="M542.23,426.776c2.404,-0 4.354,-1.963 4.354,-4.35c-0,-2.409 -1.95,-4.354 -4.354,-4.354c-2.388,-0 -4.338,1.945 -4.338,4.354c0,2.387 1.95,4.35 4.338,4.35" style="fill:#00aca9;"/><path d="M508.603,426.776c2.392,-0 4.35,-1.963 4.35,-4.35c0,-2.409 -1.958,-4.354 -4.35,-4.354c-2.391,-0 -4.354,1.945 -4.354,4.354c0,2.387 1.963,4.35 4.354,4.35" style="fill:#00aca9;"/><path d="M474.975,426.776c2.392,-0 4.342,-1.963 4.342,-4.35c-0,-2.409 -1.95,-4.354 -4.342,-4.354c-2.404,-0 -4.35,1.945 -4.35,4.354c-0,2.387 1.946,4.35 4.35,4.35" style="fill:#00aca9;"/><path d="M441.335,426.776c2.404,-0 4.35,-1.963 4.35,-4.35c-0,-2.409 -1.946,-4.354 -4.35,-4.354c-2.392,-0 -4.355,1.945 -4.355,4.354c0,2.387 1.963,4.35 4.355,4.35" style="fill:#00aca9;"/><path d="M407.706,425.966c1.946,0 3.546,-1.596 3.546,-3.541c0,-1.959 -1.6,-3.546 -3.546,-3.546c-1.958,-0 -3.541,1.587 -3.541,3.546c-0,1.945 1.583,3.541 3.541,3.541" style="fill:#00aca9;"/><path d="M676.77,394.045c2.387,-0 4.35,-1.95 4.35,-4.35c-0,-2.392 -1.963,-4.342 -4.35,-4.342c-2.392,0 -4.355,1.95 -4.355,4.342c0,2.4 1.963,4.35 4.355,4.35" style="fill:#00aca9;"/><path d="M643.141,394.423c2.6,0 4.717,-2.116 4.717,-4.733c-0,-2.596 -2.117,-4.717 -4.717,-4.717c-2.612,0 -4.733,2.121 -4.733,4.717c-0,2.617 2.121,4.733 4.733,4.733" style="fill:#00aca9;"/><path d="M609.499,394.415c2.608,-0 4.725,-2.113 4.725,-4.725c-0,-2.592 -2.117,-4.708 -4.725,-4.708c-2.592,-0 -4.725,2.116 -4.725,4.708c-0,2.612 2.133,4.725 4.725,4.725" style="fill:#00aca9;"/><path d="M575.872,394.415c2.596,-0 4.725,-2.113 4.725,-4.725c0,-2.592 -2.129,-4.708 -4.725,-4.708c-2.608,-0 -4.725,2.116 -4.725,4.708c0,2.612 2.117,4.725 4.725,4.725" style="fill:#00aca9;"/><path d="M542.23,394.423c2.612,0 4.733,-2.116 4.733,-4.733c-0,-2.596 -2.121,-4.717 -4.733,-4.717c-2.6,0 -4.717,2.121 -4.717,4.717c-0,2.617 2.117,4.733 4.717,4.733" style="fill:#00aca9;"/><path d="M508.603,394.045c2.392,-0 4.35,-1.95 4.35,-4.35c0,-2.392 -1.958,-4.342 -4.35,-4.342c-2.391,0 -4.354,1.95 -4.354,4.342c0,2.4 1.963,4.35 4.354,4.35" style="fill:#00aca9;"/><path d="M474.975,394.045c2.392,-0 4.342,-1.95 4.342,-4.35c-0,-2.392 -1.95,-4.342 -4.342,-4.342c-2.404,0 -4.35,1.95 -4.35,4.342c-0,2.4 1.946,4.35 4.35,4.35" style="fill:#00aca9;"/><path d="M441.335,394.045c2.404,-0 4.35,-1.95 4.35,-4.35c-0,-2.392 -1.946,-4.342 -4.35,-4.342c-2.392,0 -4.355,1.95 -4.355,4.342c0,2.4 1.963,4.35 4.355,4.35" style="fill:#00aca9;"/><path d="M710.396,361.328c2.404,-0 4.354,-1.963 4.354,-4.354c-0,-2.404 -1.95,-4.35 -4.354,-4.35c-2.392,-0 -4.338,1.946 -4.338,4.35c0,2.391 1.946,4.354 4.338,4.354" style="fill:#00aca9;"/><path d="M676.77,361.328c2.387,-0 4.35,-1.963 4.35,-4.354c-0,-2.404 -1.963,-4.35 -4.35,-4.35c-2.392,-0 -4.355,1.946 -4.355,4.35c0,2.391 1.963,4.354 4.355,4.354" style="fill:#00aca9;"/><path d="M643.141,361.328c2.392,-0 4.342,-1.963 4.342,-4.354c-0,-2.404 -1.95,-4.35 -4.342,-4.35c-2.404,-0 -4.35,1.946 -4.35,4.35c0,2.391 1.946,4.354 4.35,4.354" style="fill:#00aca9;"/><path d="M609.499,362.29c2.937,0 5.316,-2.395 5.316,-5.316c0,-2.934 -2.379,-5.313 -5.316,-5.313c-2.917,0 -5.313,2.379 -5.313,5.313c0,2.921 2.396,5.316 5.313,5.316" style="fill:#00aca9;"/><path d="M575.872,362.88c3.242,0 5.905,-2.662 5.905,-5.904c-0,-3.262 -2.663,-5.904 -5.905,-5.904c-3.262,0 -5.904,2.642 -5.904,5.904c0,3.242 2.642,5.904 5.904,5.904" style="fill:#00aca9;"/><path d="M542.23,362.298c2.941,0 5.32,-2.4 5.32,-5.325c0,-2.937 -2.379,-5.321 -5.32,-5.321c-2.925,0 -5.305,2.384 -5.305,5.321c0,2.925 2.38,5.325 5.305,5.325" style="fill:#00aca9;"/><path d="M508.603,361.328c2.392,-0 4.35,-1.963 4.35,-4.354c0,-2.404 -1.958,-4.35 -4.35,-4.35c-2.391,-0 -4.354,1.946 -4.354,4.35c0,2.391 1.963,4.354 4.354,4.354" style="fill:#00aca9;"/><path d="M474.975,361.328c2.392,-0 4.342,-1.963 4.342,-4.354c-0,-2.404 -1.95,-4.35 -4.342,-4.35c-2.404,-0 -4.35,1.946 -4.35,4.35c-0,2.391 1.946,4.354 4.35,4.354" style="fill:#00aca9;"/><path d="M441.335,361.328c2.404,-0 4.35,-1.963 4.35,-4.354c-0,-2.404 -1.946,-4.35 -4.35,-4.35c-2.392,-0 -4.355,1.946 -4.355,4.35c0,2.391 1.963,4.354 4.355,4.354" style="fill:#00aca9;"/><path d="M710.396,328.597c2.404,-0 4.354,-1.95 4.354,-4.355c-0,-2.387 -1.95,-4.337 -4.354,-4.337c-2.392,-0 -4.338,1.95 -4.338,4.337c0,2.405 1.946,4.355 4.338,4.355" style="fill:#00aca9;"/><path d="M676.77,328.597c2.387,-0 4.35,-1.95 4.35,-4.355c-0,-2.387 -1.963,-4.337 -4.35,-4.337c-2.392,-0 -4.355,1.95 -4.355,4.337c0,2.405 1.963,4.355 4.355,4.355" style="fill:#00aca9;"/><path d="M643.141,328.975c2.6,0 4.717,-2.116 4.717,-4.733c-0,-2.596 -2.117,-4.717 -4.717,-4.717c-2.612,0 -4.733,2.121 -4.733,4.717c-0,2.617 2.121,4.733 4.733,4.733" style="fill:#00aca9;"/><path d="M609.499,329.557c2.937,0 5.316,-2.379 5.316,-5.312c0,-2.921 -2.379,-5.3 -5.316,-5.3c-2.917,-0 -5.313,2.379 -5.313,5.3c0,2.933 2.396,5.312 5.313,5.312" style="fill:#00aca9;"/><path d="M575.872,330.147c3.242,0 5.905,-2.646 5.905,-5.904c-0,-3.242 -2.663,-5.888 -5.905,-5.888c-3.262,0 -5.904,2.646 -5.904,5.888c0,3.258 2.642,5.904 5.904,5.904" style="fill:#00aca9;"/><path d="M542.23,329.565c2.941,0 5.32,-2.383 5.32,-5.32c0,-2.925 -2.379,-5.309 -5.32,-5.309c-2.925,0 -5.305,2.384 -5.305,5.309c0,2.937 2.38,5.32 5.305,5.32" style="fill:#00aca9;"/><path d="M508.603,328.597c2.392,-0 4.35,-1.95 4.35,-4.355c0,-2.387 -1.958,-4.337 -4.35,-4.337c-2.391,-0 -4.354,1.95 -4.354,4.337c0,2.405 1.963,4.355 4.354,4.355" style="fill:#00aca9;"/><path d="M474.975,328.597c2.392,-0 4.342,-1.95 4.342,-4.355c-0,-2.387 -1.95,-4.337 -4.342,-4.337c-2.404,-0 -4.35,1.95 -4.35,4.337c-0,2.405 1.946,4.355 4.35,4.355" style="fill:#00aca9;"/><path d="M676.77,295.88c2.387,-0 4.35,-1.963 4.35,-4.354c-0,-2.404 -1.963,-4.35 -4.35,-4.35c-2.392,-0 -4.355,1.946 -4.355,4.35c0,2.391 1.963,4.354 4.355,4.354" style="fill:#00aca9;"/><path d="M643.141,295.88c2.392,-0 4.342,-1.963 4.342,-4.354c-0,-2.404 -1.95,-4.35 -4.342,-4.35c-2.404,-0 -4.35,1.946 -4.35,4.35c0,2.391 1.946,4.354 4.35,4.354" style="fill:#00aca9;"/><path d="M609.499,296.252c2.608,0 4.725,-2.133 4.725,-4.725c-0,-2.608 -2.117,-4.725 -4.725,-4.725c-2.592,0 -4.725,2.117 -4.725,4.725c-0,2.592 2.133,4.725 4.725,4.725" style="fill:#00aca9;"/><path d="M575.872,296.252c2.596,0 4.725,-2.133 4.725,-4.725c0,-2.608 -2.129,-4.725 -4.725,-4.725c-2.608,0 -4.725,2.117 -4.725,4.725c0,2.592 2.117,4.725 4.725,4.725" style="fill:#00aca9;"/><path d="M542.23,296.258c2.612,0 4.733,-2.133 4.733,-4.733c-0,-2.613 -2.121,-4.729 -4.733,-4.729c-2.6,-0 -4.717,2.116 -4.717,4.729c-0,2.6 2.117,4.733 4.717,4.733" style="fill:#00aca9;"/><path d="M508.603,295.88c2.392,-0 4.35,-1.963 4.35,-4.354c0,-2.404 -1.958,-4.35 -4.35,-4.35c-2.391,-0 -4.354,1.946 -4.354,4.35c0,2.391 1.963,4.354 4.354,4.354" style="fill:#00aca9;"/><path d="M676.77,262.341c1.945,0 3.541,-1.587 3.541,-3.546c0,-1.941 -1.596,-3.529 -3.541,-3.529c-1.946,0 -3.546,1.588 -3.546,3.529c-0,1.959 1.6,3.546 3.546,3.546" style="fill:#00aca9;"/><path d="M643.141,263.149c2.392,-0 4.342,-1.95 4.342,-4.354c-0,-2.388 -1.95,-4.338 -4.342,-4.338c-2.404,0 -4.35,1.95 -4.35,4.338c0,2.404 1.946,4.354 4.35,4.354" style="fill:#00aca9;"/><path d="M609.499,263.149c2.404,-0 4.354,-1.95 4.354,-4.354c-0,-2.388 -1.95,-4.338 -4.354,-4.338c-2.388,0 -4.35,1.95 -4.35,4.338c-0,2.404 1.962,4.354 4.35,4.354" style="fill:#00aca9;"/><path d="M575.872,263.149c2.392,-0 4.35,-1.95 4.35,-4.354c0,-2.388 -1.958,-4.338 -4.35,-4.338c-2.404,0 -4.354,1.95 -4.354,4.338c0,2.404 1.95,4.354 4.354,4.354" style="fill:#00aca9;"/><path d="M542.23,263.149c2.404,-0 4.354,-1.95 4.354,-4.354c-0,-2.388 -1.95,-4.338 -4.354,-4.338c-2.388,0 -4.338,1.95 -4.338,4.338c0,2.404 1.95,4.354 4.338,4.354" style="fill:#00aca9;"/><path d="M508.603,262.341c1.946,0 3.546,-1.587 3.546,-3.546c0,-1.941 -1.6,-3.529 -3.546,-3.529c-1.946,0 -3.546,1.588 -3.546,3.529c0,1.959 1.6,3.546 3.546,3.546" style="fill:#00aca9;"/><path d="M609.499,230.432c2.404,0 4.354,-1.962 4.354,-4.354c-0,-2.388 -1.95,-4.35 -4.354,-4.35c-2.388,-0 -4.35,1.962 -4.35,4.35c-0,2.392 1.962,4.354 4.35,4.354" style="fill:#00aca9;"/><path d="M575.872,230.432c2.392,0 4.35,-1.962 4.35,-4.354c0,-2.388 -1.958,-4.35 -4.35,-4.35c-2.404,-0 -4.354,1.962 -4.354,4.35c0,2.392 1.95,4.354 4.354,4.354" style="fill:#00aca9;"/><path d="M660.408,442.332c1.95,-0 3.537,-1.588 3.537,-3.55c0,-1.95 -1.587,-3.55 -3.537,-3.55c-1.958,-0 -3.55,1.6 -3.55,3.55c-0,1.962 1.592,3.55 3.55,3.55" style="fill:#00aca9;"/><path d="M626.767,443.135c2.405,0 4.355,-1.95 4.355,-4.354c-0,-2.391 -1.95,-4.35 -4.355,-4.35c-2.387,0 -4.35,1.959 -4.35,4.35c0,2.404 1.963,4.354 4.35,4.354" style="fill:#00aca9;"/><path d="M593.141,443.135c2.392,0 4.35,-1.95 4.35,-4.354c0,-2.391 -1.958,-4.35 -4.35,-4.35c-2.404,0 -4.354,1.959 -4.354,4.35c0,2.404 1.95,4.354 4.354,4.354" style="fill:#00aca9;"/><path d="M559.513,443.135c2.392,0 4.342,-1.95 4.342,-4.354c-0,-2.391 -1.95,-4.35 -4.342,-4.35c-2.404,0 -4.35,1.959 -4.35,4.35c-0,2.404 1.946,4.354 4.35,4.354" style="fill:#00aca9;"/><path d="M525.872,443.135c2.405,0 4.35,-1.95 4.35,-4.354c0,-2.391 -1.945,-4.35 -4.35,-4.35c-2.391,0 -4.354,1.959 -4.354,4.35c0,2.404 1.963,4.354 4.354,4.354" style="fill:#00aca9;"/><path d="M492.244,443.135c2.392,0 4.354,-1.95 4.354,-4.354c0,-2.391 -1.962,-4.35 -4.354,-4.35c-2.404,0 -4.35,1.959 -4.35,4.35c0,2.404 1.946,4.354 4.35,4.354" style="fill:#00aca9;"/><path d="M458.603,443.135c2.404,0 4.35,-1.95 4.35,-4.354c0,-2.391 -1.946,-4.35 -4.35,-4.35c-2.391,0 -4.341,1.959 -4.341,4.35c-0,2.404 1.95,4.354 4.341,4.354" style="fill:#00aca9;"/><path d="M424.975,442.326c1.946,-0 3.546,-1.588 3.546,-3.546c-0,-1.942 -1.6,-3.542 -3.546,-3.542c-1.946,0 -3.542,1.6 -3.542,3.542c0,1.958 1.596,3.546 3.542,3.546" style="fill:#00aca9;"/><path d="M694.038,409.595c1.946,-0 3.542,-1.584 3.542,-3.534c-0,-1.954 -1.596,-3.541 -3.542,-3.541c-1.946,-0 -3.546,1.587 -3.546,3.541c0,1.95 1.6,3.534 3.546,3.534" style="fill:#00aca9;"/><path d="M660.41,410.404c2.392,0 4.342,-1.95 4.342,-4.342c-0,-2.404 -1.95,-4.35 -4.342,-4.35c-2.404,0 -4.35,1.946 -4.35,4.35c-0,2.392 1.946,4.342 4.35,4.342" style="fill:#00aca9;"/><path d="M626.767,410.775c2.609,-0 4.725,-2.117 4.725,-4.709c0,-2.608 -2.116,-4.725 -4.725,-4.725c-2.591,0 -4.725,2.117 -4.725,4.725c0,2.592 2.134,4.709 4.725,4.709" style="fill:#00aca9;"/><path d="M593.141,410.404c2.392,0 4.35,-1.95 4.35,-4.342c0,-2.404 -1.958,-4.35 -4.35,-4.35c-2.404,0 -4.354,1.946 -4.354,4.35c0,2.392 1.95,4.342 4.354,4.342" style="fill:#00aca9;"/><path d="M559.513,410.404c2.392,0 4.342,-1.95 4.342,-4.342c-0,-2.404 -1.95,-4.35 -4.342,-4.35c-2.404,0 -4.35,1.946 -4.35,4.35c-0,2.392 1.946,4.342 4.35,4.342" style="fill:#00aca9;"/><path d="M525.872,410.404c2.405,0 4.35,-1.95 4.35,-4.342c0,-2.404 -1.945,-4.35 -4.35,-4.35c-2.391,0 -4.354,1.946 -4.354,4.35c0,2.392 1.963,4.342 4.354,4.342" style="fill:#00aca9;"/><path d="M492.244,410.404c2.392,0 4.354,-1.95 4.354,-4.342c0,-2.404 -1.962,-4.35 -4.354,-4.35c-2.404,0 -4.35,1.946 -4.35,4.35c0,2.392 1.946,4.342 4.35,4.342" style="fill:#00aca9;"/><path d="M458.603,410.404c2.404,0 4.35,-1.95 4.35,-4.342c0,-2.404 -1.946,-4.35 -4.35,-4.35c-2.391,0 -4.341,1.946 -4.341,4.35c-0,2.392 1.95,4.342 4.341,4.342" style="fill:#00aca9;"/><path d="M424.975,410.404c2.392,0 4.354,-1.95 4.354,-4.342c0,-2.404 -1.962,-4.35 -4.354,-4.35c-2.388,0 -4.35,1.946 -4.35,4.35c-0,2.392 1.962,4.342 4.35,4.342" style="fill:#00aca9;"/><path d="M694.038,377.685c2.388,0 4.35,-1.945 4.35,-4.35c0,-2.391 -1.962,-4.354 -4.35,-4.354c-2.391,0 -4.354,1.963 -4.354,4.354c0,2.405 1.963,4.35 4.354,4.35" style="fill:#00aca9;"/><path d="M660.41,377.685c2.392,0 4.342,-1.945 4.342,-4.35c-0,-2.391 -1.95,-4.354 -4.342,-4.354c-2.404,0 -4.35,1.963 -4.35,4.354c-0,2.405 1.946,4.35 4.35,4.35" style="fill:#00aca9;"/><path d="M626.767,378.057c2.609,0 4.725,-2.112 4.725,-4.725c0,-2.591 -2.116,-4.725 -4.725,-4.725c-2.591,0 -4.725,2.134 -4.725,4.725c0,2.613 2.134,4.725 4.725,4.725" style="fill:#00aca9;"/><path d="M593.141,378.647c2.917,0 5.313,-2.379 5.313,-5.312c-0,-2.921 -2.396,-5.317 -5.313,-5.317c-2.937,0 -5.312,2.396 -5.312,5.317c-0,2.933 2.375,5.312 5.312,5.312" style="fill:#00aca9;"/><path d="M559.515,378.658c2.925,-0 5.304,-2.383 5.304,-5.325c0,-2.921 -2.379,-5.325 -5.304,-5.325c-2.942,-0 -5.321,2.404 -5.321,5.325c0,2.942 2.379,5.325 5.321,5.325" style="fill:#00aca9;"/><path d="M525.872,378.057c2.609,0 4.725,-2.112 4.725,-4.725c0,-2.591 -2.116,-4.725 -4.725,-4.725c-2.595,0 -4.725,2.134 -4.725,4.725c0,2.613 2.13,4.725 4.725,4.725" style="fill:#00aca9;"/><path d="M492.244,377.685c2.392,0 4.354,-1.945 4.354,-4.35c0,-2.391 -1.962,-4.354 -4.354,-4.354c-2.404,0 -4.35,1.963 -4.35,4.354c0,2.405 1.946,4.35 4.35,4.35" style="fill:#00aca9;"/><path d="M458.603,377.685c2.404,0 4.35,-1.945 4.35,-4.35c0,-2.391 -1.946,-4.354 -4.35,-4.354c-2.391,0 -4.341,1.963 -4.341,4.354c-0,2.405 1.95,4.35 4.341,4.35" style="fill:#00aca9;"/><path d="M424.975,376.877c1.946,0 3.546,-1.587 3.546,-3.545c-0,-1.942 -1.6,-3.542 -3.546,-3.542c-1.946,-0 -3.542,1.6 -3.542,3.542c0,1.958 1.596,3.545 3.542,3.545" style="fill:#00aca9;"/><path d="M694.038,344.954c2.388,0 4.35,-1.946 4.35,-4.337c0,-2.405 -1.962,-4.355 -4.35,-4.355c-2.391,0 -4.354,1.95 -4.354,4.355c0,2.391 1.963,4.337 4.354,4.337" style="fill:#00aca9;"/><path d="M660.41,344.954c2.392,0 4.342,-1.946 4.342,-4.337c-0,-2.405 -1.95,-4.355 -4.342,-4.355c-2.404,0 -4.35,1.95 -4.35,4.355c-0,2.391 1.946,4.337 4.35,4.337" style="fill:#00aca9;"/><path d="M626.767,345.327c2.609,-0 4.725,-2.117 4.725,-4.709c0,-2.608 -2.116,-4.725 -4.725,-4.725c-2.591,0 -4.725,2.117 -4.725,4.725c0,2.592 2.134,4.709 4.725,4.709" style="fill:#00aca9;"/><path d="M593.141,346.505c3.242,-0 5.904,-2.642 5.904,-5.888c0,-3.258 -2.662,-5.904 -5.904,-5.904c-3.262,-0 -5.904,2.646 -5.904,5.904c0,3.246 2.642,5.888 5.904,5.888" style="fill:#00aca9;"/><path d="M559.517,346.515c3.246,-0 5.896,-2.65 5.896,-5.896c-0,-3.267 -2.65,-5.913 -5.896,-5.913c-3.267,0 -5.917,2.646 -5.917,5.913c0,3.246 2.65,5.896 5.917,5.896" style="fill:#00aca9;"/><path d="M525.872,345.327c2.609,-0 4.725,-2.117 4.725,-4.709c0,-2.608 -2.116,-4.725 -4.725,-4.725c-2.595,0 -4.725,2.117 -4.725,4.725c0,2.592 2.13,4.709 4.725,4.709" style="fill:#00aca9;"/><path d="M492.244,344.954c2.392,0 4.354,-1.946 4.354,-4.337c0,-2.405 -1.962,-4.355 -4.354,-4.355c-2.404,0 -4.35,1.95 -4.35,4.355c0,2.391 1.946,4.337 4.35,4.337" style="fill:#00aca9;"/><path d="M458.603,344.954c2.404,0 4.35,-1.946 4.35,-4.337c0,-2.405 -1.946,-4.355 -4.35,-4.355c-2.391,0 -4.341,1.95 -4.341,4.355c-0,2.391 1.95,4.337 4.341,4.337" style="fill:#00aca9;"/><path d="M694.038,312.237c2.388,0 4.35,-1.945 4.35,-4.35c0,-2.391 -1.962,-4.354 -4.35,-4.354c-2.391,0 -4.354,1.963 -4.354,4.354c0,2.405 1.963,4.35 4.354,4.35" style="fill:#00aca9;"/><path d="M660.41,312.237c2.392,0 4.342,-1.945 4.342,-4.35c-0,-2.391 -1.95,-4.354 -4.342,-4.354c-2.404,0 -4.35,1.963 -4.35,4.354c-0,2.405 1.946,4.35 4.35,4.35" style="fill:#00aca9;"/><path d="M626.767,312.61c2.609,-0 4.725,-2.117 4.725,-4.725c0,-2.592 -2.116,-4.725 -4.725,-4.725c-2.591,-0 -4.725,2.133 -4.725,4.725c0,2.608 2.134,4.725 4.725,4.725" style="fill:#00aca9;"/><path d="M593.141,313.2c2.917,-0 5.313,-2.38 5.313,-5.313c-0,-2.921 -2.396,-5.317 -5.313,-5.317c-2.937,0 -5.312,2.396 -5.312,5.317c-0,2.933 2.375,5.313 5.312,5.313" style="fill:#00aca9;"/><path d="M559.515,313.21c2.925,-0 5.304,-2.383 5.304,-5.325c0,-2.921 -2.379,-5.325 -5.304,-5.325c-2.942,-0 -5.321,2.404 -5.321,5.325c0,2.942 2.379,5.325 5.321,5.325" style="fill:#00aca9;"/><path d="M525.872,312.61c2.609,-0 4.725,-2.117 4.725,-4.725c0,-2.592 -2.116,-4.725 -4.725,-4.725c-2.595,-0 -4.725,2.133 -4.725,4.725c0,2.608 2.13,4.725 4.725,4.725" style="fill:#00aca9;"/><path d="M492.244,312.237c2.392,0 4.354,-1.945 4.354,-4.35c0,-2.391 -1.962,-4.354 -4.354,-4.354c-2.404,0 -4.35,1.963 -4.35,4.354c0,2.405 1.946,4.35 4.35,4.35" style="fill:#00aca9;"/><path d="M694.038,278.699c1.946,-0 3.542,-1.588 3.542,-3.534c-0,-1.954 -1.596,-3.541 -3.542,-3.541c-1.946,-0 -3.546,1.587 -3.546,3.541c0,1.946 1.6,3.534 3.546,3.534" style="fill:#00aca9;"/><path d="M660.41,279.506c2.392,0 4.342,-1.95 4.342,-4.337c-0,-2.404 -1.95,-4.354 -4.342,-4.354c-2.404,-0 -4.35,1.95 -4.35,4.354c-0,2.387 1.946,4.337 4.35,4.337" style="fill:#00aca9;"/><path d="M626.767,279.506c2.405,0 4.355,-1.95 4.355,-4.337c-0,-2.404 -1.95,-4.354 -4.355,-4.354c-2.387,-0 -4.35,1.95 -4.35,4.354c0,2.387 1.963,4.337 4.35,4.337" style="fill:#00aca9;"/><path d="M593.141,279.506c2.392,0 4.35,-1.95 4.35,-4.337c0,-2.404 -1.958,-4.354 -4.35,-4.354c-2.404,-0 -4.354,1.95 -4.354,4.354c0,2.387 1.95,4.337 4.354,4.337" style="fill:#00aca9;"/><path d="M559.515,279.885c2.6,-0 4.717,-2.117 4.717,-4.717c-0,-2.613 -2.117,-4.733 -4.717,-4.733c-2.613,-0 -4.733,2.12 -4.733,4.733c-0,2.6 2.12,4.717 4.733,4.717" style="fill:#00aca9;"/><path d="M525.872,279.506c2.405,0 4.35,-1.95 4.35,-4.337c0,-2.404 -1.945,-4.354 -4.35,-4.354c-2.391,-0 -4.354,1.95 -4.354,4.354c0,2.387 1.963,4.337 4.354,4.337" style="fill:#00aca9;"/><path d="M492.244,278.705c1.95,-0 3.55,-1.588 3.55,-3.538c0,-1.958 -1.6,-3.55 -3.55,-3.55c-1.958,0 -3.55,1.592 -3.55,3.55c0,1.95 1.592,3.538 3.55,3.538" style="fill:#00aca9;"/><path d="M660.408,245.986c1.95,-0 3.537,-1.588 3.537,-3.55c0,-1.946 -1.587,-3.55 -3.537,-3.55c-1.958,-0 -3.55,1.604 -3.55,3.55c-0,1.962 1.592,3.55 3.55,3.55" style="fill:#00aca9;"/><path d="M626.767,246.789c2.405,0 4.355,-1.95 4.355,-4.35c-0,-2.392 -1.95,-4.354 -4.355,-4.354c-2.387,-0 -4.35,1.962 -4.35,4.354c0,2.4 1.963,4.35 4.35,4.35" style="fill:#00aca9;"/><path d="M593.141,246.789c2.392,0 4.35,-1.95 4.35,-4.35c0,-2.392 -1.958,-4.354 -4.35,-4.354c-2.404,-0 -4.354,1.962 -4.354,4.354c0,2.4 1.95,4.35 4.354,4.35" style="fill:#00aca9;"/><path d="M559.513,246.789c2.392,0 4.342,-1.95 4.342,-4.35c-0,-2.392 -1.95,-4.354 -4.342,-4.354c-2.404,-0 -4.35,1.962 -4.35,4.354c-0,2.4 1.946,4.35 4.35,4.35" style="fill:#00aca9;"/><path d="M525.872,245.98c1.959,-0 3.546,-1.584 3.546,-3.542c0,-1.946 -1.587,-3.546 -3.546,-3.546c-1.945,0 -3.545,1.6 -3.545,3.546c-0,1.958 1.6,3.542 3.545,3.542" style="fill:#00aca9;"/><path d="M245.875,442.26c1.955,0 3.542,-1.595 3.542,-3.545c0,-1.955 -1.587,-3.542 -3.542,-3.542c-1.945,-0 -3.545,1.587 -3.545,3.542c-0,1.95 1.6,3.545 3.545,3.545" style="fill:#00aca9;"/><path d="M212.162,442.26c1.945,0 3.541,-1.595 3.541,-3.545c0,-1.955 -1.596,-3.542 -3.541,-3.542c-1.959,-0 -3.546,1.587 -3.546,3.542c-0,1.95 1.587,3.545 3.546,3.545" style="fill:#00aca9;"/><path d="M178.434,442.267c1.962,-0 3.55,-1.6 3.55,-3.55c-0,-1.959 -1.588,-3.55 -3.55,-3.55c-1.95,-0 -3.538,1.591 -3.538,3.55c0,1.95 1.588,3.55 3.538,3.55" style="fill:#00aca9;"/><path d="M279.602,410.266c2.395,-0 4.35,-1.954 4.35,-4.363c-0,-2.4 -1.955,-4.35 -4.35,-4.35c-2.409,0 -4.363,1.95 -4.363,4.35c0,2.409 1.954,4.363 4.363,4.363" style="fill:#00aca9;"/><path d="M245.875,410.266c2.409,-0 4.363,-1.954 4.363,-4.363c-0,-2.4 -1.954,-4.35 -4.363,-4.35c-2.395,0 -4.362,1.95 -4.362,4.35c-0,2.409 1.967,4.363 4.362,4.363" style="fill:#00aca9;"/><path d="M212.162,410.266c2.395,-0 4.362,-1.954 4.362,-4.363c0,-2.4 -1.967,-4.35 -4.362,-4.35c-2.413,0 -4.363,1.95 -4.363,4.35c0,2.409 1.95,4.363 4.363,4.363" style="fill:#00aca9;"/><path d="M178.434,410.266c2.408,-0 4.362,-1.954 4.362,-4.363c0,-2.4 -1.954,-4.35 -4.362,-4.35c-2.396,0 -4.35,1.95 -4.35,4.35c-0,2.409 1.954,4.363 4.35,4.363" style="fill:#00aca9;"/><path d="M144.72,410.266c2.408,-0 4.362,-1.954 4.362,-4.363c0,-2.4 -1.954,-4.35 -4.362,-4.35c-2.396,0 -4.363,1.95 -4.363,4.35c0,2.409 1.967,4.363 4.363,4.363" style="fill:#00aca9;"/><path d="M111.004,409.452c1.95,0 3.538,-1.587 3.538,-3.55c-0,-1.946 -1.588,-3.537 -3.538,-3.537c-1.958,-0 -3.55,1.591 -3.55,3.537c0,1.963 1.592,3.55 3.55,3.55" style="fill:#00aca9;"/><path d="M313.315,377.466c2.396,-0 4.363,-1.971 4.363,-4.363c-0,-2.412 -1.967,-4.366 -4.363,-4.366c-2.395,-0 -4.362,1.954 -4.362,4.366c-0,2.392 1.967,4.363 4.362,4.363" style="fill:#00aca9;"/><path d="M279.602,377.466c2.395,-0 4.35,-1.971 4.35,-4.363c-0,-2.412 -1.955,-4.366 -4.35,-4.366c-2.409,-0 -4.363,1.954 -4.363,4.366c0,2.392 1.954,4.363 4.363,4.363" style="fill:#00aca9;"/><path d="M245.875,377.826c2.609,-0 4.725,-2.129 4.725,-4.725c0,-2.609 -2.116,-4.725 -4.725,-4.725c-2.595,-0 -4.725,2.116 -4.725,4.725c0,2.596 2.13,4.725 4.725,4.725" style="fill:#00aca9;"/><path d="M212.162,377.826c2.591,-0 4.725,-2.129 4.725,-4.725c-0,-2.609 -2.134,-4.725 -4.725,-4.725c-2.609,-0 -4.725,2.116 -4.725,4.725c-0,2.596 2.116,4.725 4.725,4.725" style="fill:#00aca9;"/><path d="M178.432,377.834c2.612,-0 4.733,-2.134 4.733,-4.734c-0,-2.612 -2.121,-4.729 -4.733,-4.729c-2.6,0 -4.717,2.117 -4.717,4.729c-0,2.6 2.117,4.734 4.717,4.734" style="fill:#00aca9;"/><path d="M144.72,377.466c2.408,-0 4.362,-1.971 4.362,-4.363c0,-2.412 -1.954,-4.366 -4.362,-4.366c-2.396,-0 -4.363,1.954 -4.363,4.366c0,2.392 1.967,4.363 4.363,4.363" style="fill:#00aca9;"/><path d="M111.006,377.466c2.396,-0 4.35,-1.971 4.35,-4.363c0,-2.412 -1.954,-4.366 -4.35,-4.366c-2.412,-0 -4.362,1.954 -4.362,4.366c-0,2.392 1.95,4.363 4.362,4.363" style="fill:#00aca9;"/><path d="M313.315,344.649c2.396,0 4.363,-1.954 4.363,-4.362c-0,-2.396 -1.967,-4.35 -4.363,-4.35c-2.395,-0 -4.362,1.954 -4.362,4.35c-0,2.408 1.967,4.362 4.362,4.362" style="fill:#00aca9;"/><path d="M279.602,344.649c2.395,0 4.35,-1.954 4.35,-4.362c-0,-2.396 -1.955,-4.35 -4.35,-4.35c-2.409,-0 -4.363,1.954 -4.363,4.35c0,2.408 1.954,4.362 4.363,4.362" style="fill:#00aca9;"/><path d="M245.875,345.599c2.934,0 5.313,-2.379 5.313,-5.312c-0,-2.921 -2.379,-5.3 -5.313,-5.3c-2.92,-0 -5.316,2.379 -5.316,5.3c-0,2.933 2.396,5.312 5.316,5.312" style="fill:#00aca9;"/><path d="M212.162,345.599c2.916,0 5.312,-2.379 5.312,-5.312c0,-2.921 -2.396,-5.3 -5.312,-5.3c-2.938,-0 -5.317,2.379 -5.317,5.3c-0,2.933 2.379,5.312 5.317,5.312" style="fill:#00aca9;"/><path d="M178.432,345.607c2.941,0 5.32,-2.383 5.32,-5.32c0,-2.925 -2.379,-5.309 -5.32,-5.309c-2.925,0 -5.305,2.384 -5.305,5.309c0,2.937 2.38,5.32 5.305,5.32" style="fill:#00aca9;"/><path d="M144.72,345.009c2.608,0 4.725,-2.112 4.725,-4.725c-0,-2.592 -2.117,-4.708 -4.725,-4.708c-2.596,-0 -4.725,2.116 -4.725,4.708c-0,2.613 2.129,4.725 4.725,4.725" style="fill:#00aca9;"/><path d="M111.006,344.649c2.396,0 4.35,-1.954 4.35,-4.362c0,-2.396 -1.954,-4.35 -4.35,-4.35c-2.412,-0 -4.362,1.954 -4.362,4.35c-0,2.408 1.95,4.362 4.362,4.362" style="fill:#00aca9;"/><path d="M77.278,343.835c1.963,0 3.55,-1.587 3.55,-3.55c0,-1.945 -1.587,-3.537 -3.55,-3.537c-1.946,-0 -3.537,1.592 -3.537,3.537c-0,1.963 1.591,3.55 3.537,3.55" style="fill:#00aca9;"/><path d="M347.029,311.849c2.413,-0 4.363,-1.967 4.363,-4.363c-0,-2.412 -1.95,-4.366 -4.363,-4.366c-2.396,-0 -4.35,1.954 -4.35,4.366c0,2.396 1.954,4.363 4.35,4.363" style="fill:#00aca9;"/><path d="M313.315,311.849c2.396,-0 4.363,-1.967 4.363,-4.363c-0,-2.412 -1.967,-4.366 -4.363,-4.366c-2.395,-0 -4.362,1.954 -4.362,4.366c-0,2.396 1.967,4.363 4.362,4.363" style="fill:#00aca9;"/><path d="M279.602,311.849c2.395,-0 4.35,-1.967 4.35,-4.363c-0,-2.412 -1.955,-4.366 -4.35,-4.366c-2.409,-0 -4.363,1.954 -4.363,4.366c0,2.396 1.954,4.363 4.363,4.363" style="fill:#00aca9;"/><path d="M245.875,312.799c2.934,-0 5.313,-2.396 5.313,-5.313c-0,-2.937 -2.379,-5.316 -5.313,-5.316c-2.92,-0 -5.316,2.379 -5.316,5.316c-0,2.917 2.396,5.313 5.316,5.313" style="fill:#00aca9;"/><path d="M212.162,312.799c2.916,-0 5.312,-2.396 5.312,-5.313c0,-2.937 -2.396,-5.316 -5.312,-5.316c-2.938,-0 -5.317,2.379 -5.317,5.316c-0,2.917 2.379,5.313 5.317,5.313" style="fill:#00aca9;"/><path d="M178.432,312.809c2.941,0 5.32,-2.4 5.32,-5.325c0,-2.937 -2.379,-5.325 -5.32,-5.325c-2.925,0 -5.305,2.388 -5.305,5.325c0,2.925 2.38,5.325 5.305,5.325" style="fill:#00aca9;"/><path d="M144.72,311.849c2.408,-0 4.362,-1.967 4.362,-4.363c0,-2.412 -1.954,-4.366 -4.362,-4.366c-2.396,-0 -4.363,1.954 -4.363,4.366c0,2.396 1.967,4.363 4.363,4.363" style="fill:#00aca9;"/><path d="M111.006,311.849c2.396,-0 4.35,-1.967 4.35,-4.363c0,-2.412 -1.954,-4.366 -4.35,-4.366c-2.412,-0 -4.362,1.954 -4.362,4.366c-0,2.396 1.95,4.363 4.362,4.363" style="fill:#00aca9;"/><path d="M77.278,311.033c1.963,-0 3.55,-1.6 3.55,-3.55c0,-1.958 -1.587,-3.546 -3.55,-3.546c-1.946,0 -3.537,1.588 -3.537,3.546c-0,1.95 1.591,3.55 3.537,3.55" style="fill:#00aca9;"/><path d="M380.757,279.034c2.396,0 4.363,-1.954 4.363,-4.362c-0,-2.4 -1.967,-4.35 -4.363,-4.35c-2.408,-0 -4.362,1.95 -4.362,4.35c-0,2.408 1.954,4.362 4.362,4.362" style="fill:#00aca9;"/><path d="M347.029,279.034c2.413,0 4.363,-1.954 4.363,-4.362c-0,-2.4 -1.95,-4.35 -4.363,-4.35c-2.396,-0 -4.35,1.95 -4.35,4.35c0,2.408 1.954,4.362 4.35,4.362" style="fill:#00aca9;"/><path d="M313.315,279.034c2.396,0 4.363,-1.954 4.363,-4.362c-0,-2.4 -1.967,-4.35 -4.363,-4.35c-2.395,-0 -4.362,1.95 -4.362,4.35c-0,2.408 1.967,4.362 4.362,4.362" style="fill:#00aca9;"/><path d="M279.602,279.034c2.395,0 4.35,-1.954 4.35,-4.362c-0,-2.4 -1.955,-4.35 -4.35,-4.35c-2.409,-0 -4.363,1.95 -4.363,4.35c0,2.408 1.954,4.362 4.363,4.362" style="fill:#00aca9;"/><path d="M245.875,279.392c2.609,0 4.725,-2.112 4.725,-4.725c0,-2.591 -2.116,-4.708 -4.725,-4.708c-2.595,0 -4.725,2.117 -4.725,4.708c0,2.613 2.13,4.725 4.725,4.725" style="fill:#00aca9;"/><path d="M212.162,279.392c2.591,0 4.725,-2.112 4.725,-4.725c-0,-2.591 -2.134,-4.708 -4.725,-4.708c-2.609,0 -4.725,2.117 -4.725,4.708c-0,2.613 2.116,4.725 4.725,4.725" style="fill:#00aca9;"/><path d="M178.432,279.4c2.612,0 4.733,-2.116 4.733,-4.733c-0,-2.596 -2.121,-4.717 -4.733,-4.717c-2.6,0 -4.717,2.121 -4.717,4.717c-0,2.617 2.117,4.733 4.717,4.733" style="fill:#00aca9;"/><path d="M144.72,279.034c2.408,0 4.362,-1.954 4.362,-4.362c0,-2.4 -1.954,-4.35 -4.362,-4.35c-2.396,-0 -4.363,1.95 -4.363,4.35c0,2.408 1.967,4.362 4.363,4.362" style="fill:#00aca9;"/><path d="M111.006,279.034c2.396,0 4.35,-1.954 4.35,-4.362c0,-2.4 -1.954,-4.35 -4.35,-4.35c-2.412,-0 -4.362,1.95 -4.362,4.35c-0,2.408 1.95,4.362 4.362,4.362" style="fill:#00aca9;"/><path d="M77.278,278.22c1.963,0 3.55,-1.587 3.55,-3.55c0,-1.945 -1.587,-3.537 -3.55,-3.537c-1.946,-0 -3.537,1.592 -3.537,3.537c-0,1.963 1.591,3.55 3.537,3.55" style="fill:#00aca9;"/><path d="M414.471,245.412c1.958,0 3.546,-1.6 3.546,-3.546c-0,-1.954 -1.588,-3.541 -3.546,-3.541c-1.946,-0 -3.542,1.587 -3.542,3.541c0,1.946 1.596,3.546 3.542,3.546" style="fill:#00aca9;"/><path d="M380.757,246.232c2.396,0 4.363,-1.967 4.363,-4.362c-0,-2.409 -1.967,-4.367 -4.363,-4.367c-2.408,-0 -4.362,1.958 -4.362,4.367c-0,2.395 1.954,4.362 4.362,4.362" style="fill:#00aca9;"/><path d="M347.029,246.232c2.413,0 4.363,-1.967 4.363,-4.362c-0,-2.409 -1.95,-4.367 -4.363,-4.367c-2.396,-0 -4.35,1.958 -4.35,4.367c0,2.395 1.954,4.362 4.35,4.362" style="fill:#00aca9;"/><path d="M313.315,246.232c2.396,0 4.363,-1.967 4.363,-4.362c-0,-2.409 -1.967,-4.367 -4.363,-4.367c-2.395,-0 -4.362,1.958 -4.362,4.367c-0,2.395 1.967,4.362 4.362,4.362" style="fill:#00aca9;"/><path d="M279.602,246.232c2.395,0 4.35,-1.967 4.35,-4.362c-0,-2.409 -1.955,-4.367 -4.35,-4.367c-2.409,-0 -4.363,1.958 -4.363,4.367c0,2.395 1.954,4.362 4.363,4.362" style="fill:#00aca9;"/><path d="M245.875,246.232c2.409,0 4.363,-1.967 4.363,-4.362c-0,-2.409 -1.954,-4.367 -4.363,-4.367c-2.395,-0 -4.362,1.958 -4.362,4.367c-0,2.395 1.967,4.362 4.362,4.362" style="fill:#00aca9;"/><path d="M212.162,246.232c2.395,0 4.362,-1.967 4.362,-4.362c0,-2.409 -1.967,-4.367 -4.362,-4.367c-2.413,-0 -4.363,1.958 -4.363,4.367c0,2.395 1.95,4.362 4.363,4.362" style="fill:#00aca9;"/><path d="M178.434,246.232c2.408,0 4.362,-1.967 4.362,-4.362c0,-2.409 -1.954,-4.367 -4.362,-4.367c-2.396,-0 -4.35,1.958 -4.35,4.367c-0,2.395 1.954,4.362 4.35,4.362" style="fill:#00aca9;"/><path d="M144.72,246.232c2.408,0 4.362,-1.967 4.362,-4.362c0,-2.409 -1.954,-4.367 -4.362,-4.367c-2.396,-0 -4.363,1.958 -4.363,4.367c0,2.395 1.967,4.362 4.363,4.362" style="fill:#00aca9;"/><path d="M111.006,246.232c2.396,0 4.35,-1.967 4.35,-4.362c0,-2.409 -1.954,-4.367 -4.35,-4.367c-2.412,-0 -4.362,1.958 -4.362,4.367c-0,2.395 1.95,4.362 4.362,4.362" style="fill:#00aca9;"/><path d="M448.199,212.604c1.946,-0 3.538,-1.588 3.538,-3.55c-0,-1.946 -1.592,-3.538 -3.538,-3.538c-1.962,0 -3.55,1.592 -3.55,3.538c0,1.962 1.588,3.55 3.55,3.55" style="fill:#00aca9;"/><path d="M414.471,213.417c2.412,0 4.362,-1.954 4.362,-4.362c0,-2.4 -1.95,-4.35 -4.362,-4.35c-2.396,-0 -4.363,1.95 -4.363,4.35c0,2.408 1.967,4.362 4.363,4.362" style="fill:#00aca9;"/><path d="M380.757,213.417c2.396,0 4.363,-1.954 4.363,-4.362c-0,-2.4 -1.967,-4.35 -4.363,-4.35c-2.408,-0 -4.362,1.95 -4.362,4.35c-0,2.408 1.954,4.362 4.362,4.362" style="fill:#00aca9;"/><path d="M347.029,213.417c2.413,0 4.363,-1.954 4.363,-4.362c-0,-2.4 -1.95,-4.35 -4.363,-4.35c-2.396,-0 -4.35,1.95 -4.35,4.35c0,2.408 1.954,4.362 4.35,4.362" style="fill:#00aca9;"/><path d="M313.315,213.417c2.396,0 4.363,-1.954 4.363,-4.362c-0,-2.4 -1.967,-4.35 -4.363,-4.35c-2.395,-0 -4.362,1.95 -4.362,4.35c-0,2.408 1.967,4.362 4.362,4.362" style="fill:#00aca9;"/><path d="M279.602,213.417c2.395,0 4.35,-1.954 4.35,-4.362c-0,-2.4 -1.955,-4.35 -4.35,-4.35c-2.409,-0 -4.363,1.95 -4.363,4.35c0,2.408 1.954,4.362 4.363,4.362" style="fill:#00aca9;"/><path d="M245.875,213.417c2.409,0 4.363,-1.954 4.363,-4.362c-0,-2.4 -1.954,-4.35 -4.363,-4.35c-2.395,-0 -4.362,1.95 -4.362,4.35c-0,2.408 1.967,4.362 4.362,4.362" style="fill:#00aca9;"/><path d="M212.162,213.417c2.395,0 4.362,-1.954 4.362,-4.362c0,-2.4 -1.967,-4.35 -4.362,-4.35c-2.413,-0 -4.363,1.95 -4.363,4.35c0,2.408 1.95,4.362 4.363,4.362" style="fill:#00aca9;"/><path d="M178.434,213.417c2.408,0 4.362,-1.954 4.362,-4.362c0,-2.4 -1.954,-4.35 -4.362,-4.35c-2.396,-0 -4.35,1.95 -4.35,4.35c-0,2.408 1.954,4.362 4.35,4.362" style="fill:#00aca9;"/><path d="M144.72,213.417c2.408,0 4.362,-1.954 4.362,-4.362c0,-2.4 -1.954,-4.35 -4.362,-4.35c-2.396,-0 -4.363,1.95 -4.363,4.35c0,2.408 1.967,4.362 4.363,4.362" style="fill:#00aca9;"/><path d="M448.199,180.617c2.396,0 4.35,-1.971 4.35,-4.362c0,-2.4 -1.954,-4.367 -4.35,-4.367c-2.408,-0 -4.362,1.967 -4.362,4.367c-0,2.391 1.954,4.362 4.362,4.362" style="fill:#00aca9;"/><path d="M414.471,180.977c2.608,0 4.725,-2.133 4.725,-4.725c-0,-2.592 -2.117,-4.725 -4.725,-4.725c-2.596,0 -4.725,2.133 -4.725,4.725c-0,2.592 2.129,4.725 4.725,4.725" style="fill:#00aca9;"/><path d="M380.757,181.567c2.921,0 5.317,-2.396 5.317,-5.312c-0,-2.921 -2.396,-5.317 -5.317,-5.317c-2.933,-0 -5.312,2.396 -5.312,5.317c-0,2.916 2.379,5.312 5.312,5.312" style="fill:#00aca9;"/><path d="M347.029,180.985c2.613,0 4.733,-2.133 4.733,-4.733c0,-2.596 -2.12,-4.729 -4.733,-4.729c-2.6,-0 -4.717,2.133 -4.717,4.729c0,2.6 2.117,4.733 4.717,4.733" style="fill:#00aca9;"/><path d="M313.315,180.617c2.396,0 4.363,-1.971 4.363,-4.362c-0,-2.4 -1.967,-4.367 -4.363,-4.367c-2.395,-0 -4.362,1.967 -4.362,4.367c-0,2.391 1.967,4.362 4.362,4.362" style="fill:#00aca9;"/><path d="M279.602,180.617c2.395,0 4.35,-1.971 4.35,-4.362c-0,-2.4 -1.955,-4.367 -4.35,-4.367c-2.409,-0 -4.363,1.967 -4.363,4.367c0,2.391 1.954,4.362 4.363,4.362" style="fill:#00aca9;"/><path d="M245.875,179.795c1.955,-0 3.542,-1.596 3.542,-3.542c0,-1.946 -1.587,-3.546 -3.542,-3.546c-1.945,0 -3.545,1.6 -3.545,3.546c-0,1.946 1.6,3.542 3.545,3.542" style="fill:#00aca9;"/><path d="M515.629,146.987c1.958,-0 3.55,-1.588 3.55,-3.55c-0,-1.946 -1.592,-3.538 -3.55,-3.538c-1.95,0 -3.538,1.592 -3.538,3.538c0,1.962 1.588,3.55 3.538,3.55" style="fill:#00aca9;"/><path d="M481.913,147.8c2.396,0 4.362,-1.954 4.362,-4.362c0,-2.396 -1.966,-4.35 -4.362,-4.35c-2.396,-0 -4.363,1.954 -4.363,4.35c0,2.408 1.967,4.362 4.363,4.362" style="fill:#00aca9;"/><path d="M448.199,147.8c2.396,0 4.35,-1.954 4.35,-4.362c0,-2.396 -1.954,-4.35 -4.35,-4.35c-2.408,-0 -4.362,1.954 -4.362,4.35c-0,2.408 1.954,4.362 4.362,4.362" style="fill:#00aca9;"/><path d="M414.471,148.161c2.608,-0 4.725,-2.117 4.725,-4.725c-0,-2.592 -2.117,-4.709 -4.725,-4.709c-2.596,0 -4.725,2.117 -4.725,4.709c-0,2.608 2.129,4.725 4.725,4.725" style="fill:#00aca9;"/><path d="M380.757,148.751c2.921,-0 5.317,-2.379 5.317,-5.317c-0,-2.917 -2.396,-5.296 -5.317,-5.296c-2.933,0 -5.312,2.379 -5.312,5.296c-0,2.938 2.379,5.317 5.312,5.317" style="fill:#00aca9;"/><path d="M347.029,148.169c2.613,-0 4.733,-2.117 4.733,-4.734c0,-2.595 -2.12,-4.716 -4.733,-4.716c-2.6,-0 -4.717,2.121 -4.717,4.716c0,2.617 2.117,4.734 4.717,4.734" style="fill:#00aca9;"/><path d="M313.315,147.8c2.396,0 4.363,-1.954 4.363,-4.362c-0,-2.396 -1.967,-4.35 -4.363,-4.35c-2.395,-0 -4.362,1.954 -4.362,4.35c-0,2.408 1.967,4.362 4.362,4.362" style="fill:#00aca9;"/><path d="M279.602,146.987c1.95,-0 3.537,-1.588 3.537,-3.55c0,-1.946 -1.587,-3.538 -3.537,-3.538c-1.963,0 -3.55,1.592 -3.55,3.538c-0,1.962 1.587,3.55 3.55,3.55" style="fill:#00aca9;"/><path d="M481.913,114.18c1.946,0 3.546,-1.6 3.546,-3.545c-0,-1.942 -1.6,-3.542 -3.546,-3.542c-1.946,-0 -3.542,1.6 -3.542,3.542c0,1.945 1.596,3.545 3.542,3.545" style="fill:#00aca9;"/><path d="M448.199,115c2.396,0 4.35,-1.966 4.35,-4.362c0,-2.4 -1.954,-4.367 -4.35,-4.367c-2.408,0 -4.362,1.967 -4.362,4.367c-0,2.396 1.954,4.362 4.362,4.362" style="fill:#00aca9;"/><path d="M414.471,115c2.412,0 4.362,-1.966 4.362,-4.362c0,-2.4 -1.95,-4.367 -4.362,-4.367c-2.396,0 -4.363,1.967 -4.363,4.367c0,2.396 1.967,4.362 4.363,4.362" style="fill:#00aca9;"/><path d="M380.757,115c2.396,0 4.363,-1.966 4.363,-4.362c-0,-2.4 -1.967,-4.367 -4.363,-4.367c-2.408,0 -4.362,1.967 -4.362,4.367c-0,2.396 1.954,4.362 4.362,4.362" style="fill:#00aca9;"/><path d="M347.029,115c2.413,0 4.363,-1.966 4.363,-4.362c-0,-2.4 -1.95,-4.367 -4.363,-4.367c-2.396,0 -4.35,1.967 -4.35,4.367c0,2.396 1.954,4.362 4.35,4.362" style="fill:#00aca9;"/><path d="M313.315,115c2.396,0 4.363,-1.966 4.363,-4.362c-0,-2.4 -1.967,-4.367 -4.363,-4.367c-2.395,0 -4.362,1.967 -4.362,4.367c-0,2.396 1.967,4.362 4.362,4.362" style="fill:#00aca9;"/><path d="M448.199,81.372c1.946,0 3.538,-1.587 3.538,-3.537c-0,-1.963 -1.592,-3.55 -3.538,-3.55c-1.962,-0 -3.55,1.587 -3.55,3.55c0,1.95 1.588,3.537 3.55,3.537" style="fill:#00aca9;"/><path d="M414.471,82.184c2.412,-0 4.362,-1.954 4.362,-4.346c0,-2.413 -1.95,-4.367 -4.362,-4.367c-2.396,0 -4.363,1.954 -4.363,4.367c0,2.392 1.967,4.346 4.363,4.346" style="fill:#00aca9;"/><path d="M380.757,81.372c1.95,0 3.55,-1.587 3.55,-3.537c0,-1.963 -1.6,-3.55 -3.55,-3.55c-1.958,-0 -3.55,1.587 -3.55,3.55c0,1.95 1.592,3.537 3.55,3.537" style="fill:#00aca9;"/><path d="M347.031,81.372c1.963,0 3.55,-1.587 3.55,-3.537c0,-1.963 -1.587,-3.55 -3.55,-3.55c-1.95,-0 -3.537,1.587 -3.537,3.55c-0,1.95 1.587,3.537 3.537,3.537" style="fill:#00aca9;"/><path d="M263.189,425.852c1.958,0 3.55,-1.587 3.55,-3.537c0,-1.959 -1.592,-3.55 -3.55,-3.55c-1.95,-0 -3.537,1.591 -3.537,3.55c-0,1.95 1.587,3.537 3.537,3.537" style="fill:#00aca9;"/><path d="M229.473,426.666c2.396,0 4.363,-1.954 4.363,-4.35c-0,-2.408 -1.967,-4.362 -4.363,-4.362c-2.396,-0 -4.362,1.954 -4.362,4.362c-0,2.396 1.966,4.35 4.362,4.35" style="fill:#00aca9;"/><path d="M195.76,426.666c2.395,0 4.35,-1.954 4.35,-4.35c-0,-2.408 -1.955,-4.362 -4.35,-4.362c-2.409,-0 -4.363,1.954 -4.363,4.362c0,2.396 1.954,4.35 4.363,4.35" style="fill:#00aca9;"/><path d="M162.032,426.666c2.412,0 4.362,-1.954 4.362,-4.35c0,-2.408 -1.95,-4.362 -4.362,-4.362c-2.396,-0 -4.363,1.954 -4.363,4.362c0,2.396 1.967,4.35 4.363,4.35" style="fill:#00aca9;"/><path d="M128.318,425.846c1.946,0 3.546,-1.583 3.546,-3.529c-0,-1.958 -1.6,-3.546 -3.546,-3.546c-1.954,0 -3.542,1.588 -3.542,3.546c0,1.946 1.588,3.529 3.542,3.529" style="fill:#00aca9;"/><path d="M296.915,393.866c2.396,-0 4.362,-1.954 4.362,-4.363c0,-2.4 -1.966,-4.366 -4.362,-4.366c-2.408,-0 -4.363,1.966 -4.363,4.366c0,2.409 1.955,4.363 4.363,4.363" style="fill:#00aca9;"/><path d="M263.187,393.866c2.413,-0 4.363,-1.954 4.363,-4.363c-0,-2.4 -1.95,-4.366 -4.363,-4.366c-2.396,-0 -4.35,1.966 -4.35,4.366c0,2.409 1.954,4.363 4.35,4.363" style="fill:#00aca9;"/><path d="M229.473,393.866c2.396,-0 4.363,-1.954 4.363,-4.363c-0,-2.4 -1.967,-4.366 -4.363,-4.366c-2.396,-0 -4.362,1.966 -4.362,4.366c-0,2.409 1.966,4.363 4.362,4.363" style="fill:#00aca9;"/><path d="M195.76,393.866c2.395,-0 4.35,-1.954 4.35,-4.363c-0,-2.4 -1.955,-4.366 -4.35,-4.366c-2.409,-0 -4.363,1.966 -4.363,4.366c0,2.409 1.954,4.363 4.363,4.363" style="fill:#00aca9;"/><path d="M162.032,393.866c2.412,-0 4.362,-1.954 4.362,-4.363c0,-2.4 -1.95,-4.366 -4.362,-4.366c-2.396,-0 -4.363,1.966 -4.363,4.366c0,2.409 1.967,4.363 4.363,4.363" style="fill:#00aca9;"/><path d="M128.318,393.866c2.396,-0 4.362,-1.954 4.362,-4.363c0,-2.4 -1.966,-4.366 -4.362,-4.366c-2.408,-0 -4.363,1.966 -4.363,4.366c0,2.409 1.955,4.363 4.363,4.363" style="fill:#00aca9;"/><path d="M94.592,393.05c1.962,-0 3.55,-1.588 3.55,-3.55c-0,-1.946 -1.588,-3.55 -3.55,-3.55c-1.95,-0 -3.538,1.604 -3.538,3.55c0,1.962 1.588,3.55 3.538,3.55" style="fill:#00aca9;"/><path d="M330.629,360.231c1.958,0 3.546,-1.587 3.546,-3.533c-0,-1.954 -1.588,-3.542 -3.546,-3.542c-1.946,0 -3.542,1.588 -3.542,3.542c0,1.946 1.596,3.533 3.542,3.533" style="fill:#00aca9;"/><path d="M296.915,361.049c2.396,0 4.362,-1.954 4.362,-4.346c0,-2.412 -1.966,-4.366 -4.362,-4.366c-2.408,-0 -4.363,1.954 -4.363,4.366c0,2.392 1.955,4.346 4.363,4.346" style="fill:#00aca9;"/><path d="M263.187,361.417c2.613,0 4.733,-2.116 4.733,-4.716c0,-2.613 -2.12,-4.734 -4.733,-4.734c-2.6,0 -4.717,2.121 -4.717,4.734c0,2.6 2.117,4.716 4.717,4.716" style="fill:#00aca9;"/><path d="M229.473,361.999c2.921,0 5.317,-2.379 5.317,-5.296c-0,-2.937 -2.396,-5.316 -5.317,-5.316c-2.916,-0 -5.312,2.379 -5.312,5.316c-0,2.917 2.396,5.296 5.312,5.296" style="fill:#00aca9;"/><path d="M195.762,362.007c2.925,0 5.304,-2.383 5.304,-5.304c-0,-2.941 -2.379,-5.325 -5.304,-5.325c-2.942,0 -5.325,2.384 -5.325,5.325c-0,2.921 2.383,5.304 5.325,5.304" style="fill:#00aca9;"/><path d="M162.032,361.409c2.608,0 4.725,-2.112 4.725,-4.708c-0,-2.609 -2.117,-4.725 -4.725,-4.725c-2.596,-0 -4.725,2.116 -4.725,4.725c-0,2.596 2.129,4.708 4.725,4.708" style="fill:#00aca9;"/><path d="M128.318,361.049c2.396,0 4.362,-1.954 4.362,-4.346c0,-2.412 -1.966,-4.366 -4.362,-4.366c-2.408,-0 -4.363,1.954 -4.363,4.366c0,2.392 1.955,4.346 4.363,4.346" style="fill:#00aca9;"/><path d="M94.59,361.049c2.412,0 4.362,-1.954 4.362,-4.346c0,-2.412 -1.95,-4.366 -4.362,-4.366c-2.396,-0 -4.35,1.954 -4.35,4.366c-0,2.392 1.954,4.346 4.35,4.346" style="fill:#00aca9;"/><path d="M330.629,328.249c2.413,-0 4.363,-1.954 4.363,-4.363c-0,-2.396 -1.95,-4.366 -4.363,-4.366c-2.396,-0 -4.362,1.97 -4.362,4.366c-0,2.409 1.966,4.363 4.362,4.363" style="fill:#00aca9;"/><path d="M364.351,327.661c1.962,-0 3.55,-1.6 3.55,-3.55c-0,-1.959 -1.588,-3.55 -3.55,-3.55c-1.95,-0 -3.538,1.591 -3.538,3.55c0,1.95 1.588,3.55 3.538,3.55" style="fill:#00aca9;"/><path d="M347.949,343.825c1.958,-0 3.546,-1.588 3.546,-3.546c-0,-1.942 -1.588,-3.542 -3.546,-3.542c-1.946,0 -3.542,1.6 -3.542,3.542c0,1.958 1.596,3.546 3.542,3.546" style="fill:#00aca9;"/><path d="M296.915,328.249c2.396,-0 4.362,-1.954 4.362,-4.363c0,-2.396 -1.966,-4.366 -4.362,-4.366c-2.408,-0 -4.363,1.97 -4.363,4.366c0,2.409 1.955,4.363 4.363,4.363" style="fill:#00aca9;"/><path d="M263.187,328.617c2.613,0 4.733,-2.117 4.733,-4.733c0,-2.596 -2.12,-4.729 -4.733,-4.729c-2.6,-0 -4.717,2.133 -4.717,4.729c0,2.616 2.117,4.733 4.717,4.733" style="fill:#00aca9;"/><path d="M229.473,329.201c2.921,0 5.317,-2.379 5.317,-5.316c-0,-2.917 -2.396,-5.313 -5.317,-5.313c-2.916,0 -5.312,2.396 -5.312,5.313c-0,2.937 2.396,5.316 5.312,5.316" style="fill:#00aca9;"/><path d="M195.762,329.209c2.925,0 5.304,-2.383 5.304,-5.325c-0,-2.921 -2.379,-5.325 -5.304,-5.325c-2.942,0 -5.325,2.404 -5.325,5.325c-0,2.942 2.383,5.325 5.325,5.325" style="fill:#00aca9;"/><path d="M162.032,328.609c2.608,0 4.725,-2.112 4.725,-4.725c-0,-2.592 -2.117,-4.725 -4.725,-4.725c-2.596,0 -4.725,2.133 -4.725,4.725c-0,2.613 2.129,4.725 4.725,4.725" style="fill:#00aca9;"/><path d="M128.318,328.249c2.396,-0 4.362,-1.954 4.362,-4.363c0,-2.396 -1.966,-4.366 -4.362,-4.366c-2.408,-0 -4.363,1.97 -4.363,4.366c0,2.409 1.955,4.363 4.363,4.363" style="fill:#00aca9;"/><path d="M94.59,328.249c2.412,-0 4.362,-1.954 4.362,-4.363c0,-2.396 -1.95,-4.366 -4.362,-4.366c-2.396,-0 -4.35,1.97 -4.35,4.366c-0,2.409 1.954,4.363 4.35,4.363" style="fill:#00aca9;"/><path d="M364.357,295.435c2.396,-0 4.35,-1.955 4.35,-4.35c0,-2.413 -1.954,-4.363 -4.35,-4.363c-2.408,0 -4.362,1.95 -4.362,4.363c-0,2.395 1.954,4.35 4.362,4.35" style="fill:#00aca9;"/><path d="M330.629,295.435c2.413,-0 4.363,-1.955 4.363,-4.35c-0,-2.413 -1.95,-4.363 -4.363,-4.363c-2.396,0 -4.362,1.95 -4.362,4.363c-0,2.395 1.966,4.35 4.362,4.35" style="fill:#00aca9;"/><path d="M296.915,295.435c2.396,-0 4.362,-1.955 4.362,-4.35c0,-2.413 -1.966,-4.363 -4.362,-4.363c-2.408,0 -4.363,1.95 -4.363,4.363c0,2.395 1.955,4.35 4.363,4.35" style="fill:#00aca9;"/><path d="M263.187,295.8c2.613,0 4.733,-2.116 4.733,-4.716c0,-2.613 -2.12,-4.734 -4.733,-4.734c-2.6,0 -4.717,2.121 -4.717,4.734c0,2.6 2.117,4.716 4.717,4.716" style="fill:#00aca9;"/><path d="M229.473,296.382c2.921,0 5.317,-2.379 5.317,-5.295c-0,-2.938 -2.396,-5.317 -5.317,-5.317c-2.916,-0 -5.312,2.379 -5.312,5.317c-0,2.916 2.396,5.295 5.312,5.295" style="fill:#00aca9;"/><path d="M195.762,296.393c2.925,-0 5.304,-2.384 5.304,-5.305c-0,-2.941 -2.379,-5.325 -5.304,-5.325c-2.942,0 -5.325,2.384 -5.325,5.325c-0,2.921 2.383,5.305 5.325,5.305" style="fill:#00aca9;"/><path d="M162.032,295.795c2.608,-0 4.725,-2.117 4.725,-4.709c-0,-2.608 -2.117,-4.725 -4.725,-4.725c-2.596,0 -4.725,2.117 -4.725,4.725c-0,2.592 2.129,4.709 4.725,4.709" style="fill:#00aca9;"/><path d="M128.318,295.435c2.396,-0 4.362,-1.955 4.362,-4.35c0,-2.413 -1.966,-4.363 -4.362,-4.363c-2.408,0 -4.363,1.95 -4.363,4.363c0,2.395 1.955,4.35 4.363,4.35" style="fill:#00aca9;"/><path d="M94.59,295.435c2.412,-0 4.362,-1.955 4.362,-4.35c0,-2.413 -1.95,-4.363 -4.362,-4.363c-2.396,0 -4.35,1.95 -4.35,4.363c-0,2.395 1.954,4.35 4.35,4.35" style="fill:#00aca9;"/><path d="M398.071,261.812c1.946,0 3.546,-1.587 3.546,-3.546c-0,-1.941 -1.6,-3.541 -3.546,-3.541c-1.959,-0 -3.542,1.6 -3.542,3.541c0,1.959 1.583,3.546 3.542,3.546" style="fill:#00aca9;"/><path d="M364.357,262.632c2.396,0 4.35,-1.954 4.35,-4.362c0,-2.396 -1.954,-4.363 -4.35,-4.363c-2.408,0 -4.362,1.967 -4.362,4.363c-0,2.408 1.954,4.362 4.362,4.362" style="fill:#00aca9;"/><path d="M330.629,262.632c2.413,0 4.363,-1.954 4.363,-4.362c-0,-2.396 -1.95,-4.363 -4.363,-4.363c-2.396,0 -4.362,1.967 -4.362,4.363c-0,2.408 1.966,4.362 4.362,4.362" style="fill:#00aca9;"/><path d="M296.915,262.632c2.396,0 4.362,-1.954 4.362,-4.362c0,-2.396 -1.966,-4.363 -4.362,-4.363c-2.408,0 -4.363,1.967 -4.363,4.363c0,2.408 1.955,4.362 4.363,4.362" style="fill:#00aca9;"/><path d="M263.187,262.632c2.413,0 4.363,-1.954 4.363,-4.362c-0,-2.396 -1.95,-4.363 -4.363,-4.363c-2.396,0 -4.35,1.967 -4.35,4.363c0,2.408 1.954,4.362 4.35,4.362" style="fill:#00aca9;"/><path d="M229.473,262.632c2.396,0 4.363,-1.954 4.363,-4.362c-0,-2.396 -1.967,-4.363 -4.363,-4.363c-2.396,0 -4.362,1.967 -4.362,4.363c-0,2.408 1.966,4.362 4.362,4.362" style="fill:#00aca9;"/><path d="M195.76,262.632c2.395,0 4.35,-1.954 4.35,-4.362c-0,-2.396 -1.955,-4.363 -4.35,-4.363c-2.409,0 -4.363,1.967 -4.363,4.363c0,2.408 1.954,4.362 4.363,4.362" style="fill:#00aca9;"/><path d="M162.032,262.632c2.412,0 4.362,-1.954 4.362,-4.362c0,-2.396 -1.95,-4.363 -4.362,-4.363c-2.396,0 -4.363,1.967 -4.363,4.363c0,2.408 1.967,4.362 4.363,4.362" style="fill:#00aca9;"/><path d="M128.318,262.632c2.396,0 4.362,-1.954 4.362,-4.362c0,-2.396 -1.966,-4.363 -4.362,-4.363c-2.408,0 -4.363,1.967 -4.363,4.363c0,2.408 1.955,4.362 4.363,4.362" style="fill:#00aca9;"/><path d="M94.592,261.812c1.958,0 3.545,-1.587 3.545,-3.546c0,-1.941 -1.587,-3.541 -3.545,-3.541c-1.946,-0 -3.534,1.6 -3.534,3.541c0,1.959 1.588,3.546 3.534,3.546" style="fill:#00aca9;"/><path d="M431.785,229.817c2.412,0 4.362,-1.954 4.362,-4.35c0,-2.412 -1.95,-4.362 -4.362,-4.362c-2.396,-0 -4.363,1.95 -4.363,4.362c0,2.396 1.967,4.35 4.363,4.35" style="fill:#00aca9;"/><path d="M398.071,229.817c2.396,0 4.362,-1.954 4.362,-4.35c0,-2.412 -1.966,-4.362 -4.362,-4.362c-2.409,-0 -4.363,1.95 -4.363,4.362c0,2.396 1.954,4.35 4.363,4.35" style="fill:#00aca9;"/><path d="M364.357,229.817c2.396,0 4.35,-1.954 4.35,-4.35c0,-2.412 -1.954,-4.362 -4.35,-4.362c-2.408,-0 -4.362,1.95 -4.362,4.362c-0,2.396 1.954,4.35 4.362,4.35" style="fill:#00aca9;"/><path d="M330.629,229.817c2.413,0 4.363,-1.954 4.363,-4.35c-0,-2.412 -1.95,-4.362 -4.363,-4.362c-2.396,-0 -4.362,1.95 -4.362,4.362c-0,2.396 1.966,4.35 4.362,4.35" style="fill:#00aca9;"/><path d="M296.915,229.817c2.396,0 4.362,-1.954 4.362,-4.35c0,-2.412 -1.966,-4.362 -4.362,-4.362c-2.408,-0 -4.363,1.95 -4.363,4.362c0,2.396 1.955,4.35 4.363,4.35" style="fill:#00aca9;"/><path d="M263.187,229.817c2.413,0 4.363,-1.954 4.363,-4.35c-0,-2.412 -1.95,-4.362 -4.363,-4.362c-2.396,-0 -4.35,1.95 -4.35,4.362c0,2.396 1.954,4.35 4.35,4.35" style="fill:#00aca9;"/><path d="M229.473,229.817c2.396,0 4.363,-1.954 4.363,-4.35c-0,-2.412 -1.967,-4.362 -4.363,-4.362c-2.396,-0 -4.362,1.95 -4.362,4.362c-0,2.396 1.966,4.35 4.362,4.35" style="fill:#00aca9;"/><path d="M195.76,229.817c2.395,0 4.35,-1.954 4.35,-4.35c-0,-2.412 -1.955,-4.362 -4.35,-4.362c-2.409,-0 -4.363,1.95 -4.363,4.362c0,2.396 1.954,4.35 4.363,4.35" style="fill:#00aca9;"/><path d="M162.032,229.817c2.412,0 4.362,-1.954 4.362,-4.35c0,-2.412 -1.95,-4.362 -4.362,-4.362c-2.396,-0 -4.363,1.95 -4.363,4.362c0,2.396 1.967,4.35 4.363,4.35" style="fill:#00aca9;"/><path d="M128.318,229.817c2.396,0 4.362,-1.954 4.362,-4.35c0,-2.412 -1.966,-4.362 -4.362,-4.362c-2.408,-0 -4.363,1.95 -4.363,4.362c0,2.396 1.955,4.35 4.363,4.35" style="fill:#00aca9;"/><path d="M465.51,196.201c1.95,0 3.538,-1.587 3.538,-3.55c-0,-1.946 -1.588,-3.55 -3.538,-3.55c-1.958,0 -3.55,1.604 -3.55,3.55c0,1.963 1.592,3.55 3.55,3.55" style="fill:#00aca9;"/><path d="M431.785,197.017c2.412,0 4.362,-1.954 4.362,-4.362c0,-2.4 -1.95,-4.367 -4.362,-4.367c-2.396,-0 -4.363,1.967 -4.363,4.367c0,2.408 1.967,4.362 4.363,4.362" style="fill:#00aca9;"/><path d="M398.071,197.377c2.596,0 4.725,-2.116 4.725,-4.725c-0,-2.591 -2.129,-4.725 -4.725,-4.725c-2.609,0 -4.725,2.134 -4.725,4.725c-0,2.609 2.116,4.725 4.725,4.725" style="fill:#00aca9;"/><path d="M364.359,197.385c2.6,0 4.717,-2.12 4.717,-4.733c-0,-2.596 -2.117,-4.729 -4.717,-4.729c-2.612,-0 -4.733,2.133 -4.733,4.729c-0,2.613 2.121,4.733 4.733,4.733" style="fill:#00aca9;"/><path d="M330.629,197.017c2.413,0 4.363,-1.954 4.363,-4.362c-0,-2.4 -1.95,-4.367 -4.363,-4.367c-2.396,-0 -4.362,1.967 -4.362,4.367c-0,2.408 1.966,4.362 4.362,4.362" style="fill:#00aca9;"/><path d="M296.915,197.017c2.396,0 4.362,-1.954 4.362,-4.362c0,-2.4 -1.966,-4.367 -4.362,-4.367c-2.408,-0 -4.363,1.967 -4.363,4.367c0,2.408 1.955,4.362 4.363,4.362" style="fill:#00aca9;"/><path d="M263.187,197.017c2.413,0 4.363,-1.954 4.363,-4.362c-0,-2.4 -1.95,-4.367 -4.363,-4.367c-2.396,-0 -4.35,1.967 -4.35,4.367c0,2.408 1.954,4.362 4.35,4.362" style="fill:#00aca9;"/><path d="M229.473,196.195c1.946,0 3.546,-1.583 3.546,-3.541c0,-1.946 -1.6,-3.546 -3.546,-3.546c-1.946,-0 -3.541,1.6 -3.541,3.546c-0,1.958 1.595,3.541 3.541,3.541" style="fill:#00aca9;"/><path d="M195.76,196.201c1.945,0 3.537,-1.587 3.537,-3.55c0,-1.946 -1.592,-3.55 -3.537,-3.55c-1.963,0 -3.55,1.604 -3.55,3.55c-0,1.963 1.587,3.55 3.55,3.55" style="fill:#00aca9;"/><path d="M162.032,196.195c1.958,0 3.545,-1.583 3.545,-3.541c0,-1.946 -1.587,-3.546 -3.545,-3.546c-1.946,-0 -3.542,1.6 -3.542,3.546c-0,1.958 1.596,3.541 3.542,3.541" style="fill:#00aca9;"/><path d="M465.512,164.215c2.396,-0 4.35,-1.967 4.35,-4.363c0,-2.408 -1.954,-4.366 -4.35,-4.366c-2.408,-0 -4.362,1.958 -4.362,4.366c-0,2.396 1.954,4.363 4.362,4.363" style="fill:#00aca9;"/><path d="M431.785,164.215c2.412,-0 4.362,-1.967 4.362,-4.363c0,-2.408 -1.95,-4.366 -4.362,-4.366c-2.396,-0 -4.363,1.958 -4.363,4.366c0,2.396 1.967,4.363 4.363,4.363" style="fill:#00aca9;"/><path d="M398.071,165.167c2.916,0 5.316,-2.396 5.316,-5.317c0,-2.933 -2.4,-5.312 -5.316,-5.312c-2.938,-0 -5.313,2.379 -5.313,5.312c0,2.921 2.375,5.317 5.313,5.317" style="fill:#00aca9;"/><path d="M364.359,165.175c2.925,-0 5.304,-2.4 5.304,-5.325c0,-2.938 -2.379,-5.321 -5.304,-5.321c-2.942,0 -5.325,2.383 -5.325,5.321c0,2.925 2.383,5.325 5.325,5.325" style="fill:#00aca9;"/><path d="M330.629,164.215c2.413,-0 4.363,-1.967 4.363,-4.363c-0,-2.408 -1.95,-4.366 -4.363,-4.366c-2.396,-0 -4.362,1.958 -4.362,4.366c-0,2.396 1.966,4.363 4.362,4.363" style="fill:#00aca9;"/><path d="M296.915,164.215c2.396,-0 4.362,-1.967 4.362,-4.363c0,-2.408 -1.966,-4.366 -4.362,-4.366c-2.408,-0 -4.363,1.958 -4.363,4.366c0,2.396 1.955,4.363 4.363,4.363" style="fill:#00aca9;"/><path d="M263.189,163.401c1.958,0 3.55,-1.6 3.55,-3.55c0,-1.958 -1.592,-3.55 -3.55,-3.55c-1.95,0 -3.537,1.592 -3.537,3.55c-0,1.95 1.587,3.55 3.537,3.55" style="fill:#00aca9;"/><path d="M499.226,130.58c1.946,0 3.546,-1.587 3.546,-3.545c0,-1.942 -1.6,-3.542 -3.546,-3.542c-1.946,-0 -3.546,1.6 -3.546,3.542c0,1.958 1.6,3.545 3.546,3.545" style="fill:#00aca9;"/><path d="M532.082,163.442c1.962,-0 3.55,-1.588 3.55,-3.55c-0,-1.946 -1.588,-3.538 -3.55,-3.538c-1.946,0 -3.538,1.592 -3.538,3.538c0,1.962 1.592,3.55 3.538,3.55" style="fill:#00aca9;"/><path d="M498.309,163.379c1.946,-0 3.546,-1.588 3.546,-3.546c-0,-1.942 -1.6,-3.529 -3.546,-3.529c-1.946,-0 -3.542,1.587 -3.542,3.529c0,1.958 1.596,3.546 3.542,3.546" style="fill:#00aca9;"/><path d="M481.909,179.797c1.946,0 3.537,-1.6 3.537,-3.55c0,-1.958 -1.591,-3.55 -3.537,-3.55c-1.963,0 -3.55,1.592 -3.55,3.55c-0,1.95 1.587,3.55 3.55,3.55" style="fill:#00aca9;"/><path d="M465.512,131.4c2.396,0 4.35,-1.954 4.35,-4.362c0,-2.4 -1.954,-4.367 -4.35,-4.367c-2.408,0 -4.362,1.967 -4.362,4.367c-0,2.408 1.954,4.362 4.362,4.362" style="fill:#00aca9;"/><path d="M431.785,131.4c2.412,0 4.362,-1.954 4.362,-4.362c0,-2.4 -1.95,-4.367 -4.362,-4.367c-2.396,0 -4.363,1.967 -4.363,4.367c0,2.408 1.967,4.362 4.363,4.362" style="fill:#00aca9;"/><path d="M398.071,131.76c2.596,0 4.725,-2.112 4.725,-4.725c-0,-2.591 -2.129,-4.725 -4.725,-4.725c-2.609,0 -4.725,2.134 -4.725,4.725c-0,2.613 2.116,4.725 4.725,4.725" style="fill:#00aca9;"/><path d="M364.359,131.769c2.6,-0 4.717,-2.117 4.717,-4.734c-0,-2.595 -2.117,-4.729 -4.717,-4.729c-2.612,0 -4.733,2.134 -4.733,4.729c-0,2.617 2.121,4.734 4.733,4.734" style="fill:#00aca9;"/><path d="M330.629,131.4c2.413,0 4.363,-1.954 4.363,-4.362c-0,-2.4 -1.95,-4.367 -4.363,-4.367c-2.396,0 -4.362,1.967 -4.362,4.367c-0,2.408 1.966,4.362 4.362,4.362" style="fill:#00aca9;"/><path d="M296.915,131.4c2.396,0 4.362,-1.954 4.362,-4.362c0,-2.4 -1.966,-4.367 -4.362,-4.367c-2.408,0 -4.363,1.967 -4.363,4.367c0,2.408 1.955,4.362 4.363,4.362" style="fill:#00aca9;"/><path d="M465.51,97.784c1.95,0 3.538,-1.6 3.538,-3.55c-0,-1.958 -1.588,-3.55 -3.538,-3.55c-1.958,0 -3.55,1.592 -3.55,3.55c0,1.95 1.592,3.55 3.55,3.55" style="fill:#00aca9;"/><path d="M431.785,98.6c2.412,-0 4.362,-1.971 4.362,-4.363c0,-2.412 -1.95,-4.366 -4.362,-4.366c-2.396,-0 -4.363,1.954 -4.363,4.366c0,2.392 1.967,4.363 4.363,4.363" style="fill:#00aca9;"/><path d="M398.071,98.6c2.396,-0 4.362,-1.971 4.362,-4.363c0,-2.412 -1.966,-4.366 -4.362,-4.366c-2.409,-0 -4.363,1.954 -4.363,4.366c0,2.392 1.954,4.363 4.363,4.363" style="fill:#00aca9;"/><path d="M364.357,98.6c2.396,-0 4.35,-1.971 4.35,-4.363c0,-2.412 -1.954,-4.366 -4.35,-4.366c-2.408,-0 -4.362,1.954 -4.362,4.366c-0,2.392 1.954,4.363 4.362,4.363" style="fill:#00aca9;"/><path d="M330.629,98.6c2.413,-0 4.363,-1.971 4.363,-4.363c-0,-2.412 -1.95,-4.366 -4.363,-4.366c-2.396,-0 -4.362,1.954 -4.362,4.366c-0,2.392 1.966,4.363 4.362,4.363" style="fill:#00aca9;"/><path d="M398.071,64.964c1.946,-0 3.546,-1.588 3.546,-3.546c-0,-1.942 -1.6,-3.542 -3.546,-3.542c-1.959,0 -3.542,1.6 -3.542,3.542c0,1.958 1.583,3.546 3.542,3.546" style="fill:#00aca9;"/></svg>