<svg width="650" height="540" viewBox="0 0 650 540" fill="none" xmlns="http://www.w3.org/2000/svg">
<g filter="url(#filter0_d_333_629)">
<path d="M414.976 213.351C414.482 213.351 413.989 213.351 413.496 213.351C403.629 173.545 367.737 144 325.062 144C282.386 144 246.495 173.545 236.628 213.351H235.148C184.887 213.351 144 254.331 144 304.706C144 355.082 184.887 396 235.086 396C273.506 396 298.975 375.912 318.525 351.991C327.898 340.494 335.977 328.132 343.378 316.636C367.244 279.859 383.463 257.298 414.914 257.298C440.939 257.298 462.153 278.499 462.153 304.645C462.153 330.79 441 351.991 414.914 351.991H348.249V396H416.148C465.792 395.258 506 354.587 506 304.706C506 254.826 465.113 213.413 414.914 213.413L414.976 213.351ZM314.085 281.342C311.556 285.174 309.028 289.007 306.684 292.715C300.271 302.605 294.412 311.382 288.677 319.046C273.013 339.938 258.15 351.991 235.148 351.991C209.123 351.991 187.909 330.79 187.909 304.645C187.909 278.499 209.061 257.298 235.148 257.298H277.761L277.884 235.294C277.884 209.21 299.037 187.947 325.123 187.947C347.201 187.947 365.702 203.214 370.882 223.797C345.968 236.715 328.639 259.523 314.146 281.28L314.085 281.342Z" fill="white"/>
</g>
<defs>
<filter id="filter0_d_333_629" x="0" y="0" width="650" height="540" filterUnits="userSpaceOnUse" color-interpolation-filters="sRGB">
<feFlood flood-opacity="0" result="BackgroundImageFix"/>
<feColorMatrix in="SourceAlpha" type="matrix" values="0 0 0 0 0 0 0 0 0 0 0 0 0 0 0 0 0 0 127 0" result="hardAlpha"/>
<feOffset/>
<feGaussianBlur stdDeviation="72"/>
<feComposite in2="hardAlpha" operator="out"/>
<feColorMatrix type="matrix" values="0 0 0 0 0 0 0 0 0 0 0 0 0 0 0 0 0 0 0.15 0"/>
<feBlend mode="normal" in2="BackgroundImageFix" result="effect1_dropShadow_333_629"/>
<feBlend mode="normal" in="SourceGraphic" in2="effect1_dropShadow_333_629" result="shape"/>
</filter>
</defs>
</svg>
