<?xml version="1.0" encoding="UTF-8" standalone="no"?><!DOCTYPE svg PUBLIC "-//W3C//DTD SVG 1.1//EN" "http://www.w3.org/Graphics/SVG/1.1/DTD/svg11.dtd"><svg width="100%" height="100%" viewBox="0 0 434 380" version="1.1" xmlns="http://www.w3.org/2000/svg" xmlns:xlink="http://www.w3.org/1999/xlink" xml:space="preserve" xmlns:serif="http://www.serif.com/" style="fill-rule:evenodd;clip-rule:evenodd;stroke-linejoin:round;stroke-miterlimit:2;"><path d="M244.702,353.08c-6.533,-0 -11.829,-5.296 -11.829,-11.83c-0,-6.533 5.296,-11.833 11.829,-11.833c6.533,0 11.829,5.3 11.829,11.833c0,6.534 -5.296,11.83 -11.829,11.83m-0,-33.867c-12.171,-0 -22.038,9.867 -22.038,22.037c0,12.171 9.867,22.038 22.038,22.038c12.171,-0 22.037,-9.867 22.037,-22.038c0,-12.17 -9.866,-22.037 -22.037,-22.037" style="fill:#00aca9;"/><path d="M117.22,320.251l-9.934,-0c-2.658,-0 -4.954,0.987 -6.787,2.921l-11.833,12.437l-0,-31.746l-5.296,0c-3.867,0 -7.021,3.154 -7.021,7.021l-0,51.813l5.3,-0c3.867,-0 7.017,-3.155 7.017,-7.021l-0,-6.921l4.82,-4.413l8.096,13.125l0.492,0.8c1.754,2.842 4.625,4.442 7.958,4.442l7.309,0.188l-16.721,-26.071l16.6,-16.575Z" style="fill:#00aca9;"/><path d="M340.881,320.251l-9.933,-0c-2.659,-0 -4.954,0.987 -6.788,2.921l-11.833,12.437l-0,-31.746l-5.296,0c-3.867,0 -7.021,3.154 -7.021,7.021l0,51.813l5.3,-0c3.867,-0 7.017,-3.155 7.017,-7.021l-0,-6.921l4.821,-4.413l8.096,13.125l0.491,0.8c1.754,2.842 4.625,4.442 7.959,4.442l7.308,0.188l-16.721,-26.071l16.6,-16.575Z" style="fill:#00aca9;"/><path d="M72.628,327.91c-0.75,-2.283 -2.046,-4.058 -3.725,-5.416c-3.242,-2.617 -7.921,-3.7 -12.867,-3.85c-5.912,-0.179 -10.521,0.837 -13.662,2.946c-3.1,2.083 -4.788,5.262 -4.913,9.425c-0.079,2.545 0.504,4.741 1.708,6.537c1.213,1.817 3.075,3.246 5.534,4.246c1.229,0.483 2.579,0.958 4.241,1.467c1.671,0.508 3.625,1.041 6.046,1.645c2.679,0.709 4.371,1.313 5.4,2.038c1.109,0.779 1.471,1.696 1.429,2.979c-0.041,1.479 -0.712,2.654 -1.862,3.438c-1.125,0.762 -2.708,1.154 -4.629,1.095c-2.146,-0.066 -3.938,-0.491 -5.221,-1.504c-0.05,-0.041 -0.104,-0.079 -0.146,-0.121c-2.917,-2.487 -6.467,-3.229 -10.058,-2.104l-3.192,1c0.754,2.979 2.263,5.238 4.263,6.909c3.516,2.937 8.591,4.095 13.787,4.254c5.904,0.179 10.663,-1.029 13.967,-3.413c3.275,-2.354 5.133,-5.879 5.266,-10.341c0.088,-2.684 -0.445,-4.925 -1.608,-6.742c-1.167,-1.821 -2.983,-3.246 -5.475,-4.288c-3.529,-1.454 -7.142,-2.366 -10.817,-3.295l-1.804,-0.463c-2.062,-0.529 -4.666,-1.196 -4.583,-4.037c0.037,-1.242 0.592,-2.2 1.604,-2.825c0.954,-0.592 2.338,-0.88 4.092,-0.825c1.821,0.054 3.287,0.379 4.379,1.137c2.958,2.054 6.312,2.5 9.658,1.275l3.188,-1.167Z" style="fill:#00aca9;"/><path d="M212.532,362.898l12.054,-42.642l-6.008,0c-3.267,0 -6.025,2.154 -6.812,5.325l-6.163,24.8l-6.7,-30.125l-5.296,0c-3.325,0 -6.125,2.238 -6.85,5.479l-5.566,24.788l-5.95,-24.879c-0.767,-3.196 -3.538,-5.388 -6.825,-5.388l-6.267,0l10.608,37.534c0.867,3.066 3.567,5.108 6.754,5.108l6.75,-0l6.88,-29.879l6.075,24.546c0.783,3.175 3.541,5.333 6.808,5.333l6.508,-0Z" style="fill:#00aca9;"/><path d="M379.948,320.23l-35.659,0l0,2.925c0,3.867 3.155,7.021 7.021,7.021l13.313,0l-19.563,19.975c-0.833,0.85 -1.466,1.792 -1.879,2.813c-0.412,1.016 -0.625,2.129 -0.625,3.325l0,6.608l39.042,0l-0,-3.154c-0,-3.871 -3.15,-7.025 -7.017,-7.025l-16.671,-0l19.546,-20.075c0.833,-0.854 1.458,-1.792 1.871,-2.808c0.412,-1.017 0.621,-2.125 0.621,-3.317l-0,-6.288Z" style="fill:#00aca9;"/><path d="M154.565,320.257c-3.166,-0 -5.846,2.008 -6.737,5.046l-7.7,26.308l-7.759,-26.321c-0.891,-3.033 -3.575,-5.033 -6.733,-5.033l-7.104,-0c-0,-0 16.154,47.658 16.333,48.183c0.054,0.146 0.059,0.233 0.079,0.338l-6.841,-0l-0,0.004c-0.392,-0 -0.754,-0.021 -1.192,-0.009c-3.475,0.075 -5.933,3.455 -5.933,6.934l-0,3.65l15.387,-0c0.017,-0.009 0.034,-0.021 0.05,-0.029c3.075,-0.075 5.925,-2.021 6.959,-5.096c0.5,-1.484 0.995,-2.971 1.495,-4.454c0.005,-0.009 0.009,-0.017 0.017,-0.021c0,0.025 15.95,-49.5 15.95,-49.5l-6.271,-0Z" style="fill:#00aca9;"/><path d="M279.472,319.801c-0.029,-0 -0.054,0.021 -0.083,0.025l-2.471,-0c-4.142,-0 -7.517,3.379 -7.517,7.521l0,24.729c0.008,0.012 0.021,0.017 0.029,0.029c0.004,3.488 0.009,7.042 0.009,10.792l4.991,-0c4.142,-0 7.521,-3.375 7.521,-7.517l0,-24.729l9.296,-0c3.575,-0 6.487,-2.913 6.487,-6.488l0,-4.3c-10.475,0 -7.816,-0.062 -18.262,-0.062" style="fill:#00aca9;"/><path d="M421.191,138.163c-17.87,-32.796 -51.104,-52.376 -88.895,-52.376c-18.513,0.001 -31.963,4.43 -38.609,7.184c-37.058,14.804 -60.825,50.433 -83.812,84.896c-29.367,44.025 -57.129,85.554 -111,78.987c-20.329,-2.5 -39.5,-13.396 -52.6,-29.887c-13.404,-16.871 -19.379,-37.63 -16.821,-58.434c5.887,-47.833 48.612,-73.179 86.454,-70.125c9.721,0.813 18.642,-4.733 22.208,-13.766c0.984,-2.5 2.084,-4.942 3.288,-7.325l0.658,-1.338c0.513,-0.95 1.042,-1.883 1.575,-2.817l0.675,-1.233c15.759,-26.7 43.029,-42.383 74.784,-43.042c28.304,-0.412 54.762,13.3 71.429,36.184c4.833,6.629 13.233,9.916 21.462,8.35c3.796,-0.721 7.667,-1.258 11.5,-1.588l3.696,-0.316l-1.542,-3.375c-18.945,-41.48 -60.412,-68.142 -105.833,-68.142c-0.312,0 -0.625,0 -0.942,0.004c-45.937,0.375 -87.229,27.504 -105.712,69.271c-45.729,-1.692 -87.792,25.217 -105.021,67.442c-12.85,31.479 -10.383,66.3 6.763,95.533c17.204,29.333 47.287,49.283 80.462,53.362c71.521,8.83 105.592,-42.275 138.546,-91.675c27.804,-41.687 53.967,-81.108 101.887,-79.237c38.688,1.475 68.934,32.971 68.85,71.704c-0.075,37.875 -30.45,69.629 -67.945,71.317l-77.813,-0c-10.771,-0 -20.187,7.283 -22.892,17.708l-2.933,11.275l102.575,0l2.617,-0.046l-0,-0.062c31.112,-1.25 62.125,-19.196 79.587,-46.263c19.742,-30.587 21.021,-69.737 3.354,-102.171" style="fill:#00aca9;fill-rule:nonzero;"/><path d="M337.455,254.4c1.329,0 2.409,-1.079 2.409,-2.412c-0,-1.321 -1.08,-2.4 -2.409,-2.4c-1.321,-0 -2.408,1.079 -2.408,2.4c-0,1.333 1.087,2.412 2.408,2.412" style="fill:#00aca9;"/><path d="M318.835,254.4c1.321,0 2.409,-1.079 2.409,-2.412c-0,-1.321 -1.088,-2.4 -2.409,-2.4c-1.329,-0 -2.408,1.079 -2.408,2.4c-0,1.333 1.079,2.412 2.408,2.412" style="fill:#00aca9;"/><path d="M300.211,254.4c1.33,0 2.409,-1.079 2.409,-2.412c-0,-1.321 -1.079,-2.4 -2.409,-2.4c-1.32,-0 -2.404,1.079 -2.404,2.4c0,1.333 1.084,2.412 2.404,2.412" style="fill:#00aca9;"/><path d="M281.591,253.952c1.08,0 1.963,-0.879 1.963,-1.962c-0,-1.075 -0.883,-1.955 -1.963,-1.955c-1.079,0 -1.962,0.88 -1.962,1.955c-0,1.083 0.883,1.962 1.962,1.962" style="fill:#00aca9;"/><path d="M262.976,254.4c1.321,0 2.4,-1.079 2.4,-2.412c0,-1.321 -1.079,-2.4 -2.4,-2.4c-1.329,-0 -2.412,1.079 -2.412,2.4c-0,1.333 1.083,2.412 2.412,2.412" style="fill:#00aca9;"/><path d="M244.348,253.952c1.083,0 1.963,-0.879 1.963,-1.962c-0,-1.075 -0.88,-1.955 -1.963,-1.955c-1.079,0 -1.962,0.88 -1.962,1.955c-0,1.083 0.883,1.962 1.962,1.962" style="fill:#00aca9;"/><path d="M225.732,253.952c1.075,0 1.963,-0.879 1.963,-1.962c-0,-1.075 -0.888,-1.955 -1.963,-1.955c-1.087,0 -1.966,0.88 -1.966,1.955c-0,1.083 0.879,1.962 1.966,1.962" style="fill:#00aca9;"/><path d="M374.699,235.837c1.079,0 1.962,-0.883 1.962,-1.962c0,-1.084 -0.883,-1.959 -1.962,-1.959c-1.079,0 -1.963,0.875 -1.963,1.959c0,1.079 0.884,1.962 1.963,1.962" style="fill:#00aca9;"/><path d="M356.079,236.287c1.321,-0 2.404,-1.088 2.404,-2.413c0,-1.329 -1.083,-2.408 -2.404,-2.408c-1.329,-0 -2.408,1.079 -2.408,2.408c-0,1.325 1.079,2.413 2.408,2.413" style="fill:#00aca9;"/><path d="M337.455,236.287c1.329,-0 2.409,-1.088 2.409,-2.413c-0,-1.329 -1.08,-2.408 -2.409,-2.408c-1.321,-0 -2.408,1.079 -2.408,2.408c-0,1.325 1.087,2.413 2.408,2.413" style="fill:#00aca9;"/><path d="M318.835,236.287c1.321,-0 2.409,-1.088 2.409,-2.413c-0,-1.329 -1.088,-2.408 -2.409,-2.408c-1.329,-0 -2.408,1.079 -2.408,2.408c-0,1.325 1.079,2.413 2.408,2.413" style="fill:#00aca9;"/><path d="M300.211,236.287c1.33,-0 2.409,-1.088 2.409,-2.413c-0,-1.329 -1.079,-2.408 -2.409,-2.408c-1.32,-0 -2.404,1.079 -2.404,2.408c0,1.325 1.084,2.413 2.404,2.413" style="fill:#00aca9;"/><path d="M281.591,236.287c1.321,-0 2.409,-1.088 2.409,-2.413c-0,-1.329 -1.088,-2.408 -2.409,-2.408c-1.32,-0 -2.408,1.079 -2.408,2.408c0,1.325 1.088,2.413 2.408,2.413" style="fill:#00aca9;"/><path d="M262.976,236.287c1.321,-0 2.4,-1.088 2.4,-2.413c0,-1.329 -1.079,-2.408 -2.4,-2.408c-1.329,-0 -2.412,1.079 -2.412,2.408c-0,1.325 1.083,2.413 2.412,2.413" style="fill:#00aca9;"/><path d="M244.348,236.287c1.329,-0 2.408,-1.088 2.408,-2.413c0,-1.329 -1.079,-2.408 -2.408,-2.408c-1.321,-0 -2.408,1.079 -2.408,2.408c-0,1.325 1.087,2.413 2.408,2.413" style="fill:#00aca9;"/><path d="M225.732,235.837c1.075,0 1.963,-0.883 1.963,-1.962c-0,-1.084 -0.888,-1.959 -1.963,-1.959c-1.087,0 -1.966,0.875 -1.966,1.959c-0,1.079 0.879,1.962 1.966,1.962" style="fill:#00aca9;"/><path d="M374.699,218.163c1.321,0 2.408,-1.079 2.408,-2.408c0,-1.325 -1.087,-2.404 -2.408,-2.404c-1.321,-0 -2.408,1.079 -2.408,2.404c-0,1.329 1.087,2.408 2.408,2.408" style="fill:#00aca9;"/><path d="M356.079,218.373c1.442,-0 2.612,-1.171 2.612,-2.617c0,-1.441 -1.17,-2.612 -2.612,-2.612c-1.446,-0 -2.621,1.171 -2.621,2.612c0,1.446 1.175,2.617 2.621,2.617" style="fill:#00aca9;"/><path d="M337.455,218.369c1.446,-0 2.617,-1.171 2.617,-2.613c-0,-1.437 -1.171,-2.608 -2.617,-2.608c-1.437,-0 -2.616,1.171 -2.616,2.608c-0,1.442 1.179,2.613 2.616,2.613" style="fill:#00aca9;"/><path d="M318.835,218.369c1.438,-0 2.617,-1.171 2.617,-2.613c-0,-1.437 -1.179,-2.608 -2.617,-2.608c-1.446,-0 -2.616,1.171 -2.616,2.608c-0,1.442 1.17,2.613 2.616,2.613" style="fill:#00aca9;"/><path d="M300.211,218.373c1.446,-0 2.621,-1.171 2.621,-2.617c0,-1.441 -1.175,-2.612 -2.621,-2.612c-1.441,-0 -2.612,1.171 -2.612,2.612c-0,1.446 1.171,2.617 2.612,2.617" style="fill:#00aca9;"/><path d="M281.591,218.163c1.321,0 2.409,-1.079 2.409,-2.408c-0,-1.325 -1.088,-2.404 -2.409,-2.404c-1.32,-0 -2.408,1.079 -2.408,2.404c0,1.329 1.088,2.408 2.408,2.408" style="fill:#00aca9;"/><path d="M262.976,218.163c1.321,0 2.4,-1.079 2.4,-2.408c0,-1.325 -1.079,-2.404 -2.4,-2.404c-1.329,-0 -2.412,1.079 -2.412,2.404c-0,1.329 1.083,2.408 2.412,2.408" style="fill:#00aca9;"/><path d="M244.348,218.163c1.329,0 2.408,-1.079 2.408,-2.408c0,-1.325 -1.079,-2.404 -2.408,-2.404c-1.321,-0 -2.408,1.079 -2.408,2.404c-0,1.329 1.087,2.408 2.408,2.408" style="fill:#00aca9;"/><path d="M393.314,200.05c1.33,-0 2.413,-1.088 2.413,-2.413c-0,-1.329 -1.083,-2.408 -2.413,-2.408c-1.32,0 -2.4,1.079 -2.4,2.408c0,1.325 1.08,2.413 2.4,2.413" style="fill:#00aca9;"/><path d="M374.699,200.05c1.321,-0 2.408,-1.088 2.408,-2.413c0,-1.329 -1.087,-2.408 -2.408,-2.408c-1.321,0 -2.408,1.079 -2.408,2.408c-0,1.325 1.087,2.413 2.408,2.413" style="fill:#00aca9;"/><path d="M356.079,200.05c1.321,-0 2.404,-1.088 2.404,-2.413c0,-1.329 -1.083,-2.408 -2.404,-2.408c-1.329,0 -2.408,1.079 -2.408,2.408c-0,1.325 1.079,2.413 2.408,2.413" style="fill:#00aca9;"/><path d="M337.455,200.583c1.625,-0 2.942,-1.329 2.942,-2.946c-0,-1.621 -1.317,-2.942 -2.942,-2.942c-1.616,0 -2.941,1.321 -2.941,2.942c-0,1.617 1.325,2.946 2.941,2.946" style="fill:#00aca9;"/><path d="M318.835,200.909c1.796,-0 3.271,-1.475 3.271,-3.271c0,-1.804 -1.475,-3.267 -3.271,-3.267c-1.808,0 -3.266,1.463 -3.266,3.267c-0,1.796 1.458,3.271 3.266,3.271" style="fill:#00aca9;"/><path d="M300.211,200.587c1.63,0 2.946,-1.329 2.946,-2.95c0,-1.625 -1.316,-2.946 -2.946,-2.946c-1.62,0 -2.937,1.321 -2.937,2.946c-0,1.621 1.317,2.95 2.937,2.95" style="fill:#00aca9;"/><path d="M281.591,200.05c1.321,-0 2.409,-1.088 2.409,-2.413c-0,-1.329 -1.088,-2.408 -2.409,-2.408c-1.32,0 -2.408,1.079 -2.408,2.408c0,1.325 1.088,2.413 2.408,2.413" style="fill:#00aca9;"/><path d="M262.976,200.05c1.321,-0 2.4,-1.088 2.4,-2.413c0,-1.329 -1.079,-2.408 -2.4,-2.408c-1.329,0 -2.412,1.079 -2.412,2.408c-0,1.325 1.083,2.413 2.412,2.413" style="fill:#00aca9;"/><path d="M244.348,200.05c1.329,-0 2.408,-1.088 2.408,-2.413c0,-1.329 -1.079,-2.408 -2.408,-2.408c-1.321,0 -2.408,1.079 -2.408,2.408c-0,1.325 1.087,2.413 2.408,2.413" style="fill:#00aca9;"/><path d="M393.314,181.929c1.33,-0 2.413,-1.079 2.413,-2.413c-0,-1.321 -1.083,-2.4 -2.413,-2.4c-1.32,0 -2.4,1.079 -2.4,2.4c0,1.334 1.08,2.413 2.4,2.413" style="fill:#00aca9;"/><path d="M374.699,181.929c1.321,-0 2.408,-1.079 2.408,-2.413c0,-1.321 -1.087,-2.4 -2.408,-2.4c-1.321,0 -2.408,1.079 -2.408,2.4c-0,1.334 1.087,2.413 2.408,2.413" style="fill:#00aca9;"/><path d="M356.079,182.138c1.442,0 2.612,-1.175 2.612,-2.621c0,-1.437 -1.17,-2.612 -2.612,-2.612c-1.446,-0 -2.621,1.175 -2.621,2.612c0,1.446 1.175,2.621 2.621,2.621" style="fill:#00aca9;"/><path d="M337.455,182.46c1.625,-0 2.942,-1.317 2.942,-2.942c-0,-1.617 -1.317,-2.933 -2.942,-2.933c-1.616,-0 -2.941,1.316 -2.941,2.933c-0,1.625 1.325,2.942 2.941,2.942" style="fill:#00aca9;"/><path d="M318.835,182.787c1.796,0 3.271,-1.467 3.271,-3.271c0,-1.796 -1.475,-3.258 -3.271,-3.258c-1.808,-0 -3.266,1.462 -3.266,3.258c-0,1.804 1.458,3.271 3.266,3.271" style="fill:#00aca9;"/><path d="M300.211,182.464c1.63,-0 2.946,-1.317 2.946,-2.946c0,-1.621 -1.316,-2.938 -2.946,-2.938c-1.62,0 -2.937,1.317 -2.937,2.938c-0,1.629 1.317,2.946 2.937,2.946" style="fill:#00aca9;"/><path d="M281.591,181.929c1.321,-0 2.409,-1.079 2.409,-2.413c-0,-1.321 -1.088,-2.4 -2.409,-2.4c-1.32,0 -2.408,1.079 -2.408,2.4c0,1.334 1.088,2.413 2.408,2.413" style="fill:#00aca9;"/><path d="M262.976,181.929c1.321,-0 2.4,-1.079 2.4,-2.413c0,-1.321 -1.079,-2.4 -2.4,-2.4c-1.329,0 -2.412,1.079 -2.412,2.4c-0,1.334 1.083,2.413 2.412,2.413" style="fill:#00aca9;"/><path d="M374.699,163.813c1.321,0 2.408,-1.087 2.408,-2.408c0,-1.329 -1.087,-2.413 -2.408,-2.413c-1.321,0 -2.408,1.084 -2.408,2.413c-0,1.321 1.087,2.408 2.408,2.408" style="fill:#00aca9;"/><path d="M356.079,163.813c1.321,0 2.404,-1.087 2.404,-2.408c0,-1.329 -1.083,-2.413 -2.404,-2.413c-1.329,0 -2.408,1.084 -2.408,2.413c-0,1.321 1.079,2.408 2.408,2.408" style="fill:#00aca9;"/><path d="M337.455,164.019c1.446,0 2.617,-1.179 2.617,-2.612c-0,-1.446 -1.171,-2.617 -2.617,-2.617c-1.437,-0 -2.616,1.171 -2.616,2.617c-0,1.433 1.179,2.612 2.616,2.612" style="fill:#00aca9;"/><path d="M318.835,164.019c1.438,0 2.617,-1.179 2.617,-2.612c-0,-1.446 -1.179,-2.617 -2.617,-2.617c-1.446,-0 -2.616,1.171 -2.616,2.617c-0,1.433 1.17,2.612 2.616,2.612" style="fill:#00aca9;"/><path d="M300.211,164.025c1.446,-0 2.621,-1.183 2.621,-2.621c0,-1.446 -1.175,-2.621 -2.621,-2.621c-1.441,0 -2.612,1.175 -2.612,2.621c-0,1.438 1.171,2.621 2.612,2.621" style="fill:#00aca9;"/><path d="M281.591,163.813c1.321,0 2.409,-1.087 2.409,-2.408c-0,-1.329 -1.088,-2.413 -2.409,-2.413c-1.32,0 -2.408,1.084 -2.408,2.413c0,1.321 1.088,2.408 2.408,2.408" style="fill:#00aca9;"/><path d="M374.699,145.245c1.079,-0 1.962,-0.88 1.962,-1.963c0,-1.075 -0.883,-1.954 -1.962,-1.954c-1.079,-0 -1.963,0.879 -1.963,1.954c0,1.083 0.884,1.963 1.963,1.963" style="fill:#00aca9;"/><path d="M356.079,145.692c1.321,0 2.404,-1.079 2.404,-2.408c0,-1.325 -1.083,-2.404 -2.404,-2.404c-1.329,-0 -2.408,1.079 -2.408,2.404c-0,1.329 1.079,2.408 2.408,2.408" style="fill:#00aca9;"/><path d="M337.455,145.692c1.329,0 2.409,-1.079 2.409,-2.408c-0,-1.325 -1.08,-2.404 -2.409,-2.404c-1.321,-0 -2.408,1.079 -2.408,2.404c-0,1.329 1.087,2.408 2.408,2.408" style="fill:#00aca9;"/><path d="M318.835,145.692c1.321,0 2.409,-1.079 2.409,-2.408c-0,-1.325 -1.088,-2.404 -2.409,-2.404c-1.329,-0 -2.408,1.079 -2.408,2.404c-0,1.329 1.079,2.408 2.408,2.408" style="fill:#00aca9;"/><path d="M300.211,145.692c1.33,0 2.409,-1.079 2.409,-2.408c-0,-1.325 -1.079,-2.404 -2.409,-2.404c-1.32,-0 -2.404,1.079 -2.404,2.404c0,1.329 1.084,2.408 2.404,2.408" style="fill:#00aca9;"/><path d="M281.591,145.245c1.08,-0 1.963,-0.88 1.963,-1.963c-0,-1.075 -0.883,-1.954 -1.963,-1.954c-1.079,-0 -1.962,0.879 -1.962,1.954c-0,1.083 0.883,1.963 1.962,1.963" style="fill:#00aca9;"/><path d="M337.455,127.579c1.329,-0 2.409,-1.088 2.409,-2.413c-0,-1.321 -1.08,-2.408 -2.409,-2.408c-1.321,-0 -2.408,1.087 -2.408,2.408c-0,1.325 1.087,2.413 2.408,2.413" style="fill:#00aca9;"/><path d="M318.835,127.579c1.321,-0 2.409,-1.088 2.409,-2.413c-0,-1.321 -1.088,-2.408 -2.409,-2.408c-1.329,-0 -2.408,1.087 -2.408,2.408c-0,1.325 1.079,2.413 2.408,2.413" style="fill:#00aca9;"/><path d="M365.641,244.899c1.079,-0 1.958,-0.879 1.958,-1.967c0,-1.079 -0.879,-1.962 -1.958,-1.962c-1.087,-0 -1.967,0.883 -1.967,1.962c0,1.088 0.88,1.967 1.967,1.967" style="fill:#00aca9;"/><path d="M347.017,245.342c1.329,0 2.409,-1.079 2.409,-2.408c-0,-1.325 -1.08,-2.413 -2.409,-2.413c-1.325,0 -2.412,1.088 -2.412,2.413c-0,1.329 1.087,2.408 2.412,2.408" style="fill:#00aca9;"/><path d="M328.397,245.342c1.321,0 2.409,-1.079 2.409,-2.408c-0,-1.325 -1.088,-2.413 -2.409,-2.413c-1.329,0 -2.408,1.088 -2.408,2.413c-0,1.329 1.079,2.408 2.408,2.408" style="fill:#00aca9;"/><path d="M309.778,245.342c1.325,0 2.404,-1.079 2.404,-2.408c-0,-1.325 -1.079,-2.413 -2.404,-2.413c-1.329,0 -2.409,1.088 -2.409,2.413c0,1.329 1.08,2.408 2.409,2.408" style="fill:#00aca9;"/><path d="M291.154,245.342c1.329,0 2.408,-1.079 2.408,-2.408c0,-1.325 -1.079,-2.413 -2.408,-2.413c-1.321,0 -2.408,1.088 -2.408,2.413c-0,1.329 1.087,2.408 2.408,2.408" style="fill:#00aca9;"/><path d="M272.534,245.342c1.325,0 2.412,-1.079 2.412,-2.408c0,-1.325 -1.087,-2.413 -2.412,-2.413c-1.329,0 -2.408,1.088 -2.408,2.413c-0,1.329 1.079,2.408 2.408,2.408" style="fill:#00aca9;"/><path d="M253.91,245.342c1.329,0 2.409,-1.079 2.409,-2.408c-0,-1.325 -1.08,-2.413 -2.409,-2.413c-1.321,0 -2.4,1.088 -2.4,2.413c0,1.329 1.079,2.408 2.4,2.408" style="fill:#00aca9;"/><path d="M235.29,244.895c1.079,-0 1.963,-0.88 1.963,-1.963c-0,-1.075 -0.884,-1.962 -1.963,-1.962c-1.075,-0 -1.962,0.887 -1.962,1.962c-0,1.083 0.887,1.963 1.962,1.963" style="fill:#00aca9;"/><path d="M384.261,226.773c1.075,0 1.963,-0.879 1.963,-1.954c-0,-1.083 -0.888,-1.962 -1.963,-1.962c-1.079,-0 -1.967,0.879 -1.967,1.962c0,1.075 0.888,1.954 1.967,1.954" style="fill:#00aca9;"/><path d="M365.641,227.221c1.321,-0 2.4,-1.079 2.4,-2.404c0,-1.33 -1.079,-2.409 -2.4,-2.409c-1.329,0 -2.408,1.079 -2.408,2.409c-0,1.325 1.079,2.404 2.408,2.404" style="fill:#00aca9;"/><path d="M347.017,227.426c1.446,0 2.613,-1.171 2.613,-2.608c-0,-1.446 -1.167,-2.613 -2.613,-2.613c-1.437,0 -2.616,1.167 -2.616,2.613c-0,1.437 1.179,2.608 2.616,2.608" style="fill:#00aca9;"/><path d="M328.397,227.221c1.321,-0 2.409,-1.079 2.409,-2.404c-0,-1.33 -1.088,-2.409 -2.409,-2.409c-1.329,0 -2.408,1.079 -2.408,2.409c-0,1.325 1.079,2.404 2.408,2.404" style="fill:#00aca9;"/><path d="M309.778,227.221c1.325,-0 2.404,-1.079 2.404,-2.404c-0,-1.33 -1.079,-2.409 -2.404,-2.409c-1.329,0 -2.409,1.079 -2.409,2.409c0,1.325 1.08,2.404 2.409,2.404" style="fill:#00aca9;"/><path d="M291.154,227.221c1.329,-0 2.408,-1.079 2.408,-2.404c0,-1.33 -1.079,-2.409 -2.408,-2.409c-1.321,0 -2.408,1.079 -2.408,2.409c-0,1.325 1.087,2.404 2.408,2.404" style="fill:#00aca9;"/><path d="M272.534,227.221c1.325,-0 2.412,-1.079 2.412,-2.404c0,-1.33 -1.087,-2.409 -2.412,-2.409c-1.329,0 -2.408,1.079 -2.408,2.409c-0,1.325 1.079,2.404 2.408,2.404" style="fill:#00aca9;"/><path d="M253.91,227.221c1.329,-0 2.409,-1.079 2.409,-2.404c-0,-1.33 -1.08,-2.409 -2.409,-2.409c-1.321,0 -2.4,1.079 -2.4,2.409c0,1.325 1.079,2.404 2.4,2.404" style="fill:#00aca9;"/><path d="M235.29,227.221c1.321,-0 2.413,-1.079 2.413,-2.404c-0,-1.33 -1.092,-2.409 -2.413,-2.409c-1.321,0 -2.408,1.079 -2.408,2.409c-0,1.325 1.087,2.404 2.408,2.404" style="fill:#00aca9;"/><path d="M384.261,209.107c1.321,0 2.408,-1.079 2.408,-2.412c0,-1.321 -1.087,-2.408 -2.408,-2.408c-1.325,-0 -2.412,1.087 -2.412,2.408c-0,1.333 1.087,2.412 2.412,2.412" style="fill:#00aca9;"/><path d="M365.641,209.107c1.321,0 2.4,-1.079 2.4,-2.412c0,-1.321 -1.079,-2.408 -2.4,-2.408c-1.329,-0 -2.408,1.087 -2.408,2.408c-0,1.333 1.079,2.412 2.408,2.412" style="fill:#00aca9;"/><path d="M347.017,209.313c1.446,0 2.613,-1.171 2.613,-2.616c-0,-1.438 -1.167,-2.617 -2.613,-2.617c-1.437,-0 -2.616,1.179 -2.616,2.617c-0,1.445 1.179,2.616 2.616,2.616" style="fill:#00aca9;"/><path d="M328.397,209.639c1.617,-0 2.942,-1.317 2.942,-2.942c-0,-1.617 -1.325,-2.942 -2.942,-2.942c-1.625,0 -2.941,1.325 -2.941,2.942c-0,1.625 1.316,2.942 2.941,2.942" style="fill:#00aca9;"/><path d="M309.782,209.645c1.617,-0 2.937,-1.321 2.937,-2.95c0,-1.617 -1.32,-2.946 -2.937,-2.946c-1.629,-0 -2.95,1.329 -2.95,2.946c-0,1.629 1.321,2.95 2.95,2.95" style="fill:#00aca9;"/><path d="M291.154,209.313c1.446,0 2.617,-1.171 2.617,-2.616c-0,-1.438 -1.171,-2.617 -2.617,-2.617c-1.438,-0 -2.617,1.179 -2.617,2.617c0,1.445 1.179,2.616 2.617,2.616" style="fill:#00aca9;"/><path d="M272.534,209.107c1.325,0 2.412,-1.079 2.412,-2.412c0,-1.321 -1.087,-2.408 -2.412,-2.408c-1.329,-0 -2.408,1.087 -2.408,2.408c-0,1.333 1.079,2.412 2.408,2.412" style="fill:#00aca9;"/><path d="M253.91,209.107c1.329,0 2.409,-1.079 2.409,-2.412c-0,-1.321 -1.08,-2.408 -2.409,-2.408c-1.321,-0 -2.4,1.087 -2.4,2.408c0,1.333 1.079,2.412 2.4,2.412" style="fill:#00aca9;"/><path d="M235.29,208.658c1.079,-0 1.963,-0.875 1.963,-1.963c-0,-1.075 -0.884,-1.958 -1.963,-1.958c-1.075,0 -1.962,0.883 -1.962,1.958c-0,1.088 0.887,1.963 1.962,1.963" style="fill:#00aca9;"/><path d="M384.261,190.984c1.321,0 2.408,-1.079 2.408,-2.4c0,-1.333 -1.087,-2.412 -2.408,-2.412c-1.325,-0 -2.412,1.079 -2.412,2.412c-0,1.321 1.087,2.4 2.412,2.4" style="fill:#00aca9;"/><path d="M365.641,190.984c1.321,0 2.4,-1.079 2.4,-2.4c0,-1.333 -1.079,-2.412 -2.4,-2.412c-1.329,-0 -2.408,1.079 -2.408,2.412c-0,1.321 1.079,2.4 2.408,2.4" style="fill:#00aca9;"/><path d="M347.017,191.19c1.446,-0 2.613,-1.171 2.613,-2.605c-0,-1.445 -1.167,-2.616 -2.613,-2.616c-1.437,-0 -2.616,1.171 -2.616,2.616c-0,1.434 1.179,2.605 2.616,2.605" style="fill:#00aca9;"/><path d="M328.397,191.843c1.796,-0 3.267,-1.463 3.267,-3.258c-0,-1.805 -1.471,-3.271 -3.267,-3.271c-1.808,-0 -3.271,1.466 -3.271,3.271c0,1.795 1.463,3.258 3.271,3.258" style="fill:#00aca9;"/><path d="M309.782,191.849c1.8,0 3.262,-1.466 3.262,-3.266c0,-1.809 -1.462,-3.271 -3.262,-3.271c-1.813,-0 -3.275,1.462 -3.275,3.271c-0,1.8 1.462,3.266 3.275,3.266" style="fill:#00aca9;"/><path d="M291.154,191.19c1.446,-0 2.617,-1.171 2.617,-2.605c-0,-1.445 -1.171,-2.616 -2.617,-2.616c-1.438,-0 -2.617,1.171 -2.617,2.616c0,1.434 1.179,2.605 2.617,2.605" style="fill:#00aca9;"/><path d="M272.534,190.984c1.325,0 2.412,-1.079 2.412,-2.4c0,-1.333 -1.087,-2.412 -2.412,-2.412c-1.329,-0 -2.408,1.079 -2.408,2.412c-0,1.321 1.079,2.4 2.408,2.4" style="fill:#00aca9;"/><path d="M253.91,190.984c1.329,0 2.409,-1.079 2.409,-2.4c-0,-1.333 -1.08,-2.412 -2.409,-2.412c-1.321,-0 -2.4,1.079 -2.4,2.412c0,1.321 1.079,2.4 2.4,2.4" style="fill:#00aca9;"/><path d="M384.261,172.871c1.321,0 2.408,-1.079 2.408,-2.412c0,-1.321 -1.087,-2.409 -2.408,-2.409c-1.325,0 -2.412,1.088 -2.412,2.409c-0,1.333 1.087,2.412 2.412,2.412" style="fill:#00aca9;"/><path d="M365.641,172.871c1.321,0 2.4,-1.079 2.4,-2.412c0,-1.321 -1.079,-2.409 -2.4,-2.409c-1.329,0 -2.408,1.088 -2.408,2.409c-0,1.333 1.079,2.412 2.408,2.412" style="fill:#00aca9;"/><path d="M347.017,173.077c1.446,-0 2.613,-1.171 2.613,-2.617c-0,-1.433 -1.167,-2.613 -2.613,-2.613c-1.437,0 -2.616,1.18 -2.616,2.613c-0,1.446 1.179,2.617 2.616,2.617" style="fill:#00aca9;"/><path d="M328.397,173.404c1.617,0 2.942,-1.317 2.942,-2.946c-0,-1.612 -1.325,-2.941 -2.942,-2.941c-1.625,-0 -2.941,1.329 -2.941,2.941c-0,1.629 1.316,2.946 2.941,2.946" style="fill:#00aca9;"/><path d="M309.782,173.408c1.617,0 2.937,-1.316 2.937,-2.95c0,-1.616 -1.32,-2.946 -2.937,-2.946c-1.629,0 -2.95,1.33 -2.95,2.946c-0,1.634 1.321,2.95 2.95,2.95" style="fill:#00aca9;"/><path d="M291.154,173.077c1.446,-0 2.617,-1.171 2.617,-2.617c-0,-1.433 -1.171,-2.613 -2.617,-2.613c-1.438,0 -2.617,1.18 -2.617,2.613c0,1.446 1.179,2.617 2.617,2.617" style="fill:#00aca9;"/><path d="M272.534,172.871c1.325,0 2.412,-1.079 2.412,-2.412c0,-1.321 -1.087,-2.409 -2.412,-2.409c-1.329,0 -2.408,1.088 -2.408,2.409c-0,1.333 1.079,2.412 2.408,2.412" style="fill:#00aca9;"/><path d="M384.261,154.302c1.075,0 1.963,-0.879 1.963,-1.954c-0,-1.083 -0.888,-1.963 -1.963,-1.963c-1.079,0 -1.967,0.88 -1.967,1.963c0,1.075 0.888,1.954 1.967,1.954" style="fill:#00aca9;"/><path d="M365.641,154.75c1.321,-0 2.4,-1.08 2.4,-2.405c0,-1.329 -1.079,-2.408 -2.4,-2.408c-1.329,0 -2.408,1.079 -2.408,2.408c-0,1.325 1.079,2.405 2.408,2.405" style="fill:#00aca9;"/><path d="M347.017,154.75c1.329,-0 2.409,-1.08 2.409,-2.405c-0,-1.329 -1.08,-2.408 -2.409,-2.408c-1.325,0 -2.412,1.079 -2.412,2.408c-0,1.325 1.087,2.405 2.412,2.405" style="fill:#00aca9;"/><path d="M328.397,154.75c1.321,-0 2.409,-1.08 2.409,-2.405c-0,-1.329 -1.088,-2.408 -2.409,-2.408c-1.329,0 -2.408,1.079 -2.408,2.408c-0,1.325 1.079,2.405 2.408,2.405" style="fill:#00aca9;"/><path d="M309.778,154.959c1.441,0 2.612,-1.175 2.612,-2.612c0,-1.446 -1.171,-2.617 -2.612,-2.617c-1.446,0 -2.617,1.171 -2.617,2.617c0,1.437 1.171,2.612 2.617,2.612" style="fill:#00aca9;"/><path d="M291.154,154.75c1.329,-0 2.408,-1.08 2.408,-2.405c0,-1.329 -1.079,-2.408 -2.408,-2.408c-1.321,0 -2.408,1.079 -2.408,2.408c-0,1.325 1.087,2.405 2.408,2.405" style="fill:#00aca9;"/><path d="M272.534,154.304c1.079,0 1.967,-0.879 1.967,-1.958c-0,-1.084 -0.888,-1.963 -1.967,-1.963c-1.083,0 -1.967,0.879 -1.967,1.963c0,1.079 0.884,1.958 1.967,1.958" style="fill:#00aca9;"/><path d="M365.641,136.191c1.079,-0 1.958,-0.879 1.958,-1.967c0,-1.075 -0.879,-1.962 -1.958,-1.962c-1.087,-0 -1.967,0.887 -1.967,1.962c0,1.088 0.88,1.967 1.967,1.967" style="fill:#00aca9;"/><path d="M347.017,136.635c1.329,-0 2.409,-1.08 2.409,-2.409c-0,-1.325 -1.08,-2.412 -2.409,-2.412c-1.325,-0 -2.412,1.087 -2.412,2.412c-0,1.329 1.087,2.409 2.412,2.409" style="fill:#00aca9;"/><path d="M328.397,136.635c1.321,-0 2.409,-1.08 2.409,-2.409c-0,-1.325 -1.088,-2.412 -2.409,-2.412c-1.329,-0 -2.408,1.087 -2.408,2.412c-0,1.329 1.079,2.409 2.408,2.409" style="fill:#00aca9;"/><path d="M309.778,136.635c1.325,-0 2.404,-1.08 2.404,-2.409c-0,-1.325 -1.079,-2.412 -2.404,-2.412c-1.329,-0 -2.409,1.087 -2.409,2.412c0,1.329 1.08,2.409 2.409,2.409" style="fill:#00aca9;"/><path d="M291.154,136.187c1.083,0 1.962,-0.879 1.962,-1.962c0,-1.075 -0.879,-1.959 -1.962,-1.959c-1.079,0 -1.963,0.884 -1.963,1.959c0,1.083 0.884,1.962 1.963,1.962" style="fill:#00aca9;"/><path d="M136.133,244.858c1.083,-0 1.962,-0.883 1.962,-1.963c0,-1.079 -0.879,-1.958 -1.962,-1.958c-1.079,0 -1.963,0.879 -1.963,1.958c0,1.08 0.884,1.963 1.963,1.963" style="fill:#00aca9;"/><path d="M117.464,244.858c1.079,-0 1.962,-0.883 1.962,-1.963c0,-1.079 -0.883,-1.958 -1.962,-1.958c-1.083,0 -1.963,0.879 -1.963,1.958c0,1.08 0.88,1.963 1.963,1.963" style="fill:#00aca9;"/><path d="M98.791,244.862c1.088,0 1.967,-0.887 1.967,-1.967c0,-1.083 -0.879,-1.962 -1.967,-1.962c-1.079,-0 -1.958,0.879 -1.958,1.962c0,1.08 0.879,1.967 1.958,1.967" style="fill:#00aca9;"/><path d="M154.805,227.145c1.325,0 2.409,-1.083 2.409,-2.416c-0,-1.325 -1.084,-2.409 -2.409,-2.409c-1.333,0 -2.416,1.084 -2.416,2.409c-0,1.333 1.083,2.416 2.416,2.416" style="fill:#00aca9;"/><path d="M136.133,227.145c1.333,0 2.412,-1.083 2.412,-2.416c0,-1.325 -1.079,-2.409 -2.412,-2.409c-1.325,0 -2.417,1.084 -2.417,2.409c0,1.333 1.092,2.416 2.417,2.416" style="fill:#00aca9;"/><path d="M117.464,227.145c1.325,0 2.417,-1.083 2.417,-2.416c-0,-1.325 -1.092,-2.409 -2.417,-2.409c-1.333,0 -2.413,1.084 -2.413,2.409c0,1.333 1.08,2.416 2.413,2.416" style="fill:#00aca9;"/><path d="M98.791,227.145c1.334,0 2.417,-1.083 2.417,-2.416c0,-1.325 -1.083,-2.409 -2.417,-2.409c-1.325,0 -2.408,1.084 -2.408,2.409c0,1.333 1.083,2.416 2.408,2.416" style="fill:#00aca9;"/><path d="M80.127,227.145c1.333,0 2.417,-1.083 2.417,-2.416c-0,-1.325 -1.084,-2.409 -2.417,-2.409c-1.325,0 -2.417,1.084 -2.417,2.409c0,1.333 1.092,2.416 2.417,2.416" style="fill:#00aca9;"/><path d="M61.458,226.694c1.079,-0 1.963,-0.879 1.963,-1.967c-0,-1.075 -0.884,-1.954 -1.963,-1.954c-1.083,-0 -1.967,0.879 -1.967,1.954c0,1.088 0.884,1.967 1.967,1.967" style="fill:#00aca9;"/><path d="M173.47,208.984c1.325,-0 2.416,-1.088 2.416,-2.417c0,-1.333 -1.091,-2.417 -2.416,-2.417c-1.325,0 -2.417,1.084 -2.417,2.417c0,1.329 1.092,2.417 2.417,2.417" style="fill:#00aca9;"/><path d="M154.805,208.984c1.325,-0 2.409,-1.088 2.409,-2.417c-0,-1.333 -1.084,-2.417 -2.409,-2.417c-1.333,0 -2.416,1.084 -2.416,2.417c-0,1.329 1.083,2.417 2.416,2.417" style="fill:#00aca9;"/><path d="M136.133,209.183c1.446,-0 2.612,-1.179 2.612,-2.613c0,-1.445 -1.166,-2.616 -2.612,-2.616c-1.438,-0 -2.617,1.171 -2.617,2.616c0,1.434 1.179,2.613 2.617,2.613" style="fill:#00aca9;"/><path d="M117.464,209.183c1.437,-0 2.617,-1.179 2.617,-2.613c-0,-1.445 -1.18,-2.616 -2.617,-2.616c-1.446,-0 -2.617,1.171 -2.617,2.616c0,1.434 1.171,2.613 2.617,2.613" style="fill:#00aca9;"/><path d="M98.791,209.189c1.45,0 2.621,-1.183 2.621,-2.621c0,-1.446 -1.171,-2.621 -2.621,-2.621c-1.441,0 -2.612,1.175 -2.612,2.621c-0,1.438 1.171,2.621 2.612,2.621" style="fill:#00aca9;"/><path d="M80.127,208.984c1.333,-0 2.417,-1.088 2.417,-2.417c-0,-1.333 -1.084,-2.417 -2.417,-2.417c-1.325,0 -2.417,1.084 -2.417,2.417c0,1.329 1.092,2.417 2.417,2.417" style="fill:#00aca9;"/><path d="M61.458,208.984c1.325,-0 2.408,-1.088 2.408,-2.417c0,-1.333 -1.083,-2.417 -2.408,-2.417c-1.329,0 -2.412,1.084 -2.412,2.417c-0,1.329 1.083,2.417 2.412,2.417" style="fill:#00aca9;"/><path d="M173.47,190.815c1.325,0 2.416,-1.079 2.416,-2.416c0,-1.325 -1.091,-2.409 -2.416,-2.409c-1.325,0 -2.417,1.084 -2.417,2.409c0,1.337 1.092,2.416 2.417,2.416" style="fill:#00aca9;"/><path d="M154.805,190.815c1.325,0 2.409,-1.079 2.409,-2.416c-0,-1.325 -1.084,-2.409 -2.409,-2.409c-1.333,0 -2.416,1.084 -2.416,2.409c-0,1.337 1.083,2.416 2.416,2.416" style="fill:#00aca9;"/><path d="M136.133,191.342c1.625,0 2.941,-1.316 2.941,-2.945c0,-1.613 -1.316,-2.93 -2.941,-2.93c-1.617,0 -2.946,1.317 -2.946,2.93c-0,1.629 1.329,2.945 2.946,2.945" style="fill:#00aca9;"/><path d="M117.464,191.342c1.617,0 2.946,-1.316 2.946,-2.945c-0,-1.613 -1.329,-2.93 -2.946,-2.93c-1.625,0 -2.942,1.317 -2.942,2.93c0,1.629 1.317,2.945 2.942,2.945" style="fill:#00aca9;"/><path d="M98.791,191.346c1.63,0 2.946,-1.321 2.946,-2.95c0,-1.616 -1.316,-2.937 -2.946,-2.937c-1.62,-0 -2.937,1.321 -2.937,2.937c-0,1.629 1.317,2.95 2.937,2.95" style="fill:#00aca9;"/><path d="M80.127,191.015c1.446,-0 2.617,-1.171 2.617,-2.613c-0,-1.437 -1.171,-2.608 -2.617,-2.608c-1.438,0 -2.617,1.171 -2.617,2.608c0,1.442 1.179,2.613 2.617,2.613" style="fill:#00aca9;"/><path d="M61.458,190.815c1.325,0 2.408,-1.079 2.408,-2.416c0,-1.325 -1.083,-2.409 -2.408,-2.409c-1.329,0 -2.412,1.084 -2.412,2.409c-0,1.337 1.083,2.416 2.412,2.416" style="fill:#00aca9;"/><path d="M42.786,190.366c1.087,-0 1.966,-0.879 1.966,-1.967c0,-1.075 -0.879,-1.958 -1.966,-1.958c-1.08,-0 -1.959,0.883 -1.959,1.958c0,1.088 0.879,1.967 1.959,1.967" style="fill:#00aca9;"/><path d="M192.134,172.655c1.334,0 2.417,-1.091 2.417,-2.416c0,-1.334 -1.083,-2.417 -2.417,-2.417c-1.325,0 -2.404,1.083 -2.404,2.417c0,1.325 1.079,2.416 2.404,2.416" style="fill:#00aca9;"/><path d="M173.47,172.655c1.325,0 2.416,-1.091 2.416,-2.416c0,-1.334 -1.091,-2.417 -2.416,-2.417c-1.325,0 -2.417,1.083 -2.417,2.417c0,1.325 1.092,2.416 2.417,2.416" style="fill:#00aca9;"/><path d="M154.805,172.655c1.325,0 2.409,-1.091 2.409,-2.416c-0,-1.334 -1.084,-2.417 -2.409,-2.417c-1.333,0 -2.416,1.083 -2.416,2.417c-0,1.325 1.083,2.416 2.416,2.416" style="fill:#00aca9;"/><path d="M136.133,173.182c1.625,0 2.941,-1.325 2.941,-2.945c0,-1.621 -1.316,-2.942 -2.941,-2.942c-1.617,-0 -2.946,1.321 -2.946,2.942c-0,1.62 1.329,2.945 2.946,2.945" style="fill:#00aca9;"/><path d="M117.464,173.182c1.617,0 2.946,-1.325 2.946,-2.945c-0,-1.621 -1.329,-2.942 -2.946,-2.942c-1.625,-0 -2.942,1.321 -2.942,2.942c0,1.62 1.317,2.945 2.942,2.945" style="fill:#00aca9;"/><path d="M98.791,173.186c1.63,0 2.946,-1.329 2.946,-2.95c0,-1.625 -1.316,-2.946 -2.946,-2.946c-1.62,0 -2.937,1.321 -2.937,2.946c-0,1.621 1.317,2.95 2.937,2.95" style="fill:#00aca9;"/><path d="M80.127,172.655c1.333,0 2.417,-1.091 2.417,-2.416c-0,-1.334 -1.084,-2.417 -2.417,-2.417c-1.325,0 -2.417,1.083 -2.417,2.417c0,1.325 1.092,2.416 2.417,2.416" style="fill:#00aca9;"/><path d="M61.458,172.655c1.325,0 2.408,-1.091 2.408,-2.416c0,-1.334 -1.083,-2.417 -2.408,-2.417c-1.329,0 -2.412,1.083 -2.412,2.417c-0,1.325 1.083,2.416 2.412,2.416" style="fill:#00aca9;"/><path d="M42.786,172.204c1.087,-0 1.966,-0.884 1.966,-1.967c0,-1.083 -0.879,-1.962 -1.966,-1.962c-1.08,-0 -1.959,0.879 -1.959,1.962c0,1.083 0.879,1.967 1.959,1.967" style="fill:#00aca9;"/><path d="M210.811,154.487c1.325,0 2.417,-1.083 2.417,-2.416c-0,-1.325 -1.092,-2.409 -2.417,-2.409c-1.333,0 -2.417,1.084 -2.417,2.409c0,1.333 1.084,2.416 2.417,2.416" style="fill:#00aca9;"/><path d="M192.134,154.487c1.334,0 2.417,-1.083 2.417,-2.416c0,-1.325 -1.083,-2.409 -2.417,-2.409c-1.325,0 -2.404,1.084 -2.404,2.409c0,1.333 1.079,2.416 2.404,2.416" style="fill:#00aca9;"/><path d="M173.47,154.487c1.325,0 2.416,-1.083 2.416,-2.416c0,-1.325 -1.091,-2.409 -2.416,-2.409c-1.325,0 -2.417,1.084 -2.417,2.409c0,1.333 1.092,2.416 2.417,2.416" style="fill:#00aca9;"/><path d="M154.805,154.487c1.325,0 2.409,-1.083 2.409,-2.416c-0,-1.325 -1.084,-2.409 -2.409,-2.409c-1.333,0 -2.416,1.084 -2.416,2.409c-0,1.333 1.083,2.416 2.416,2.416" style="fill:#00aca9;"/><path d="M136.133,154.687c1.446,-0 2.612,-1.171 2.612,-2.617c0,-1.438 -1.166,-2.604 -2.612,-2.604c-1.438,-0 -2.617,1.166 -2.617,2.604c0,1.446 1.179,2.617 2.617,2.617" style="fill:#00aca9;"/><path d="M117.464,154.687c1.437,-0 2.617,-1.171 2.617,-2.617c-0,-1.438 -1.18,-2.604 -2.617,-2.604c-1.446,-0 -2.617,1.166 -2.617,2.604c0,1.446 1.171,2.617 2.617,2.617" style="fill:#00aca9;"/><path d="M98.791,154.691c1.45,-0 2.621,-1.175 2.621,-2.621c0,-1.438 -1.171,-2.608 -2.621,-2.608c-1.441,-0 -2.612,1.17 -2.612,2.608c-0,1.446 1.171,2.621 2.612,2.621" style="fill:#00aca9;"/><path d="M80.127,154.487c1.333,0 2.417,-1.083 2.417,-2.416c-0,-1.325 -1.084,-2.409 -2.417,-2.409c-1.325,0 -2.417,1.084 -2.417,2.409c0,1.333 1.092,2.416 2.417,2.416" style="fill:#00aca9;"/><path d="M61.458,154.487c1.325,0 2.408,-1.083 2.408,-2.416c0,-1.325 -1.083,-2.409 -2.408,-2.409c-1.329,0 -2.412,1.084 -2.412,2.409c-0,1.333 1.083,2.416 2.412,2.416" style="fill:#00aca9;"/><path d="M42.786,154.037c1.087,0 1.966,-0.879 1.966,-1.966c0,-1.079 -0.879,-1.959 -1.966,-1.959c-1.08,0 -1.959,0.88 -1.959,1.959c0,1.087 0.879,1.966 1.959,1.966" style="fill:#00aca9;"/><path d="M229.476,135.872c1.083,-0 1.962,-0.884 1.962,-1.963c0,-1.079 -0.879,-1.958 -1.962,-1.958c-1.08,-0 -1.963,0.879 -1.963,1.958c0,1.079 0.883,1.963 1.963,1.963" style="fill:#00aca9;"/><path d="M210.811,136.327c1.325,0 2.417,-1.091 2.417,-2.416c-0,-1.334 -1.092,-2.417 -2.417,-2.417c-1.333,0 -2.417,1.083 -2.417,2.417c0,1.325 1.084,2.416 2.417,2.416" style="fill:#00aca9;"/><path d="M192.134,136.327c1.334,0 2.417,-1.091 2.417,-2.416c0,-1.334 -1.083,-2.417 -2.417,-2.417c-1.325,0 -2.404,1.083 -2.404,2.417c0,1.325 1.079,2.416 2.404,2.416" style="fill:#00aca9;"/><path d="M173.47,136.327c1.325,0 2.416,-1.091 2.416,-2.416c0,-1.334 -1.091,-2.417 -2.416,-2.417c-1.325,0 -2.417,1.083 -2.417,2.417c0,1.325 1.092,2.416 2.417,2.416" style="fill:#00aca9;"/><path d="M154.805,136.327c1.325,0 2.409,-1.091 2.409,-2.416c-0,-1.334 -1.084,-2.417 -2.409,-2.417c-1.333,0 -2.416,1.083 -2.416,2.417c-0,1.325 1.083,2.416 2.416,2.416" style="fill:#00aca9;"/><path d="M136.133,136.327c1.333,0 2.412,-1.091 2.412,-2.416c0,-1.334 -1.079,-2.417 -2.412,-2.417c-1.325,0 -2.417,1.083 -2.417,2.417c0,1.325 1.092,2.416 2.417,2.416" style="fill:#00aca9;"/><path d="M117.464,136.327c1.325,0 2.417,-1.091 2.417,-2.416c-0,-1.334 -1.092,-2.417 -2.417,-2.417c-1.333,0 -2.413,1.083 -2.413,2.417c0,1.325 1.08,2.416 2.413,2.416" style="fill:#00aca9;"/><path d="M98.791,136.327c1.334,0 2.417,-1.091 2.417,-2.416c0,-1.334 -1.083,-2.417 -2.417,-2.417c-1.325,0 -2.408,1.083 -2.408,2.417c0,1.325 1.083,2.416 2.408,2.416" style="fill:#00aca9;"/><path d="M80.127,136.327c1.333,0 2.417,-1.091 2.417,-2.416c-0,-1.334 -1.084,-2.417 -2.417,-2.417c-1.325,0 -2.417,1.083 -2.417,2.417c0,1.325 1.092,2.416 2.417,2.416" style="fill:#00aca9;"/><path d="M61.458,136.327c1.325,0 2.408,-1.091 2.408,-2.416c0,-1.334 -1.083,-2.417 -2.408,-2.417c-1.329,0 -2.412,1.083 -2.412,2.417c-0,1.325 1.083,2.416 2.412,2.416" style="fill:#00aca9;"/><path d="M248.149,117.708c1.079,-0 1.958,-0.88 1.958,-1.967c-0,-1.075 -0.879,-1.954 -1.958,-1.954c-1.088,-0 -1.967,0.879 -1.967,1.954c-0,1.087 0.879,1.967 1.967,1.967" style="fill:#00aca9;"/><path d="M229.476,118.159c1.333,0 2.416,-1.083 2.416,-2.417c0,-1.325 -1.083,-2.408 -2.416,-2.408c-1.325,0 -2.417,1.083 -2.417,2.408c-0,1.334 1.092,2.417 2.417,2.417" style="fill:#00aca9;"/><path d="M210.811,118.159c1.325,0 2.417,-1.083 2.417,-2.417c-0,-1.325 -1.092,-2.408 -2.417,-2.408c-1.333,0 -2.417,1.083 -2.417,2.408c0,1.334 1.084,2.417 2.417,2.417" style="fill:#00aca9;"/><path d="M192.134,118.159c1.334,0 2.417,-1.083 2.417,-2.417c0,-1.325 -1.083,-2.408 -2.417,-2.408c-1.325,0 -2.404,1.083 -2.404,2.408c0,1.334 1.079,2.417 2.404,2.417" style="fill:#00aca9;"/><path d="M173.47,118.159c1.325,0 2.416,-1.083 2.416,-2.417c0,-1.325 -1.091,-2.408 -2.416,-2.408c-1.325,0 -2.417,1.083 -2.417,2.408c0,1.334 1.092,2.417 2.417,2.417" style="fill:#00aca9;"/><path d="M154.805,118.159c1.325,0 2.409,-1.083 2.409,-2.417c-0,-1.325 -1.084,-2.408 -2.409,-2.408c-1.333,0 -2.416,1.083 -2.416,2.408c-0,1.334 1.083,2.417 2.416,2.417" style="fill:#00aca9;"/><path d="M136.133,118.159c1.333,0 2.412,-1.083 2.412,-2.417c0,-1.325 -1.079,-2.408 -2.412,-2.408c-1.325,0 -2.417,1.083 -2.417,2.408c0,1.334 1.092,2.417 2.417,2.417" style="fill:#00aca9;"/><path d="M117.464,118.159c1.325,0 2.417,-1.083 2.417,-2.417c-0,-1.325 -1.092,-2.408 -2.417,-2.408c-1.333,0 -2.413,1.083 -2.413,2.408c0,1.334 1.08,2.417 2.413,2.417" style="fill:#00aca9;"/><path d="M98.791,118.159c1.334,0 2.417,-1.083 2.417,-2.417c0,-1.325 -1.083,-2.408 -2.417,-2.408c-1.325,0 -2.408,1.083 -2.408,2.408c0,1.334 1.083,2.417 2.408,2.417" style="fill:#00aca9;"/><path d="M80.127,118.159c1.333,0 2.417,-1.083 2.417,-2.417c-0,-1.325 -1.084,-2.408 -2.417,-2.408c-1.325,0 -2.417,1.083 -2.417,2.408c0,1.334 1.092,2.417 2.417,2.417" style="fill:#00aca9;"/><path d="M248.149,99.997c1.325,0 2.408,-1.087 2.408,-2.417c-0,-1.325 -1.083,-2.416 -2.408,-2.416c-1.334,-0 -2.417,1.091 -2.417,2.416c-0,1.33 1.083,2.417 2.417,2.417" style="fill:#00aca9;"/><path d="M229.476,100.197c1.445,-0 2.616,-1.18 2.616,-2.613c0,-1.437 -1.171,-2.617 -2.616,-2.617c-1.438,0.001 -2.617,1.18 -2.617,2.617c-0,1.433 1.179,2.613 2.617,2.613" style="fill:#00aca9;"/><path d="M210.811,100.524c1.617,0 2.942,-1.325 2.942,-2.942c-0,-1.616 -1.325,-2.945 -2.942,-2.945c-1.629,-0 -2.942,1.329 -2.942,2.945c0,1.617 1.313,2.942 2.942,2.942" style="fill:#00aca9;"/><path d="M192.134,100.202c1.45,0 2.621,-1.183 2.621,-2.62c0,-1.438 -1.171,-2.621 -2.621,-2.621c-1.437,-0 -2.608,1.183 -2.608,2.621c0,1.437 1.171,2.62 2.608,2.62" style="fill:#00aca9;"/><path d="M173.47,99.997c1.325,0 2.416,-1.087 2.416,-2.417c0,-1.325 -1.091,-2.416 -2.416,-2.416c-1.325,-0 -2.417,1.091 -2.417,2.416c0,1.33 1.092,2.417 2.417,2.417" style="fill:#00aca9;"/><path d="M154.805,99.997c1.325,0 2.409,-1.087 2.409,-2.417c-0,-1.325 -1.084,-2.416 -2.409,-2.416c-1.333,-0 -2.416,1.091 -2.416,2.416c-0,1.33 1.083,2.417 2.416,2.417" style="fill:#00aca9;"/><path d="M136.133,99.543c1.083,0 1.962,-0.883 1.962,-1.962c0,-1.075 -0.879,-1.959 -1.962,-1.959c-1.079,0 -1.963,0.884 -1.963,1.959c0,1.079 0.884,1.962 1.963,1.962" style="fill:#00aca9;"/><path d="M285.481,81.38c1.088,-0 1.967,-0.88 1.967,-1.967c0,-1.075 -0.879,-1.958 -1.967,-1.958c-1.079,-0 -1.958,0.883 -1.958,1.958c0,1.087 0.879,1.967 1.958,1.967" style="fill:#00aca9;"/><path d="M266.817,81.829c1.325,0 2.413,-1.079 2.413,-2.417c-0,-1.325 -1.088,-2.408 -2.413,-2.408c-1.325,0 -2.416,1.083 -2.416,2.408c-0,1.338 1.091,2.417 2.416,2.417" style="fill:#00aca9;"/><path d="M248.149,81.829c1.325,0 2.408,-1.079 2.408,-2.417c-0,-1.325 -1.083,-2.408 -2.408,-2.408c-1.334,0 -2.417,1.083 -2.417,2.408c-0,1.338 1.083,2.417 2.417,2.417" style="fill:#00aca9;"/><path d="M229.476,82.028c1.445,0 2.616,-1.17 2.616,-2.612c0,-1.438 -1.171,-2.608 -2.616,-2.608c-1.438,-0 -2.617,1.17 -2.617,2.608c-0,1.442 1.179,2.612 2.617,2.612" style="fill:#00aca9;"/><path d="M210.811,82.356c1.617,-0 2.942,-1.317 2.942,-2.946c-0,-1.613 -1.325,-2.929 -2.942,-2.929c-1.629,-0 -2.942,1.316 -2.942,2.929c0,1.629 1.313,2.946 2.942,2.946" style="fill:#00aca9;"/><path d="M192.134,82.033c1.45,-0 2.621,-1.171 2.621,-2.617c0,-1.442 -1.171,-2.613 -2.621,-2.613c-1.437,0 -2.608,1.171 -2.608,2.613c0,1.446 1.171,2.617 2.608,2.617" style="fill:#00aca9;"/><path d="M173.47,81.829c1.325,0 2.416,-1.079 2.416,-2.417c0,-1.325 -1.091,-2.408 -2.416,-2.408c-1.325,0 -2.417,1.083 -2.417,2.408c0,1.338 1.092,2.417 2.417,2.417" style="fill:#00aca9;"/><path d="M154.805,81.38c1.079,-0 1.959,-0.88 1.959,-1.967c-0,-1.075 -0.88,-1.958 -1.959,-1.958c-1.087,-0 -1.966,0.883 -1.966,1.958c-0,1.087 0.879,1.967 1.966,1.967" style="fill:#00aca9;"/><path d="M266.817,63.215c1.075,0 1.963,-0.883 1.963,-1.962c-0,-1.075 -0.888,-1.963 -1.963,-1.963c-1.079,0 -1.966,0.888 -1.966,1.963c-0,1.079 0.887,1.962 1.966,1.962" style="fill:#00aca9;"/><path d="M248.149,63.669c1.325,0 2.408,-1.092 2.408,-2.417c-0,-1.325 -1.083,-2.416 -2.408,-2.416c-1.334,-0 -2.417,1.091 -2.417,2.416c-0,1.325 1.083,2.417 2.417,2.417" style="fill:#00aca9;"/><path d="M229.476,63.669c1.333,0 2.416,-1.092 2.416,-2.417c0,-1.325 -1.083,-2.416 -2.416,-2.416c-1.325,-0 -2.417,1.091 -2.417,2.416c-0,1.325 1.092,2.417 2.417,2.417" style="fill:#00aca9;"/><path d="M210.811,63.669c1.325,0 2.417,-1.092 2.417,-2.417c-0,-1.325 -1.092,-2.416 -2.417,-2.416c-1.333,-0 -2.417,1.091 -2.417,2.416c0,1.325 1.084,2.417 2.417,2.417" style="fill:#00aca9;"/><path d="M192.134,63.669c1.334,0 2.417,-1.092 2.417,-2.417c0,-1.325 -1.083,-2.416 -2.417,-2.416c-1.325,-0 -2.404,1.091 -2.404,2.416c0,1.325 1.079,2.417 2.404,2.417" style="fill:#00aca9;"/><path d="M173.47,63.669c1.325,0 2.416,-1.092 2.416,-2.417c0,-1.325 -1.091,-2.416 -2.416,-2.416c-1.325,-0 -2.417,1.091 -2.417,2.416c0,1.325 1.092,2.417 2.417,2.417" style="fill:#00aca9;"/><path d="M248.149,45.051c1.079,0 1.958,-0.879 1.958,-1.958c-0,-1.088 -0.879,-1.967 -1.958,-1.967c-1.088,0 -1.967,0.879 -1.967,1.967c-0,1.079 0.879,1.958 1.967,1.958" style="fill:#00aca9;"/><path d="M229.476,45.501c1.333,-0 2.416,-1.084 2.416,-2.409c0,-1.333 -1.083,-2.416 -2.416,-2.416c-1.325,-0 -2.417,1.083 -2.417,2.416c-0,1.325 1.092,2.409 2.417,2.409" style="fill:#00aca9;"/><path d="M210.811,45.051c1.079,0 1.967,-0.879 1.967,-1.958c-0,-1.088 -0.888,-1.967 -1.967,-1.967c-1.087,0 -1.967,0.879 -1.967,1.967c0,1.079 0.88,1.958 1.967,1.958" style="fill:#00aca9;"/><path d="M192.139,45.051c1.083,0 1.966,-0.879 1.966,-1.958c0,-1.088 -0.883,-1.967 -1.966,-1.967c-1.08,0 -1.963,0.879 -1.963,1.967c0,1.079 0.883,1.958 1.963,1.958" style="fill:#00aca9;"/><path d="M145.719,235.774c1.084,-0 1.963,-0.879 1.963,-1.959c-0,-1.083 -0.879,-1.962 -1.963,-1.962c-1.083,-0 -1.962,0.879 -1.962,1.962c-0,1.08 0.879,1.959 1.962,1.959" style="fill:#00aca9;"/><path d="M127.051,236.225c1.325,0 2.416,-1.083 2.416,-2.408c0,-1.333 -1.091,-2.417 -2.416,-2.417c-1.325,0 -2.417,1.084 -2.417,2.417c-0,1.325 1.092,2.408 2.417,2.408" style="fill:#00aca9;"/><path d="M108.386,236.225c1.325,0 2.408,-1.083 2.408,-2.408c0,-1.333 -1.083,-2.417 -2.408,-2.417c-1.333,0 -2.417,1.084 -2.417,2.417c0,1.325 1.084,2.408 2.417,2.408" style="fill:#00aca9;"/><path d="M89.714,236.225c1.329,0 2.412,-1.083 2.412,-2.408c0,-1.333 -1.083,-2.417 -2.412,-2.417c-1.325,0 -2.417,1.084 -2.417,2.417c-0,1.325 1.092,2.408 2.417,2.408" style="fill:#00aca9;"/><path d="M71.045,235.772c1.079,0 1.962,-0.879 1.962,-1.954c0,-1.083 -0.883,-1.963 -1.962,-1.963c-1.084,0 -1.963,0.88 -1.963,1.963c0,1.075 0.879,1.954 1.963,1.954" style="fill:#00aca9;"/><path d="M164.392,218.064c1.325,-0 2.412,-1.079 2.412,-2.417c0,-1.325 -1.087,-2.417 -2.412,-2.417c-1.333,0 -2.417,1.092 -2.417,2.417c0,1.338 1.084,2.417 2.417,2.417" style="fill:#00aca9;"/><path d="M145.715,218.064c1.334,-0 2.417,-1.079 2.417,-2.417c-0,-1.325 -1.083,-2.417 -2.417,-2.417c-1.325,0 -2.404,1.092 -2.404,2.417c0,1.338 1.079,2.417 2.404,2.417" style="fill:#00aca9;"/><path d="M127.051,218.064c1.325,-0 2.416,-1.079 2.416,-2.417c0,-1.325 -1.091,-2.417 -2.416,-2.417c-1.325,0 -2.417,1.092 -2.417,2.417c-0,1.338 1.092,2.417 2.417,2.417" style="fill:#00aca9;"/><path d="M108.386,218.064c1.325,-0 2.408,-1.079 2.408,-2.417c0,-1.325 -1.083,-2.417 -2.408,-2.417c-1.333,0 -2.417,1.092 -2.417,2.417c0,1.338 1.084,2.417 2.417,2.417" style="fill:#00aca9;"/><path d="M89.714,218.064c1.329,-0 2.412,-1.079 2.412,-2.417c0,-1.325 -1.083,-2.417 -2.412,-2.417c-1.325,0 -2.417,1.092 -2.417,2.417c-0,1.338 1.092,2.417 2.417,2.417" style="fill:#00aca9;"/><path d="M71.045,218.064c1.325,-0 2.416,-1.079 2.416,-2.417c0,-1.325 -1.091,-2.417 -2.416,-2.417c-1.334,0 -2.417,1.092 -2.417,2.417c0,1.338 1.083,2.417 2.417,2.417" style="fill:#00aca9;"/><path d="M52.372,217.614c1.088,-0 1.967,-0.879 1.967,-1.967c-0,-1.075 -0.879,-1.962 -1.967,-1.962c-1.079,-0 -1.958,0.887 -1.958,1.962c-0,1.088 0.879,1.967 1.958,1.967" style="fill:#00aca9;"/><path d="M183.056,199.442c1.084,-0 1.963,-0.875 1.963,-1.955c-0,-1.083 -0.879,-1.962 -1.963,-1.962c-1.079,-0 -1.962,0.879 -1.962,1.962c-0,1.08 0.883,1.955 1.962,1.955" style="fill:#00aca9;"/><path d="M164.392,199.895c1.325,0 2.412,-1.079 2.412,-2.408c0,-1.333 -1.087,-2.417 -2.412,-2.417c-1.333,0 -2.417,1.084 -2.417,2.417c0,1.329 1.084,2.408 2.417,2.408" style="fill:#00aca9;"/><path d="M145.715,200.099c1.45,-0 2.621,-1.171 2.621,-2.609c0,-1.45 -1.171,-2.62 -2.621,-2.62c-1.437,-0 -2.608,1.17 -2.608,2.62c-0,1.438 1.171,2.609 2.608,2.609" style="fill:#00aca9;"/><path d="M127.051,200.422c1.616,0 2.941,-1.316 2.941,-2.933c0,-1.625 -1.325,-2.942 -2.941,-2.942c-1.617,0 -2.942,1.317 -2.942,2.942c-0,1.617 1.325,2.933 2.942,2.933" style="fill:#00aca9;"/><path d="M108.386,200.426c1.621,0 2.938,-1.316 2.938,-2.937c-0,-1.629 -1.317,-2.95 -2.938,-2.95c-1.629,-0 -2.946,1.321 -2.946,2.95c0,1.621 1.317,2.937 2.946,2.937" style="fill:#00aca9;"/><path d="M89.714,200.095c1.445,0 2.612,-1.171 2.612,-2.604c0,-1.446 -1.167,-2.617 -2.612,-2.617c-1.438,0 -2.617,1.171 -2.617,2.617c-0,1.433 1.179,2.604 2.617,2.604" style="fill:#00aca9;"/><path d="M71.045,199.895c1.325,0 2.416,-1.079 2.416,-2.408c0,-1.333 -1.091,-2.417 -2.416,-2.417c-1.334,0 -2.417,1.084 -2.417,2.417c0,1.329 1.083,2.408 2.417,2.408" style="fill:#00aca9;"/><path d="M52.372,199.895c1.334,0 2.417,-1.079 2.417,-2.408c-0,-1.333 -1.083,-2.417 -2.417,-2.417c-1.325,0 -2.408,1.084 -2.408,2.417c-0,1.329 1.083,2.408 2.408,2.408" style="fill:#00aca9;"/><path d="M183.056,181.735c1.334,0 2.417,-1.083 2.417,-2.416c0,-1.325 -1.083,-2.417 -2.417,-2.417c-1.325,0 -2.416,1.092 -2.416,2.417c-0,1.333 1.091,2.416 2.416,2.416" style="fill:#00aca9;"/><path d="M201.725,181.41c1.088,-0 1.967,-0.888 1.967,-1.967c-0,-1.083 -0.879,-1.962 -1.967,-1.962c-1.079,-0 -1.958,0.879 -1.958,1.962c-0,1.079 0.879,1.967 1.958,1.967" style="fill:#00aca9;"/><path d="M192.647,190.36c1.084,-0 1.963,-0.88 1.963,-1.963c-0,-1.075 -0.879,-1.962 -1.963,-1.962c-1.079,-0 -1.966,0.887 -1.966,1.962c-0,1.083 0.887,1.963 1.966,1.963" style="fill:#00aca9;"/><path d="M164.392,181.735c1.325,0 2.412,-1.083 2.412,-2.416c0,-1.325 -1.087,-2.417 -2.412,-2.417c-1.333,0 -2.417,1.092 -2.417,2.417c0,1.333 1.084,2.416 2.417,2.416" style="fill:#00aca9;"/><path d="M145.715,181.939c1.45,-0 2.621,-1.171 2.621,-2.617c0,-1.442 -1.171,-2.621 -2.621,-2.621c-1.437,0 -2.608,1.179 -2.608,2.621c-0,1.446 1.171,2.617 2.608,2.617" style="fill:#00aca9;"/><path d="M127.051,182.262c1.616,0 2.941,-1.316 2.941,-2.941c0,-1.617 -1.325,-2.946 -2.941,-2.946c-1.617,-0 -2.942,1.329 -2.942,2.946c-0,1.625 1.325,2.941 2.942,2.941" style="fill:#00aca9;"/><path d="M108.386,182.266c1.621,0 2.938,-1.316 2.938,-2.946c-0,-1.62 -1.317,-2.95 -2.938,-2.95c-1.629,0 -2.946,1.33 -2.946,2.95c0,1.63 1.317,2.946 2.946,2.946" style="fill:#00aca9;"/><path d="M89.714,181.935c1.445,-0 2.612,-1.171 2.612,-2.613c0,-1.437 -1.167,-2.616 -2.612,-2.616c-1.438,-0 -2.617,1.179 -2.617,2.616c-0,1.442 1.179,2.613 2.617,2.613" style="fill:#00aca9;"/><path d="M71.045,181.735c1.325,0 2.416,-1.083 2.416,-2.416c0,-1.325 -1.091,-2.417 -2.416,-2.417c-1.334,0 -2.417,1.092 -2.417,2.417c0,1.333 1.083,2.416 2.417,2.416" style="fill:#00aca9;"/><path d="M52.372,181.735c1.334,0 2.417,-1.083 2.417,-2.416c-0,-1.325 -1.083,-2.417 -2.417,-2.417c-1.325,0 -2.408,1.092 -2.408,2.417c-0,1.333 1.083,2.416 2.408,2.416" style="fill:#00aca9;"/><path d="M201.729,163.568c1.325,-0 2.409,-1.084 2.409,-2.409c-0,-1.333 -1.084,-2.416 -2.409,-2.416c-1.333,-0 -2.416,1.083 -2.416,2.416c-0,1.325 1.083,2.409 2.416,2.409" style="fill:#00aca9;"/><path d="M183.056,163.568c1.334,-0 2.417,-1.084 2.417,-2.409c0,-1.333 -1.083,-2.416 -2.417,-2.416c-1.325,-0 -2.416,1.083 -2.416,2.416c-0,1.325 1.091,2.409 2.416,2.409" style="fill:#00aca9;"/><path d="M164.392,163.568c1.325,-0 2.412,-1.084 2.412,-2.409c0,-1.333 -1.087,-2.416 -2.412,-2.416c-1.333,-0 -2.417,1.083 -2.417,2.416c0,1.325 1.084,2.409 2.417,2.409" style="fill:#00aca9;"/><path d="M145.715,163.771c1.45,-0 2.621,-1.171 2.621,-2.609c0,-1.45 -1.171,-2.62 -2.621,-2.62c-1.437,-0 -2.608,1.17 -2.608,2.62c-0,1.438 1.171,2.609 2.608,2.609" style="fill:#00aca9;"/><path d="M127.051,164.092c1.616,0 2.941,-1.317 2.941,-2.933c0,-1.625 -1.325,-2.942 -2.941,-2.942c-1.617,0 -2.942,1.317 -2.942,2.942c-0,1.616 1.325,2.933 2.942,2.933" style="fill:#00aca9;"/><path d="M108.386,164.098c1.621,0 2.938,-1.321 2.938,-2.937c-0,-1.629 -1.317,-2.95 -2.938,-2.95c-1.629,-0 -2.946,1.321 -2.946,2.95c0,1.616 1.317,2.937 2.946,2.937" style="fill:#00aca9;"/><path d="M89.714,163.767c1.445,-0 2.612,-1.171 2.612,-2.605c0,-1.45 -1.167,-2.616 -2.612,-2.616c-1.438,-0 -2.617,1.166 -2.617,2.616c-0,1.434 1.179,2.605 2.617,2.605" style="fill:#00aca9;"/><path d="M71.045,163.568c1.325,-0 2.416,-1.084 2.416,-2.409c0,-1.333 -1.091,-2.416 -2.416,-2.416c-1.334,-0 -2.417,1.083 -2.417,2.416c0,1.325 1.083,2.409 2.417,2.409" style="fill:#00aca9;"/><path d="M52.372,163.568c1.334,-0 2.417,-1.084 2.417,-2.409c-0,-1.333 -1.083,-2.416 -2.417,-2.416c-1.325,-0 -2.408,1.083 -2.408,2.416c-0,1.325 1.083,2.409 2.408,2.409" style="fill:#00aca9;"/><path d="M220.394,144.952c1.079,-0 1.966,-0.875 1.966,-1.963c0,-1.075 -0.887,-1.958 -1.966,-1.958c-1.084,-0 -1.963,0.883 -1.963,1.958c0,1.088 0.879,1.963 1.963,1.963" style="fill:#00aca9;"/><path d="M201.729,145.408c1.325,-0.001 2.409,-1.084 2.409,-2.417c-0,-1.325 -1.084,-2.417 -2.409,-2.417c-1.333,0 -2.416,1.092 -2.416,2.417c-0,1.333 1.083,2.416 2.416,2.416" style="fill:#00aca9;"/><path d="M183.056,145.408c1.334,-0.001 2.417,-1.084 2.417,-2.417c0,-1.325 -1.083,-2.417 -2.417,-2.417c-1.325,0 -2.416,1.092 -2.416,2.417c-0,1.333 1.091,2.416 2.416,2.416" style="fill:#00aca9;"/><path d="M164.392,145.408c1.325,-0.001 2.412,-1.084 2.412,-2.417c0,-1.325 -1.087,-2.417 -2.412,-2.417c-1.333,0 -2.417,1.092 -2.417,2.417c0,1.333 1.084,2.416 2.417,2.416" style="fill:#00aca9;"/><path d="M145.715,145.408c1.334,-0.001 2.417,-1.084 2.417,-2.417c-0,-1.325 -1.083,-2.417 -2.417,-2.417c-1.325,0 -2.404,1.092 -2.404,2.417c0,1.333 1.079,2.416 2.404,2.416" style="fill:#00aca9;"/><path d="M127.051,145.408c1.325,-0.001 2.416,-1.084 2.416,-2.417c0,-1.325 -1.091,-2.417 -2.416,-2.417c-1.325,0 -2.417,1.092 -2.417,2.417c-0,1.333 1.092,2.416 2.417,2.416" style="fill:#00aca9;"/><path d="M108.386,145.408c1.325,-0.001 2.408,-1.084 2.408,-2.417c0,-1.325 -1.083,-2.417 -2.408,-2.417c-1.333,0 -2.417,1.092 -2.417,2.417c0,1.333 1.084,2.416 2.417,2.416" style="fill:#00aca9;"/><path d="M89.714,145.408c1.329,-0.001 2.412,-1.084 2.412,-2.417c0,-1.325 -1.083,-2.417 -2.412,-2.417c-1.325,0 -2.417,1.092 -2.417,2.417c-0,1.333 1.092,2.416 2.417,2.416" style="fill:#00aca9;"/><path d="M71.045,145.408c1.325,-0.001 2.416,-1.084 2.416,-2.417c0,-1.325 -1.091,-2.417 -2.416,-2.417c-1.334,0 -2.417,1.092 -2.417,2.417c0,1.333 1.083,2.416 2.417,2.416" style="fill:#00aca9;"/><path d="M52.372,144.952c1.084,-0 1.963,-0.875 1.963,-1.963c-0,-1.075 -0.879,-1.958 -1.963,-1.958c-1.079,-0 -1.954,0.883 -1.954,1.958c0,1.088 0.875,1.963 1.954,1.963" style="fill:#00aca9;"/><path d="M239.062,127.239c1.334,0 2.417,-1.083 2.417,-2.408c-0,-1.334 -1.083,-2.417 -2.417,-2.417c-1.325,0 -2.416,1.083 -2.416,2.417c-0,1.325 1.091,2.408 2.416,2.408" style="fill:#00aca9;"/><path d="M220.394,127.239c1.325,0 2.416,-1.083 2.416,-2.408c0,-1.334 -1.091,-2.417 -2.416,-2.417c-1.33,0 -2.413,1.083 -2.413,2.417c0,1.325 1.083,2.408 2.413,2.408" style="fill:#00aca9;"/><path d="M201.729,127.239c1.325,0 2.409,-1.083 2.409,-2.408c-0,-1.334 -1.084,-2.417 -2.409,-2.417c-1.333,0 -2.416,1.083 -2.416,2.417c-0,1.325 1.083,2.408 2.416,2.408" style="fill:#00aca9;"/><path d="M183.056,127.239c1.334,0 2.417,-1.083 2.417,-2.408c0,-1.334 -1.083,-2.417 -2.417,-2.417c-1.325,0 -2.416,1.083 -2.416,2.417c-0,1.325 1.091,2.408 2.416,2.408" style="fill:#00aca9;"/><path d="M164.392,127.239c1.325,0 2.412,-1.083 2.412,-2.408c0,-1.334 -1.087,-2.417 -2.412,-2.417c-1.333,0 -2.417,1.083 -2.417,2.417c0,1.325 1.084,2.408 2.417,2.408" style="fill:#00aca9;"/><path d="M145.715,127.239c1.334,0 2.417,-1.083 2.417,-2.408c-0,-1.334 -1.083,-2.417 -2.417,-2.417c-1.325,0 -2.404,1.083 -2.404,2.417c0,1.325 1.079,2.408 2.404,2.408" style="fill:#00aca9;"/><path d="M127.051,127.239c1.325,0 2.416,-1.083 2.416,-2.408c0,-1.334 -1.091,-2.417 -2.416,-2.417c-1.325,0 -2.417,1.083 -2.417,2.417c-0,1.325 1.092,2.408 2.417,2.408" style="fill:#00aca9;"/><path d="M108.386,127.239c1.325,0 2.408,-1.083 2.408,-2.408c0,-1.334 -1.083,-2.417 -2.408,-2.417c-1.333,0 -2.417,1.083 -2.417,2.417c0,1.325 1.084,2.408 2.417,2.408" style="fill:#00aca9;"/><path d="M89.714,127.239c1.329,0 2.412,-1.083 2.412,-2.408c0,-1.334 -1.083,-2.417 -2.412,-2.417c-1.325,0 -2.417,1.083 -2.417,2.417c-0,1.325 1.092,2.408 2.417,2.408" style="fill:#00aca9;"/><path d="M71.045,127.239c1.325,0 2.416,-1.083 2.416,-2.408c0,-1.334 -1.091,-2.417 -2.416,-2.417c-1.334,0 -2.417,1.083 -2.417,2.417c0,1.325 1.083,2.408 2.417,2.408" style="fill:#00aca9;"/><path d="M257.735,108.627c1.079,0 1.959,-0.879 1.959,-1.966c-0,-1.075 -0.88,-1.963 -1.959,-1.963c-1.087,0 -1.966,0.888 -1.966,1.963c-0,1.087 0.879,1.966 1.966,1.966" style="fill:#00aca9;"/><path d="M239.062,109.077c1.334,0 2.417,-1.079 2.417,-2.417c-0,-1.325 -1.083,-2.416 -2.417,-2.416c-1.325,-0 -2.416,1.091 -2.416,2.416c-0,1.338 1.091,2.417 2.416,2.417" style="fill:#00aca9;"/><path d="M220.394,109.279c1.437,-0 2.616,-1.171 2.616,-2.617c0,-1.437 -1.179,-2.617 -2.616,-2.617c-1.446,0 -2.613,1.18 -2.613,2.617c0,1.446 1.167,2.617 2.613,2.617" style="fill:#00aca9;"/><path d="M201.729,109.282c1.442,0 2.613,-1.175 2.613,-2.62c-0,-1.438 -1.171,-2.621 -2.613,-2.621c-1.445,-0 -2.62,1.183 -2.62,2.621c-0,1.445 1.175,2.62 2.62,2.62" style="fill:#00aca9;"/><path d="M183.056,109.077c1.334,0 2.417,-1.079 2.417,-2.417c0,-1.325 -1.083,-2.416 -2.417,-2.416c-1.325,-0 -2.416,1.091 -2.416,2.416c-0,1.338 1.091,2.417 2.416,2.417" style="fill:#00aca9;"/><path d="M164.392,109.077c1.325,0 2.412,-1.079 2.412,-2.417c0,-1.325 -1.087,-2.416 -2.412,-2.416c-1.333,-0 -2.417,1.091 -2.417,2.416c0,1.338 1.084,2.417 2.417,2.417" style="fill:#00aca9;"/><path d="M145.715,109.077c1.334,0 2.417,-1.079 2.417,-2.417c-0,-1.325 -1.083,-2.416 -2.417,-2.416c-1.325,-0 -2.404,1.091 -2.404,2.416c0,1.338 1.079,2.417 2.404,2.417" style="fill:#00aca9;"/><path d="M127.051,108.623c1.079,0 1.962,-0.879 1.962,-1.962c0,-1.075 -0.883,-1.958 -1.962,-1.958c-1.08,-0 -1.963,0.883 -1.963,1.958c0,1.083 0.883,1.962 1.963,1.962" style="fill:#00aca9;"/><path d="M108.386,108.627c1.079,0 1.958,-0.879 1.958,-1.966c0,-1.075 -0.879,-1.963 -1.958,-1.963c-1.087,0 -1.967,0.888 -1.967,1.963c0,1.087 0.88,1.966 1.967,1.966" style="fill:#00aca9;"/><path d="M89.714,108.623c1.083,0 1.962,-0.879 1.962,-1.962c0,-1.075 -0.879,-1.958 -1.962,-1.958c-1.08,-0 -1.967,0.883 -1.967,1.958c-0,1.083 0.887,1.962 1.967,1.962" style="fill:#00aca9;"/><path d="M257.735,90.917c1.325,0 2.409,-1.087 2.409,-2.417c-0,-1.333 -1.084,-2.416 -2.409,-2.416c-1.333,-0 -2.416,1.083 -2.416,2.416c-0,1.33 1.083,2.417 2.416,2.417" style="fill:#00aca9;"/><path d="M239.062,90.917c1.334,0 2.417,-1.087 2.417,-2.417c-0,-1.333 -1.083,-2.416 -2.417,-2.416c-1.325,-0 -2.416,1.083 -2.416,2.416c-0,1.33 1.091,2.417 2.416,2.417" style="fill:#00aca9;"/><path d="M220.394,91.444c1.62,0 2.945,-1.325 2.945,-2.941c0,-1.625 -1.325,-2.946 -2.945,-2.946c-1.625,-0 -2.942,1.321 -2.942,2.946c-0,1.616 1.317,2.941 2.942,2.941" style="fill:#00aca9;"/><path d="M201.729,91.448c1.621,0 2.938,-1.329 2.938,-2.945c-0,-1.63 -1.317,-2.95 -2.938,-2.95c-1.629,-0 -2.945,1.32 -2.945,2.95c-0,1.616 1.316,2.945 2.945,2.945" style="fill:#00aca9;"/><path d="M183.056,90.917c1.334,0 2.417,-1.087 2.417,-2.417c0,-1.333 -1.083,-2.416 -2.417,-2.416c-1.325,-0 -2.416,1.083 -2.416,2.416c-0,1.33 1.091,2.417 2.416,2.417" style="fill:#00aca9;"/><path d="M164.392,90.917c1.325,0 2.412,-1.087 2.412,-2.417c0,-1.333 -1.087,-2.416 -2.412,-2.416c-1.333,-0 -2.417,1.083 -2.417,2.416c0,1.33 1.084,2.417 2.417,2.417" style="fill:#00aca9;"/><path d="M145.719,90.465c1.084,0 1.963,-0.883 1.963,-1.962c-0,-1.088 -0.879,-1.967 -1.963,-1.967c-1.083,0 -1.962,0.879 -1.962,1.967c-0,1.079 0.879,1.962 1.962,1.962" style="fill:#00aca9;"/><path d="M276.4,72.295c1.079,0 1.962,-0.879 1.962,-1.962c0,-1.075 -0.883,-1.963 -1.962,-1.963c-1.075,0 -1.963,0.888 -1.963,1.963c0,1.083 0.888,1.962 1.963,1.962" style="fill:#00aca9;"/><path d="M294.592,90.488c1.088,-0 1.967,-0.879 1.967,-1.963c-0,-1.079 -0.879,-1.958 -1.967,-1.958c-1.079,0 -1.958,0.879 -1.958,1.958c-0,1.084 0.879,1.963 1.958,1.963" style="fill:#00aca9;"/><path d="M275.895,90.453c1.075,0 1.963,-0.875 1.963,-1.962c-0,-1.075 -0.888,-1.954 -1.963,-1.954c-1.079,-0 -1.966,0.879 -1.966,1.954c-0,1.087 0.887,1.962 1.966,1.962" style="fill:#00aca9;"/><path d="M266.813,99.543c1.079,0 1.958,-0.883 1.958,-1.962c0,-1.088 -0.879,-1.967 -1.958,-1.967c-1.087,0 -1.967,0.879 -1.967,1.967c0,1.079 0.88,1.962 1.967,1.962" style="fill:#00aca9;"/><path d="M257.735,72.749c1.325,0 2.409,-1.083 2.409,-2.416c-0,-1.325 -1.084,-2.417 -2.409,-2.417c-1.333,-0 -2.416,1.092 -2.416,2.417c-0,1.333 1.083,2.416 2.416,2.416" style="fill:#00aca9;"/><path d="M239.062,72.749c1.334,0 2.417,-1.083 2.417,-2.416c-0,-1.325 -1.083,-2.417 -2.417,-2.417c-1.325,-0 -2.416,1.092 -2.416,2.417c-0,1.333 1.091,2.416 2.416,2.416" style="fill:#00aca9;"/><path d="M220.394,72.948c1.437,0 2.616,-1.171 2.616,-2.612c0,-1.438 -1.179,-2.617 -2.616,-2.617c-1.446,0 -2.613,1.179 -2.613,2.617c0,1.441 1.167,2.612 2.613,2.612" style="fill:#00aca9;"/><path d="M201.729,72.952c1.442,0 2.613,-1.17 2.613,-2.616c-0,-1.442 -1.171,-2.621 -2.613,-2.621c-1.445,-0 -2.62,1.179 -2.62,2.621c-0,1.446 1.175,2.616 2.62,2.616" style="fill:#00aca9;"/><path d="M183.056,72.749c1.334,0 2.417,-1.083 2.417,-2.416c0,-1.325 -1.083,-2.417 -2.417,-2.417c-1.325,-0 -2.416,1.092 -2.416,2.417c-0,1.333 1.091,2.416 2.416,2.416" style="fill:#00aca9;"/><path d="M164.392,72.749c1.325,0 2.412,-1.083 2.412,-2.416c0,-1.325 -1.087,-2.417 -2.412,-2.417c-1.333,-0 -2.417,1.092 -2.417,2.417c0,1.333 1.084,2.416 2.417,2.416" style="fill:#00aca9;"/><path d="M257.735,54.137c1.079,0 1.959,-0.883 1.959,-1.966c-0,-1.084 -0.88,-1.963 -1.959,-1.963c-1.087,0 -1.966,0.879 -1.966,1.963c-0,1.083 0.879,1.966 1.966,1.966" style="fill:#00aca9;"/><path d="M239.062,54.589c1.334,0 2.417,-1.092 2.417,-2.417c-0,-1.333 -1.083,-2.416 -2.417,-2.416c-1.325,-0 -2.416,1.083 -2.416,2.416c-0,1.325 1.091,2.417 2.416,2.417" style="fill:#00aca9;"/><path d="M220.394,54.589c1.325,0 2.416,-1.092 2.416,-2.417c0,-1.333 -1.091,-2.416 -2.416,-2.416c-1.33,-0 -2.413,1.083 -2.413,2.416c0,1.325 1.083,2.417 2.413,2.417" style="fill:#00aca9;"/><path d="M201.729,54.589c1.325,0 2.409,-1.092 2.409,-2.417c-0,-1.333 -1.084,-2.416 -2.409,-2.416c-1.333,-0 -2.416,1.083 -2.416,2.416c-0,1.325 1.083,2.417 2.416,2.417" style="fill:#00aca9;"/><path d="M183.056,54.589c1.334,0 2.417,-1.092 2.417,-2.417c0,-1.333 -1.083,-2.416 -2.417,-2.416c-1.325,-0 -2.416,1.083 -2.416,2.416c-0,1.325 1.091,2.417 2.416,2.417" style="fill:#00aca9;"/><path d="M220.394,35.965c1.079,-0 1.966,-0.875 1.966,-1.963c0,-1.075 -0.887,-1.958 -1.966,-1.958c-1.084,0 -1.963,0.883 -1.963,1.958c0,1.088 0.879,1.963 1.963,1.963" style="fill:#00aca9;"/></svg>