<?xml version="1.0" encoding="UTF-8" standalone="no"?><!DOCTYPE svg PUBLIC "-//W3C//DTD SVG 1.1//EN" "http://www.w3.org/Graphics/SVG/1.1/DTD/svg11.dtd"><svg width="100%" height="100%" viewBox="0 0 1032 498" version="1.1" xmlns="http://www.w3.org/2000/svg" xmlns:xlink="http://www.w3.org/1999/xlink" xml:space="preserve" xmlns:serif="http://www.serif.com/" style="fill-rule:evenodd;clip-rule:evenodd;stroke-linejoin:round;stroke-miterlimit:2;"><path d="M622.069,418.72c-19.537,0 -35.379,-15.845 -35.379,-35.383c0,-19.542 15.842,-35.379 35.379,-35.379c19.542,-0 35.384,15.837 35.384,35.379c-0,19.538 -15.842,35.383 -35.384,35.383m0,-101.295c-36.396,-0 -65.904,29.508 -65.904,65.912c0,36.4 29.508,65.908 65.904,65.908c36.4,0 65.909,-29.508 65.909,-65.908c-0,-36.404 -29.509,-65.912 -65.909,-65.912" style="fill:#1d1d1b;"/><path d="M240.791,320.535l-29.709,0c-7.962,0 -14.82,2.95 -20.3,8.738l-35.383,37.196l0,-94.942l-15.846,0c-11.566,0 -20.996,9.433 -20.996,20.992l0,154.966l15.85,0c11.563,0 20.992,-9.433 20.992,-20.995l0,-20.696l14.404,-13.2l24.213,39.254l1.483,2.387c5.246,8.496 13.817,13.284 23.796,13.284l21.867,0.571l-50.025,-77.98l49.654,-49.575Z" style="fill:#1d1d1b;"/><path d="M909.732,320.535l-29.708,0c-7.963,0 -14.821,2.95 -20.3,8.738l-35.384,37.196l0,-94.942l-15.85,0c-11.562,0 -20.991,9.433 -20.991,20.992l-0,154.966l15.846,0c11.562,0 20.995,-9.433 20.995,-20.995l0,-20.696l14.405,-13.2l24.212,39.254l1.479,2.387c5.246,8.496 13.817,13.284 23.8,13.284l21.863,0.571l-50.021,-77.98l49.654,-49.575Z" style="fill:#1d1d1b;"/><path d="M107.417,343.448c-2.23,-6.829 -6.113,-12.142 -11.138,-16.204c-9.687,-7.825 -23.692,-11.063 -38.479,-11.513c-17.688,-0.537 -31.458,2.5 -40.858,8.817c-9.271,6.225 -14.321,15.721 -14.705,28.183c-0.233,7.621 1.509,14.188 5.109,19.559c3.629,5.425 9.196,9.704 16.554,12.695c3.683,1.442 7.725,2.859 12.696,4.38c4.991,1.516 10.829,3.116 18.071,4.92c8.016,2.121 13.083,3.925 16.158,6.096c3.308,2.338 4.392,5.067 4.279,8.909c-0.137,4.429 -2.137,7.937 -5.575,10.287c-3.354,2.279 -8.108,3.45 -13.854,3.275c-6.417,-0.196 -11.763,-1.471 -15.613,-4.492c-0.145,-0.125 -0.3,-0.25 -0.441,-0.362c-8.713,-7.45 -19.338,-9.671 -30.075,-6.304l-9.546,2.991c2.254,8.913 6.762,15.667 12.746,20.667c10.529,8.783 25.691,12.25 41.233,12.725c17.663,0.542 31.888,-3.083 41.779,-10.204c9.796,-7.046 15.35,-17.592 15.759,-30.933c0.245,-8.034 -1.342,-14.738 -4.813,-20.175c-3.492,-5.442 -8.937,-9.7 -16.379,-12.813c-10.554,-4.35 -21.363,-7.083 -32.342,-9.858l-5.412,-1.388c-6.167,-1.575 -13.963,-3.575 -13.7,-12.066c0.112,-3.725 1.762,-6.588 4.791,-8.45c2.867,-1.78 7.005,-2.634 12.246,-2.475c5.438,0.17 9.825,1.141 13.088,3.404c8.85,6.146 18.887,7.475 28.9,3.812l9.521,-3.483Z" style="fill:#1d1d1b;"/><path d="M525.858,448.091l36.041,-127.538l-17.958,0c-9.775,0 -18.017,6.446 -20.375,15.925l-18.434,74.171l-20.041,-90.096l-15.838,0c-9.941,0 -18.308,6.692 -20.483,16.384l-16.658,74.141l-17.796,-74.421c-2.279,-9.558 -10.579,-16.104 -20.409,-16.104l-18.737,0l31.725,112.254c2.596,9.175 10.667,15.284 20.204,15.284l20.192,-0l20.566,-89.363l18.167,73.409c2.35,9.495 10.592,15.954 20.375,15.954l19.458,-0Z" style="fill:#1d1d1b;"/><path d="M1026.57,320.474l-106.642,0l-0,8.746c-0,11.571 9.433,21.008 20.996,21.008l39.821,0l-58.513,59.729c-2.5,2.546 -4.383,5.371 -5.625,8.417c-1.233,3.046 -1.867,6.371 -1.867,9.95l0,19.767l116.775,-0l0,-9.446c0,-11.567 -9.429,-21.004 -20.995,-21.004l-49.863,-0l58.471,-60.046c2.483,-2.554 4.354,-5.358 5.587,-8.4c1.234,-3.038 1.855,-6.354 1.855,-9.917l-0,-18.804Z" style="fill:#1d1d1b;"/><path d="M352.489,320.552c-9.467,-0 -17.496,6.008 -20.154,15.091l-23.029,78.684l-23.209,-78.721c-2.666,-9.067 -10.683,-15.054 -20.133,-15.054l-21.25,-0c0,-0 48.308,142.545 48.858,144.108c0.155,0.433 0.167,0.696 0.23,1.012l-20.459,0l0,0.017c-1.179,-0.012 -2.262,-0.067 -3.562,-0.037c-10.4,0.237 -17.738,10.341 -17.738,20.741l0,10.921l46.009,0c0.05,-0.029 0.091,-0.067 0.145,-0.096c9.196,-0.216 17.73,-6.033 20.817,-15.241c1.488,-4.434 2.979,-8.884 4.467,-13.317l0.05,-0.063c-0,0.071 47.712,-148.045 47.712,-148.045l-18.754,-0Z" style="fill:#1d1d1b;"/><path d="M726.069,319.189c-0.087,-0 -0.166,0.071 -0.258,0.079l-7.388,-0c-12.391,-0 -22.483,10.1 -22.483,22.487l0,73.963c0.021,0.037 0.063,0.058 0.088,0.096c0.016,10.429 0.029,21.05 0.029,32.279l14.925,-0c12.391,-0 22.483,-10.104 22.483,-22.492l0,-73.962c0.008,-0 0.008,-0 0.013,-0.004l27.808,-0c10.687,-0 19.396,-8.709 19.396,-19.392l-0,-12.871c-31.321,0 -23.375,-0.183 -54.613,-0.183" style="fill:#1d1d1b;"/><path d="M751.875,138.162c-17.867,-32.791 -51.1,-52.37 -88.896,-52.37c-18.513,-0 -31.963,4.425 -38.609,7.179c-37.054,14.804 -60.82,50.437 -83.812,84.896c-29.367,44.029 -57.129,85.554 -111,78.987c-20.325,-2.5 -39.5,-13.396 -52.596,-29.887c-13.404,-16.867 -19.383,-37.63 -16.821,-58.434c5.884,-47.833 48.609,-73.179 86.45,-70.125c9.725,0.813 18.642,-4.733 22.209,-13.766c0.983,-2.496 2.083,-4.938 3.287,-7.325l0.663,-1.338c0.508,-0.95 1.041,-1.883 1.57,-2.817l0.675,-1.233c15.763,-26.7 43.03,-42.383 74.784,-43.042c28.304,-0.412 54.762,13.3 71.433,36.184c4.829,6.633 13.229,9.916 21.458,8.35c3.796,-0.721 7.667,-1.259 11.5,-1.588l3.696,-0.316l-1.541,-3.375c-18.942,-41.48 -60.413,-68.142 -105.834,-68.142c-0.312,-0 -0.625,-0 -0.941,0.004c-45.938,0.375 -87.23,27.504 -105.713,69.275c-45.729,-1.696 -87.787,25.213 -105.021,67.438c-12.846,31.483 -10.383,66.3 6.763,95.533c17.208,29.333 47.291,49.283 80.462,53.362c71.521,8.83 105.596,-42.275 138.546,-91.67c27.804,-41.688 53.967,-81.109 101.888,-79.242c38.687,1.475 68.933,32.971 68.85,71.704c-0.075,37.875 -30.45,69.629 -67.946,71.317l-77.809,-0c-10.775,-0 -20.191,7.283 -22.895,17.708l-2.934,11.275l102.579,0l2.613,-0.042l-0,-0.066c31.117,-1.25 62.125,-19.192 79.587,-46.263c19.742,-30.587 21.025,-69.737 3.355,-102.171" style="fill:#1d1d1b;fill-rule:nonzero;"/><path d="M668.138,254.402c1.329,-0 2.409,-1.084 2.409,-2.413c-0,-1.321 -1.08,-2.4 -2.409,-2.4c-1.321,0 -2.408,1.079 -2.408,2.4c-0,1.329 1.087,2.413 2.408,2.413" style="fill:#1d1d1b;"/><path d="M649.523,254.402c1.321,-0 2.408,-1.084 2.408,-2.413c0,-1.321 -1.087,-2.4 -2.408,-2.4c-1.333,0 -2.413,1.079 -2.413,2.4c0,1.329 1.08,2.413 2.413,2.413" style="fill:#1d1d1b;"/><path d="M630.895,254.402c1.329,-0 2.408,-1.084 2.408,-2.413c0,-1.321 -1.079,-2.4 -2.408,-2.4c-1.321,0 -2.4,1.079 -2.4,2.4c-0,1.329 1.079,2.413 2.4,2.413" style="fill:#1d1d1b;"/><path d="M612.275,253.954c1.079,0 1.967,-0.879 1.967,-1.967c-0,-1.07 -0.888,-1.95 -1.967,-1.95c-1.075,0 -1.963,0.88 -1.963,1.95c0,1.088 0.888,1.967 1.963,1.967" style="fill:#1d1d1b;"/><path d="M593.659,254.402c1.321,-0 2.4,-1.084 2.4,-2.413c0,-1.321 -1.079,-2.4 -2.4,-2.4c-1.329,0 -2.408,1.079 -2.408,2.4c-0,1.329 1.079,2.413 2.408,2.413" style="fill:#1d1d1b;"/><path d="M575.031,253.954c1.088,0 1.967,-0.879 1.967,-1.967c-0,-1.07 -0.879,-1.95 -1.967,-1.95c-1.075,0 -1.962,0.88 -1.962,1.95c-0,1.088 0.887,1.967 1.962,1.967" style="fill:#1d1d1b;"/><path d="M556.416,253.954c1.079,0 1.962,-0.879 1.962,-1.967c0,-1.07 -0.883,-1.95 -1.962,-1.95c-1.084,0 -1.963,0.88 -1.963,1.95c0,1.088 0.879,1.967 1.963,1.967" style="fill:#1d1d1b;"/><path d="M705.382,235.839c1.079,-0 1.963,-0.888 1.963,-1.963c-0,-1.083 -0.884,-1.962 -1.963,-1.962c-1.079,-0 -1.962,0.879 -1.962,1.962c-0,1.075 0.883,1.963 1.962,1.963" style="fill:#1d1d1b;"/><path d="M686.767,236.287c1.32,-0 2.4,-1.088 2.4,-2.409c-0,-1.329 -1.08,-2.412 -2.4,-2.412c-1.334,-0 -2.413,1.083 -2.413,2.412c0,1.321 1.079,2.409 2.413,2.409" style="fill:#1d1d1b;"/><path d="M668.138,236.287c1.329,-0 2.409,-1.088 2.409,-2.409c-0,-1.329 -1.08,-2.412 -2.409,-2.412c-1.321,-0 -2.408,1.083 -2.408,2.412c-0,1.321 1.087,2.409 2.408,2.409" style="fill:#1d1d1b;"/><path d="M649.523,236.287c1.321,-0 2.408,-1.088 2.408,-2.409c0,-1.329 -1.087,-2.412 -2.408,-2.412c-1.333,-0 -2.413,1.083 -2.413,2.412c0,1.321 1.08,2.409 2.413,2.409" style="fill:#1d1d1b;"/><path d="M630.895,236.287c1.329,-0 2.408,-1.088 2.408,-2.409c0,-1.329 -1.079,-2.412 -2.408,-2.412c-1.321,-0 -2.4,1.083 -2.4,2.412c-0,1.321 1.079,2.409 2.4,2.409" style="fill:#1d1d1b;"/><path d="M612.275,236.287c1.325,-0 2.412,-1.088 2.412,-2.409c0,-1.329 -1.087,-2.412 -2.412,-2.412c-1.321,-0 -2.408,1.083 -2.408,2.412c-0,1.321 1.087,2.409 2.408,2.409" style="fill:#1d1d1b;"/><path d="M593.659,236.287c1.321,-0 2.4,-1.088 2.4,-2.409c0,-1.329 -1.079,-2.412 -2.4,-2.412c-1.329,-0 -2.408,1.083 -2.408,2.412c-0,1.321 1.079,2.409 2.408,2.409" style="fill:#1d1d1b;"/><path d="M575.031,236.287c1.334,-0 2.413,-1.088 2.413,-2.409c-0,-1.329 -1.079,-2.412 -2.413,-2.412c-1.321,-0 -2.408,1.083 -2.408,2.412c-0,1.321 1.087,2.409 2.408,2.409" style="fill:#1d1d1b;"/><path d="M556.416,235.839c1.079,-0 1.962,-0.888 1.962,-1.963c0,-1.083 -0.883,-1.962 -1.962,-1.962c-1.084,-0 -1.963,0.879 -1.963,1.962c0,1.075 0.879,1.963 1.963,1.963" style="fill:#1d1d1b;"/><path d="M705.382,218.163c1.321,0 2.408,-1.079 2.408,-2.408c0,-1.325 -1.087,-2.4 -2.408,-2.4c-1.321,-0 -2.408,1.075 -2.408,2.4c-0,1.329 1.087,2.408 2.408,2.408" style="fill:#1d1d1b;"/><path d="M686.767,218.375c1.437,-0 2.608,-1.171 2.608,-2.621c-0,-1.442 -1.171,-2.613 -2.608,-2.613c-1.45,0 -2.621,1.171 -2.621,2.613c-0,1.45 1.171,2.621 2.621,2.621" style="fill:#1d1d1b;"/><path d="M668.138,218.371c1.446,-0 2.617,-1.171 2.617,-2.617c-0,-1.437 -1.171,-2.608 -2.617,-2.608c-1.437,-0 -2.616,1.171 -2.616,2.608c-0,1.446 1.179,2.617 2.616,2.617" style="fill:#1d1d1b;"/><path d="M649.523,218.371c1.433,-0 2.612,-1.171 2.612,-2.617c0,-1.437 -1.179,-2.608 -2.612,-2.608c-1.45,-0 -2.617,1.171 -2.617,2.608c0,1.446 1.167,2.617 2.617,2.617" style="fill:#1d1d1b;"/><path d="M630.895,218.375c1.45,-0 2.621,-1.171 2.621,-2.621c-0,-1.442 -1.171,-2.613 -2.621,-2.613c-1.442,0 -2.613,1.171 -2.613,2.613c0,1.45 1.171,2.621 2.613,2.621" style="fill:#1d1d1b;"/><path d="M612.275,218.163c1.325,0 2.412,-1.079 2.412,-2.408c0,-1.325 -1.087,-2.4 -2.412,-2.4c-1.321,-0 -2.408,1.075 -2.408,2.4c-0,1.329 1.087,2.408 2.408,2.408" style="fill:#1d1d1b;"/><path d="M593.659,218.163c1.321,0 2.4,-1.079 2.4,-2.408c0,-1.325 -1.079,-2.4 -2.4,-2.4c-1.329,-0 -2.408,1.075 -2.408,2.4c-0,1.329 1.079,2.408 2.408,2.408" style="fill:#1d1d1b;"/><path d="M575.031,218.163c1.334,0 2.413,-1.079 2.413,-2.408c-0,-1.325 -1.079,-2.4 -2.413,-2.4c-1.321,-0 -2.408,1.075 -2.408,2.4c-0,1.329 1.087,2.408 2.408,2.408" style="fill:#1d1d1b;"/><path d="M724.002,200.052c1.329,0 2.408,-1.092 2.408,-2.412c0,-1.33 -1.079,-2.409 -2.408,-2.409c-1.325,0 -2.404,1.079 -2.404,2.409c-0,1.32 1.079,2.412 2.404,2.412" style="fill:#1d1d1b;"/><path d="M705.382,200.052c1.321,0 2.408,-1.092 2.408,-2.412c0,-1.33 -1.087,-2.409 -2.408,-2.409c-1.321,0 -2.408,1.079 -2.408,2.409c-0,1.32 1.087,2.412 2.408,2.412" style="fill:#1d1d1b;"/><path d="M686.767,200.052c1.32,0 2.4,-1.092 2.4,-2.412c-0,-1.33 -1.08,-2.409 -2.4,-2.409c-1.334,0 -2.413,1.079 -2.413,2.409c0,1.32 1.079,2.412 2.413,2.412" style="fill:#1d1d1b;"/><path d="M668.138,200.585c1.625,-0 2.942,-1.329 2.942,-2.946c-0,-1.625 -1.317,-2.942 -2.942,-2.942c-1.616,0 -2.941,1.317 -2.941,2.942c-0,1.617 1.325,2.946 2.941,2.946" style="fill:#1d1d1b;"/><path d="M649.523,200.91c1.796,0 3.267,-1.475 3.267,-3.27c-0,-1.805 -1.471,-3.267 -3.267,-3.267c-1.808,-0 -3.271,1.462 -3.271,3.267c0,1.795 1.463,3.27 3.271,3.27" style="fill:#1d1d1b;"/><path d="M630.895,200.589c1.629,0 2.946,-1.329 2.946,-2.95c-0,-1.629 -1.317,-2.946 -2.946,-2.946c-1.621,0 -2.938,1.317 -2.938,2.946c0,1.621 1.317,2.95 2.938,2.95" style="fill:#1d1d1b;"/><path d="M612.275,200.052c1.325,0 2.412,-1.092 2.412,-2.412c0,-1.33 -1.087,-2.409 -2.412,-2.409c-1.321,0 -2.408,1.079 -2.408,2.409c-0,1.32 1.087,2.412 2.408,2.412" style="fill:#1d1d1b;"/><path d="M593.659,200.052c1.321,0 2.4,-1.092 2.4,-2.412c0,-1.33 -1.079,-2.409 -2.4,-2.409c-1.329,0 -2.408,1.079 -2.408,2.409c-0,1.32 1.079,2.412 2.408,2.412" style="fill:#1d1d1b;"/><path d="M575.031,200.052c1.334,0 2.413,-1.092 2.413,-2.412c-0,-1.33 -1.079,-2.409 -2.413,-2.409c-1.321,0 -2.408,1.079 -2.408,2.409c-0,1.32 1.087,2.412 2.408,2.412" style="fill:#1d1d1b;"/><path d="M724.002,181.929c1.329,-0 2.408,-1.079 2.408,-2.409c0,-1.325 -1.079,-2.404 -2.408,-2.404c-1.325,0 -2.404,1.079 -2.404,2.404c-0,1.33 1.079,2.409 2.404,2.409" style="fill:#1d1d1b;"/><path d="M705.382,181.929c1.321,-0 2.408,-1.079 2.408,-2.409c0,-1.325 -1.087,-2.404 -2.408,-2.404c-1.321,0 -2.408,1.079 -2.408,2.404c-0,1.33 1.087,2.409 2.408,2.409" style="fill:#1d1d1b;"/><path d="M686.767,182.14c1.437,-0 2.608,-1.175 2.608,-2.621c-0,-1.442 -1.171,-2.612 -2.608,-2.612c-1.45,-0 -2.621,1.17 -2.621,2.612c-0,1.446 1.171,2.621 2.621,2.621" style="fill:#1d1d1b;"/><path d="M668.138,182.462c1.625,-0 2.942,-1.317 2.942,-2.946c-0,-1.617 -1.317,-2.929 -2.942,-2.929c-1.616,-0 -2.941,1.312 -2.941,2.929c-0,1.629 1.325,2.946 2.941,2.946" style="fill:#1d1d1b;"/><path d="M649.523,182.787c1.796,0 3.267,-1.467 3.267,-3.271c-0,-1.796 -1.471,-3.258 -3.267,-3.258c-1.808,-0 -3.271,1.462 -3.271,3.258c0,1.804 1.463,3.271 3.271,3.271" style="fill:#1d1d1b;"/><path d="M630.895,182.466c1.629,-0 2.946,-1.317 2.946,-2.95c-0,-1.617 -1.317,-2.938 -2.946,-2.938c-1.621,0 -2.938,1.321 -2.938,2.938c0,1.633 1.317,2.95 2.938,2.95" style="fill:#1d1d1b;"/><path d="M612.275,181.929c1.325,-0 2.412,-1.079 2.412,-2.409c0,-1.325 -1.087,-2.404 -2.412,-2.404c-1.321,0 -2.408,1.079 -2.408,2.404c-0,1.33 1.087,2.409 2.408,2.409" style="fill:#1d1d1b;"/><path d="M593.659,181.929c1.321,-0 2.4,-1.079 2.4,-2.409c0,-1.325 -1.079,-2.404 -2.4,-2.404c-1.329,0 -2.408,1.079 -2.408,2.404c-0,1.33 1.079,2.409 2.408,2.409" style="fill:#1d1d1b;"/><path d="M705.382,163.813c1.321,0 2.408,-1.087 2.408,-2.408c0,-1.329 -1.087,-2.408 -2.408,-2.408c-1.321,-0 -2.408,1.079 -2.408,2.408c-0,1.321 1.087,2.408 2.408,2.408" style="fill:#1d1d1b;"/><path d="M686.767,163.813c1.32,0 2.4,-1.087 2.4,-2.408c-0,-1.329 -1.08,-2.408 -2.4,-2.408c-1.334,-0 -2.413,1.079 -2.413,2.408c0,1.321 1.079,2.408 2.413,2.408" style="fill:#1d1d1b;"/><path d="M668.138,164.021c1.446,-0 2.617,-1.179 2.617,-2.617c-0,-1.446 -1.171,-2.617 -2.617,-2.617c-1.437,0 -2.616,1.171 -2.616,2.617c-0,1.438 1.179,2.617 2.616,2.617" style="fill:#1d1d1b;"/><path d="M649.523,164.021c1.433,-0 2.612,-1.179 2.612,-2.617c0,-1.446 -1.179,-2.617 -2.612,-2.617c-1.45,0 -2.617,1.171 -2.617,2.617c0,1.438 1.167,2.617 2.617,2.617" style="fill:#1d1d1b;"/><path d="M630.895,164.025c1.45,-0 2.621,-1.179 2.621,-2.621c-0,-1.45 -1.171,-2.621 -2.621,-2.621c-1.442,0 -2.613,1.171 -2.613,2.621c0,1.442 1.171,2.621 2.613,2.621" style="fill:#1d1d1b;"/><path d="M612.275,163.813c1.325,0 2.412,-1.087 2.412,-2.408c0,-1.329 -1.087,-2.408 -2.412,-2.408c-1.321,-0 -2.408,1.079 -2.408,2.408c-0,1.321 1.087,2.408 2.408,2.408" style="fill:#1d1d1b;"/><path d="M705.382,145.247c1.079,-0 1.963,-0.88 1.963,-1.963c-0,-1.075 -0.884,-1.954 -1.963,-1.954c-1.079,-0 -1.962,0.879 -1.962,1.954c-0,1.083 0.883,1.963 1.962,1.963" style="fill:#1d1d1b;"/><path d="M686.767,145.694c1.32,0 2.4,-1.079 2.4,-2.412c-0,-1.321 -1.08,-2.4 -2.4,-2.4c-1.334,-0 -2.413,1.079 -2.413,2.4c0,1.333 1.079,2.412 2.413,2.412" style="fill:#1d1d1b;"/><path d="M668.138,145.694c1.329,0 2.409,-1.079 2.409,-2.412c-0,-1.321 -1.08,-2.4 -2.409,-2.4c-1.321,-0 -2.408,1.079 -2.408,2.4c-0,1.333 1.087,2.412 2.408,2.412" style="fill:#1d1d1b;"/><path d="M649.523,145.694c1.321,0 2.408,-1.079 2.408,-2.412c0,-1.321 -1.087,-2.4 -2.408,-2.4c-1.333,-0 -2.413,1.079 -2.413,2.4c0,1.333 1.08,2.412 2.413,2.412" style="fill:#1d1d1b;"/><path d="M630.895,145.694c1.329,0 2.408,-1.079 2.408,-2.412c0,-1.321 -1.079,-2.4 -2.408,-2.4c-1.321,-0 -2.4,1.079 -2.4,2.4c-0,1.333 1.079,2.412 2.4,2.412" style="fill:#1d1d1b;"/><path d="M612.275,145.247c1.079,-0 1.967,-0.88 1.967,-1.963c-0,-1.075 -0.888,-1.954 -1.967,-1.954c-1.075,-0 -1.963,0.879 -1.963,1.954c0,1.083 0.888,1.963 1.963,1.963" style="fill:#1d1d1b;"/><path d="M668.138,127.579c1.329,-0 2.409,-1.088 2.409,-2.409c-0,-1.325 -1.08,-2.412 -2.409,-2.412c-1.321,-0 -2.408,1.087 -2.408,2.412c-0,1.321 1.087,2.409 2.408,2.409" style="fill:#1d1d1b;"/><path d="M649.523,127.579c1.321,-0 2.408,-1.088 2.408,-2.409c0,-1.325 -1.087,-2.412 -2.408,-2.412c-1.333,-0 -2.413,1.087 -2.413,2.412c0,1.321 1.08,2.409 2.413,2.409" style="fill:#1d1d1b;"/><path d="M696.325,244.897c1.079,-0 1.958,-0.88 1.958,-1.967c-0,-1.075 -0.879,-1.958 -1.958,-1.958c-1.088,-0 -1.967,0.883 -1.967,1.958c-0,1.087 0.879,1.967 1.967,1.967" style="fill:#1d1d1b;"/><path d="M677.701,245.344c1.329,0 2.408,-1.079 2.408,-2.412c0,-1.321 -1.079,-2.409 -2.408,-2.409c-1.321,0 -2.409,1.088 -2.409,2.409c0,1.333 1.088,2.412 2.409,2.412" style="fill:#1d1d1b;"/><path d="M659.081,245.344c1.321,0 2.408,-1.079 2.408,-2.412c0,-1.321 -1.087,-2.409 -2.408,-2.409c-1.329,0 -2.409,1.088 -2.409,2.409c0,1.333 1.08,2.412 2.409,2.412" style="fill:#1d1d1b;"/><path d="M640.465,245.344c1.321,0 2.4,-1.079 2.4,-2.412c-0,-1.321 -1.079,-2.409 -2.4,-2.409c-1.329,0 -2.413,1.088 -2.413,2.409c0,1.333 1.084,2.412 2.413,2.412" style="fill:#1d1d1b;"/><path d="M621.837,245.344c1.329,0 2.408,-1.079 2.408,-2.412c0,-1.321 -1.079,-2.409 -2.408,-2.409c-1.321,0 -2.408,1.088 -2.408,2.409c-0,1.333 1.087,2.412 2.408,2.412" style="fill:#1d1d1b;"/><path d="M603.222,245.344c1.32,0 2.408,-1.079 2.408,-2.412c-0,-1.321 -1.088,-2.409 -2.408,-2.409c-1.33,0 -2.413,1.088 -2.413,2.409c0,1.333 1.083,2.412 2.413,2.412" style="fill:#1d1d1b;"/><path d="M584.594,245.344c1.329,0 2.408,-1.079 2.408,-2.412c0,-1.321 -1.079,-2.409 -2.408,-2.409c-1.321,0 -2.4,1.088 -2.4,2.409c-0,1.333 1.079,2.412 2.4,2.412" style="fill:#1d1d1b;"/><path d="M565.978,244.897c1.075,-0 1.962,-0.88 1.962,-1.967c0,-1.071 -0.887,-1.958 -1.962,-1.958c-1.079,-0 -1.967,0.887 -1.967,1.958c0,1.087 0.888,1.967 1.967,1.967" style="fill:#1d1d1b;"/><path d="M714.944,226.773c1.079,0 1.963,-0.879 1.963,-1.954c-0,-1.083 -0.884,-1.962 -1.963,-1.962c-1.079,-0 -1.962,0.879 -1.962,1.962c-0,1.075 0.883,1.954 1.962,1.954" style="fill:#1d1d1b;"/><path d="M696.325,227.221c1.32,-0 2.404,-1.079 2.404,-2.4c-0,-1.333 -1.084,-2.408 -2.404,-2.408c-1.33,-0 -2.409,1.075 -2.409,2.408c0,1.321 1.079,2.4 2.409,2.4" style="fill:#1d1d1b;"/><path d="M677.701,227.428c1.446,0 2.616,-1.171 2.616,-2.608c0,-1.446 -1.17,-2.617 -2.616,-2.617c-1.438,0 -2.617,1.171 -2.617,2.617c0,1.437 1.179,2.608 2.617,2.608" style="fill:#1d1d1b;"/><path d="M659.081,227.221c1.321,-0 2.408,-1.079 2.408,-2.4c0,-1.333 -1.087,-2.408 -2.408,-2.408c-1.329,-0 -2.409,1.075 -2.409,2.408c0,1.321 1.08,2.4 2.409,2.4" style="fill:#1d1d1b;"/><path d="M640.465,227.221c1.321,-0 2.4,-1.079 2.4,-2.4c-0,-1.333 -1.079,-2.408 -2.4,-2.408c-1.329,-0 -2.413,1.075 -2.413,2.408c0,1.321 1.084,2.4 2.413,2.4" style="fill:#1d1d1b;"/><path d="M621.837,227.221c1.329,-0 2.408,-1.079 2.408,-2.4c0,-1.333 -1.079,-2.408 -2.408,-2.408c-1.321,-0 -2.408,1.075 -2.408,2.408c-0,1.321 1.087,2.4 2.408,2.4" style="fill:#1d1d1b;"/><path d="M603.222,227.221c1.32,-0 2.408,-1.079 2.408,-2.4c-0,-1.333 -1.088,-2.408 -2.408,-2.408c-1.33,-0 -2.413,1.075 -2.413,2.408c0,1.321 1.083,2.4 2.413,2.4" style="fill:#1d1d1b;"/><path d="M584.594,227.221c1.329,-0 2.408,-1.079 2.408,-2.4c0,-1.333 -1.079,-2.408 -2.408,-2.408c-1.321,-0 -2.4,1.075 -2.4,2.408c-0,1.321 1.079,2.4 2.4,2.4" style="fill:#1d1d1b;"/><path d="M565.978,227.221c1.321,-0 2.408,-1.079 2.408,-2.4c0,-1.333 -1.087,-2.408 -2.408,-2.408c-1.325,-0 -2.413,1.075 -2.413,2.408c0,1.321 1.088,2.4 2.413,2.4" style="fill:#1d1d1b;"/><path d="M714.944,209.105c1.321,0 2.408,-1.079 2.408,-2.408c0,-1.325 -1.087,-2.408 -2.408,-2.408c-1.321,-0 -2.408,1.083 -2.408,2.408c-0,1.329 1.087,2.408 2.408,2.408" style="fill:#1d1d1b;"/><path d="M696.325,209.105c1.32,0 2.404,-1.079 2.404,-2.408c-0,-1.325 -1.084,-2.408 -2.404,-2.408c-1.33,-0 -2.409,1.083 -2.409,2.408c0,1.329 1.079,2.408 2.409,2.408" style="fill:#1d1d1b;"/><path d="M677.701,209.313c1.446,-0 2.616,-1.171 2.616,-2.617c0,-1.437 -1.17,-2.616 -2.616,-2.616c-1.438,-0 -2.617,1.179 -2.617,2.616c0,1.446 1.179,2.617 2.617,2.617" style="fill:#1d1d1b;"/><path d="M659.081,209.639c1.616,-0 2.941,-1.313 2.941,-2.942c0,-1.617 -1.325,-2.942 -2.941,-2.942c-1.625,0 -2.942,1.325 -2.942,2.942c0,1.629 1.317,2.942 2.942,2.942" style="fill:#1d1d1b;"/><path d="M640.465,209.647c1.621,-0 2.937,-1.321 2.937,-2.95c0,-1.621 -1.316,-2.946 -2.937,-2.946c-1.629,-0 -2.946,1.325 -2.946,2.946c0,1.629 1.317,2.95 2.946,2.95" style="fill:#1d1d1b;"/><path d="M621.837,209.313c1.446,-0 2.617,-1.171 2.617,-2.617c-0,-1.437 -1.171,-2.616 -2.617,-2.616c-1.437,-0 -2.617,1.179 -2.617,2.616c0,1.446 1.18,2.617 2.617,2.617" style="fill:#1d1d1b;"/><path d="M603.222,209.105c1.32,0 2.408,-1.079 2.408,-2.408c-0,-1.325 -1.088,-2.408 -2.408,-2.408c-1.33,-0 -2.413,1.083 -2.413,2.408c0,1.329 1.083,2.408 2.413,2.408" style="fill:#1d1d1b;"/><path d="M584.594,209.105c1.329,0 2.408,-1.079 2.408,-2.408c0,-1.325 -1.079,-2.408 -2.408,-2.408c-1.321,-0 -2.4,1.083 -2.4,2.408c-0,1.329 1.079,2.408 2.4,2.408" style="fill:#1d1d1b;"/><path d="M565.978,208.658c1.075,-0 1.962,-0.879 1.962,-1.963c0,-1.075 -0.887,-1.958 -1.962,-1.958c-1.079,0 -1.967,0.883 -1.967,1.958c0,1.084 0.888,1.963 1.967,1.963" style="fill:#1d1d1b;"/><path d="M714.944,190.986c1.321,0 2.408,-1.079 2.408,-2.404c0,-1.329 -1.087,-2.408 -2.408,-2.408c-1.321,-0 -2.408,1.079 -2.408,2.408c-0,1.325 1.087,2.404 2.408,2.404" style="fill:#1d1d1b;"/><path d="M696.325,190.986c1.32,0 2.404,-1.079 2.404,-2.404c-0,-1.329 -1.084,-2.408 -2.404,-2.408c-1.33,-0 -2.409,1.079 -2.409,2.408c0,1.325 1.079,2.404 2.409,2.404" style="fill:#1d1d1b;"/><path d="M677.701,191.19c1.446,-0 2.616,-1.171 2.616,-2.605c0,-1.445 -1.17,-2.616 -2.616,-2.616c-1.438,-0 -2.617,1.171 -2.617,2.616c0,1.434 1.179,2.605 2.617,2.605" style="fill:#1d1d1b;"/><path d="M659.081,191.845c1.796,-0 3.271,-1.467 3.271,-3.258c-0,-1.809 -1.475,-3.271 -3.271,-3.271c-1.809,-0 -3.267,1.462 -3.267,3.271c0,1.791 1.458,3.258 3.267,3.258" style="fill:#1d1d1b;"/><path d="M640.465,191.849c1.8,-0 3.262,-1.467 3.262,-3.263c0,-1.812 -1.462,-3.275 -3.262,-3.275c-1.808,0 -3.275,1.463 -3.275,3.275c-0,1.796 1.467,3.263 3.275,3.263" style="fill:#1d1d1b;"/><path d="M621.837,191.19c1.446,-0 2.617,-1.171 2.617,-2.605c-0,-1.445 -1.171,-2.616 -2.617,-2.616c-1.437,-0 -2.617,1.171 -2.617,2.616c0,1.434 1.18,2.605 2.617,2.605" style="fill:#1d1d1b;"/><path d="M603.222,190.986c1.32,0 2.408,-1.079 2.408,-2.404c-0,-1.329 -1.088,-2.408 -2.408,-2.408c-1.33,-0 -2.413,1.079 -2.413,2.408c0,1.325 1.083,2.404 2.413,2.404" style="fill:#1d1d1b;"/><path d="M584.594,190.986c1.329,0 2.408,-1.079 2.408,-2.404c0,-1.329 -1.079,-2.408 -2.408,-2.408c-1.321,-0 -2.4,1.079 -2.4,2.408c-0,1.325 1.079,2.404 2.4,2.404" style="fill:#1d1d1b;"/><path d="M714.944,172.871c1.321,-0 2.408,-1.079 2.408,-2.409c0,-1.325 -1.087,-2.408 -2.408,-2.408c-1.321,0 -2.408,1.083 -2.408,2.408c-0,1.33 1.087,2.409 2.408,2.409" style="fill:#1d1d1b;"/><path d="M696.325,172.871c1.32,-0 2.404,-1.079 2.404,-2.409c-0,-1.325 -1.084,-2.408 -2.404,-2.408c-1.33,0 -2.409,1.083 -2.409,2.408c0,1.33 1.079,2.409 2.409,2.409" style="fill:#1d1d1b;"/><path d="M677.701,173.078c1.446,0 2.616,-1.17 2.616,-2.616c0,-1.438 -1.17,-2.617 -2.616,-2.617c-1.438,0 -2.617,1.179 -2.617,2.617c0,1.446 1.179,2.616 2.617,2.616" style="fill:#1d1d1b;"/><path d="M659.081,173.404c1.616,0 2.941,-1.316 2.941,-2.941c0,-1.617 -1.325,-2.942 -2.941,-2.942c-1.625,-0 -2.942,1.325 -2.942,2.942c0,1.625 1.317,2.941 2.942,2.941" style="fill:#1d1d1b;"/><path d="M640.465,173.408c1.621,-0 2.937,-1.317 2.937,-2.946c0,-1.621 -1.316,-2.95 -2.937,-2.95c-1.629,0 -2.946,1.329 -2.946,2.95c0,1.629 1.317,2.946 2.946,2.946" style="fill:#1d1d1b;"/><path d="M621.837,173.078c1.446,0 2.617,-1.17 2.617,-2.616c-0,-1.438 -1.171,-2.617 -2.617,-2.617c-1.437,0 -2.617,1.179 -2.617,2.617c0,1.446 1.18,2.616 2.617,2.616" style="fill:#1d1d1b;"/><path d="M603.222,172.871c1.32,-0 2.408,-1.079 2.408,-2.409c-0,-1.325 -1.088,-2.408 -2.408,-2.408c-1.33,0 -2.413,1.083 -2.413,2.408c0,1.33 1.083,2.409 2.413,2.409" style="fill:#1d1d1b;"/><path d="M714.944,154.304c1.079,0 1.963,-0.879 1.963,-1.958c-0,-1.079 -0.884,-1.958 -1.963,-1.958c-1.079,-0 -1.962,0.879 -1.962,1.958c-0,1.079 0.883,1.958 1.962,1.958" style="fill:#1d1d1b;"/><path d="M696.325,154.752c1.32,-0 2.404,-1.084 2.404,-2.405c-0,-1.329 -1.084,-2.408 -2.404,-2.408c-1.33,0 -2.409,1.079 -2.409,2.408c0,1.321 1.079,2.405 2.409,2.405" style="fill:#1d1d1b;"/><path d="M677.701,154.752c1.329,-0 2.408,-1.084 2.408,-2.405c0,-1.329 -1.079,-2.408 -2.408,-2.408c-1.321,0 -2.409,1.079 -2.409,2.408c0,1.321 1.088,2.405 2.409,2.405" style="fill:#1d1d1b;"/><path d="M659.081,154.752c1.321,-0 2.408,-1.084 2.408,-2.405c0,-1.329 -1.087,-2.408 -2.408,-2.408c-1.329,0 -2.409,1.079 -2.409,2.408c0,1.321 1.08,2.405 2.409,2.405" style="fill:#1d1d1b;"/><path d="M640.465,154.959c1.437,0 2.612,-1.171 2.612,-2.612c0,-1.446 -1.175,-2.621 -2.612,-2.621c-1.45,-0 -2.621,1.175 -2.621,2.621c0,1.441 1.171,2.612 2.621,2.612" style="fill:#1d1d1b;"/><path d="M621.837,154.752c1.329,-0 2.408,-1.084 2.408,-2.405c0,-1.329 -1.079,-2.408 -2.408,-2.408c-1.321,0 -2.408,1.079 -2.408,2.408c-0,1.321 1.087,2.405 2.408,2.405" style="fill:#1d1d1b;"/><path d="M603.222,154.304c1.079,0 1.966,-0.879 1.966,-1.958c0,-1.083 -0.887,-1.963 -1.966,-1.963c-1.088,0 -1.967,0.88 -1.967,1.963c-0,1.079 0.879,1.958 1.967,1.958" style="fill:#1d1d1b;"/><path d="M696.325,136.189c1.079,-0 1.958,-0.879 1.958,-1.963c-0,-1.079 -0.879,-1.962 -1.958,-1.962c-1.088,-0 -1.967,0.883 -1.967,1.962c-0,1.084 0.879,1.963 1.967,1.963" style="fill:#1d1d1b;"/><path d="M677.701,136.637c1.329,-0 2.408,-1.08 2.408,-2.409c0,-1.325 -1.079,-2.412 -2.408,-2.412c-1.321,-0 -2.409,1.087 -2.409,2.412c0,1.329 1.088,2.409 2.409,2.409" style="fill:#1d1d1b;"/><path d="M659.081,136.637c1.321,-0 2.408,-1.08 2.408,-2.409c0,-1.325 -1.087,-2.412 -2.408,-2.412c-1.329,-0 -2.409,1.087 -2.409,2.412c0,1.329 1.08,2.409 2.409,2.409" style="fill:#1d1d1b;"/><path d="M640.465,136.637c1.321,-0 2.4,-1.08 2.4,-2.409c-0,-1.325 -1.079,-2.412 -2.4,-2.412c-1.329,-0 -2.413,1.087 -2.413,2.412c0,1.329 1.084,2.409 2.413,2.409" style="fill:#1d1d1b;"/><path d="M621.837,136.189c1.083,-0 1.963,-0.879 1.963,-1.963c-0,-1.075 -0.88,-1.962 -1.963,-1.962c-1.079,-0 -1.962,0.887 -1.962,1.962c-0,1.084 0.883,1.963 1.962,1.963" style="fill:#1d1d1b;"/><path d="M466.816,244.86c1.084,0 1.963,-0.887 1.963,-1.962c-0,-1.084 -0.879,-1.959 -1.963,-1.959c-1.079,0 -1.962,0.875 -1.962,1.959c-0,1.075 0.883,1.962 1.962,1.962" style="fill:#1d1d1b;"/><path d="M448.152,244.86c1.075,0 1.962,-0.887 1.962,-1.962c0,-1.084 -0.887,-1.959 -1.962,-1.959c-1.088,0 -1.963,0.875 -1.963,1.959c0,1.075 0.875,1.962 1.963,1.962" style="fill:#1d1d1b;"/><path d="M429.479,244.864c1.083,0 1.962,-0.887 1.962,-1.966c0,-1.084 -0.879,-1.963 -1.962,-1.963c-1.084,0 -1.963,0.879 -1.963,1.963c0,1.079 0.879,1.966 1.963,1.966" style="fill:#1d1d1b;"/><path d="M485.489,227.143c1.325,0 2.408,-1.079 2.408,-2.412c0,-1.325 -1.083,-2.409 -2.408,-2.409c-1.334,0 -2.417,1.084 -2.417,2.409c0,1.333 1.083,2.412 2.417,2.412" style="fill:#1d1d1b;"/><path d="M466.816,227.143c1.334,0 2.417,-1.079 2.417,-2.412c-0,-1.325 -1.083,-2.409 -2.417,-2.409c-1.325,0 -2.416,1.084 -2.416,2.409c-0,1.333 1.091,2.412 2.416,2.412" style="fill:#1d1d1b;"/><path d="M448.152,227.143c1.325,0 2.412,-1.079 2.412,-2.412c0,-1.325 -1.087,-2.409 -2.412,-2.409c-1.334,0 -2.417,1.084 -2.417,2.409c-0,1.333 1.083,2.412 2.417,2.412" style="fill:#1d1d1b;"/><path d="M429.475,227.143c1.333,0 2.417,-1.079 2.417,-2.412c-0,-1.325 -1.084,-2.409 -2.417,-2.409c-1.325,0 -2.404,1.084 -2.404,2.409c-0,1.333 1.079,2.412 2.404,2.412" style="fill:#1d1d1b;"/><path d="M410.81,227.143c1.334,0 2.417,-1.079 2.417,-2.412c0,-1.325 -1.083,-2.409 -2.417,-2.409c-1.325,0 -2.416,1.084 -2.416,2.409c-0,1.333 1.091,2.412 2.416,2.412" style="fill:#1d1d1b;"/><path d="M392.146,226.696c1.079,-0 1.958,-0.879 1.958,-1.967c0,-1.075 -0.879,-1.958 -1.958,-1.958c-1.088,-0 -1.967,0.883 -1.967,1.958c0,1.088 0.879,1.967 1.967,1.967" style="fill:#1d1d1b;"/><path d="M504.153,208.983c1.325,0 2.417,-1.087 2.417,-2.412c0,-1.334 -1.092,-2.417 -2.417,-2.417c-1.325,0 -2.412,1.083 -2.412,2.417c-0,1.325 1.087,2.412 2.412,2.412" style="fill:#1d1d1b;"/><path d="M485.489,208.983c1.325,0 2.408,-1.087 2.408,-2.412c0,-1.334 -1.083,-2.417 -2.408,-2.417c-1.334,0 -2.417,1.083 -2.417,2.417c0,1.325 1.083,2.412 2.417,2.412" style="fill:#1d1d1b;"/><path d="M466.816,209.183c1.446,-0 2.617,-1.179 2.617,-2.613c-0,-1.45 -1.171,-2.616 -2.617,-2.616c-1.437,-0 -2.616,1.166 -2.616,2.616c-0,1.434 1.179,2.613 2.616,2.613" style="fill:#1d1d1b;"/><path d="M448.152,209.183c1.437,-0 2.612,-1.179 2.612,-2.613c0,-1.45 -1.175,-2.616 -2.612,-2.616c-1.446,-0 -2.617,1.166 -2.617,2.616c-0,1.434 1.171,2.613 2.617,2.613" style="fill:#1d1d1b;"/><path d="M429.475,209.187c1.45,0 2.621,-1.179 2.621,-2.617c-0,-1.45 -1.171,-2.62 -2.621,-2.62c-1.438,-0 -2.608,1.17 -2.608,2.62c-0,1.438 1.171,2.617 2.608,2.617" style="fill:#1d1d1b;"/><path d="M410.81,208.983c1.334,0 2.417,-1.087 2.417,-2.412c0,-1.334 -1.083,-2.417 -2.417,-2.417c-1.325,0 -2.416,1.083 -2.416,2.417c-0,1.325 1.091,2.412 2.416,2.412" style="fill:#1d1d1b;"/><path d="M392.146,208.983c1.325,0 2.408,-1.087 2.408,-2.412c0,-1.334 -1.083,-2.417 -2.408,-2.417c-1.333,0 -2.417,1.083 -2.417,2.417c0,1.325 1.084,2.412 2.417,2.412" style="fill:#1d1d1b;"/><path d="M504.153,190.815c1.325,0 2.417,-1.083 2.417,-2.416c0,-1.325 -1.092,-2.404 -2.417,-2.404c-1.325,-0 -2.412,1.079 -2.412,2.404c-0,1.333 1.087,2.416 2.412,2.416" style="fill:#1d1d1b;"/><path d="M485.489,190.815c1.325,0 2.408,-1.083 2.408,-2.416c0,-1.325 -1.083,-2.404 -2.408,-2.404c-1.334,-0 -2.417,1.079 -2.417,2.404c0,1.333 1.083,2.416 2.417,2.416" style="fill:#1d1d1b;"/><path d="M466.816,191.34c1.625,0 2.942,-1.312 2.942,-2.941c-0,-1.617 -1.317,-2.934 -2.942,-2.934c-1.616,0 -2.941,1.317 -2.941,2.934c-0,1.629 1.325,2.941 2.941,2.941" style="fill:#1d1d1b;"/><path d="M448.152,191.34c1.616,0 2.941,-1.312 2.941,-2.941c0,-1.617 -1.325,-2.934 -2.941,-2.934c-1.63,0 -2.946,1.317 -2.946,2.934c-0,1.629 1.316,2.941 2.946,2.941" style="fill:#1d1d1b;"/><path d="M429.475,191.348c1.629,0 2.95,-1.321 2.95,-2.95c0,-1.616 -1.321,-2.937 -2.95,-2.937c-1.621,-0 -2.938,1.321 -2.938,2.937c0,1.629 1.317,2.95 2.938,2.95" style="fill:#1d1d1b;"/><path d="M410.81,191.015c1.446,-0 2.617,-1.171 2.617,-2.617c0,-1.438 -1.171,-2.604 -2.617,-2.604c-1.437,-0 -2.616,1.166 -2.616,2.604c-0,1.446 1.179,2.617 2.616,2.617" style="fill:#1d1d1b;"/><path d="M392.146,190.815c1.325,0 2.408,-1.083 2.408,-2.416c0,-1.325 -1.083,-2.404 -2.408,-2.404c-1.333,-0 -2.417,1.079 -2.417,2.404c0,1.333 1.084,2.416 2.417,2.416" style="fill:#1d1d1b;"/><path d="M373.473,190.368c1.083,-0 1.967,-0.883 1.967,-1.967c-0,-1.075 -0.884,-1.958 -1.967,-1.958c-1.079,-0 -1.963,0.883 -1.963,1.958c0,1.084 0.884,1.967 1.963,1.967" style="fill:#1d1d1b;"/><path d="M522.822,172.655c1.333,0 2.417,-1.091 2.417,-2.416c-0,-1.334 -1.084,-2.413 -2.417,-2.413c-1.325,0 -2.408,1.079 -2.408,2.413c-0,1.325 1.083,2.416 2.408,2.416" style="fill:#1d1d1b;"/><path d="M504.153,172.655c1.325,0 2.417,-1.091 2.417,-2.416c0,-1.334 -1.092,-2.413 -2.417,-2.413c-1.325,0 -2.412,1.079 -2.412,2.413c-0,1.325 1.087,2.416 2.412,2.416" style="fill:#1d1d1b;"/><path d="M485.489,172.655c1.325,0 2.408,-1.091 2.408,-2.416c0,-1.334 -1.083,-2.413 -2.408,-2.413c-1.334,0 -2.417,1.079 -2.417,2.413c0,1.325 1.083,2.416 2.417,2.416" style="fill:#1d1d1b;"/><path d="M466.816,173.184c1.625,0 2.942,-1.329 2.942,-2.946c-0,-1.625 -1.317,-2.941 -2.942,-2.941c-1.616,-0 -2.941,1.316 -2.941,2.941c-0,1.617 1.325,2.946 2.941,2.946" style="fill:#1d1d1b;"/><path d="M448.152,173.184c1.616,0 2.941,-1.329 2.941,-2.946c0,-1.625 -1.325,-2.941 -2.941,-2.941c-1.63,-0 -2.946,1.316 -2.946,2.941c-0,1.617 1.316,2.946 2.946,2.946" style="fill:#1d1d1b;"/><path d="M429.475,173.188c1.629,0 2.95,-1.329 2.95,-2.95c0,-1.629 -1.321,-2.946 -2.95,-2.946c-1.621,0 -2.938,1.317 -2.938,2.946c0,1.621 1.317,2.95 2.938,2.95" style="fill:#1d1d1b;"/><path d="M410.81,172.655c1.334,0 2.417,-1.091 2.417,-2.416c0,-1.334 -1.083,-2.413 -2.417,-2.413c-1.325,0 -2.416,1.079 -2.416,2.413c-0,1.325 1.091,2.416 2.416,2.416" style="fill:#1d1d1b;"/><path d="M392.146,172.655c1.325,0 2.408,-1.091 2.408,-2.416c0,-1.334 -1.083,-2.413 -2.408,-2.413c-1.333,0 -2.417,1.079 -2.417,2.413c0,1.325 1.084,2.416 2.417,2.416" style="fill:#1d1d1b;"/><path d="M373.473,172.204c1.083,-0 1.967,-0.888 1.967,-1.967c-0,-1.079 -0.884,-1.962 -1.967,-1.962c-1.079,-0 -1.963,0.883 -1.963,1.962c0,1.079 0.884,1.967 1.963,1.967" style="fill:#1d1d1b;"/><path d="M541.495,154.487c1.325,0 2.416,-1.083 2.416,-2.417c0,-1.325 -1.091,-2.408 -2.416,-2.408c-1.334,0 -2.417,1.083 -2.417,2.408c-0,1.334 1.083,2.417 2.417,2.417" style="fill:#1d1d1b;"/><path d="M522.822,154.487c1.333,0 2.417,-1.083 2.417,-2.417c-0,-1.325 -1.084,-2.408 -2.417,-2.408c-1.325,0 -2.408,1.083 -2.408,2.408c-0,1.334 1.083,2.417 2.408,2.417" style="fill:#1d1d1b;"/><path d="M504.153,154.487c1.325,0 2.417,-1.083 2.417,-2.417c0,-1.325 -1.092,-2.408 -2.417,-2.408c-1.325,0 -2.412,1.083 -2.412,2.408c-0,1.334 1.087,2.417 2.412,2.417" style="fill:#1d1d1b;"/><path d="M485.489,154.487c1.325,0 2.408,-1.083 2.408,-2.417c0,-1.325 -1.083,-2.408 -2.408,-2.408c-1.334,0 -2.417,1.083 -2.417,2.408c0,1.334 1.083,2.417 2.417,2.417" style="fill:#1d1d1b;"/><path d="M466.816,154.687c1.446,-0 2.617,-1.171 2.617,-2.617c-0,-1.438 -1.171,-2.604 -2.617,-2.604c-1.437,-0 -2.616,1.166 -2.616,2.604c-0,1.446 1.179,2.617 2.616,2.617" style="fill:#1d1d1b;"/><path d="M448.152,154.687c1.437,-0 2.612,-1.171 2.612,-2.617c0,-1.438 -1.175,-2.604 -2.612,-2.604c-1.446,-0 -2.617,1.166 -2.617,2.604c-0,1.446 1.171,2.617 2.617,2.617" style="fill:#1d1d1b;"/><path d="M429.475,154.691c1.45,-0 2.621,-1.171 2.621,-2.621c-0,-1.437 -1.171,-2.612 -2.621,-2.612c-1.438,-0 -2.608,1.175 -2.608,2.612c-0,1.45 1.171,2.621 2.608,2.621" style="fill:#1d1d1b;"/><path d="M410.81,154.487c1.334,0 2.417,-1.083 2.417,-2.417c0,-1.325 -1.083,-2.408 -2.417,-2.408c-1.325,0 -2.416,1.083 -2.416,2.408c-0,1.334 1.091,2.417 2.416,2.417" style="fill:#1d1d1b;"/><path d="M392.146,154.487c1.325,0 2.408,-1.083 2.408,-2.417c0,-1.325 -1.083,-2.408 -2.408,-2.408c-1.333,0 -2.417,1.083 -2.417,2.408c0,1.334 1.084,2.417 2.417,2.417" style="fill:#1d1d1b;"/><path d="M373.473,154.035c1.083,0 1.967,-0.879 1.967,-1.966c-0,-1.075 -0.884,-1.954 -1.967,-1.954c-1.079,-0 -1.963,0.879 -1.963,1.954c0,1.087 0.884,1.966 1.963,1.966" style="fill:#1d1d1b;"/><path d="M560.159,135.872c1.088,-0 1.963,-0.884 1.963,-1.963c-0,-1.079 -0.875,-1.958 -1.963,-1.958c-1.075,-0 -1.962,0.879 -1.962,1.958c-0,1.079 0.887,1.963 1.962,1.963" style="fill:#1d1d1b;"/><path d="M541.495,136.327c1.325,0 2.416,-1.092 2.416,-2.417c0,-1.333 -1.091,-2.416 -2.416,-2.416c-1.334,-0 -2.417,1.083 -2.417,2.416c-0,1.325 1.083,2.417 2.417,2.417" style="fill:#1d1d1b;"/><path d="M522.822,136.327c1.333,0 2.417,-1.092 2.417,-2.417c-0,-1.333 -1.084,-2.416 -2.417,-2.416c-1.325,-0 -2.408,1.083 -2.408,2.416c-0,1.325 1.083,2.417 2.408,2.417" style="fill:#1d1d1b;"/><path d="M504.153,136.327c1.325,0 2.417,-1.092 2.417,-2.417c0,-1.333 -1.092,-2.416 -2.417,-2.416c-1.325,-0 -2.412,1.083 -2.412,2.416c-0,1.325 1.087,2.417 2.412,2.417" style="fill:#1d1d1b;"/><path d="M485.489,136.327c1.325,0 2.408,-1.092 2.408,-2.417c0,-1.333 -1.083,-2.416 -2.408,-2.416c-1.334,-0 -2.417,1.083 -2.417,2.416c0,1.325 1.083,2.417 2.417,2.417" style="fill:#1d1d1b;"/><path d="M466.816,136.327c1.334,0 2.417,-1.092 2.417,-2.417c-0,-1.333 -1.083,-2.416 -2.417,-2.416c-1.325,-0 -2.416,1.083 -2.416,2.416c-0,1.325 1.091,2.417 2.416,2.417" style="fill:#1d1d1b;"/><path d="M448.152,136.327c1.325,0 2.412,-1.092 2.412,-2.417c0,-1.333 -1.087,-2.416 -2.412,-2.416c-1.334,-0 -2.417,1.083 -2.417,2.416c-0,1.325 1.083,2.417 2.417,2.417" style="fill:#1d1d1b;"/><path d="M429.475,136.327c1.333,0 2.417,-1.092 2.417,-2.417c-0,-1.333 -1.084,-2.416 -2.417,-2.416c-1.325,-0 -2.404,1.083 -2.404,2.416c-0,1.325 1.079,2.417 2.404,2.417" style="fill:#1d1d1b;"/><path d="M410.81,136.327c1.334,0 2.417,-1.092 2.417,-2.417c0,-1.333 -1.083,-2.416 -2.417,-2.416c-1.325,-0 -2.416,1.083 -2.416,2.416c-0,1.325 1.091,2.417 2.416,2.417" style="fill:#1d1d1b;"/><path d="M392.146,136.327c1.325,0 2.408,-1.092 2.408,-2.417c0,-1.333 -1.083,-2.416 -2.408,-2.416c-1.333,-0 -2.417,1.083 -2.417,2.416c0,1.325 1.084,2.417 2.417,2.417" style="fill:#1d1d1b;"/><path d="M578.832,117.707c1.083,0 1.963,-0.879 1.963,-1.966c-0,-1.075 -0.88,-1.954 -1.963,-1.954c-1.083,-0 -1.967,0.879 -1.967,1.954c0,1.087 0.884,1.966 1.967,1.966" style="fill:#1d1d1b;"/><path d="M560.159,118.159c1.333,0 2.417,-1.083 2.417,-2.417c-0,-1.325 -1.084,-2.408 -2.417,-2.408c-1.325,0 -2.412,1.083 -2.412,2.408c-0,1.334 1.087,2.417 2.412,2.417" style="fill:#1d1d1b;"/><path d="M541.495,118.159c1.325,0 2.416,-1.083 2.416,-2.417c0,-1.325 -1.091,-2.408 -2.416,-2.408c-1.334,0 -2.417,1.083 -2.417,2.408c-0,1.334 1.083,2.417 2.417,2.417" style="fill:#1d1d1b;"/><path d="M522.822,118.159c1.333,0 2.417,-1.083 2.417,-2.417c-0,-1.325 -1.084,-2.408 -2.417,-2.408c-1.325,0 -2.408,1.083 -2.408,2.408c-0,1.334 1.083,2.417 2.408,2.417" style="fill:#1d1d1b;"/><path d="M504.153,118.159c1.325,0 2.417,-1.083 2.417,-2.417c0,-1.325 -1.092,-2.408 -2.417,-2.408c-1.325,0 -2.412,1.083 -2.412,2.408c-0,1.334 1.087,2.417 2.412,2.417" style="fill:#1d1d1b;"/><path d="M485.489,118.159c1.325,0 2.408,-1.083 2.408,-2.417c0,-1.325 -1.083,-2.408 -2.408,-2.408c-1.334,0 -2.417,1.083 -2.417,2.408c0,1.334 1.083,2.417 2.417,2.417" style="fill:#1d1d1b;"/><path d="M466.816,118.159c1.334,0 2.417,-1.083 2.417,-2.417c-0,-1.325 -1.083,-2.408 -2.417,-2.408c-1.325,0 -2.416,1.083 -2.416,2.408c-0,1.334 1.091,2.417 2.416,2.417" style="fill:#1d1d1b;"/><path d="M448.152,118.159c1.325,0 2.412,-1.083 2.412,-2.417c0,-1.325 -1.087,-2.408 -2.412,-2.408c-1.334,0 -2.417,1.083 -2.417,2.408c-0,1.334 1.083,2.417 2.417,2.417" style="fill:#1d1d1b;"/><path d="M429.475,118.159c1.333,0 2.417,-1.083 2.417,-2.417c-0,-1.325 -1.084,-2.408 -2.417,-2.408c-1.325,0 -2.404,1.083 -2.404,2.408c-0,1.334 1.079,2.417 2.404,2.417" style="fill:#1d1d1b;"/><path d="M410.81,118.159c1.334,0 2.417,-1.083 2.417,-2.417c0,-1.325 -1.083,-2.408 -2.417,-2.408c-1.325,0 -2.416,1.083 -2.416,2.408c-0,1.334 1.091,2.417 2.416,2.417" style="fill:#1d1d1b;"/><path d="M578.836,99.999c1.325,0 2.404,-1.092 2.404,-2.417c0,-1.325 -1.079,-2.416 -2.404,-2.416c-1.333,-0 -2.417,1.091 -2.417,2.416c0,1.325 1.084,2.417 2.417,2.417" style="fill:#1d1d1b;"/><path d="M560.159,100.198c1.446,0 2.617,-1.179 2.617,-2.616c-0,-1.438 -1.171,-2.617 -2.617,-2.617c-1.437,0 -2.617,1.179 -2.617,2.617c0,1.437 1.18,2.616 2.617,2.616" style="fill:#1d1d1b;"/><path d="M541.495,100.524c1.616,0 2.941,-1.325 2.941,-2.941c0,-1.617 -1.325,-2.942 -2.941,-2.942c-1.625,-0 -2.942,1.325 -2.942,2.942c-0,1.616 1.317,2.941 2.942,2.941" style="fill:#1d1d1b;"/><path d="M522.822,100.203c1.446,-0 2.621,-1.18 2.621,-2.621c-0,-1.438 -1.175,-2.621 -2.621,-2.621c-1.442,-0 -2.612,1.183 -2.612,2.621c-0,1.441 1.17,2.621 2.612,2.621" style="fill:#1d1d1b;"/><path d="M504.153,99.999c1.325,0 2.417,-1.092 2.417,-2.417c0,-1.325 -1.092,-2.416 -2.417,-2.416c-1.325,-0 -2.412,1.091 -2.412,2.416c-0,1.325 1.087,2.417 2.412,2.417" style="fill:#1d1d1b;"/><path d="M485.489,99.999c1.325,0 2.408,-1.092 2.408,-2.417c0,-1.325 -1.083,-2.416 -2.408,-2.416c-1.334,-0 -2.417,1.091 -2.417,2.416c0,1.325 1.083,2.417 2.417,2.417" style="fill:#1d1d1b;"/><path d="M466.816,99.543c1.084,0 1.963,-0.883 1.963,-1.962c-0,-1.075 -0.879,-1.959 -1.963,-1.959c-1.079,0 -1.962,0.884 -1.962,1.959c-0,1.079 0.883,1.962 1.962,1.962" style="fill:#1d1d1b;"/><path d="M616.165,81.379c1.087,0 1.967,-0.879 1.967,-1.967c-0,-1.075 -0.88,-1.954 -1.967,-1.954c-1.079,0 -1.958,0.879 -1.958,1.954c-0,1.088 0.879,1.967 1.958,1.967" style="fill:#1d1d1b;"/><path d="M597.5,81.831c1.325,-0 2.417,-1.084 2.417,-2.417c0,-1.325 -1.092,-2.408 -2.417,-2.408c-1.325,-0 -2.416,1.083 -2.416,2.408c-0,1.333 1.091,2.417 2.416,2.417" style="fill:#1d1d1b;"/><path d="M578.836,81.831c1.325,-0 2.404,-1.084 2.404,-2.417c0,-1.325 -1.079,-2.408 -2.404,-2.408c-1.333,-0 -2.417,1.083 -2.417,2.408c0,1.333 1.084,2.417 2.417,2.417" style="fill:#1d1d1b;"/><path d="M560.159,82.03c1.446,0 2.617,-1.17 2.617,-2.616c-0,-1.438 -1.171,-2.609 -2.617,-2.609c-1.437,0 -2.617,1.171 -2.617,2.609c0,1.446 1.18,2.616 2.617,2.616" style="fill:#1d1d1b;"/><path d="M541.495,82.356c1.616,-0 2.941,-1.317 2.941,-2.942c0,-1.617 -1.325,-2.933 -2.941,-2.933c-1.625,-0 -2.942,1.316 -2.942,2.933c-0,1.625 1.317,2.942 2.942,2.942" style="fill:#1d1d1b;"/><path d="M522.822,82.035c1.446,-0 2.621,-1.171 2.621,-2.621c-0,-1.442 -1.175,-2.613 -2.621,-2.613c-1.442,0 -2.612,1.171 -2.612,2.613c-0,1.45 1.17,2.621 2.612,2.621" style="fill:#1d1d1b;"/><path d="M504.153,81.831c1.325,-0 2.417,-1.084 2.417,-2.417c0,-1.325 -1.092,-2.408 -2.417,-2.408c-1.325,-0 -2.412,1.083 -2.412,2.408c-0,1.333 1.087,2.417 2.412,2.417" style="fill:#1d1d1b;"/><path d="M485.489,81.379c1.079,0 1.958,-0.879 1.958,-1.967c0,-1.075 -0.879,-1.954 -1.958,-1.954c-1.088,0 -1.967,0.879 -1.967,1.954c0,1.088 0.879,1.967 1.967,1.967" style="fill:#1d1d1b;"/><path d="M597.5,63.215c1.08,0 1.963,-0.883 1.963,-1.962c-0,-1.075 -0.883,-1.958 -1.963,-1.958c-1.079,-0 -1.962,0.883 -1.962,1.958c-0,1.079 0.883,1.962 1.962,1.962" style="fill:#1d1d1b;"/><path d="M578.836,63.671c1.325,-0 2.404,-1.092 2.404,-2.417c0,-1.325 -1.079,-2.417 -2.404,-2.417c-1.333,0 -2.417,1.092 -2.417,2.417c0,1.325 1.084,2.417 2.417,2.417" style="fill:#1d1d1b;"/><path d="M560.159,63.671c1.333,-0 2.417,-1.092 2.417,-2.417c-0,-1.325 -1.084,-2.417 -2.417,-2.417c-1.325,0 -2.412,1.092 -2.412,2.417c-0,1.325 1.087,2.417 2.412,2.417" style="fill:#1d1d1b;"/><path d="M541.495,63.671c1.325,-0 2.416,-1.092 2.416,-2.417c0,-1.325 -1.091,-2.417 -2.416,-2.417c-1.334,0 -2.417,1.092 -2.417,2.417c-0,1.325 1.083,2.417 2.417,2.417" style="fill:#1d1d1b;"/><path d="M522.822,63.671c1.333,-0 2.417,-1.092 2.417,-2.417c-0,-1.325 -1.084,-2.417 -2.417,-2.417c-1.325,0 -2.408,1.092 -2.408,2.417c-0,1.325 1.083,2.417 2.408,2.417" style="fill:#1d1d1b;"/><path d="M504.153,63.671c1.325,-0 2.417,-1.092 2.417,-2.417c0,-1.325 -1.092,-2.417 -2.417,-2.417c-1.325,0 -2.412,1.092 -2.412,2.417c-0,1.325 1.087,2.417 2.412,2.417" style="fill:#1d1d1b;"/><path d="M578.832,45.051c1.083,0 1.963,-0.879 1.963,-1.958c-0,-1.083 -0.88,-1.963 -1.963,-1.963c-1.083,0 -1.967,0.88 -1.967,1.963c0,1.079 0.884,1.958 1.967,1.958" style="fill:#1d1d1b;"/><path d="M560.159,45.503c1.333,-0 2.417,-1.083 2.417,-2.408c-0,-1.334 -1.084,-2.417 -2.417,-2.417c-1.325,-0 -2.412,1.083 -2.412,2.417c-0,1.325 1.087,2.408 2.412,2.408" style="fill:#1d1d1b;"/><path d="M541.495,45.051c1.079,0 1.966,-0.879 1.966,-1.958c0,-1.083 -0.887,-1.963 -1.966,-1.963c-1.088,0 -1.967,0.88 -1.967,1.963c-0,1.079 0.879,1.958 1.967,1.958" style="fill:#1d1d1b;"/><path d="M522.822,45.051c1.088,0 1.967,-0.879 1.967,-1.958c-0,-1.083 -0.879,-1.963 -1.967,-1.963c-1.079,0 -1.958,0.88 -1.958,1.963c-0,1.079 0.879,1.958 1.958,1.958" style="fill:#1d1d1b;"/><path d="M476.402,235.774c1.088,-0 1.967,-0.879 1.967,-1.959c0,-1.083 -0.879,-1.962 -1.967,-1.962c-1.079,-0 -1.958,0.879 -1.958,1.962c0,1.08 0.879,1.959 1.958,1.959" style="fill:#1d1d1b;"/><path d="M457.734,236.225c1.325,0 2.417,-1.083 2.417,-2.408c-0,-1.333 -1.092,-2.417 -2.417,-2.417c-1.325,0 -2.412,1.084 -2.412,2.417c-0,1.325 1.087,2.408 2.412,2.408" style="fill:#1d1d1b;"/><path d="M439.07,236.225c1.325,0 2.408,-1.083 2.408,-2.408c-0,-1.333 -1.083,-2.417 -2.408,-2.417c-1.334,0 -2.417,1.084 -2.417,2.417c-0,1.325 1.083,2.408 2.417,2.408" style="fill:#1d1d1b;"/><path d="M420.397,236.225c1.333,0 2.416,-1.083 2.416,-2.408c0,-1.333 -1.083,-2.417 -2.416,-2.417c-1.325,0 -2.417,1.084 -2.417,2.417c-0,1.325 1.092,2.408 2.417,2.408" style="fill:#1d1d1b;"/><path d="M401.732,235.77c1.075,-0 1.963,-0.875 1.963,-1.955c-0,-1.083 -0.888,-1.958 -1.963,-1.958c-1.087,0 -1.967,0.875 -1.967,1.958c0,1.08 0.88,1.955 1.967,1.955" style="fill:#1d1d1b;"/><path d="M495.075,218.065c1.325,0 2.417,-1.083 2.417,-2.416c0,-1.325 -1.092,-2.417 -2.417,-2.417c-1.333,0 -2.416,1.092 -2.416,2.417c-0,1.333 1.083,2.416 2.416,2.416" style="fill:#1d1d1b;"/><path d="M476.402,218.065c1.334,0 2.413,-1.083 2.413,-2.416c-0,-1.325 -1.079,-2.417 -2.413,-2.417c-1.325,0 -2.408,1.092 -2.408,2.417c0,1.333 1.083,2.416 2.408,2.416" style="fill:#1d1d1b;"/><path d="M457.734,218.065c1.325,0 2.417,-1.083 2.417,-2.416c-0,-1.325 -1.092,-2.417 -2.417,-2.417c-1.325,0 -2.412,1.092 -2.412,2.417c-0,1.333 1.087,2.416 2.412,2.416" style="fill:#1d1d1b;"/><path d="M439.07,218.065c1.325,0 2.408,-1.083 2.408,-2.416c-0,-1.325 -1.083,-2.417 -2.408,-2.417c-1.334,0 -2.417,1.092 -2.417,2.417c-0,1.333 1.083,2.416 2.417,2.416" style="fill:#1d1d1b;"/><path d="M420.397,218.065c1.333,0 2.416,-1.083 2.416,-2.416c0,-1.325 -1.083,-2.417 -2.416,-2.417c-1.325,0 -2.417,1.092 -2.417,2.417c-0,1.333 1.092,2.416 2.417,2.416" style="fill:#1d1d1b;"/><path d="M401.732,218.065c1.325,0 2.413,-1.083 2.413,-2.416c-0,-1.325 -1.088,-2.417 -2.413,-2.417c-1.333,0 -2.417,1.092 -2.417,2.417c0,1.333 1.084,2.416 2.417,2.416" style="fill:#1d1d1b;"/><path d="M383.055,217.614c1.088,-0 1.967,-0.879 1.967,-1.967c0,-1.075 -0.879,-1.962 -1.967,-1.962c-1.079,-0 -1.958,0.887 -1.958,1.962c0,1.088 0.879,1.967 1.958,1.967" style="fill:#1d1d1b;"/><path d="M513.74,199.442c1.083,-0 1.962,-0.88 1.962,-1.955c0,-1.083 -0.879,-1.958 -1.962,-1.958c-1.075,0 -1.962,0.875 -1.962,1.958c-0,1.075 0.887,1.955 1.962,1.955" style="fill:#1d1d1b;"/><path d="M495.075,199.897c1.325,0 2.417,-1.083 2.417,-2.408c0,-1.333 -1.092,-2.417 -2.417,-2.417c-1.333,0 -2.416,1.084 -2.416,2.417c-0,1.325 1.083,2.408 2.416,2.408" style="fill:#1d1d1b;"/><path d="M476.402,200.101c1.446,-0 2.617,-1.171 2.617,-2.613c0,-1.45 -1.171,-2.621 -2.617,-2.621c-1.441,0 -2.612,1.171 -2.612,2.621c-0,1.442 1.171,2.613 2.612,2.613" style="fill:#1d1d1b;"/><path d="M457.734,200.422c1.617,0 2.946,-1.317 2.946,-2.933c-0,-1.625 -1.329,-2.942 -2.946,-2.942c-1.617,0 -2.942,1.317 -2.942,2.942c0,1.616 1.325,2.933 2.942,2.933" style="fill:#1d1d1b;"/><path d="M439.07,200.426c1.62,0 2.937,-1.316 2.937,-2.937c0,-1.629 -1.317,-2.946 -2.937,-2.946c-1.63,-0 -2.946,1.317 -2.946,2.946c-0,1.621 1.316,2.937 2.946,2.937" style="fill:#1d1d1b;"/><path d="M420.397,200.097c1.445,-0 2.616,-1.171 2.616,-2.609c0,-1.446 -1.171,-2.616 -2.616,-2.616c-1.438,-0 -2.617,1.17 -2.617,2.616c0,1.438 1.179,2.609 2.617,2.609" style="fill:#1d1d1b;"/><path d="M401.732,199.897c1.325,0 2.413,-1.083 2.413,-2.408c-0,-1.333 -1.088,-2.417 -2.413,-2.417c-1.333,0 -2.417,1.084 -2.417,2.417c0,1.325 1.084,2.408 2.417,2.408" style="fill:#1d1d1b;"/><path d="M383.055,199.897c1.334,0 2.417,-1.083 2.417,-2.408c0,-1.333 -1.083,-2.417 -2.417,-2.417c-1.325,0 -2.408,1.084 -2.408,2.417c0,1.325 1.083,2.408 2.408,2.408" style="fill:#1d1d1b;"/><path d="M513.74,181.737c1.333,0 2.417,-1.083 2.417,-2.416c-0,-1.325 -1.084,-2.417 -2.417,-2.417c-1.325,0 -2.417,1.092 -2.417,2.417c0,1.333 1.092,2.416 2.417,2.416" style="fill:#1d1d1b;"/><path d="M532.412,181.412c1.084,-0 1.967,-0.888 1.967,-1.967c0,-1.083 -0.883,-1.963 -1.967,-1.963c-1.083,0 -1.962,0.88 -1.962,1.963c-0,1.079 0.879,1.967 1.962,1.967" style="fill:#1d1d1b;"/><path d="M523.33,190.36c1.084,-0 1.963,-0.88 1.963,-1.963c-0,-1.075 -0.879,-1.958 -1.963,-1.958c-1.079,-0 -1.962,0.883 -1.962,1.958c-0,1.083 0.883,1.963 1.962,1.963" style="fill:#1d1d1b;"/><path d="M495.075,181.737c1.325,0 2.417,-1.083 2.417,-2.416c0,-1.325 -1.092,-2.417 -2.417,-2.417c-1.333,0 -2.416,1.092 -2.416,2.417c-0,1.333 1.083,2.416 2.416,2.416" style="fill:#1d1d1b;"/><path d="M476.402,181.941c1.446,-0 2.617,-1.171 2.617,-2.621c0,-1.442 -1.171,-2.621 -2.617,-2.621c-1.441,0 -2.612,1.179 -2.612,2.621c-0,1.45 1.171,2.621 2.612,2.621" style="fill:#1d1d1b;"/><path d="M457.734,182.262c1.617,0 2.946,-1.317 2.946,-2.942c-0,-1.616 -1.329,-2.941 -2.946,-2.941c-1.617,-0 -2.942,1.325 -2.942,2.941c0,1.625 1.325,2.942 2.942,2.942" style="fill:#1d1d1b;"/><path d="M439.07,182.266c1.62,0 2.937,-1.316 2.937,-2.946c0,-1.62 -1.317,-2.945 -2.937,-2.945c-1.63,-0 -2.946,1.325 -2.946,2.945c-0,1.63 1.316,2.946 2.946,2.946" style="fill:#1d1d1b;"/><path d="M420.397,181.937c1.445,-0 2.616,-1.171 2.616,-2.617c0,-1.437 -1.171,-2.617 -2.616,-2.617c-1.438,0 -2.617,1.18 -2.617,2.617c0,1.446 1.179,2.617 2.617,2.617" style="fill:#1d1d1b;"/><path d="M401.732,181.737c1.325,0 2.413,-1.083 2.413,-2.416c-0,-1.325 -1.088,-2.417 -2.413,-2.417c-1.333,0 -2.417,1.092 -2.417,2.417c0,1.333 1.084,2.416 2.417,2.416" style="fill:#1d1d1b;"/><path d="M383.055,181.737c1.334,0 2.417,-1.083 2.417,-2.416c0,-1.325 -1.083,-2.417 -2.417,-2.417c-1.325,0 -2.408,1.092 -2.408,2.417c0,1.333 1.083,2.416 2.408,2.416" style="fill:#1d1d1b;"/><path d="M532.412,163.569c1.325,0 2.409,-1.083 2.409,-2.408c-0,-1.334 -1.084,-2.417 -2.409,-2.417c-1.329,0 -2.412,1.083 -2.412,2.417c-0,1.325 1.083,2.408 2.412,2.408" style="fill:#1d1d1b;"/><path d="M513.74,163.569c1.333,0 2.417,-1.083 2.417,-2.408c-0,-1.334 -1.084,-2.417 -2.417,-2.417c-1.325,0 -2.417,1.083 -2.417,2.417c0,1.325 1.092,2.408 2.417,2.408" style="fill:#1d1d1b;"/><path d="M495.075,163.569c1.325,0 2.417,-1.083 2.417,-2.408c0,-1.334 -1.092,-2.417 -2.417,-2.417c-1.333,0 -2.416,1.083 -2.416,2.417c-0,1.325 1.083,2.408 2.416,2.408" style="fill:#1d1d1b;"/><path d="M476.402,163.772c1.446,0 2.617,-1.175 2.617,-2.612c0,-1.45 -1.171,-2.621 -2.617,-2.621c-1.441,0 -2.612,1.171 -2.612,2.621c-0,1.437 1.171,2.612 2.612,2.612" style="fill:#1d1d1b;"/><path d="M457.734,164.094c1.617,0 2.946,-1.317 2.946,-2.933c-0,-1.625 -1.329,-2.942 -2.946,-2.942c-1.617,0 -2.942,1.317 -2.942,2.942c0,1.616 1.325,2.933 2.942,2.933" style="fill:#1d1d1b;"/><path d="M439.07,164.098c1.62,0 2.937,-1.316 2.937,-2.937c0,-1.629 -1.317,-2.946 -2.937,-2.946c-1.63,0 -2.946,1.317 -2.946,2.946c-0,1.621 1.316,2.937 2.946,2.937" style="fill:#1d1d1b;"/><path d="M420.397,163.769c1.445,-0 2.616,-1.171 2.616,-2.609c0,-1.445 -1.171,-2.616 -2.616,-2.616c-1.438,-0 -2.617,1.171 -2.617,2.616c0,1.438 1.179,2.609 2.617,2.609" style="fill:#1d1d1b;"/><path d="M401.732,163.569c1.325,0 2.413,-1.083 2.413,-2.408c-0,-1.334 -1.088,-2.417 -2.413,-2.417c-1.333,0 -2.417,1.083 -2.417,2.417c0,1.325 1.084,2.408 2.417,2.408" style="fill:#1d1d1b;"/><path d="M383.055,163.569c1.334,0 2.417,-1.083 2.417,-2.408c0,-1.334 -1.083,-2.417 -2.417,-2.417c-1.325,0 -2.408,1.083 -2.408,2.417c0,1.325 1.083,2.408 2.408,2.408" style="fill:#1d1d1b;"/><path d="M551.081,144.953c1.075,0 1.963,-0.879 1.963,-1.962c-0,-1.075 -0.888,-1.958 -1.963,-1.958c-1.087,-0 -1.962,0.883 -1.962,1.958c-0,1.083 0.875,1.962 1.962,1.962" style="fill:#1d1d1b;"/><path d="M532.412,145.409c1.325,0 2.409,-1.083 2.409,-2.417c-0,-1.325 -1.084,-2.416 -2.409,-2.416c-1.329,-0 -2.412,1.091 -2.412,2.416c-0,1.334 1.083,2.417 2.412,2.417" style="fill:#1d1d1b;"/><path d="M513.74,145.409c1.333,0 2.417,-1.083 2.417,-2.417c-0,-1.325 -1.084,-2.416 -2.417,-2.416c-1.325,-0 -2.417,1.091 -2.417,2.416c0,1.334 1.092,2.417 2.417,2.417" style="fill:#1d1d1b;"/><path d="M495.075,145.409c1.325,0 2.417,-1.083 2.417,-2.417c0,-1.325 -1.092,-2.416 -2.417,-2.416c-1.333,-0 -2.416,1.091 -2.416,2.416c-0,1.334 1.083,2.417 2.416,2.417" style="fill:#1d1d1b;"/><path d="M476.402,145.409c1.334,0 2.413,-1.083 2.413,-2.417c-0,-1.325 -1.079,-2.416 -2.413,-2.416c-1.325,-0 -2.408,1.091 -2.408,2.416c0,1.334 1.083,2.417 2.408,2.417" style="fill:#1d1d1b;"/><path d="M457.734,145.409c1.325,0 2.417,-1.083 2.417,-2.417c-0,-1.325 -1.092,-2.416 -2.417,-2.416c-1.325,-0 -2.412,1.091 -2.412,2.416c-0,1.334 1.087,2.417 2.412,2.417" style="fill:#1d1d1b;"/><path d="M439.07,145.409c1.325,0 2.408,-1.083 2.408,-2.417c-0,-1.325 -1.083,-2.416 -2.408,-2.416c-1.334,-0 -2.417,1.091 -2.417,2.416c-0,1.334 1.083,2.417 2.417,2.417" style="fill:#1d1d1b;"/><path d="M420.397,145.409c1.333,0 2.416,-1.083 2.416,-2.417c0,-1.325 -1.083,-2.416 -2.416,-2.416c-1.325,-0 -2.417,1.091 -2.417,2.416c-0,1.334 1.092,2.417 2.417,2.417" style="fill:#1d1d1b;"/><path d="M401.732,145.409c1.325,0 2.413,-1.083 2.413,-2.417c-0,-1.325 -1.088,-2.416 -2.413,-2.416c-1.333,-0 -2.417,1.091 -2.417,2.416c0,1.334 1.084,2.417 2.417,2.417" style="fill:#1d1d1b;"/><path d="M383.055,144.953c1.088,0 1.967,-0.879 1.967,-1.962c0,-1.075 -0.879,-1.958 -1.967,-1.958c-1.075,-0 -1.954,0.883 -1.954,1.958c0,1.083 0.879,1.962 1.954,1.962" style="fill:#1d1d1b;"/><path d="M569.746,127.237c1.333,0 2.416,-1.079 2.416,-2.404c0,-1.333 -1.083,-2.417 -2.416,-2.417c-1.325,0 -2.417,1.084 -2.417,2.417c0,1.325 1.092,2.404 2.417,2.404" style="fill:#1d1d1b;"/><path d="M551.081,127.237c1.325,0 2.417,-1.079 2.417,-2.404c-0,-1.333 -1.092,-2.417 -2.417,-2.417c-1.333,0 -2.416,1.084 -2.416,2.417c-0,1.325 1.083,2.404 2.416,2.404" style="fill:#1d1d1b;"/><path d="M532.412,127.237c1.325,0 2.409,-1.079 2.409,-2.404c-0,-1.333 -1.084,-2.417 -2.409,-2.417c-1.329,0 -2.412,1.084 -2.412,2.417c-0,1.325 1.083,2.404 2.412,2.404" style="fill:#1d1d1b;"/><path d="M513.74,127.237c1.333,0 2.417,-1.079 2.417,-2.404c-0,-1.333 -1.084,-2.417 -2.417,-2.417c-1.325,0 -2.417,1.084 -2.417,2.417c0,1.325 1.092,2.404 2.417,2.404" style="fill:#1d1d1b;"/><path d="M495.075,127.237c1.325,0 2.417,-1.079 2.417,-2.404c0,-1.333 -1.092,-2.417 -2.417,-2.417c-1.333,0 -2.416,1.084 -2.416,2.417c-0,1.325 1.083,2.404 2.416,2.404" style="fill:#1d1d1b;"/><path d="M476.402,127.237c1.334,0 2.413,-1.079 2.413,-2.404c-0,-1.333 -1.079,-2.417 -2.413,-2.417c-1.325,0 -2.408,1.084 -2.408,2.417c0,1.325 1.083,2.404 2.408,2.404" style="fill:#1d1d1b;"/><path d="M457.734,127.237c1.325,0 2.417,-1.079 2.417,-2.404c-0,-1.333 -1.092,-2.417 -2.417,-2.417c-1.325,0 -2.412,1.084 -2.412,2.417c-0,1.325 1.087,2.404 2.412,2.404" style="fill:#1d1d1b;"/><path d="M439.07,127.237c1.325,0 2.408,-1.079 2.408,-2.404c-0,-1.333 -1.083,-2.417 -2.408,-2.417c-1.334,0 -2.417,1.084 -2.417,2.417c-0,1.325 1.083,2.404 2.417,2.404" style="fill:#1d1d1b;"/><path d="M420.397,127.237c1.333,0 2.416,-1.079 2.416,-2.404c0,-1.333 -1.083,-2.417 -2.416,-2.417c-1.325,0 -2.417,1.084 -2.417,2.417c-0,1.325 1.092,2.404 2.417,2.404" style="fill:#1d1d1b;"/><path d="M401.732,127.237c1.325,0 2.413,-1.079 2.413,-2.404c-0,-1.333 -1.088,-2.417 -2.413,-2.417c-1.333,0 -2.417,1.084 -2.417,2.417c0,1.325 1.084,2.404 2.417,2.404" style="fill:#1d1d1b;"/><path d="M588.418,108.63c1.079,-0 1.959,-0.884 1.959,-1.967c-0,-1.079 -0.88,-1.963 -1.959,-1.963c-1.087,0 -1.966,0.884 -1.966,1.963c-0,1.083 0.879,1.967 1.966,1.967" style="fill:#1d1d1b;"/><path d="M569.746,109.077c1.333,0 2.416,-1.079 2.416,-2.412c0,-1.325 -1.083,-2.417 -2.416,-2.417c-1.325,-0 -2.417,1.092 -2.417,2.417c0,1.333 1.092,2.412 2.417,2.412" style="fill:#1d1d1b;"/><path d="M551.081,109.276c1.438,0 2.617,-1.166 2.617,-2.612c-0,-1.438 -1.179,-2.617 -2.617,-2.617c-1.446,0 -2.616,1.179 -2.616,2.617c-0,1.446 1.17,2.612 2.616,2.612" style="fill:#1d1d1b;"/><path d="M532.417,109.28c1.437,0 2.608,-1.17 2.608,-2.616c-0,-1.442 -1.171,-2.621 -2.608,-2.621c-1.45,-0 -2.621,1.179 -2.621,2.621c-0,1.446 1.171,2.616 2.621,2.616" style="fill:#1d1d1b;"/><path d="M513.74,109.077c1.333,0 2.417,-1.079 2.417,-2.412c-0,-1.325 -1.084,-2.417 -2.417,-2.417c-1.325,-0 -2.417,1.092 -2.417,2.417c0,1.333 1.092,2.412 2.417,2.412" style="fill:#1d1d1b;"/><path d="M495.075,109.077c1.325,0 2.417,-1.079 2.417,-2.412c0,-1.325 -1.092,-2.417 -2.417,-2.417c-1.333,-0 -2.416,1.092 -2.416,2.417c-0,1.333 1.083,2.412 2.416,2.412" style="fill:#1d1d1b;"/><path d="M476.402,109.077c1.334,0 2.413,-1.079 2.413,-2.412c-0,-1.325 -1.079,-2.417 -2.413,-2.417c-1.325,-0 -2.408,1.092 -2.408,2.417c0,1.333 1.083,2.412 2.408,2.412" style="fill:#1d1d1b;"/><path d="M457.734,108.625c1.079,0 1.967,-0.879 1.967,-1.962c-0,-1.075 -0.888,-1.963 -1.967,-1.963c-1.075,0 -1.962,0.888 -1.962,1.963c-0,1.083 0.887,1.962 1.962,1.962" style="fill:#1d1d1b;"/><path d="M439.07,108.63c1.079,-0 1.958,-0.884 1.958,-1.967c-0,-1.079 -0.879,-1.963 -1.958,-1.963c-1.088,0 -1.967,0.884 -1.967,1.963c-0,1.083 0.879,1.967 1.967,1.967" style="fill:#1d1d1b;"/><path d="M420.397,108.625c1.083,0 1.962,-0.879 1.962,-1.962c0,-1.075 -0.879,-1.963 -1.962,-1.963c-1.079,0 -1.963,0.888 -1.963,1.963c0,1.083 0.884,1.962 1.963,1.962" style="fill:#1d1d1b;"/><path d="M588.418,90.917c1.325,0 2.409,-1.092 2.409,-2.417c-0,-1.329 -1.084,-2.412 -2.409,-2.412c-1.333,-0 -2.412,1.083 -2.412,2.412c-0,1.325 1.079,2.417 2.412,2.417" style="fill:#1d1d1b;"/><path d="M569.746,90.917c1.333,0 2.416,-1.092 2.416,-2.417c0,-1.329 -1.083,-2.412 -2.416,-2.412c-1.325,-0 -2.417,1.083 -2.417,2.412c0,1.325 1.092,2.417 2.417,2.417" style="fill:#1d1d1b;"/><path d="M551.081,91.446c1.617,-0 2.942,-1.325 2.942,-2.946c-0,-1.625 -1.325,-2.942 -2.942,-2.942c-1.629,0 -2.941,1.317 -2.941,2.942c-0,1.621 1.312,2.946 2.941,2.946" style="fill:#1d1d1b;"/><path d="M532.417,91.45c1.616,-0 2.937,-1.329 2.937,-2.95c0,-1.629 -1.321,-2.946 -2.937,-2.946c-1.63,0 -2.95,1.317 -2.95,2.946c-0,1.621 1.32,2.95 2.95,2.95" style="fill:#1d1d1b;"/><path d="M513.74,90.917c1.333,0 2.417,-1.092 2.417,-2.417c-0,-1.329 -1.084,-2.412 -2.417,-2.412c-1.325,-0 -2.417,1.083 -2.417,2.412c0,1.325 1.092,2.417 2.417,2.417" style="fill:#1d1d1b;"/><path d="M495.075,90.917c1.325,0 2.417,-1.092 2.417,-2.417c0,-1.329 -1.092,-2.412 -2.417,-2.412c-1.333,-0 -2.416,1.083 -2.416,2.412c-0,1.325 1.083,2.417 2.416,2.417" style="fill:#1d1d1b;"/><path d="M476.402,90.465c1.088,0 1.967,-0.883 1.967,-1.966c0,-1.079 -0.879,-1.959 -1.967,-1.959c-1.079,0 -1.958,0.88 -1.958,1.959c0,1.083 0.879,1.966 1.958,1.966" style="fill:#1d1d1b;"/><path d="M607.087,72.297c1.075,0 1.963,-0.879 1.963,-1.967c-0,-1.07 -0.888,-1.958 -1.963,-1.958c-1.079,0 -1.967,0.888 -1.967,1.958c0,1.088 0.888,1.967 1.967,1.967" style="fill:#1d1d1b;"/><path d="M625.275,90.49c1.088,0 1.967,-0.879 1.967,-1.967c0,-1.075 -0.879,-1.954 -1.967,-1.954c-1.079,0 -1.958,0.879 -1.958,1.954c0,1.088 0.879,1.967 1.958,1.967" style="fill:#1d1d1b;"/><path d="M606.578,90.453c1.079,0 1.963,-0.879 1.963,-1.962c-0,-1.075 -0.884,-1.95 -1.963,-1.95c-1.079,-0 -1.962,0.875 -1.962,1.95c-0,1.083 0.883,1.962 1.962,1.962" style="fill:#1d1d1b;"/><path d="M597.496,99.543c1.079,0 1.959,-0.883 1.959,-1.966c-0,-1.08 -0.88,-1.959 -1.959,-1.959c-1.087,0 -1.966,0.879 -1.966,1.959c-0,1.083 0.879,1.966 1.966,1.966" style="fill:#1d1d1b;"/><path d="M588.418,72.749c1.325,-0 2.409,-1.084 2.409,-2.417c-0,-1.325 -1.084,-2.412 -2.409,-2.412c-1.333,-0 -2.412,1.087 -2.412,2.412c-0,1.333 1.079,2.417 2.412,2.417" style="fill:#1d1d1b;"/><path d="M569.746,72.749c1.333,-0 2.416,-1.084 2.416,-2.417c0,-1.325 -1.083,-2.412 -2.416,-2.412c-1.325,-0 -2.417,1.087 -2.417,2.412c0,1.333 1.092,2.417 2.417,2.417" style="fill:#1d1d1b;"/><path d="M551.081,72.948c1.438,0 2.617,-1.171 2.617,-2.616c-0,-1.438 -1.179,-2.613 -2.617,-2.613c-1.446,0 -2.616,1.175 -2.616,2.613c-0,1.445 1.17,2.616 2.616,2.616" style="fill:#1d1d1b;"/><path d="M532.417,72.953c1.437,-0 2.608,-1.171 2.608,-2.621c-0,-1.438 -1.171,-2.617 -2.608,-2.617c-1.45,0 -2.621,1.179 -2.621,2.617c-0,1.45 1.171,2.621 2.621,2.621" style="fill:#1d1d1b;"/><path d="M513.74,72.749c1.333,-0 2.417,-1.084 2.417,-2.417c-0,-1.325 -1.084,-2.412 -2.417,-2.412c-1.325,-0 -2.417,1.087 -2.417,2.412c0,1.333 1.092,2.417 2.417,2.417" style="fill:#1d1d1b;"/><path d="M495.075,72.749c1.325,-0 2.417,-1.084 2.417,-2.417c0,-1.325 -1.092,-2.412 -2.417,-2.412c-1.333,-0 -2.416,1.087 -2.416,2.412c-0,1.333 1.083,2.417 2.416,2.417" style="fill:#1d1d1b;"/><path d="M588.418,54.137c1.079,0 1.959,-0.887 1.959,-1.967c-0,-1.079 -0.88,-1.962 -1.959,-1.962c-1.087,-0 -1.966,0.883 -1.966,1.962c-0,1.08 0.879,1.967 1.966,1.967" style="fill:#1d1d1b;"/><path d="M569.746,54.589c1.333,-0 2.416,-1.092 2.416,-2.417c0,-1.333 -1.083,-2.412 -2.416,-2.412c-1.325,-0 -2.417,1.079 -2.417,2.412c0,1.325 1.092,2.417 2.417,2.417" style="fill:#1d1d1b;"/><path d="M551.081,54.589c1.325,-0 2.417,-1.092 2.417,-2.417c-0,-1.333 -1.092,-2.412 -2.417,-2.412c-1.333,-0 -2.416,1.079 -2.416,2.412c-0,1.325 1.083,2.417 2.416,2.417" style="fill:#1d1d1b;"/><path d="M532.412,54.589c1.325,-0 2.409,-1.092 2.409,-2.417c-0,-1.333 -1.084,-2.412 -2.409,-2.412c-1.329,-0 -2.412,1.079 -2.412,2.412c-0,1.325 1.083,2.417 2.412,2.417" style="fill:#1d1d1b;"/><path d="M513.74,54.589c1.333,-0 2.417,-1.092 2.417,-2.417c-0,-1.333 -1.084,-2.412 -2.417,-2.412c-1.325,-0 -2.417,1.079 -2.417,2.412c0,1.325 1.092,2.417 2.417,2.417" style="fill:#1d1d1b;"/><path d="M551.081,35.965c1.075,-0 1.963,-0.875 1.963,-1.963c-0,-1.075 -0.888,-1.958 -1.963,-1.958c-1.087,0 -1.962,0.883 -1.962,1.958c-0,1.088 0.875,1.963 1.962,1.963" style="fill:#1d1d1b;"/></svg>